<?xml version="1.0" encoding="utf-8" standalone="no"?>
<!DOCTYPE svg PUBLIC "-//W3C//DTD SVG 1.1//EN"
  "http://www.w3.org/Graphics/SVG/1.1/DTD/svg11.dtd">
<!-- Created with matplotlib (https://matplotlib.org/) -->
<svg height="230.4pt" version="1.1" viewBox="0 0 230.4 230.4" width="230.4pt" xmlns="http://www.w3.org/2000/svg" xmlns:xlink="http://www.w3.org/1999/xlink">
 <defs>
  <style type="text/css">
*{stroke-linecap:butt;stroke-linejoin:round;}
  </style>
 </defs>
 <g id="figure_1">
  <g id="patch_1">
   <path d="M 0 230.4 
L 230.4 230.4 
L 230.4 0 
L 0 0 
z
" style="fill:#ffffff;"/>
  </g>
  <g id="axes_1">
   <g id="patch_2">
    <path clip-path="url(#pd855b64ef5)" d="M 42.421909 205.908 
L 42.421909 1.152 
L 220.300091 1.152 
L 220.300091 205.908 
z
" style="fill:#b3b3b3;stroke:#b3b3b3;stroke-linejoin:miter;"/>
   </g>
  </g>
  <g id="axes_2">
   <g id="patch_3">
    <path d="M 33.528 205.908 
L 50.094066 205.908 
L 50.094066 1.152 
L 33.528 1.152 
z
" style="fill:#ffffff;"/>
   </g>
   <g id="matplotlib.axis_1">
    <g id="xtick_1">
     <g id="line2d_1">
      <defs>
       <path d="M 0 0 
L 0 3.5 
" id="m059492975d" style="stroke:#262626;stroke-width:0.8;"/>
      </defs>
      <g>
       <use style="fill:#262626;stroke:#262626;stroke-width:0.8;" x="50.094066" xlink:href="#m059492975d" y="205.908"/>
      </g>
     </g>
     <g id="text_1">
      <!-- 0 -->
      <defs>
       <path d="M 31.78125 3.421875 
Q 39.265625 3.421875 42.96875 11.625 
Q 46.6875 19.828125 46.6875 36.375 
Q 46.6875 52.984375 42.96875 61.1875 
Q 39.265625 69.390625 31.78125 69.390625 
Q 24.3125 69.390625 20.59375 61.1875 
Q 16.890625 52.984375 16.890625 36.375 
Q 16.890625 19.828125 20.59375 11.625 
Q 24.3125 3.421875 31.78125 3.421875 
z
M 31.78125 -1.421875 
Q 19.921875 -1.421875 13.25 8.53125 
Q 6.59375 18.5 6.59375 36.375 
Q 6.59375 54.296875 13.25 64.25 
Q 19.921875 74.21875 31.78125 74.21875 
Q 43.703125 74.21875 50.34375 64.25 
Q 56.984375 54.296875 56.984375 36.375 
Q 56.984375 18.5 50.34375 8.53125 
Q 43.703125 -1.421875 31.78125 -1.421875 
z
" id="DejaVuSerif-48"/>
      </defs>
      <g style="fill:#262626;" transform="translate(47.549066 219.48675)scale(0.08 -0.08)">
       <use xlink:href="#DejaVuSerif-48"/>
      </g>
     </g>
    </g>
   </g>
   <g id="matplotlib.axis_2">
    <g id="ytick_1">
     <g id="line2d_2">
      <defs>
       <path d="M 0 0 
L -3.5 0 
" id="mec5caf99c3" style="stroke:#262626;stroke-width:0.8;"/>
      </defs>
      <g>
       <use style="fill:#262626;stroke:#262626;stroke-width:0.8;" x="33.528" xlink:href="#mec5caf99c3" y="196.600909"/>
      </g>
     </g>
     <g id="text_2">
      <!-- 0 -->
      <g style="fill:#262626;" transform="translate(20.938 199.640284)scale(0.08 -0.08)">
       <use xlink:href="#DejaVuSerif-48"/>
      </g>
     </g>
    </g>
    <g id="ytick_2">
     <g id="line2d_3">
      <g>
       <use style="fill:#262626;stroke:#262626;stroke-width:0.8;" x="33.528" xlink:href="#mec5caf99c3" y="173.333182"/>
      </g>
     </g>
     <g id="text_3">
      <!-- 20 -->
      <defs>
       <path d="M 12.796875 55.515625 
L 7.328125 55.515625 
L 7.328125 68.5 
Q 12.546875 71.296875 17.84375 72.75 
Q 23.140625 74.21875 28.21875 74.21875 
Q 39.59375 74.21875 46.1875 68.703125 
Q 52.78125 63.1875 52.78125 53.71875 
Q 52.78125 43.015625 37.84375 28.125 
Q 36.671875 27 36.078125 26.421875 
L 17.671875 8.015625 
L 48.09375 8.015625 
L 48.09375 17 
L 53.8125 17 
L 53.8125 0 
L 6.78125 0 
L 6.78125 5.328125 
L 28.90625 27.390625 
Q 36.234375 34.71875 39.359375 40.84375 
Q 42.484375 46.96875 42.484375 53.71875 
Q 42.484375 61.078125 38.640625 65.234375 
Q 34.8125 69.390625 28.078125 69.390625 
Q 21.09375 69.390625 17.28125 65.921875 
Q 13.484375 62.453125 12.796875 55.515625 
z
" id="DejaVuSerif-50"/>
      </defs>
      <g style="fill:#262626;" transform="translate(15.848 176.372557)scale(0.08 -0.08)">
       <use xlink:href="#DejaVuSerif-50"/>
       <use x="63.623047" xlink:href="#DejaVuSerif-48"/>
      </g>
     </g>
    </g>
    <g id="ytick_3">
     <g id="line2d_4">
      <g>
       <use style="fill:#262626;stroke:#262626;stroke-width:0.8;" x="33.528" xlink:href="#mec5caf99c3" y="150.065455"/>
      </g>
     </g>
     <g id="text_4">
      <!-- 40 -->
      <defs>
       <path d="M 34.90625 24.703125 
L 34.90625 63.484375 
L 10.015625 24.703125 
z
M 56.390625 0 
L 23.1875 0 
L 23.1875 5.171875 
L 34.90625 5.171875 
L 34.90625 19.484375 
L 3.078125 19.484375 
L 3.078125 24.8125 
L 35.015625 74.21875 
L 44.671875 74.21875 
L 44.671875 24.703125 
L 58.59375 24.703125 
L 58.59375 19.484375 
L 44.671875 19.484375 
L 44.671875 5.171875 
L 56.390625 5.171875 
z
" id="DejaVuSerif-52"/>
      </defs>
      <g style="fill:#262626;" transform="translate(15.848 153.10483)scale(0.08 -0.08)">
       <use xlink:href="#DejaVuSerif-52"/>
       <use x="63.623047" xlink:href="#DejaVuSerif-48"/>
      </g>
     </g>
    </g>
    <g id="ytick_4">
     <g id="line2d_5">
      <g>
       <use style="fill:#262626;stroke:#262626;stroke-width:0.8;" x="33.528" xlink:href="#mec5caf99c3" y="126.797727"/>
      </g>
     </g>
     <g id="text_5">
      <!-- 60 -->
      <defs>
       <path d="M 32.71875 3.421875 
Q 39.59375 3.421875 43.296875 8.46875 
Q 47.015625 13.53125 47.015625 23 
Q 47.015625 32.46875 43.296875 37.515625 
Q 39.59375 42.578125 32.71875 42.578125 
Q 25.734375 42.578125 22.0625 37.6875 
Q 18.40625 32.8125 18.40625 23.578125 
Q 18.40625 13.875 22.109375 8.640625 
Q 25.828125 3.421875 32.71875 3.421875 
z
M 16.796875 40.140625 
Q 20.125 43.796875 24.3125 45.59375 
Q 28.515625 47.40625 33.796875 47.40625 
Q 44.671875 47.40625 51 40.859375 
Q 57.328125 34.328125 57.328125 23 
Q 57.328125 11.921875 50.515625 5.25 
Q 43.703125 -1.421875 32.328125 -1.421875 
Q 19.96875 -1.421875 13.328125 7.78125 
Q 6.6875 17 6.6875 34.078125 
Q 6.6875 53.21875 14.546875 63.71875 
Q 22.40625 74.21875 36.71875 74.21875 
Q 40.578125 74.21875 44.828125 73.484375 
Q 49.078125 72.75 53.515625 71.296875 
L 53.515625 59.28125 
L 48 59.28125 
Q 47.40625 64.203125 44.234375 66.796875 
Q 41.0625 69.390625 35.6875 69.390625 
Q 26.21875 69.390625 21.578125 62.203125 
Q 16.9375 55.03125 16.796875 40.140625 
z
" id="DejaVuSerif-54"/>
      </defs>
      <g style="fill:#262626;" transform="translate(15.848 129.837102)scale(0.08 -0.08)">
       <use xlink:href="#DejaVuSerif-54"/>
       <use x="63.623047" xlink:href="#DejaVuSerif-48"/>
      </g>
     </g>
    </g>
    <g id="ytick_5">
     <g id="line2d_6">
      <g>
       <use style="fill:#262626;stroke:#262626;stroke-width:0.8;" x="33.528" xlink:href="#mec5caf99c3" y="103.53"/>
      </g>
     </g>
     <g id="text_6">
      <!-- 80 -->
      <defs>
       <path d="M 46.578125 19.921875 
Q 46.578125 27.734375 42.6875 32.046875 
Q 38.8125 36.375 31.78125 36.375 
Q 24.75 36.375 20.875 32.046875 
Q 17 27.734375 17 19.921875 
Q 17 12.0625 20.875 7.734375 
Q 24.75 3.421875 31.78125 3.421875 
Q 38.8125 3.421875 42.6875 7.734375 
Q 46.578125 12.0625 46.578125 19.921875 
z
M 44.578125 55.328125 
Q 44.578125 61.96875 41.203125 65.671875 
Q 37.84375 69.390625 31.78125 69.390625 
Q 25.78125 69.390625 22.390625 65.671875 
Q 19 61.96875 19 55.328125 
Q 19 48.640625 22.390625 44.921875 
Q 25.78125 41.21875 31.78125 41.21875 
Q 37.84375 41.21875 41.203125 44.921875 
Q 44.578125 48.640625 44.578125 55.328125 
z
M 39.3125 38.8125 
Q 47.609375 37.703125 52.25 32.6875 
Q 56.890625 27.6875 56.890625 19.921875 
Q 56.890625 9.671875 50.390625 4.125 
Q 43.890625 -1.421875 31.78125 -1.421875 
Q 19.734375 -1.421875 13.203125 4.125 
Q 6.6875 9.671875 6.6875 19.921875 
Q 6.6875 27.6875 11.328125 32.6875 
Q 15.96875 37.703125 24.3125 38.8125 
Q 16.9375 40.140625 13 44.40625 
Q 9.078125 48.6875 9.078125 55.328125 
Q 9.078125 64.109375 15.125 69.15625 
Q 21.1875 74.21875 31.78125 74.21875 
Q 42.390625 74.21875 48.4375 69.15625 
Q 54.5 64.109375 54.5 55.328125 
Q 54.5 48.6875 50.5625 44.40625 
Q 46.625 40.140625 39.3125 38.8125 
z
" id="DejaVuSerif-56"/>
      </defs>
      <g style="fill:#262626;" transform="translate(15.848 106.569375)scale(0.08 -0.08)">
       <use xlink:href="#DejaVuSerif-56"/>
       <use x="63.623047" xlink:href="#DejaVuSerif-48"/>
      </g>
     </g>
    </g>
    <g id="ytick_6">
     <g id="line2d_7">
      <g>
       <use style="fill:#262626;stroke:#262626;stroke-width:0.8;" x="33.528" xlink:href="#mec5caf99c3" y="80.262273"/>
      </g>
     </g>
     <g id="text_7">
      <!-- 100 -->
      <defs>
       <path d="M 14.203125 0 
L 14.203125 5.171875 
L 26.90625 5.171875 
L 26.90625 65.828125 
L 12.203125 56.296875 
L 12.203125 62.703125 
L 29.984375 74.21875 
L 36.71875 74.21875 
L 36.71875 5.171875 
L 49.421875 5.171875 
L 49.421875 0 
z
" id="DejaVuSerif-49"/>
      </defs>
      <g style="fill:#262626;" transform="translate(10.758 83.301648)scale(0.08 -0.08)">
       <use xlink:href="#DejaVuSerif-49"/>
       <use x="63.623047" xlink:href="#DejaVuSerif-48"/>
       <use x="127.246094" xlink:href="#DejaVuSerif-48"/>
      </g>
     </g>
    </g>
    <g id="ytick_7">
     <g id="line2d_8">
      <g>
       <use style="fill:#262626;stroke:#262626;stroke-width:0.8;" x="33.528" xlink:href="#mec5caf99c3" y="56.994545"/>
      </g>
     </g>
     <g id="text_8">
      <!-- 120 -->
      <g style="fill:#262626;" transform="translate(10.758 60.03392)scale(0.08 -0.08)">
       <use xlink:href="#DejaVuSerif-49"/>
       <use x="63.623047" xlink:href="#DejaVuSerif-50"/>
       <use x="127.246094" xlink:href="#DejaVuSerif-48"/>
      </g>
     </g>
    </g>
    <g id="ytick_8">
     <g id="line2d_9">
      <g>
       <use style="fill:#262626;stroke:#262626;stroke-width:0.8;" x="33.528" xlink:href="#mec5caf99c3" y="33.726818"/>
      </g>
     </g>
     <g id="text_9">
      <!-- 140 -->
      <g style="fill:#262626;" transform="translate(10.758 36.766193)scale(0.08 -0.08)">
       <use xlink:href="#DejaVuSerif-49"/>
       <use x="63.623047" xlink:href="#DejaVuSerif-52"/>
       <use x="127.246094" xlink:href="#DejaVuSerif-48"/>
      </g>
     </g>
    </g>
    <g id="ytick_9">
     <g id="line2d_10">
      <g>
       <use style="fill:#262626;stroke:#262626;stroke-width:0.8;" x="33.528" xlink:href="#mec5caf99c3" y="10.459091"/>
      </g>
     </g>
     <g id="text_10">
      <!-- 160 -->
      <g style="fill:#262626;" transform="translate(10.758 13.498466)scale(0.08 -0.08)">
       <use xlink:href="#DejaVuSerif-49"/>
       <use x="63.623047" xlink:href="#DejaVuSerif-54"/>
       <use x="127.246094" xlink:href="#DejaVuSerif-48"/>
      </g>
     </g>
    </g>
   </g>
   <g id="patch_4">
    <path clip-path="url(#pd34212d9fd)" d="M 50.094066 205.908 
L 50.094066 1.152 
L 211.406182 1.152 
L 211.406182 205.908 
z
" style="fill:#ffdd55;opacity:0.35;stroke:#ffdd55;stroke-linejoin:miter;"/>
   </g>
   <g id="PolyCollection_1">
    <defs>
     <path d="M 50.094066 -33.799091 
L 96.13352 -33.799091 
L 97.325658 -35.660509 
L 97.597936 -37.521927 
L 97.85324 -39.383345 
L 98.109979 -41.244764 
L 98.368391 -43.106182 
L 98.628477 -44.9676 
L 98.890475 -46.829018 
L 99.154146 -48.690436 
L 99.41973 -50.551855 
L 99.687226 -52.413273 
L 99.956635 -54.274691 
L 100.227956 -56.136109 
L 100.501189 -57.997527 
L 100.776574 -59.858945 
L 101.05411 -61.720364 
L 101.333797 -63.581782 
L 101.615397 -65.4432 
L 101.899388 -67.304618 
L 102.185769 -69.166036 
L 102.474301 -71.027455 
L 102.765224 -72.888873 
L 103.058777 -74.750291 
L 103.35472 -76.611709 
L 103.653292 -78.473127 
L 103.954494 -80.334545 
L 104.258326 -82.195964 
L 104.565265 -84.057382 
L 104.874834 -85.9188 
L 105.187272 -87.780218 
L 105.503056 -89.641636 
L 105.821947 -91.503055 
L 106.143947 -93.364473 
L 106.469293 -95.225891 
L 106.798225 -97.087309 
L 107.130981 -98.948727 
L 107.467084 -100.810145 
L 107.807251 -102.671564 
L 108.151482 -104.532982 
L 108.499777 -106.3944 
L 108.852375 -108.255818 
L 109.209275 -110.117236 
L 109.570957 -111.978655 
L 109.937658 -113.840073 
L 110.309141 -115.701491 
L 110.685883 -117.562909 
L 111.068361 -119.424327 
L 111.456338 -121.285745 
L 111.850292 -123.147164 
L 112.25046 -125.008582 
L 112.657083 -126.87 
L 113.070399 -128.731418 
L 113.491126 -130.592836 
L 113.919024 -132.454255 
L 114.35505 -134.315673 
L 114.799203 -136.177091 
L 115.251963 -138.038509 
L 115.713806 -139.899927 
L 116.185211 -141.761345 
L 116.666895 -143.622764 
L 117.159098 -145.484182 
L 117.662535 -147.3456 
L 118.177926 -149.207018 
L 118.705985 -151.068436 
L 119.247432 -152.929855 
L 119.803222 -154.791273 
L 120.374071 -156.652691 
L 120.961176 -158.514109 
L 121.565254 -160.375527 
L 122.187977 -162.236945 
L 122.830302 -164.098364 
L 123.493664 -165.959782 
L 124.179974 -167.8212 
L 124.890668 -169.682618 
L 125.628135 -171.544036 
L 126.394049 -173.405455 
L 127.191517 -175.266873 
L 128.02293 -177.128291 
L 128.891875 -178.989709 
L 129.801696 -180.851127 
L 130.756698 -182.712545 
L 131.7619 -184.573964 
L 132.82304 -186.435382 
L 133.946571 -188.2968 
L 135.140861 -190.158218 
L 136.415472 -192.019636 
L 137.781638 -193.881055 
L 139.253943 -195.742473 
L 140.849836 -197.603891 
L 142.592027 -199.465309 
L 144.509202 -201.326727 
L 146.640087 -203.188145 
L 149.036317 -205.049564 
L 151.77104 -206.910982 
L 154.95183 -208.7724 
L 158.746498 -210.633818 
L 163.434493 -212.495236 
L 169.522839 -214.356655 
L 178.001677 -216.218073 
L 190.902448 -218.079491 
L 211.388731 -219.940909 
L 50.094066 -219.940909 
L 50.094066 -219.940909 
L 50.094066 -218.079491 
L 50.094066 -216.218073 
L 50.094066 -214.356655 
L 50.094066 -212.495236 
L 50.094066 -210.633818 
L 50.094066 -208.7724 
L 50.094066 -206.910982 
L 50.094066 -205.049564 
L 50.094066 -203.188145 
L 50.094066 -201.326727 
L 50.094066 -199.465309 
L 50.094066 -197.603891 
L 50.094066 -195.742473 
L 50.094066 -193.881055 
L 50.094066 -192.019636 
L 50.094066 -190.158218 
L 50.094066 -188.2968 
L 50.094066 -186.435382 
L 50.094066 -184.573964 
L 50.094066 -182.712545 
L 50.094066 -180.851127 
L 50.094066 -178.989709 
L 50.094066 -177.128291 
L 50.094066 -175.266873 
L 50.094066 -173.405455 
L 50.094066 -171.544036 
L 50.094066 -169.682618 
L 50.094066 -167.8212 
L 50.094066 -165.959782 
L 50.094066 -164.098364 
L 50.094066 -162.236945 
L 50.094066 -160.375527 
L 50.094066 -158.514109 
L 50.094066 -156.652691 
L 50.094066 -154.791273 
L 50.094066 -152.929855 
L 50.094066 -151.068436 
L 50.094066 -149.207018 
L 50.094066 -147.3456 
L 50.094066 -145.484182 
L 50.094066 -143.622764 
L 50.094066 -141.761345 
L 50.094066 -139.899927 
L 50.094066 -138.038509 
L 50.094066 -136.177091 
L 50.094066 -134.315673 
L 50.094066 -132.454255 
L 50.094066 -130.592836 
L 50.094066 -128.731418 
L 50.094066 -126.87 
L 50.094066 -125.008582 
L 50.094066 -123.147164 
L 50.094066 -121.285745 
L 50.094066 -119.424327 
L 50.094066 -117.562909 
L 50.094066 -115.701491 
L 50.094066 -113.840073 
L 50.094066 -111.978655 
L 50.094066 -110.117236 
L 50.094066 -108.255818 
L 50.094066 -106.3944 
L 50.094066 -104.532982 
L 50.094066 -102.671564 
L 50.094066 -100.810145 
L 50.094066 -98.948727 
L 50.094066 -97.087309 
L 50.094066 -95.225891 
L 50.094066 -93.364473 
L 50.094066 -91.503055 
L 50.094066 -89.641636 
L 50.094066 -87.780218 
L 50.094066 -85.9188 
L 50.094066 -84.057382 
L 50.094066 -82.195964 
L 50.094066 -80.334545 
L 50.094066 -78.473127 
L 50.094066 -76.611709 
L 50.094066 -74.750291 
L 50.094066 -72.888873 
L 50.094066 -71.027455 
L 50.094066 -69.166036 
L 50.094066 -67.304618 
L 50.094066 -65.4432 
L 50.094066 -63.581782 
L 50.094066 -61.720364 
L 50.094066 -59.858945 
L 50.094066 -57.997527 
L 50.094066 -56.136109 
L 50.094066 -54.274691 
L 50.094066 -52.413273 
L 50.094066 -50.551855 
L 50.094066 -48.690436 
L 50.094066 -46.829018 
L 50.094066 -44.9676 
L 50.094066 -43.106182 
L 50.094066 -41.244764 
L 50.094066 -39.383345 
L 50.094066 -37.521927 
L 50.094066 -35.660509 
L 50.094066 -33.799091 
z
" id="mb694ed7aae" style="stroke:#447821;"/>
    </defs>
    <g clip-path="url(#pd34212d9fd)">
     <use style="fill:#447821;stroke:#447821;" x="0" xlink:href="#mb694ed7aae" y="230.4"/>
    </g>
   </g>
   <g id="PolyCollection_2">
    <defs>
     <path d="M 50.094066 -33.799091 
L 47.703573 -33.799091 
L 47.703573 -35.660509 
L 47.703573 -37.521927 
L 47.703573 -39.383345 
L 47.703573 -41.244764 
L 47.703573 -43.106182 
L 47.703573 -44.9676 
L 47.703573 -46.829018 
L 47.703573 -48.690436 
L 47.703573 -50.551855 
L 47.703573 -52.413273 
L 47.703573 -54.274691 
L 47.703573 -56.136109 
L 47.703573 -57.997527 
L 47.703573 -59.858945 
L 47.703573 -61.720364 
L 47.703573 -63.581782 
L 47.703573 -65.4432 
L 47.703573 -67.304618 
L 47.703573 -69.166036 
L 47.703573 -71.027455 
L 47.703573 -72.888873 
L 47.703573 -74.750291 
L 47.703573 -76.611709 
L 47.703573 -78.473127 
L 47.703573 -80.334545 
L 47.703573 -82.195964 
L 47.703573 -84.057382 
L 47.703573 -85.9188 
L 47.703573 -87.780218 
L 47.703573 -89.641636 
L 47.703573 -91.503055 
L 47.703573 -93.364473 
L 47.703573 -95.225891 
L 47.703573 -97.087309 
L 47.703573 -98.948727 
L 47.703573 -100.810145 
L 47.703573 -102.671564 
L 47.703573 -104.532982 
L 47.703573 -106.3944 
L 47.703573 -108.255818 
L 47.703573 -110.117236 
L 47.703573 -111.978655 
L 47.703573 -113.840073 
L 47.703573 -115.701491 
L 47.703573 -117.562909 
L 47.703573 -119.424327 
L 47.703573 -121.285745 
L 47.703573 -123.147164 
L 47.703573 -125.008582 
L 47.703573 -126.87 
L 47.703573 -128.731418 
L 47.703573 -130.592836 
L 47.703573 -132.454255 
L 47.703573 -134.315673 
L 47.703573 -136.177091 
L 47.703573 -138.038509 
L 47.703573 -139.899927 
L 47.703573 -141.761345 
L 47.703573 -143.622764 
L 47.703573 -145.484182 
L 47.703573 -147.3456 
L 47.703573 -149.207018 
L 47.703573 -151.068436 
L 47.703573 -152.929855 
L 47.703573 -154.791273 
L 47.703573 -156.652691 
L 47.703573 -158.514109 
L 47.703573 -160.375527 
L 47.703573 -162.236945 
L 47.703573 -164.098364 
L 47.703573 -165.959782 
L 47.703573 -167.8212 
L 47.703573 -169.682618 
L 47.703573 -171.544036 
L 47.703573 -173.405455 
L 47.703573 -175.266873 
L 47.703573 -177.128291 
L 47.703573 -178.989709 
L 47.703573 -180.851127 
L 47.703573 -182.712545 
L 47.703573 -184.573964 
L 47.703573 -186.435382 
L 47.703573 -188.2968 
L 47.703573 -190.158218 
L 47.703573 -192.019636 
L 47.703573 -193.881055 
L 47.703573 -195.742473 
L 47.70355 -197.603891 
L 47.703502 -199.465309 
L 47.703406 -201.326727 
L 47.703071 -203.188145 
L 47.702115 -205.049564 
L 47.699342 -206.910982 
L 47.69131 -208.7724 
L 47.668146 -210.633818 
L 47.600639 -212.495236 
L 47.400818 -214.356655 
L 46.780676 -216.218073 
L 44.58422 -218.079491 
L 33.528 -219.940909 
L 50.094066 -219.940909 
L 50.094066 -219.940909 
L 50.094066 -218.079491 
L 50.094066 -216.218073 
L 50.094066 -214.356655 
L 50.094066 -212.495236 
L 50.094066 -210.633818 
L 50.094066 -208.7724 
L 50.094066 -206.910982 
L 50.094066 -205.049564 
L 50.094066 -203.188145 
L 50.094066 -201.326727 
L 50.094066 -199.465309 
L 50.094066 -197.603891 
L 50.094066 -195.742473 
L 50.094066 -193.881055 
L 50.094066 -192.019636 
L 50.094066 -190.158218 
L 50.094066 -188.2968 
L 50.094066 -186.435382 
L 50.094066 -184.573964 
L 50.094066 -182.712545 
L 50.094066 -180.851127 
L 50.094066 -178.989709 
L 50.094066 -177.128291 
L 50.094066 -175.266873 
L 50.094066 -173.405455 
L 50.094066 -171.544036 
L 50.094066 -169.682618 
L 50.094066 -167.8212 
L 50.094066 -165.959782 
L 50.094066 -164.098364 
L 50.094066 -162.236945 
L 50.094066 -160.375527 
L 50.094066 -158.514109 
L 50.094066 -156.652691 
L 50.094066 -154.791273 
L 50.094066 -152.929855 
L 50.094066 -151.068436 
L 50.094066 -149.207018 
L 50.094066 -147.3456 
L 50.094066 -145.484182 
L 50.094066 -143.622764 
L 50.094066 -141.761345 
L 50.094066 -139.899927 
L 50.094066 -138.038509 
L 50.094066 -136.177091 
L 50.094066 -134.315673 
L 50.094066 -132.454255 
L 50.094066 -130.592836 
L 50.094066 -128.731418 
L 50.094066 -126.87 
L 50.094066 -125.008582 
L 50.094066 -123.147164 
L 50.094066 -121.285745 
L 50.094066 -119.424327 
L 50.094066 -117.562909 
L 50.094066 -115.701491 
L 50.094066 -113.840073 
L 50.094066 -111.978655 
L 50.094066 -110.117236 
L 50.094066 -108.255818 
L 50.094066 -106.3944 
L 50.094066 -104.532982 
L 50.094066 -102.671564 
L 50.094066 -100.810145 
L 50.094066 -98.948727 
L 50.094066 -97.087309 
L 50.094066 -95.225891 
L 50.094066 -93.364473 
L 50.094066 -91.503055 
L 50.094066 -89.641636 
L 50.094066 -87.780218 
L 50.094066 -85.9188 
L 50.094066 -84.057382 
L 50.094066 -82.195964 
L 50.094066 -80.334545 
L 50.094066 -78.473127 
L 50.094066 -76.611709 
L 50.094066 -74.750291 
L 50.094066 -72.888873 
L 50.094066 -71.027455 
L 50.094066 -69.166036 
L 50.094066 -67.304618 
L 50.094066 -65.4432 
L 50.094066 -63.581782 
L 50.094066 -61.720364 
L 50.094066 -59.858945 
L 50.094066 -57.997527 
L 50.094066 -56.136109 
L 50.094066 -54.274691 
L 50.094066 -52.413273 
L 50.094066 -50.551855 
L 50.094066 -48.690436 
L 50.094066 -46.829018 
L 50.094066 -44.9676 
L 50.094066 -43.106182 
L 50.094066 -41.244764 
L 50.094066 -39.383345 
L 50.094066 -37.521927 
L 50.094066 -35.660509 
L 50.094066 -33.799091 
z
" id="mef5edacd6c" style="stroke:#447821;"/>
    </defs>
    <g clip-path="url(#pd34212d9fd)">
     <use style="fill:#447821;stroke:#447821;" x="0" xlink:href="#mef5edacd6c" y="230.4"/>
    </g>
   </g>
   <g id="line2d_11">
    <path d="M 47.650305 208.351761 
L 52.537827 203.464239 
" style="fill:none;stroke:#000000;stroke-linecap:round;stroke-width:0.8;"/>
   </g>
   <g id="patch_5">
    <path d="M 33.528 205.908 
L 33.528 1.152 
" style="fill:none;stroke:#262626;stroke-linecap:square;stroke-linejoin:miter;stroke-width:0.8;"/>
   </g>
   <g id="patch_6">
    <path d="M 33.528 205.908 
L 50.094066 205.908 
" style="fill:none;stroke:#262626;stroke-linecap:square;stroke-linejoin:miter;stroke-width:0.8;"/>
   </g>
   <g id="PolyCollection_3">
    <defs>
     <path d="M 50.094066 -33.799091 
L 51.489908 -33.799091 
L 52.135513 -35.660509 
L 52.380484 -37.521927 
L 52.467847 -39.383345 
L 52.498495 -41.244764 
L 52.509348 -43.106182 
L 52.513316 -44.9676 
L 52.514894 -46.829018 
L 52.515683 -48.690436 
L 52.516185 -50.551855 
L 52.516567 -52.413273 
L 52.51695 -54.274691 
L 52.517308 -56.136109 
L 52.517691 -57.997527 
L 52.51805 -59.858945 
L 52.518432 -61.720364 
L 52.518814 -63.581782 
L 52.519197 -65.4432 
L 52.519579 -67.304618 
L 52.519986 -69.166036 
L 52.520392 -71.027455 
L 52.520799 -72.888873 
L 52.521205 -74.750291 
L 52.521611 -76.611709 
L 52.522042 -78.473127 
L 52.522472 -80.334545 
L 52.522902 -82.195964 
L 52.523356 -84.057382 
L 52.523811 -85.9188 
L 52.524265 -87.780218 
L 52.524719 -89.641636 
L 52.525197 -91.503055 
L 52.525675 -93.364473 
L 52.526153 -95.225891 
L 52.526655 -97.087309 
L 52.527157 -98.948727 
L 52.527659 -100.810145 
L 52.528185 -102.671564 
L 52.528711 -104.532982 
L 52.529261 -106.3944 
L 52.529787 -108.255818 
L 52.530361 -110.117236 
L 52.530934 -111.978655 
L 52.531508 -113.840073 
L 52.532106 -115.701491 
L 52.532703 -117.562909 
L 52.533325 -119.424327 
L 52.533946 -121.285745 
L 52.534592 -123.147164 
L 52.535261 -125.008582 
L 52.53593 -126.87 
L 52.5366 -128.731418 
L 52.537317 -130.592836 
L 52.538034 -132.454255 
L 52.538775 -134.315673 
L 52.53954 -136.177091 
L 52.540305 -138.038509 
L 52.541118 -139.899927 
L 52.541931 -141.761345 
L 52.542791 -143.622764 
L 52.543652 -145.484182 
L 52.54456 -147.3456 
L 52.545468 -149.207018 
L 52.546425 -151.068436 
L 52.547429 -152.929855 
L 52.548433 -154.791273 
L 52.549508 -156.652691 
L 52.550584 -158.514109 
L 52.551732 -160.375527 
L 52.552903 -162.236945 
L 52.554146 -164.098364 
L 52.555413 -165.959782 
L 52.556752 -167.8212 
L 52.558162 -169.682618 
L 52.55962 -171.544036 
L 52.56115 -173.405455 
L 52.562776 -175.266873 
L 52.564473 -177.128291 
L 52.566266 -178.989709 
L 52.568154 -180.851127 
L 52.570186 -182.712545 
L 52.572314 -184.573964 
L 52.574609 -186.435382 
L 52.577071 -188.2968 
L 52.579724 -190.158218 
L 52.582569 -192.019636 
L 52.585677 -193.881055 
L 52.589047 -195.742473 
L 52.592752 -197.603891 
L 52.59684 -199.465309 
L 52.601382 -201.326727 
L 52.606498 -203.188145 
L 52.612259 -205.049564 
L 52.618833 -206.910982 
L 52.626387 -208.7724 
L 52.635112 -210.633818 
L 52.644817 -212.495236 
L 52.653997 -214.356655 
L 52.655957 -216.218073 
L 52.624594 -218.079491 
L 52.463207 -219.940909 
L 50.094066 -219.940909 
L 50.094066 -219.940909 
L 50.094066 -218.079491 
L 50.094066 -216.218073 
L 50.094066 -214.356655 
L 50.094066 -212.495236 
L 50.094066 -210.633818 
L 50.094066 -208.7724 
L 50.094066 -206.910982 
L 50.094066 -205.049564 
L 50.094066 -203.188145 
L 50.094066 -201.326727 
L 50.094066 -199.465309 
L 50.094066 -197.603891 
L 50.094066 -195.742473 
L 50.094066 -193.881055 
L 50.094066 -192.019636 
L 50.094066 -190.158218 
L 50.094066 -188.2968 
L 50.094066 -186.435382 
L 50.094066 -184.573964 
L 50.094066 -182.712545 
L 50.094066 -180.851127 
L 50.094066 -178.989709 
L 50.094066 -177.128291 
L 50.094066 -175.266873 
L 50.094066 -173.405455 
L 50.094066 -171.544036 
L 50.094066 -169.682618 
L 50.094066 -167.8212 
L 50.094066 -165.959782 
L 50.094066 -164.098364 
L 50.094066 -162.236945 
L 50.094066 -160.375527 
L 50.094066 -158.514109 
L 50.094066 -156.652691 
L 50.094066 -154.791273 
L 50.094066 -152.929855 
L 50.094066 -151.068436 
L 50.094066 -149.207018 
L 50.094066 -147.3456 
L 50.094066 -145.484182 
L 50.094066 -143.622764 
L 50.094066 -141.761345 
L 50.094066 -139.899927 
L 50.094066 -138.038509 
L 50.094066 -136.177091 
L 50.094066 -134.315673 
L 50.094066 -132.454255 
L 50.094066 -130.592836 
L 50.094066 -128.731418 
L 50.094066 -126.87 
L 50.094066 -125.008582 
L 50.094066 -123.147164 
L 50.094066 -121.285745 
L 50.094066 -119.424327 
L 50.094066 -117.562909 
L 50.094066 -115.701491 
L 50.094066 -113.840073 
L 50.094066 -111.978655 
L 50.094066 -110.117236 
L 50.094066 -108.255818 
L 50.094066 -106.3944 
L 50.094066 -104.532982 
L 50.094066 -102.671564 
L 50.094066 -100.810145 
L 50.094066 -98.948727 
L 50.094066 -97.087309 
L 50.094066 -95.225891 
L 50.094066 -93.364473 
L 50.094066 -91.503055 
L 50.094066 -89.641636 
L 50.094066 -87.780218 
L 50.094066 -85.9188 
L 50.094066 -84.057382 
L 50.094066 -82.195964 
L 50.094066 -80.334545 
L 50.094066 -78.473127 
L 50.094066 -76.611709 
L 50.094066 -74.750291 
L 50.094066 -72.888873 
L 50.094066 -71.027455 
L 50.094066 -69.166036 
L 50.094066 -67.304618 
L 50.094066 -65.4432 
L 50.094066 -63.581782 
L 50.094066 -61.720364 
L 50.094066 -59.858945 
L 50.094066 -57.997527 
L 50.094066 -56.136109 
L 50.094066 -54.274691 
L 50.094066 -52.413273 
L 50.094066 -50.551855 
L 50.094066 -48.690436 
L 50.094066 -46.829018 
L 50.094066 -44.9676 
L 50.094066 -43.106182 
L 50.094066 -41.244764 
L 50.094066 -39.383345 
L 50.094066 -37.521927 
L 50.094066 -35.660509 
L 50.094066 -33.799091 
z
" id="mdd0e674ca3" style="stroke:#8dd35f;"/>
    </defs>
    <g clip-path="url(#pd34212d9fd)">
     <use style="fill:#8dd35f;stroke:#8dd35f;" x="0" xlink:href="#mdd0e674ca3" y="230.4"/>
    </g>
   </g>
   <g id="PolyCollection_4">
    <defs>
     <path d="M 50.094066 -33.799091 
L 50.094066 -33.799091 
L 50.094066 -35.660509 
L 50.094066 -37.521927 
L 50.094066 -39.383345 
L 50.094066 -41.244764 
L 50.094066 -43.106182 
L 50.094066 -44.9676 
L 50.094066 -46.829018 
L 50.094066 -48.690436 
L 50.094066 -50.551855 
L 50.094066 -52.413273 
L 50.094066 -54.274691 
L 50.094066 -56.136109 
L 50.094066 -57.997527 
L 50.094066 -59.858945 
L 50.094066 -61.720364 
L 50.094066 -63.581782 
L 50.094066 -65.4432 
L 50.094066 -67.304618 
L 50.094066 -69.166036 
L 50.094066 -71.027455 
L 50.094066 -72.888873 
L 50.094066 -74.750291 
L 50.094066 -76.611709 
L 50.094066 -78.473127 
L 50.094066 -80.334545 
L 50.094066 -82.195964 
L 50.094066 -84.057382 
L 50.094066 -85.9188 
L 50.094066 -87.780218 
L 50.094066 -89.641636 
L 50.094066 -91.503055 
L 50.094066 -93.364473 
L 50.094066 -95.225891 
L 50.094066 -97.087309 
L 50.094066 -98.948727 
L 50.094066 -100.810145 
L 50.094066 -102.671564 
L 50.094066 -104.532982 
L 50.094066 -106.3944 
L 50.094066 -108.255818 
L 50.094066 -110.117236 
L 50.094066 -111.978655 
L 50.094066 -113.840073 
L 50.094066 -115.701491 
L 50.094066 -117.562909 
L 50.094066 -119.424327 
L 50.094066 -121.285745 
L 50.094066 -123.147164 
L 50.094066 -125.008582 
L 50.094066 -126.87 
L 50.094066 -128.731418 
L 50.094066 -130.592836 
L 50.094066 -132.454255 
L 50.094066 -134.315673 
L 50.094066 -136.177091 
L 50.094066 -138.038509 
L 50.094066 -139.899927 
L 50.094066 -141.761345 
L 50.094066 -143.622764 
L 50.094066 -145.484182 
L 50.094066 -147.3456 
L 50.094066 -149.207018 
L 50.094066 -151.068436 
L 50.094066 -152.929855 
L 50.094066 -154.791273 
L 50.094066 -156.652691 
L 50.094066 -158.514109 
L 50.094066 -160.375527 
L 50.094066 -162.236945 
L 50.094066 -164.098364 
L 50.094066 -165.959782 
L 50.094066 -167.8212 
L 50.094066 -169.682618 
L 50.094066 -171.544036 
L 50.094065 -173.405455 
L 50.094064 -175.266873 
L 50.09406 -177.128291 
L 50.094051 -178.989709 
L 50.094026 -180.851127 
L 50.093964 -182.712545 
L 50.09381 -184.573964 
L 50.093431 -186.435382 
L 50.092519 -188.2968 
L 50.090375 -190.158218 
L 50.085473 -192.019636 
L 50.074664 -193.881055 
L 50.051895 -195.742473 
L 50.006695 -197.603891 
L 49.923569 -199.465309 
L 49.784777 -201.326727 
L 49.57869 -203.188145 
L 49.311005 -205.049564 
L 49.008986 -206.910982 
L 48.711496 -208.7724 
L 48.452089 -210.633818 
L 48.249636 -212.495236 
L 48.111757 -214.356655 
L 48.048075 -216.218073 
L 48.09396 -218.079491 
L 48.355138 -219.940909 
L 50.094066 -219.940909 
L 50.094066 -219.940909 
L 50.094066 -218.079491 
L 50.094066 -216.218073 
L 50.094066 -214.356655 
L 50.094066 -212.495236 
L 50.094066 -210.633818 
L 50.094066 -208.7724 
L 50.094066 -206.910982 
L 50.094066 -205.049564 
L 50.094066 -203.188145 
L 50.094066 -201.326727 
L 50.094066 -199.465309 
L 50.094066 -197.603891 
L 50.094066 -195.742473 
L 50.094066 -193.881055 
L 50.094066 -192.019636 
L 50.094066 -190.158218 
L 50.094066 -188.2968 
L 50.094066 -186.435382 
L 50.094066 -184.573964 
L 50.094066 -182.712545 
L 50.094066 -180.851127 
L 50.094066 -178.989709 
L 50.094066 -177.128291 
L 50.094066 -175.266873 
L 50.094066 -173.405455 
L 50.094066 -171.544036 
L 50.094066 -169.682618 
L 50.094066 -167.8212 
L 50.094066 -165.959782 
L 50.094066 -164.098364 
L 50.094066 -162.236945 
L 50.094066 -160.375527 
L 50.094066 -158.514109 
L 50.094066 -156.652691 
L 50.094066 -154.791273 
L 50.094066 -152.929855 
L 50.094066 -151.068436 
L 50.094066 -149.207018 
L 50.094066 -147.3456 
L 50.094066 -145.484182 
L 50.094066 -143.622764 
L 50.094066 -141.761345 
L 50.094066 -139.899927 
L 50.094066 -138.038509 
L 50.094066 -136.177091 
L 50.094066 -134.315673 
L 50.094066 -132.454255 
L 50.094066 -130.592836 
L 50.094066 -128.731418 
L 50.094066 -126.87 
L 50.094066 -125.008582 
L 50.094066 -123.147164 
L 50.094066 -121.285745 
L 50.094066 -119.424327 
L 50.094066 -117.562909 
L 50.094066 -115.701491 
L 50.094066 -113.840073 
L 50.094066 -111.978655 
L 50.094066 -110.117236 
L 50.094066 -108.255818 
L 50.094066 -106.3944 
L 50.094066 -104.532982 
L 50.094066 -102.671564 
L 50.094066 -100.810145 
L 50.094066 -98.948727 
L 50.094066 -97.087309 
L 50.094066 -95.225891 
L 50.094066 -93.364473 
L 50.094066 -91.503055 
L 50.094066 -89.641636 
L 50.094066 -87.780218 
L 50.094066 -85.9188 
L 50.094066 -84.057382 
L 50.094066 -82.195964 
L 50.094066 -80.334545 
L 50.094066 -78.473127 
L 50.094066 -76.611709 
L 50.094066 -74.750291 
L 50.094066 -72.888873 
L 50.094066 -71.027455 
L 50.094066 -69.166036 
L 50.094066 -67.304618 
L 50.094066 -65.4432 
L 50.094066 -63.581782 
L 50.094066 -61.720364 
L 50.094066 -59.858945 
L 50.094066 -57.997527 
L 50.094066 -56.136109 
L 50.094066 -54.274691 
L 50.094066 -52.413273 
L 50.094066 -50.551855 
L 50.094066 -48.690436 
L 50.094066 -46.829018 
L 50.094066 -44.9676 
L 50.094066 -43.106182 
L 50.094066 -41.244764 
L 50.094066 -39.383345 
L 50.094066 -37.521927 
L 50.094066 -35.660509 
L 50.094066 -33.799091 
z
" id="m590e6f2699" style="stroke:#8dd35f;"/>
    </defs>
    <g clip-path="url(#pd34212d9fd)">
     <use style="fill:#8dd35f;stroke:#8dd35f;" x="0" xlink:href="#m590e6f2699" y="230.4"/>
    </g>
   </g>
   <g id="text_11">
    <!-- $\times 10^7$ -->
    <defs>
     <path d="M 70.125 53.71875 
L 47.796875 31.296875 
L 70.125 8.984375 
L 64.3125 3.078125 
L 41.890625 25.484375 
L 19.484375 3.078125 
L 13.71875 8.984375 
L 35.984375 31.296875 
L 13.71875 53.71875 
L 19.484375 59.625 
L 41.890625 37.203125 
L 64.3125 59.625 
z
" id="DejaVuSans-215"/>
     <path d="M 12.40625 8.296875 
L 28.515625 8.296875 
L 28.515625 63.921875 
L 10.984375 60.40625 
L 10.984375 69.390625 
L 28.421875 72.90625 
L 38.28125 72.90625 
L 38.28125 8.296875 
L 54.390625 8.296875 
L 54.390625 0 
L 12.40625 0 
z
" id="DejaVuSans-49"/>
     <path d="M 31.78125 66.40625 
Q 24.171875 66.40625 20.328125 58.90625 
Q 16.5 51.421875 16.5 36.375 
Q 16.5 21.390625 20.328125 13.890625 
Q 24.171875 6.390625 31.78125 6.390625 
Q 39.453125 6.390625 43.28125 13.890625 
Q 47.125 21.390625 47.125 36.375 
Q 47.125 51.421875 43.28125 58.90625 
Q 39.453125 66.40625 31.78125 66.40625 
z
M 31.78125 74.21875 
Q 44.046875 74.21875 50.515625 64.515625 
Q 56.984375 54.828125 56.984375 36.375 
Q 56.984375 17.96875 50.515625 8.265625 
Q 44.046875 -1.421875 31.78125 -1.421875 
Q 19.53125 -1.421875 13.0625 8.265625 
Q 6.59375 17.96875 6.59375 36.375 
Q 6.59375 54.828125 13.0625 64.515625 
Q 19.53125 74.21875 31.78125 74.21875 
z
" id="DejaVuSans-48"/>
     <path d="M 8.203125 72.90625 
L 55.078125 72.90625 
L 55.078125 68.703125 
L 28.609375 0 
L 18.3125 0 
L 43.21875 64.59375 
L 8.203125 64.59375 
z
" id="DejaVuSans-55"/>
    </defs>
    <g style="fill:#262626;" transform="translate(188.742638 202.417841)scale(0.08 -0.08)">
     <use transform="translate(0 0.684375)" xlink:href="#DejaVuSans-215"/>
     <use transform="translate(83.789062 0.684375)" xlink:href="#DejaVuSans-49"/>
     <use transform="translate(147.412109 0.684375)" xlink:href="#DejaVuSans-48"/>
     <use transform="translate(211.992188 38.965625)scale(0.7)" xlink:href="#DejaVuSans-55"/>
    </g>
   </g>
   <g id="PolyCollection_5">
    <defs>
     <path d="M 50.094066 -33.799091 
L 51.458827 -33.799091 
L 52.101731 -35.660509 
L 52.348439 -37.521927 
L 52.436966 -39.383345 
L 52.468017 -41.244764 
L 52.478819 -43.106182 
L 52.48257 -44.9676 
L 52.48387 -46.829018 
L 52.48432 -48.690436 
L 52.484475 -50.551855 
L 52.48453 -52.413273 
L 52.484549 -54.274691 
L 52.484554 -56.136109 
L 52.484556 -57.997527 
L 52.484556 -59.858945 
L 52.484556 -61.720364 
L 52.484556 -63.581782 
L 52.484554 -65.4432 
L 52.484552 -67.304618 
L 52.484547 -69.166036 
L 52.484542 -71.027455 
L 52.48453 -72.888873 
L 52.484516 -74.750291 
L 52.484492 -76.611709 
L 52.484454 -78.473127 
L 52.484396 -80.334545 
L 52.484305 -82.195964 
L 52.484167 -84.057382 
L 52.483947 -85.9188 
L 52.483605 -87.780218 
L 52.483074 -89.641636 
L 52.482245 -91.503055 
L 52.480949 -93.364473 
L 52.478931 -95.225891 
L 52.475786 -97.087309 
L 52.470887 -98.948727 
L 52.463264 -100.810145 
L 52.451431 -102.671564 
L 52.43312 -104.532982 
L 52.404924 -106.3944 
L 52.361855 -108.255818 
L 52.296876 -110.117236 
L 52.200688 -111.978655 
L 52.062324 -113.840073 
L 51.871584 -115.701491 
L 51.624268 -117.562909 
L 51.329566 -119.424327 
L 51.014848 -121.285745 
L 50.7201 -123.147164 
L 50.480867 -125.008582 
L 50.312292 -126.87 
L 50.207737 -128.731418 
L 50.149475 -130.592836 
L 50.119672 -132.454255 
L 50.105407 -134.315673 
L 50.098921 -136.177091 
L 50.096087 -138.038509 
L 50.094888 -139.899927 
L 50.094394 -141.761345 
L 50.094194 -143.622764 
L 50.094115 -145.484182 
L 50.094085 -147.3456 
L 50.094073 -149.207018 
L 50.094069 -151.068436 
L 50.094067 -152.929855 
L 50.094066 -154.791273 
L 50.094066 -156.652691 
L 50.094066 -158.514109 
L 50.094066 -160.375527 
L 50.094066 -162.236945 
L 50.094066 -164.098364 
L 50.094066 -165.959782 
L 50.094066 -167.8212 
L 50.094066 -169.682618 
L 50.094066 -171.544036 
L 50.094066 -173.405455 
L 50.094066 -175.266873 
L 50.094066 -177.128291 
L 50.094066 -178.989709 
L 50.094066 -180.851127 
L 50.094066 -182.712545 
L 50.094066 -184.573964 
L 50.094066 -186.435382 
L 50.094066 -188.2968 
L 50.094066 -190.158218 
L 50.094066 -192.019636 
L 50.094066 -193.881055 
L 50.094066 -195.742473 
L 50.094066 -197.603891 
L 50.094066 -199.465309 
L 50.094066 -201.326727 
L 50.094066 -203.188145 
L 50.094066 -205.049564 
L 50.094066 -206.910982 
L 50.094066 -208.7724 
L 50.094066 -210.633818 
L 50.094066 -212.495236 
L 50.094066 -214.356655 
L 50.094066 -216.218073 
L 50.094066 -218.079491 
L 50.094066 -219.940909 
L 50.094066 -219.940909 
L 50.094066 -219.940909 
L 50.094066 -218.079491 
L 50.094066 -216.218073 
L 50.094066 -214.356655 
L 50.094066 -212.495236 
L 50.094066 -210.633818 
L 50.094066 -208.7724 
L 50.094066 -206.910982 
L 50.094066 -205.049564 
L 50.094066 -203.188145 
L 50.094066 -201.326727 
L 50.094066 -199.465309 
L 50.094066 -197.603891 
L 50.094066 -195.742473 
L 50.094066 -193.881055 
L 50.094066 -192.019636 
L 50.094066 -190.158218 
L 50.094066 -188.2968 
L 50.094066 -186.435382 
L 50.094066 -184.573964 
L 50.094066 -182.712545 
L 50.094066 -180.851127 
L 50.094066 -178.989709 
L 50.094066 -177.128291 
L 50.094066 -175.266873 
L 50.094066 -173.405455 
L 50.094066 -171.544036 
L 50.094066 -169.682618 
L 50.094066 -167.8212 
L 50.094066 -165.959782 
L 50.094066 -164.098364 
L 50.094066 -162.236945 
L 50.094066 -160.375527 
L 50.094066 -158.514109 
L 50.094066 -156.652691 
L 50.094066 -154.791273 
L 50.094066 -152.929855 
L 50.094066 -151.068436 
L 50.094066 -149.207018 
L 50.094066 -147.3456 
L 50.094066 -145.484182 
L 50.094066 -143.622764 
L 50.094066 -141.761345 
L 50.094066 -139.899927 
L 50.094066 -138.038509 
L 50.094066 -136.177091 
L 50.094066 -134.315673 
L 50.094066 -132.454255 
L 50.094066 -130.592836 
L 50.094066 -128.731418 
L 50.094066 -126.87 
L 50.094066 -125.008582 
L 50.094066 -123.147164 
L 50.094066 -121.285745 
L 50.094066 -119.424327 
L 50.094066 -117.562909 
L 50.094066 -115.701491 
L 50.094066 -113.840073 
L 50.094066 -111.978655 
L 50.094066 -110.117236 
L 50.094066 -108.255818 
L 50.094066 -106.3944 
L 50.094066 -104.532982 
L 50.094066 -102.671564 
L 50.094066 -100.810145 
L 50.094066 -98.948727 
L 50.094066 -97.087309 
L 50.094066 -95.225891 
L 50.094066 -93.364473 
L 50.094066 -91.503055 
L 50.094066 -89.641636 
L 50.094066 -87.780218 
L 50.094066 -85.9188 
L 50.094066 -84.057382 
L 50.094066 -82.195964 
L 50.094066 -80.334545 
L 50.094066 -78.473127 
L 50.094066 -76.611709 
L 50.094066 -74.750291 
L 50.094066 -72.888873 
L 50.094066 -71.027455 
L 50.094066 -69.166036 
L 50.094066 -67.304618 
L 50.094066 -65.4432 
L 50.094066 -63.581782 
L 50.094066 -61.720364 
L 50.094066 -59.858945 
L 50.094066 -57.997527 
L 50.094066 -56.136109 
L 50.094066 -54.274691 
L 50.094066 -52.413273 
L 50.094066 -50.551855 
L 50.094066 -48.690436 
L 50.094066 -46.829018 
L 50.094066 -44.9676 
L 50.094066 -43.106182 
L 50.094066 -41.244764 
L 50.094066 -39.383345 
L 50.094066 -37.521927 
L 50.094066 -35.660509 
L 50.094066 -33.799091 
z
" id="mba6425938a" style="stroke:#ffb380;"/>
    </defs>
    <g clip-path="url(#pd34212d9fd)">
     <use style="fill:#ffb380;stroke:#ffb380;" x="0" xlink:href="#mba6425938a" y="230.4"/>
    </g>
   </g>
   <g id="PolyCollection_6">
    <defs>
     <path d="M 50.094066 -33.799091 
L 50.094066 -33.799091 
L 50.094066 -35.660509 
L 50.094066 -37.521927 
L 50.094066 -39.383345 
L 50.094066 -41.244764 
L 50.094066 -43.106182 
L 50.094066 -44.9676 
L 50.094066 -46.829018 
L 50.094066 -48.690436 
L 50.094066 -50.551855 
L 50.094066 -52.413273 
L 50.094066 -54.274691 
L 50.094066 -56.136109 
L 50.094066 -57.997527 
L 50.094066 -59.858945 
L 50.094066 -61.720364 
L 50.094066 -63.581782 
L 50.094066 -65.4432 
L 50.094066 -67.304618 
L 50.094066 -69.166036 
L 50.094066 -71.027455 
L 50.094066 -72.888873 
L 50.094066 -74.750291 
L 50.094066 -76.611709 
L 50.094066 -78.473127 
L 50.094066 -80.334545 
L 50.094066 -82.195964 
L 50.094066 -84.057382 
L 50.094066 -85.9188 
L 50.094066 -87.780218 
L 50.094066 -89.641636 
L 50.094066 -91.503055 
L 50.094066 -93.364473 
L 50.094066 -95.225891 
L 50.094066 -97.087309 
L 50.094066 -98.948727 
L 50.094066 -100.810145 
L 50.094066 -102.671564 
L 50.094066 -104.532982 
L 50.094066 -106.3944 
L 50.094066 -108.255818 
L 50.094066 -110.117236 
L 50.094066 -111.978655 
L 50.094066 -113.840073 
L 50.094066 -115.701491 
L 50.094066 -117.562909 
L 50.094066 -119.424327 
L 50.094066 -121.285745 
L 50.094066 -123.147164 
L 50.094066 -125.008582 
L 50.094066 -126.87 
L 50.094066 -128.731418 
L 50.094066 -130.592836 
L 50.094066 -132.454255 
L 50.094066 -134.315673 
L 50.094066 -136.177091 
L 50.094066 -138.038509 
L 50.094066 -139.899927 
L 50.094066 -141.761345 
L 50.094066 -143.622764 
L 50.094066 -145.484182 
L 50.094066 -147.3456 
L 50.094066 -149.207018 
L 50.094066 -151.068436 
L 50.094066 -152.929855 
L 50.094066 -154.791273 
L 50.094066 -156.652691 
L 50.094066 -158.514109 
L 50.094066 -160.375527 
L 50.094066 -162.236945 
L 50.094066 -164.098364 
L 50.094066 -165.959782 
L 50.094066 -167.8212 
L 50.094066 -169.682618 
L 50.094066 -171.544036 
L 50.094066 -173.405455 
L 50.094066 -175.266873 
L 50.094066 -177.128291 
L 50.094066 -178.989709 
L 50.094066 -180.851127 
L 50.094066 -182.712545 
L 50.094066 -184.573964 
L 50.094066 -186.435382 
L 50.094066 -188.2968 
L 50.094066 -190.158218 
L 50.094066 -192.019636 
L 50.094066 -193.881055 
L 50.094066 -195.742473 
L 50.094066 -197.603891 
L 50.094066 -199.465309 
L 50.094066 -201.326727 
L 50.094066 -203.188145 
L 50.094066 -205.049564 
L 50.094066 -206.910982 
L 50.094066 -208.7724 
L 50.094066 -210.633818 
L 50.094066 -212.495236 
L 50.094066 -214.356655 
L 50.094066 -216.218073 
L 50.094066 -218.079491 
L 50.094066 -219.940909 
L 50.094066 -219.940909 
L 50.094066 -219.940909 
L 50.094066 -218.079491 
L 50.094066 -216.218073 
L 50.094066 -214.356655 
L 50.094066 -212.495236 
L 50.094066 -210.633818 
L 50.094066 -208.7724 
L 50.094066 -206.910982 
L 50.094066 -205.049564 
L 50.094066 -203.188145 
L 50.094066 -201.326727 
L 50.094066 -199.465309 
L 50.094066 -197.603891 
L 50.094066 -195.742473 
L 50.094066 -193.881055 
L 50.094066 -192.019636 
L 50.094066 -190.158218 
L 50.094066 -188.2968 
L 50.094066 -186.435382 
L 50.094066 -184.573964 
L 50.094066 -182.712545 
L 50.094066 -180.851127 
L 50.094066 -178.989709 
L 50.094066 -177.128291 
L 50.094066 -175.266873 
L 50.094066 -173.405455 
L 50.094066 -171.544036 
L 50.094066 -169.682618 
L 50.094066 -167.8212 
L 50.094066 -165.959782 
L 50.094066 -164.098364 
L 50.094066 -162.236945 
L 50.094066 -160.375527 
L 50.094066 -158.514109 
L 50.094066 -156.652691 
L 50.094066 -154.791273 
L 50.094066 -152.929855 
L 50.094066 -151.068436 
L 50.094066 -149.207018 
L 50.094066 -147.3456 
L 50.094066 -145.484182 
L 50.094066 -143.622764 
L 50.094066 -141.761345 
L 50.094066 -139.899927 
L 50.094066 -138.038509 
L 50.094066 -136.177091 
L 50.094066 -134.315673 
L 50.094066 -132.454255 
L 50.094066 -130.592836 
L 50.094066 -128.731418 
L 50.094066 -126.87 
L 50.094066 -125.008582 
L 50.094066 -123.147164 
L 50.094066 -121.285745 
L 50.094066 -119.424327 
L 50.094066 -117.562909 
L 50.094066 -115.701491 
L 50.094066 -113.840073 
L 50.094066 -111.978655 
L 50.094066 -110.117236 
L 50.094066 -108.255818 
L 50.094066 -106.3944 
L 50.094066 -104.532982 
L 50.094066 -102.671564 
L 50.094066 -100.810145 
L 50.094066 -98.948727 
L 50.094066 -97.087309 
L 50.094066 -95.225891 
L 50.094066 -93.364473 
L 50.094066 -91.503055 
L 50.094066 -89.641636 
L 50.094066 -87.780218 
L 50.094066 -85.9188 
L 50.094066 -84.057382 
L 50.094066 -82.195964 
L 50.094066 -80.334545 
L 50.094066 -78.473127 
L 50.094066 -76.611709 
L 50.094066 -74.750291 
L 50.094066 -72.888873 
L 50.094066 -71.027455 
L 50.094066 -69.166036 
L 50.094066 -67.304618 
L 50.094066 -65.4432 
L 50.094066 -63.581782 
L 50.094066 -61.720364 
L 50.094066 -59.858945 
L 50.094066 -57.997527 
L 50.094066 -56.136109 
L 50.094066 -54.274691 
L 50.094066 -52.413273 
L 50.094066 -50.551855 
L 50.094066 -48.690436 
L 50.094066 -46.829018 
L 50.094066 -44.9676 
L 50.094066 -43.106182 
L 50.094066 -41.244764 
L 50.094066 -39.383345 
L 50.094066 -37.521927 
L 50.094066 -35.660509 
L 50.094066 -33.799091 
z
" id="m5d01096e54" style="stroke:#ffb380;"/>
    </defs>
    <g clip-path="url(#pd34212d9fd)">
     <use style="fill:#ffb380;stroke:#ffb380;" x="0" xlink:href="#m5d01096e54" y="230.4"/>
    </g>
   </g>
  </g>
  <g id="axes_3">
   <g id="patch_7">
    <path d="M 67.881884 205.908 
L 229.194 205.908 
L 229.194 1.152 
L 67.881884 1.152 
z
" style="fill:#ffffff;"/>
   </g>
   <g id="matplotlib.axis_3">
    <g id="xtick_2">
     <g id="line2d_12">
      <g>
       <use style="fill:#262626;stroke:#262626;stroke-width:0.8;" x="67.881884" xlink:href="#m059492975d" y="205.908"/>
      </g>
     </g>
     <g id="text_12">
      <!-- 0 -->
      <g style="fill:#262626;" transform="translate(65.336884 219.48675)scale(0.08 -0.08)">
       <use xlink:href="#DejaVuSerif-48"/>
      </g>
     </g>
    </g>
    <g id="xtick_3">
     <g id="line2d_13">
      <g>
       <use style="fill:#262626;stroke:#262626;stroke-width:0.8;" x="115.691737" xlink:href="#m059492975d" y="205.908"/>
      </g>
     </g>
     <g id="text_13">
      <!-- 2 -->
      <g style="fill:#262626;" transform="translate(113.146737 219.48675)scale(0.08 -0.08)">
       <use xlink:href="#DejaVuSerif-50"/>
      </g>
     </g>
    </g>
    <g id="xtick_4">
     <g id="line2d_14">
      <g>
       <use style="fill:#262626;stroke:#262626;stroke-width:0.8;" x="163.501589" xlink:href="#m059492975d" y="205.908"/>
      </g>
     </g>
     <g id="text_14">
      <!-- 4 -->
      <g style="fill:#262626;" transform="translate(160.956589 219.48675)scale(0.08 -0.08)">
       <use xlink:href="#DejaVuSerif-52"/>
      </g>
     </g>
    </g>
    <g id="xtick_5">
     <g id="line2d_15">
      <g>
       <use style="fill:#262626;stroke:#262626;stroke-width:0.8;" x="211.311442" xlink:href="#m059492975d" y="205.908"/>
      </g>
     </g>
     <g id="text_15">
      <!-- 6 -->
      <g style="fill:#262626;" transform="translate(208.766442 219.48675)scale(0.08 -0.08)">
       <use xlink:href="#DejaVuSerif-54"/>
      </g>
     </g>
    </g>
   </g>
   <g id="matplotlib.axis_4">
    <g id="ytick_10"/>
    <g id="ytick_11"/>
    <g id="ytick_12"/>
    <g id="ytick_13"/>
    <g id="ytick_14"/>
    <g id="ytick_15"/>
    <g id="ytick_16"/>
    <g id="ytick_17"/>
    <g id="ytick_18"/>
   </g>
   <g id="patch_8">
    <path clip-path="url(#pc4b7d5991b)" d="M 67.881884 205.908 
L 67.881884 1.152 
L 229.194 1.152 
L 229.194 205.908 
z
" style="fill:#ffdd55;opacity:0.35;stroke:#ffdd55;stroke-linejoin:miter;"/>
   </g>
   <g id="PolyCollection_7">
    <defs>
     <path d="M 67.881884 -33.799091 
L 113.921338 -33.799091 
L 115.113477 -35.660509 
L 115.385754 -37.521927 
L 115.641058 -39.383345 
L 115.897797 -41.244764 
L 116.15621 -43.106182 
L 116.416295 -44.9676 
L 116.678293 -46.829018 
L 116.941964 -48.690436 
L 117.207548 -50.551855 
L 117.475044 -52.413273 
L 117.744453 -54.274691 
L 118.015774 -56.136109 
L 118.289007 -57.997527 
L 118.564392 -59.858945 
L 118.841928 -61.720364 
L 119.121616 -63.581782 
L 119.403216 -65.4432 
L 119.687206 -67.304618 
L 119.973587 -69.166036 
L 120.26212 -71.027455 
L 120.553043 -72.888873 
L 120.846595 -74.750291 
L 121.142538 -76.611709 
L 121.441111 -78.473127 
L 121.742313 -80.334545 
L 122.046144 -82.195964 
L 122.353084 -84.057382 
L 122.662652 -85.9188 
L 122.97509 -87.780218 
L 123.290874 -89.641636 
L 123.609766 -91.503055 
L 123.931765 -93.364473 
L 124.257111 -95.225891 
L 124.586043 -97.087309 
L 124.918799 -98.948727 
L 125.254903 -100.810145 
L 125.59507 -102.671564 
L 125.939301 -104.532982 
L 126.287595 -106.3944 
L 126.640193 -108.255818 
L 126.997094 -110.117236 
L 127.358775 -111.978655 
L 127.725477 -113.840073 
L 128.096959 -115.701491 
L 128.473701 -117.562909 
L 128.85618 -119.424327 
L 129.244157 -121.285745 
L 129.63811 -123.147164 
L 130.038278 -125.008582 
L 130.444901 -126.87 
L 130.858217 -128.731418 
L 131.278944 -130.592836 
L 131.706842 -132.454255 
L 132.142868 -134.315673 
L 132.587022 -136.177091 
L 133.039781 -138.038509 
L 133.501624 -139.899927 
L 133.973029 -141.761345 
L 134.454713 -143.622764 
L 134.946916 -145.484182 
L 135.450354 -147.3456 
L 135.965744 -149.207018 
L 136.493804 -151.068436 
L 137.03525 -152.929855 
L 137.59104 -154.791273 
L 138.161889 -156.652691 
L 138.748994 -158.514109 
L 139.353072 -160.375527 
L 139.975795 -162.236945 
L 140.618121 -164.098364 
L 141.281482 -165.959782 
L 141.967793 -167.8212 
L 142.678486 -169.682618 
L 143.415953 -171.544036 
L 144.181867 -173.405455 
L 144.979335 -175.266873 
L 145.810749 -177.128291 
L 146.679693 -178.989709 
L 147.589514 -180.851127 
L 148.544516 -182.712545 
L 149.549718 -184.573964 
L 150.610858 -186.435382 
L 151.734389 -188.2968 
L 152.928679 -190.158218 
L 154.20329 -192.019636 
L 155.569457 -193.881055 
L 157.041761 -195.742473 
L 158.637654 -197.603891 
L 160.379845 -199.465309 
L 162.29702 -201.326727 
L 164.427905 -203.188145 
L 166.824135 -205.049564 
L 169.558859 -206.910982 
L 172.739648 -208.7724 
L 176.534316 -210.633818 
L 181.222311 -212.495236 
L 187.310657 -214.356655 
L 195.789495 -216.218073 
L 208.690267 -218.079491 
L 229.176549 -219.940909 
L 67.881884 -219.940909 
L 67.881884 -219.940909 
L 67.881884 -218.079491 
L 67.881884 -216.218073 
L 67.881884 -214.356655 
L 67.881884 -212.495236 
L 67.881884 -210.633818 
L 67.881884 -208.7724 
L 67.881884 -206.910982 
L 67.881884 -205.049564 
L 67.881884 -203.188145 
L 67.881884 -201.326727 
L 67.881884 -199.465309 
L 67.881884 -197.603891 
L 67.881884 -195.742473 
L 67.881884 -193.881055 
L 67.881884 -192.019636 
L 67.881884 -190.158218 
L 67.881884 -188.2968 
L 67.881884 -186.435382 
L 67.881884 -184.573964 
L 67.881884 -182.712545 
L 67.881884 -180.851127 
L 67.881884 -178.989709 
L 67.881884 -177.128291 
L 67.881884 -175.266873 
L 67.881884 -173.405455 
L 67.881884 -171.544036 
L 67.881884 -169.682618 
L 67.881884 -167.8212 
L 67.881884 -165.959782 
L 67.881884 -164.098364 
L 67.881884 -162.236945 
L 67.881884 -160.375527 
L 67.881884 -158.514109 
L 67.881884 -156.652691 
L 67.881884 -154.791273 
L 67.881884 -152.929855 
L 67.881884 -151.068436 
L 67.881884 -149.207018 
L 67.881884 -147.3456 
L 67.881884 -145.484182 
L 67.881884 -143.622764 
L 67.881884 -141.761345 
L 67.881884 -139.899927 
L 67.881884 -138.038509 
L 67.881884 -136.177091 
L 67.881884 -134.315673 
L 67.881884 -132.454255 
L 67.881884 -130.592836 
L 67.881884 -128.731418 
L 67.881884 -126.87 
L 67.881884 -125.008582 
L 67.881884 -123.147164 
L 67.881884 -121.285745 
L 67.881884 -119.424327 
L 67.881884 -117.562909 
L 67.881884 -115.701491 
L 67.881884 -113.840073 
L 67.881884 -111.978655 
L 67.881884 -110.117236 
L 67.881884 -108.255818 
L 67.881884 -106.3944 
L 67.881884 -104.532982 
L 67.881884 -102.671564 
L 67.881884 -100.810145 
L 67.881884 -98.948727 
L 67.881884 -97.087309 
L 67.881884 -95.225891 
L 67.881884 -93.364473 
L 67.881884 -91.503055 
L 67.881884 -89.641636 
L 67.881884 -87.780218 
L 67.881884 -85.9188 
L 67.881884 -84.057382 
L 67.881884 -82.195964 
L 67.881884 -80.334545 
L 67.881884 -78.473127 
L 67.881884 -76.611709 
L 67.881884 -74.750291 
L 67.881884 -72.888873 
L 67.881884 -71.027455 
L 67.881884 -69.166036 
L 67.881884 -67.304618 
L 67.881884 -65.4432 
L 67.881884 -63.581782 
L 67.881884 -61.720364 
L 67.881884 -59.858945 
L 67.881884 -57.997527 
L 67.881884 -56.136109 
L 67.881884 -54.274691 
L 67.881884 -52.413273 
L 67.881884 -50.551855 
L 67.881884 -48.690436 
L 67.881884 -46.829018 
L 67.881884 -44.9676 
L 67.881884 -43.106182 
L 67.881884 -41.244764 
L 67.881884 -39.383345 
L 67.881884 -37.521927 
L 67.881884 -35.660509 
L 67.881884 -33.799091 
z
" id="m4d4263d7ee" style="stroke:#447821;"/>
    </defs>
    <g clip-path="url(#pc4b7d5991b)">
     <use style="fill:#447821;stroke:#447821;" x="0" xlink:href="#m4d4263d7ee" y="230.4"/>
    </g>
   </g>
   <g id="PolyCollection_8">
    <defs>
     <path d="M 67.881884 -33.799091 
L 65.491392 -33.799091 
L 65.491392 -35.660509 
L 65.491392 -37.521927 
L 65.491392 -39.383345 
L 65.491392 -41.244764 
L 65.491392 -43.106182 
L 65.491392 -44.9676 
L 65.491392 -46.829018 
L 65.491392 -48.690436 
L 65.491392 -50.551855 
L 65.491392 -52.413273 
L 65.491392 -54.274691 
L 65.491392 -56.136109 
L 65.491392 -57.997527 
L 65.491392 -59.858945 
L 65.491392 -61.720364 
L 65.491392 -63.581782 
L 65.491392 -65.4432 
L 65.491392 -67.304618 
L 65.491392 -69.166036 
L 65.491392 -71.027455 
L 65.491392 -72.888873 
L 65.491392 -74.750291 
L 65.491392 -76.611709 
L 65.491392 -78.473127 
L 65.491392 -80.334545 
L 65.491392 -82.195964 
L 65.491392 -84.057382 
L 65.491392 -85.9188 
L 65.491392 -87.780218 
L 65.491392 -89.641636 
L 65.491392 -91.503055 
L 65.491392 -93.364473 
L 65.491392 -95.225891 
L 65.491392 -97.087309 
L 65.491392 -98.948727 
L 65.491392 -100.810145 
L 65.491392 -102.671564 
L 65.491392 -104.532982 
L 65.491392 -106.3944 
L 65.491392 -108.255818 
L 65.491392 -110.117236 
L 65.491392 -111.978655 
L 65.491392 -113.840073 
L 65.491392 -115.701491 
L 65.491392 -117.562909 
L 65.491392 -119.424327 
L 65.491392 -121.285745 
L 65.491392 -123.147164 
L 65.491392 -125.008582 
L 65.491392 -126.87 
L 65.491392 -128.731418 
L 65.491392 -130.592836 
L 65.491392 -132.454255 
L 65.491392 -134.315673 
L 65.491392 -136.177091 
L 65.491392 -138.038509 
L 65.491392 -139.899927 
L 65.491392 -141.761345 
L 65.491392 -143.622764 
L 65.491392 -145.484182 
L 65.491392 -147.3456 
L 65.491392 -149.207018 
L 65.491392 -151.068436 
L 65.491392 -152.929855 
L 65.491392 -154.791273 
L 65.491392 -156.652691 
L 65.491392 -158.514109 
L 65.491392 -160.375527 
L 65.491392 -162.236945 
L 65.491392 -164.098364 
L 65.491392 -165.959782 
L 65.491392 -167.8212 
L 65.491392 -169.682618 
L 65.491392 -171.544036 
L 65.491392 -173.405455 
L 65.491392 -175.266873 
L 65.491392 -177.128291 
L 65.491392 -178.989709 
L 65.491392 -180.851127 
L 65.491392 -182.712545 
L 65.491392 -184.573964 
L 65.491392 -186.435382 
L 65.491392 -188.2968 
L 65.491392 -190.158218 
L 65.491392 -192.019636 
L 65.491392 -193.881055 
L 65.491392 -195.742473 
L 65.491368 -197.603891 
L 65.49132 -199.465309 
L 65.491224 -201.326727 
L 65.49089 -203.188145 
L 65.489933 -205.049564 
L 65.48716 -206.910982 
L 65.479128 -208.7724 
L 65.455965 -210.633818 
L 65.388457 -212.495236 
L 65.188636 -214.356655 
L 64.568494 -216.218073 
L 62.372038 -218.079491 
L 51.315818 -219.940909 
L 67.881884 -219.940909 
L 67.881884 -219.940909 
L 67.881884 -218.079491 
L 67.881884 -216.218073 
L 67.881884 -214.356655 
L 67.881884 -212.495236 
L 67.881884 -210.633818 
L 67.881884 -208.7724 
L 67.881884 -206.910982 
L 67.881884 -205.049564 
L 67.881884 -203.188145 
L 67.881884 -201.326727 
L 67.881884 -199.465309 
L 67.881884 -197.603891 
L 67.881884 -195.742473 
L 67.881884 -193.881055 
L 67.881884 -192.019636 
L 67.881884 -190.158218 
L 67.881884 -188.2968 
L 67.881884 -186.435382 
L 67.881884 -184.573964 
L 67.881884 -182.712545 
L 67.881884 -180.851127 
L 67.881884 -178.989709 
L 67.881884 -177.128291 
L 67.881884 -175.266873 
L 67.881884 -173.405455 
L 67.881884 -171.544036 
L 67.881884 -169.682618 
L 67.881884 -167.8212 
L 67.881884 -165.959782 
L 67.881884 -164.098364 
L 67.881884 -162.236945 
L 67.881884 -160.375527 
L 67.881884 -158.514109 
L 67.881884 -156.652691 
L 67.881884 -154.791273 
L 67.881884 -152.929855 
L 67.881884 -151.068436 
L 67.881884 -149.207018 
L 67.881884 -147.3456 
L 67.881884 -145.484182 
L 67.881884 -143.622764 
L 67.881884 -141.761345 
L 67.881884 -139.899927 
L 67.881884 -138.038509 
L 67.881884 -136.177091 
L 67.881884 -134.315673 
L 67.881884 -132.454255 
L 67.881884 -130.592836 
L 67.881884 -128.731418 
L 67.881884 -126.87 
L 67.881884 -125.008582 
L 67.881884 -123.147164 
L 67.881884 -121.285745 
L 67.881884 -119.424327 
L 67.881884 -117.562909 
L 67.881884 -115.701491 
L 67.881884 -113.840073 
L 67.881884 -111.978655 
L 67.881884 -110.117236 
L 67.881884 -108.255818 
L 67.881884 -106.3944 
L 67.881884 -104.532982 
L 67.881884 -102.671564 
L 67.881884 -100.810145 
L 67.881884 -98.948727 
L 67.881884 -97.087309 
L 67.881884 -95.225891 
L 67.881884 -93.364473 
L 67.881884 -91.503055 
L 67.881884 -89.641636 
L 67.881884 -87.780218 
L 67.881884 -85.9188 
L 67.881884 -84.057382 
L 67.881884 -82.195964 
L 67.881884 -80.334545 
L 67.881884 -78.473127 
L 67.881884 -76.611709 
L 67.881884 -74.750291 
L 67.881884 -72.888873 
L 67.881884 -71.027455 
L 67.881884 -69.166036 
L 67.881884 -67.304618 
L 67.881884 -65.4432 
L 67.881884 -63.581782 
L 67.881884 -61.720364 
L 67.881884 -59.858945 
L 67.881884 -57.997527 
L 67.881884 -56.136109 
L 67.881884 -54.274691 
L 67.881884 -52.413273 
L 67.881884 -50.551855 
L 67.881884 -48.690436 
L 67.881884 -46.829018 
L 67.881884 -44.9676 
L 67.881884 -43.106182 
L 67.881884 -41.244764 
L 67.881884 -39.383345 
L 67.881884 -37.521927 
L 67.881884 -35.660509 
L 67.881884 -33.799091 
z
" id="m1c419b9e3f" style="stroke:#447821;"/>
    </defs>
    <g clip-path="url(#pc4b7d5991b)">
     <use style="fill:#447821;stroke:#447821;" x="0" xlink:href="#m1c419b9e3f" y="230.4"/>
    </g>
   </g>
   <g id="line2d_16">
    <path d="M 65.438123 208.351761 
L 70.325645 203.464239 
" style="fill:none;stroke:#000000;stroke-linecap:round;stroke-width:0.8;"/>
   </g>
   <g id="patch_9">
    <path d="M 67.881884 205.908 
L 229.194 205.908 
" style="fill:none;stroke:#262626;stroke-linecap:square;stroke-linejoin:miter;stroke-width:0.8;"/>
   </g>
   <g id="PolyCollection_9">
    <defs>
     <path d="M 67.881884 -33.799091 
L 69.277726 -33.799091 
L 69.923332 -35.660509 
L 70.168302 -37.521927 
L 70.255665 -39.383345 
L 70.286313 -41.244764 
L 70.297166 -43.106182 
L 70.301135 -44.9676 
L 70.302712 -46.829018 
L 70.303501 -48.690436 
L 70.304003 -50.551855 
L 70.304386 -52.413273 
L 70.304768 -54.274691 
L 70.305127 -56.136109 
L 70.305509 -57.997527 
L 70.305868 -59.858945 
L 70.30625 -61.720364 
L 70.306633 -63.581782 
L 70.307015 -65.4432 
L 70.307398 -67.304618 
L 70.307804 -69.166036 
L 70.30821 -71.027455 
L 70.308617 -72.888873 
L 70.309023 -74.750291 
L 70.30943 -76.611709 
L 70.30986 -78.473127 
L 70.31029 -80.334545 
L 70.31072 -82.195964 
L 70.311175 -84.057382 
L 70.311629 -85.9188 
L 70.312083 -87.780218 
L 70.312537 -89.641636 
L 70.313015 -91.503055 
L 70.313493 -93.364473 
L 70.313971 -95.225891 
L 70.314473 -97.087309 
L 70.314975 -98.948727 
L 70.315477 -100.810145 
L 70.316003 -102.671564 
L 70.316529 -104.532982 
L 70.317079 -106.3944 
L 70.317605 -108.255818 
L 70.318179 -110.117236 
L 70.318752 -111.978655 
L 70.319326 -113.840073 
L 70.319924 -115.701491 
L 70.320521 -117.562909 
L 70.321143 -119.424327 
L 70.321764 -121.285745 
L 70.32241 -123.147164 
L 70.323079 -125.008582 
L 70.323749 -126.87 
L 70.324418 -128.731418 
L 70.325135 -130.592836 
L 70.325852 -132.454255 
L 70.326593 -134.315673 
L 70.327358 -136.177091 
L 70.328123 -138.038509 
L 70.328936 -139.899927 
L 70.329749 -141.761345 
L 70.330609 -143.622764 
L 70.33147 -145.484182 
L 70.332378 -147.3456 
L 70.333287 -149.207018 
L 70.334243 -151.068436 
L 70.335247 -152.929855 
L 70.336251 -154.791273 
L 70.337327 -156.652691 
L 70.338402 -158.514109 
L 70.33955 -160.375527 
L 70.340721 -162.236945 
L 70.341964 -164.098364 
L 70.343231 -165.959782 
L 70.34457 -167.8212 
L 70.34598 -169.682618 
L 70.347438 -171.544036 
L 70.348968 -173.405455 
L 70.350594 -175.266873 
L 70.352291 -177.128291 
L 70.354084 -178.989709 
L 70.355972 -180.851127 
L 70.358004 -182.712545 
L 70.360132 -184.573964 
L 70.362427 -186.435382 
L 70.364889 -188.2968 
L 70.367542 -190.158218 
L 70.370387 -192.019636 
L 70.373495 -193.881055 
L 70.376865 -195.742473 
L 70.380571 -197.603891 
L 70.384658 -199.465309 
L 70.3892 -201.326727 
L 70.394316 -203.188145 
L 70.400077 -205.049564 
L 70.406651 -206.910982 
L 70.414205 -208.7724 
L 70.42293 -210.633818 
L 70.432636 -212.495236 
L 70.441815 -214.356655 
L 70.443775 -216.218073 
L 70.412412 -218.079491 
L 70.251025 -219.940909 
L 67.881884 -219.940909 
L 67.881884 -219.940909 
L 67.881884 -218.079491 
L 67.881884 -216.218073 
L 67.881884 -214.356655 
L 67.881884 -212.495236 
L 67.881884 -210.633818 
L 67.881884 -208.7724 
L 67.881884 -206.910982 
L 67.881884 -205.049564 
L 67.881884 -203.188145 
L 67.881884 -201.326727 
L 67.881884 -199.465309 
L 67.881884 -197.603891 
L 67.881884 -195.742473 
L 67.881884 -193.881055 
L 67.881884 -192.019636 
L 67.881884 -190.158218 
L 67.881884 -188.2968 
L 67.881884 -186.435382 
L 67.881884 -184.573964 
L 67.881884 -182.712545 
L 67.881884 -180.851127 
L 67.881884 -178.989709 
L 67.881884 -177.128291 
L 67.881884 -175.266873 
L 67.881884 -173.405455 
L 67.881884 -171.544036 
L 67.881884 -169.682618 
L 67.881884 -167.8212 
L 67.881884 -165.959782 
L 67.881884 -164.098364 
L 67.881884 -162.236945 
L 67.881884 -160.375527 
L 67.881884 -158.514109 
L 67.881884 -156.652691 
L 67.881884 -154.791273 
L 67.881884 -152.929855 
L 67.881884 -151.068436 
L 67.881884 -149.207018 
L 67.881884 -147.3456 
L 67.881884 -145.484182 
L 67.881884 -143.622764 
L 67.881884 -141.761345 
L 67.881884 -139.899927 
L 67.881884 -138.038509 
L 67.881884 -136.177091 
L 67.881884 -134.315673 
L 67.881884 -132.454255 
L 67.881884 -130.592836 
L 67.881884 -128.731418 
L 67.881884 -126.87 
L 67.881884 -125.008582 
L 67.881884 -123.147164 
L 67.881884 -121.285745 
L 67.881884 -119.424327 
L 67.881884 -117.562909 
L 67.881884 -115.701491 
L 67.881884 -113.840073 
L 67.881884 -111.978655 
L 67.881884 -110.117236 
L 67.881884 -108.255818 
L 67.881884 -106.3944 
L 67.881884 -104.532982 
L 67.881884 -102.671564 
L 67.881884 -100.810145 
L 67.881884 -98.948727 
L 67.881884 -97.087309 
L 67.881884 -95.225891 
L 67.881884 -93.364473 
L 67.881884 -91.503055 
L 67.881884 -89.641636 
L 67.881884 -87.780218 
L 67.881884 -85.9188 
L 67.881884 -84.057382 
L 67.881884 -82.195964 
L 67.881884 -80.334545 
L 67.881884 -78.473127 
L 67.881884 -76.611709 
L 67.881884 -74.750291 
L 67.881884 -72.888873 
L 67.881884 -71.027455 
L 67.881884 -69.166036 
L 67.881884 -67.304618 
L 67.881884 -65.4432 
L 67.881884 -63.581782 
L 67.881884 -61.720364 
L 67.881884 -59.858945 
L 67.881884 -57.997527 
L 67.881884 -56.136109 
L 67.881884 -54.274691 
L 67.881884 -52.413273 
L 67.881884 -50.551855 
L 67.881884 -48.690436 
L 67.881884 -46.829018 
L 67.881884 -44.9676 
L 67.881884 -43.106182 
L 67.881884 -41.244764 
L 67.881884 -39.383345 
L 67.881884 -37.521927 
L 67.881884 -35.660509 
L 67.881884 -33.799091 
z
" id="m1335b71f0d" style="stroke:#8dd35f;"/>
    </defs>
    <g clip-path="url(#pc4b7d5991b)">
     <use style="fill:#8dd35f;stroke:#8dd35f;" x="0" xlink:href="#m1335b71f0d" y="230.4"/>
    </g>
   </g>
   <g id="PolyCollection_10">
    <defs>
     <path d="M 67.881884 -33.799091 
L 67.881884 -33.799091 
L 67.881884 -35.660509 
L 67.881884 -37.521927 
L 67.881884 -39.383345 
L 67.881884 -41.244764 
L 67.881884 -43.106182 
L 67.881884 -44.9676 
L 67.881884 -46.829018 
L 67.881884 -48.690436 
L 67.881884 -50.551855 
L 67.881884 -52.413273 
L 67.881884 -54.274691 
L 67.881884 -56.136109 
L 67.881884 -57.997527 
L 67.881884 -59.858945 
L 67.881884 -61.720364 
L 67.881884 -63.581782 
L 67.881884 -65.4432 
L 67.881884 -67.304618 
L 67.881884 -69.166036 
L 67.881884 -71.027455 
L 67.881884 -72.888873 
L 67.881884 -74.750291 
L 67.881884 -76.611709 
L 67.881884 -78.473127 
L 67.881884 -80.334545 
L 67.881884 -82.195964 
L 67.881884 -84.057382 
L 67.881884 -85.9188 
L 67.881884 -87.780218 
L 67.881884 -89.641636 
L 67.881884 -91.503055 
L 67.881884 -93.364473 
L 67.881884 -95.225891 
L 67.881884 -97.087309 
L 67.881884 -98.948727 
L 67.881884 -100.810145 
L 67.881884 -102.671564 
L 67.881884 -104.532982 
L 67.881884 -106.3944 
L 67.881884 -108.255818 
L 67.881884 -110.117236 
L 67.881884 -111.978655 
L 67.881884 -113.840073 
L 67.881884 -115.701491 
L 67.881884 -117.562909 
L 67.881884 -119.424327 
L 67.881884 -121.285745 
L 67.881884 -123.147164 
L 67.881884 -125.008582 
L 67.881884 -126.87 
L 67.881884 -128.731418 
L 67.881884 -130.592836 
L 67.881884 -132.454255 
L 67.881884 -134.315673 
L 67.881884 -136.177091 
L 67.881884 -138.038509 
L 67.881884 -139.899927 
L 67.881884 -141.761345 
L 67.881884 -143.622764 
L 67.881884 -145.484182 
L 67.881884 -147.3456 
L 67.881884 -149.207018 
L 67.881884 -151.068436 
L 67.881884 -152.929855 
L 67.881884 -154.791273 
L 67.881884 -156.652691 
L 67.881884 -158.514109 
L 67.881884 -160.375527 
L 67.881884 -162.236945 
L 67.881884 -164.098364 
L 67.881884 -165.959782 
L 67.881884 -167.8212 
L 67.881884 -169.682618 
L 67.881884 -171.544036 
L 67.881883 -173.405455 
L 67.881882 -175.266873 
L 67.881878 -177.128291 
L 67.881869 -178.989709 
L 67.881844 -180.851127 
L 67.881783 -182.712545 
L 67.881628 -184.573964 
L 67.881249 -186.435382 
L 67.880337 -188.2968 
L 67.878193 -190.158218 
L 67.873291 -192.019636 
L 67.862482 -193.881055 
L 67.839713 -195.742473 
L 67.794513 -197.603891 
L 67.711387 -199.465309 
L 67.572595 -201.326727 
L 67.366508 -203.188145 
L 67.098823 -205.049564 
L 66.796804 -206.910982 
L 66.499314 -208.7724 
L 66.239907 -210.633818 
L 66.037454 -212.495236 
L 65.899575 -214.356655 
L 65.835893 -216.218073 
L 65.881778 -218.079491 
L 66.142956 -219.940909 
L 67.881884 -219.940909 
L 67.881884 -219.940909 
L 67.881884 -218.079491 
L 67.881884 -216.218073 
L 67.881884 -214.356655 
L 67.881884 -212.495236 
L 67.881884 -210.633818 
L 67.881884 -208.7724 
L 67.881884 -206.910982 
L 67.881884 -205.049564 
L 67.881884 -203.188145 
L 67.881884 -201.326727 
L 67.881884 -199.465309 
L 67.881884 -197.603891 
L 67.881884 -195.742473 
L 67.881884 -193.881055 
L 67.881884 -192.019636 
L 67.881884 -190.158218 
L 67.881884 -188.2968 
L 67.881884 -186.435382 
L 67.881884 -184.573964 
L 67.881884 -182.712545 
L 67.881884 -180.851127 
L 67.881884 -178.989709 
L 67.881884 -177.128291 
L 67.881884 -175.266873 
L 67.881884 -173.405455 
L 67.881884 -171.544036 
L 67.881884 -169.682618 
L 67.881884 -167.8212 
L 67.881884 -165.959782 
L 67.881884 -164.098364 
L 67.881884 -162.236945 
L 67.881884 -160.375527 
L 67.881884 -158.514109 
L 67.881884 -156.652691 
L 67.881884 -154.791273 
L 67.881884 -152.929855 
L 67.881884 -151.068436 
L 67.881884 -149.207018 
L 67.881884 -147.3456 
L 67.881884 -145.484182 
L 67.881884 -143.622764 
L 67.881884 -141.761345 
L 67.881884 -139.899927 
L 67.881884 -138.038509 
L 67.881884 -136.177091 
L 67.881884 -134.315673 
L 67.881884 -132.454255 
L 67.881884 -130.592836 
L 67.881884 -128.731418 
L 67.881884 -126.87 
L 67.881884 -125.008582 
L 67.881884 -123.147164 
L 67.881884 -121.285745 
L 67.881884 -119.424327 
L 67.881884 -117.562909 
L 67.881884 -115.701491 
L 67.881884 -113.840073 
L 67.881884 -111.978655 
L 67.881884 -110.117236 
L 67.881884 -108.255818 
L 67.881884 -106.3944 
L 67.881884 -104.532982 
L 67.881884 -102.671564 
L 67.881884 -100.810145 
L 67.881884 -98.948727 
L 67.881884 -97.087309 
L 67.881884 -95.225891 
L 67.881884 -93.364473 
L 67.881884 -91.503055 
L 67.881884 -89.641636 
L 67.881884 -87.780218 
L 67.881884 -85.9188 
L 67.881884 -84.057382 
L 67.881884 -82.195964 
L 67.881884 -80.334545 
L 67.881884 -78.473127 
L 67.881884 -76.611709 
L 67.881884 -74.750291 
L 67.881884 -72.888873 
L 67.881884 -71.027455 
L 67.881884 -69.166036 
L 67.881884 -67.304618 
L 67.881884 -65.4432 
L 67.881884 -63.581782 
L 67.881884 -61.720364 
L 67.881884 -59.858945 
L 67.881884 -57.997527 
L 67.881884 -56.136109 
L 67.881884 -54.274691 
L 67.881884 -52.413273 
L 67.881884 -50.551855 
L 67.881884 -48.690436 
L 67.881884 -46.829018 
L 67.881884 -44.9676 
L 67.881884 -43.106182 
L 67.881884 -41.244764 
L 67.881884 -39.383345 
L 67.881884 -37.521927 
L 67.881884 -35.660509 
L 67.881884 -33.799091 
z
" id="m38c455cf78" style="stroke:#8dd35f;"/>
    </defs>
    <g clip-path="url(#pc4b7d5991b)">
     <use style="fill:#8dd35f;stroke:#8dd35f;" x="0" xlink:href="#m38c455cf78" y="230.4"/>
    </g>
   </g>
   <g id="text_16">
    <!-- $\times 10^7$ -->
    <g style="fill:#262626;" transform="translate(206.530457 202.417841)scale(0.08 -0.08)">
     <use transform="translate(0 0.684375)" xlink:href="#DejaVuSans-215"/>
     <use transform="translate(83.789062 0.684375)" xlink:href="#DejaVuSans-49"/>
     <use transform="translate(147.412109 0.684375)" xlink:href="#DejaVuSans-48"/>
     <use transform="translate(211.992188 38.965625)scale(0.7)" xlink:href="#DejaVuSans-55"/>
    </g>
   </g>
   <g id="PolyCollection_11">
    <defs>
     <path d="M 67.881884 -33.799091 
L 69.246645 -33.799091 
L 69.889549 -35.660509 
L 70.136257 -37.521927 
L 70.224785 -39.383345 
L 70.255835 -41.244764 
L 70.266637 -43.106182 
L 70.270388 -44.9676 
L 70.271688 -46.829018 
L 70.272138 -48.690436 
L 70.272293 -50.551855 
L 70.272348 -52.413273 
L 70.272367 -54.274691 
L 70.272372 -56.136109 
L 70.272375 -57.997527 
L 70.272375 -59.858945 
L 70.272375 -61.720364 
L 70.272375 -63.581782 
L 70.272372 -65.4432 
L 70.27237 -67.304618 
L 70.272365 -69.166036 
L 70.27236 -71.027455 
L 70.272348 -72.888873 
L 70.272334 -74.750291 
L 70.27231 -76.611709 
L 70.272272 -78.473127 
L 70.272214 -80.334545 
L 70.272124 -82.195964 
L 70.271985 -84.057382 
L 70.271765 -85.9188 
L 70.271423 -87.780218 
L 70.270892 -89.641636 
L 70.270063 -91.503055 
L 70.268767 -93.364473 
L 70.26675 -95.225891 
L 70.263604 -97.087309 
L 70.258706 -98.948727 
L 70.251082 -100.810145 
L 70.239249 -102.671564 
L 70.220938 -104.532982 
L 70.192742 -106.3944 
L 70.149673 -108.255818 
L 70.084695 -110.117236 
L 69.988506 -111.978655 
L 69.850142 -113.840073 
L 69.659402 -115.701491 
L 69.412086 -117.562909 
L 69.117384 -119.424327 
L 68.802666 -121.285745 
L 68.507918 -123.147164 
L 68.268685 -125.008582 
L 68.10011 -126.87 
L 67.995555 -128.731418 
L 67.937293 -130.592836 
L 67.907491 -132.454255 
L 67.893225 -134.315673 
L 67.886739 -136.177091 
L 67.883905 -138.038509 
L 67.882706 -139.899927 
L 67.882212 -141.761345 
L 67.882012 -143.622764 
L 67.881934 -145.484182 
L 67.881903 -147.3456 
L 67.881891 -149.207018 
L 67.881887 -151.068436 
L 67.881885 -152.929855 
L 67.881885 -154.791273 
L 67.881884 -156.652691 
L 67.881884 -158.514109 
L 67.881884 -160.375527 
L 67.881884 -162.236945 
L 67.881884 -164.098364 
L 67.881884 -165.959782 
L 67.881884 -167.8212 
L 67.881884 -169.682618 
L 67.881884 -171.544036 
L 67.881884 -173.405455 
L 67.881884 -175.266873 
L 67.881884 -177.128291 
L 67.881884 -178.989709 
L 67.881884 -180.851127 
L 67.881884 -182.712545 
L 67.881884 -184.573964 
L 67.881884 -186.435382 
L 67.881884 -188.2968 
L 67.881884 -190.158218 
L 67.881884 -192.019636 
L 67.881884 -193.881055 
L 67.881884 -195.742473 
L 67.881884 -197.603891 
L 67.881884 -199.465309 
L 67.881884 -201.326727 
L 67.881884 -203.188145 
L 67.881884 -205.049564 
L 67.881884 -206.910982 
L 67.881884 -208.7724 
L 67.881884 -210.633818 
L 67.881884 -212.495236 
L 67.881884 -214.356655 
L 67.881884 -216.218073 
L 67.881884 -218.079491 
L 67.881884 -219.940909 
L 67.881884 -219.940909 
L 67.881884 -219.940909 
L 67.881884 -218.079491 
L 67.881884 -216.218073 
L 67.881884 -214.356655 
L 67.881884 -212.495236 
L 67.881884 -210.633818 
L 67.881884 -208.7724 
L 67.881884 -206.910982 
L 67.881884 -205.049564 
L 67.881884 -203.188145 
L 67.881884 -201.326727 
L 67.881884 -199.465309 
L 67.881884 -197.603891 
L 67.881884 -195.742473 
L 67.881884 -193.881055 
L 67.881884 -192.019636 
L 67.881884 -190.158218 
L 67.881884 -188.2968 
L 67.881884 -186.435382 
L 67.881884 -184.573964 
L 67.881884 -182.712545 
L 67.881884 -180.851127 
L 67.881884 -178.989709 
L 67.881884 -177.128291 
L 67.881884 -175.266873 
L 67.881884 -173.405455 
L 67.881884 -171.544036 
L 67.881884 -169.682618 
L 67.881884 -167.8212 
L 67.881884 -165.959782 
L 67.881884 -164.098364 
L 67.881884 -162.236945 
L 67.881884 -160.375527 
L 67.881884 -158.514109 
L 67.881884 -156.652691 
L 67.881884 -154.791273 
L 67.881884 -152.929855 
L 67.881884 -151.068436 
L 67.881884 -149.207018 
L 67.881884 -147.3456 
L 67.881884 -145.484182 
L 67.881884 -143.622764 
L 67.881884 -141.761345 
L 67.881884 -139.899927 
L 67.881884 -138.038509 
L 67.881884 -136.177091 
L 67.881884 -134.315673 
L 67.881884 -132.454255 
L 67.881884 -130.592836 
L 67.881884 -128.731418 
L 67.881884 -126.87 
L 67.881884 -125.008582 
L 67.881884 -123.147164 
L 67.881884 -121.285745 
L 67.881884 -119.424327 
L 67.881884 -117.562909 
L 67.881884 -115.701491 
L 67.881884 -113.840073 
L 67.881884 -111.978655 
L 67.881884 -110.117236 
L 67.881884 -108.255818 
L 67.881884 -106.3944 
L 67.881884 -104.532982 
L 67.881884 -102.671564 
L 67.881884 -100.810145 
L 67.881884 -98.948727 
L 67.881884 -97.087309 
L 67.881884 -95.225891 
L 67.881884 -93.364473 
L 67.881884 -91.503055 
L 67.881884 -89.641636 
L 67.881884 -87.780218 
L 67.881884 -85.9188 
L 67.881884 -84.057382 
L 67.881884 -82.195964 
L 67.881884 -80.334545 
L 67.881884 -78.473127 
L 67.881884 -76.611709 
L 67.881884 -74.750291 
L 67.881884 -72.888873 
L 67.881884 -71.027455 
L 67.881884 -69.166036 
L 67.881884 -67.304618 
L 67.881884 -65.4432 
L 67.881884 -63.581782 
L 67.881884 -61.720364 
L 67.881884 -59.858945 
L 67.881884 -57.997527 
L 67.881884 -56.136109 
L 67.881884 -54.274691 
L 67.881884 -52.413273 
L 67.881884 -50.551855 
L 67.881884 -48.690436 
L 67.881884 -46.829018 
L 67.881884 -44.9676 
L 67.881884 -43.106182 
L 67.881884 -41.244764 
L 67.881884 -39.383345 
L 67.881884 -37.521927 
L 67.881884 -35.660509 
L 67.881884 -33.799091 
z
" id="m94a09965c1" style="stroke:#ffb380;"/>
    </defs>
    <g clip-path="url(#pc4b7d5991b)">
     <use style="fill:#ffb380;stroke:#ffb380;" x="0" xlink:href="#m94a09965c1" y="230.4"/>
    </g>
   </g>
   <g id="PolyCollection_12">
    <defs>
     <path d="M 67.881884 -33.799091 
L 67.881884 -33.799091 
L 67.881884 -35.660509 
L 67.881884 -37.521927 
L 67.881884 -39.383345 
L 67.881884 -41.244764 
L 67.881884 -43.106182 
L 67.881884 -44.9676 
L 67.881884 -46.829018 
L 67.881884 -48.690436 
L 67.881884 -50.551855 
L 67.881884 -52.413273 
L 67.881884 -54.274691 
L 67.881884 -56.136109 
L 67.881884 -57.997527 
L 67.881884 -59.858945 
L 67.881884 -61.720364 
L 67.881884 -63.581782 
L 67.881884 -65.4432 
L 67.881884 -67.304618 
L 67.881884 -69.166036 
L 67.881884 -71.027455 
L 67.881884 -72.888873 
L 67.881884 -74.750291 
L 67.881884 -76.611709 
L 67.881884 -78.473127 
L 67.881884 -80.334545 
L 67.881884 -82.195964 
L 67.881884 -84.057382 
L 67.881884 -85.9188 
L 67.881884 -87.780218 
L 67.881884 -89.641636 
L 67.881884 -91.503055 
L 67.881884 -93.364473 
L 67.881884 -95.225891 
L 67.881884 -97.087309 
L 67.881884 -98.948727 
L 67.881884 -100.810145 
L 67.881884 -102.671564 
L 67.881884 -104.532982 
L 67.881884 -106.3944 
L 67.881884 -108.255818 
L 67.881884 -110.117236 
L 67.881884 -111.978655 
L 67.881884 -113.840073 
L 67.881884 -115.701491 
L 67.881884 -117.562909 
L 67.881884 -119.424327 
L 67.881884 -121.285745 
L 67.881884 -123.147164 
L 67.881884 -125.008582 
L 67.881884 -126.87 
L 67.881884 -128.731418 
L 67.881884 -130.592836 
L 67.881884 -132.454255 
L 67.881884 -134.315673 
L 67.881884 -136.177091 
L 67.881884 -138.038509 
L 67.881884 -139.899927 
L 67.881884 -141.761345 
L 67.881884 -143.622764 
L 67.881884 -145.484182 
L 67.881884 -147.3456 
L 67.881884 -149.207018 
L 67.881884 -151.068436 
L 67.881884 -152.929855 
L 67.881884 -154.791273 
L 67.881884 -156.652691 
L 67.881884 -158.514109 
L 67.881884 -160.375527 
L 67.881884 -162.236945 
L 67.881884 -164.098364 
L 67.881884 -165.959782 
L 67.881884 -167.8212 
L 67.881884 -169.682618 
L 67.881884 -171.544036 
L 67.881884 -173.405455 
L 67.881884 -175.266873 
L 67.881884 -177.128291 
L 67.881884 -178.989709 
L 67.881884 -180.851127 
L 67.881884 -182.712545 
L 67.881884 -184.573964 
L 67.881884 -186.435382 
L 67.881884 -188.2968 
L 67.881884 -190.158218 
L 67.881884 -192.019636 
L 67.881884 -193.881055 
L 67.881884 -195.742473 
L 67.881884 -197.603891 
L 67.881884 -199.465309 
L 67.881884 -201.326727 
L 67.881884 -203.188145 
L 67.881884 -205.049564 
L 67.881884 -206.910982 
L 67.881884 -208.7724 
L 67.881884 -210.633818 
L 67.881884 -212.495236 
L 67.881884 -214.356655 
L 67.881884 -216.218073 
L 67.881884 -218.079491 
L 67.881884 -219.940909 
L 67.881884 -219.940909 
L 67.881884 -219.940909 
L 67.881884 -218.079491 
L 67.881884 -216.218073 
L 67.881884 -214.356655 
L 67.881884 -212.495236 
L 67.881884 -210.633818 
L 67.881884 -208.7724 
L 67.881884 -206.910982 
L 67.881884 -205.049564 
L 67.881884 -203.188145 
L 67.881884 -201.326727 
L 67.881884 -199.465309 
L 67.881884 -197.603891 
L 67.881884 -195.742473 
L 67.881884 -193.881055 
L 67.881884 -192.019636 
L 67.881884 -190.158218 
L 67.881884 -188.2968 
L 67.881884 -186.435382 
L 67.881884 -184.573964 
L 67.881884 -182.712545 
L 67.881884 -180.851127 
L 67.881884 -178.989709 
L 67.881884 -177.128291 
L 67.881884 -175.266873 
L 67.881884 -173.405455 
L 67.881884 -171.544036 
L 67.881884 -169.682618 
L 67.881884 -167.8212 
L 67.881884 -165.959782 
L 67.881884 -164.098364 
L 67.881884 -162.236945 
L 67.881884 -160.375527 
L 67.881884 -158.514109 
L 67.881884 -156.652691 
L 67.881884 -154.791273 
L 67.881884 -152.929855 
L 67.881884 -151.068436 
L 67.881884 -149.207018 
L 67.881884 -147.3456 
L 67.881884 -145.484182 
L 67.881884 -143.622764 
L 67.881884 -141.761345 
L 67.881884 -139.899927 
L 67.881884 -138.038509 
L 67.881884 -136.177091 
L 67.881884 -134.315673 
L 67.881884 -132.454255 
L 67.881884 -130.592836 
L 67.881884 -128.731418 
L 67.881884 -126.87 
L 67.881884 -125.008582 
L 67.881884 -123.147164 
L 67.881884 -121.285745 
L 67.881884 -119.424327 
L 67.881884 -117.562909 
L 67.881884 -115.701491 
L 67.881884 -113.840073 
L 67.881884 -111.978655 
L 67.881884 -110.117236 
L 67.881884 -108.255818 
L 67.881884 -106.3944 
L 67.881884 -104.532982 
L 67.881884 -102.671564 
L 67.881884 -100.810145 
L 67.881884 -98.948727 
L 67.881884 -97.087309 
L 67.881884 -95.225891 
L 67.881884 -93.364473 
L 67.881884 -91.503055 
L 67.881884 -89.641636 
L 67.881884 -87.780218 
L 67.881884 -85.9188 
L 67.881884 -84.057382 
L 67.881884 -82.195964 
L 67.881884 -80.334545 
L 67.881884 -78.473127 
L 67.881884 -76.611709 
L 67.881884 -74.750291 
L 67.881884 -72.888873 
L 67.881884 -71.027455 
L 67.881884 -69.166036 
L 67.881884 -67.304618 
L 67.881884 -65.4432 
L 67.881884 -63.581782 
L 67.881884 -61.720364 
L 67.881884 -59.858945 
L 67.881884 -57.997527 
L 67.881884 -56.136109 
L 67.881884 -54.274691 
L 67.881884 -52.413273 
L 67.881884 -50.551855 
L 67.881884 -48.690436 
L 67.881884 -46.829018 
L 67.881884 -44.9676 
L 67.881884 -43.106182 
L 67.881884 -41.244764 
L 67.881884 -39.383345 
L 67.881884 -37.521927 
L 67.881884 -35.660509 
L 67.881884 -33.799091 
z
" id="m8bb56cb2fc" style="stroke:#ffb380;"/>
    </defs>
    <g clip-path="url(#pc4b7d5991b)">
     <use style="fill:#ffb380;stroke:#ffb380;" x="0" xlink:href="#m8bb56cb2fc" y="230.4"/>
    </g>
   </g>
  </g>
  <g id="axes_4">
   <g id="patch_10">
    <path d="M 33.528 205.908 
L 229.194 205.908 
L 229.194 1.152 
L 33.528 1.152 
z
" style="fill:none;"/>
   </g>
   <g id="matplotlib.axis_5">
    <g id="text_17">
     <!-- Bacterial density (mm$^{-3}$) -->
     <defs>
      <path d="M 24.703125 5.171875 
L 39.3125 5.171875 
Q 48.09375 5.171875 52.140625 8.984375 
Q 56.203125 12.796875 56.203125 21.09375 
Q 56.203125 29.34375 52.171875 33.125 
Q 48.140625 36.921875 39.3125 36.921875 
L 24.703125 36.921875 
z
M 24.703125 42.09375 
L 37.109375 42.09375 
Q 45.125 42.09375 48.796875 45.171875 
Q 52.484375 48.25 52.484375 54.890625 
Q 52.484375 61.578125 48.796875 64.625 
Q 45.125 67.671875 37.109375 67.671875 
L 24.703125 67.671875 
z
M 5.515625 0 
L 5.515625 5.171875 
L 14.796875 5.171875 
L 14.796875 67.671875 
L 5.515625 67.671875 
L 5.515625 72.90625 
L 41.5 72.90625 
Q 52.546875 72.90625 58.125 68.390625 
Q 63.71875 63.875 63.71875 54.890625 
Q 63.71875 48.390625 59.828125 44.53125 
Q 55.953125 40.671875 48.484375 39.796875 
Q 57.765625 38.625 62.578125 33.859375 
Q 67.390625 29.109375 67.390625 21.09375 
Q 67.390625 10.25 60.546875 5.125 
Q 53.71875 0 39.203125 0 
z
" id="DejaVuSerif-66"/>
      <path d="M 39.796875 16.3125 
L 39.796875 27.296875 
L 28.21875 27.296875 
Q 21.53125 27.296875 18.25 24.40625 
Q 14.984375 21.53125 14.984375 15.578125 
Q 14.984375 10.15625 18.296875 6.984375 
Q 21.625 3.8125 27.296875 3.8125 
Q 32.90625 3.8125 36.34375 7.28125 
Q 39.796875 10.75 39.796875 16.3125 
z
M 48.78125 32.421875 
L 48.78125 5.171875 
L 56.78125 5.171875 
L 56.78125 0 
L 39.796875 0 
L 39.796875 5.609375 
Q 36.8125 2 32.90625 0.28125 
Q 29 -1.421875 23.78125 -1.421875 
Q 15.140625 -1.421875 10.0625 3.171875 
Q 4.984375 7.765625 4.984375 15.578125 
Q 4.984375 23.640625 10.796875 28.078125 
Q 16.609375 32.515625 27.203125 32.515625 
L 39.796875 32.515625 
L 39.796875 36.078125 
Q 39.796875 42 36.203125 45.234375 
Q 32.625 48.484375 26.125 48.484375 
Q 20.75 48.484375 17.578125 46.046875 
Q 14.40625 43.609375 13.625 38.8125 
L 8.984375 38.8125 
L 8.984375 49.3125 
Q 13.671875 51.3125 18.09375 52.3125 
Q 22.515625 53.328125 26.703125 53.328125 
Q 37.5 53.328125 43.140625 47.96875 
Q 48.78125 42.625 48.78125 32.421875 
z
" id="DejaVuSerif-97"/>
      <path d="M 51.421875 15.578125 
Q 49.515625 7.28125 44.09375 2.921875 
Q 38.671875 -1.421875 30.078125 -1.421875 
Q 18.75 -1.421875 11.859375 6.078125 
Q 4.984375 13.578125 4.984375 25.984375 
Q 4.984375 38.421875 11.859375 45.875 
Q 18.75 53.328125 30.078125 53.328125 
Q 35.015625 53.328125 39.890625 52.171875 
Q 44.78125 51.03125 49.703125 48.6875 
L 49.703125 35.40625 
L 44.484375 35.40625 
Q 43.453125 42.234375 40.015625 45.359375 
Q 36.578125 48.484375 30.171875 48.484375 
Q 22.90625 48.484375 19.1875 42.84375 
Q 15.484375 37.203125 15.484375 25.984375 
Q 15.484375 14.75 19.171875 9.078125 
Q 22.859375 3.421875 30.171875 3.421875 
Q 35.984375 3.421875 39.453125 6.4375 
Q 42.921875 9.46875 44.1875 15.578125 
z
" id="DejaVuSerif-99"/>
      <path d="M 10.796875 46.6875 
L 2.875 46.6875 
L 2.875 51.90625 
L 10.796875 51.90625 
L 10.796875 68.015625 
L 19.828125 68.015625 
L 19.828125 51.90625 
L 36.71875 51.90625 
L 36.71875 46.6875 
L 19.828125 46.6875 
L 19.828125 13.71875 
Q 19.828125 7.125 21.09375 5.265625 
Q 22.359375 3.421875 25.78125 3.421875 
Q 29.296875 3.421875 30.90625 5.484375 
Q 32.515625 7.5625 32.625 12.203125 
L 39.40625 12.203125 
Q 39.015625 5.125 35.546875 1.84375 
Q 32.078125 -1.421875 25 -1.421875 
Q 17.234375 -1.421875 14.015625 2.015625 
Q 10.796875 5.46875 10.796875 13.71875 
z
" id="DejaVuSerif-116"/>
      <path d="M 54.203125 25 
L 15.484375 25 
L 15.484375 24.609375 
Q 15.484375 14.109375 19.4375 8.765625 
Q 23.390625 3.421875 31.109375 3.421875 
Q 37.015625 3.421875 40.796875 6.515625 
Q 44.578125 9.625 46.09375 15.71875 
L 53.328125 15.71875 
Q 51.171875 7.171875 45.375 2.875 
Q 39.59375 -1.421875 30.171875 -1.421875 
Q 18.796875 -1.421875 11.890625 6.078125 
Q 4.984375 13.578125 4.984375 25.984375 
Q 4.984375 38.28125 11.765625 45.796875 
Q 18.5625 53.328125 29.59375 53.328125 
Q 41.359375 53.328125 47.65625 46.0625 
Q 53.953125 38.8125 54.203125 25 
z
M 43.609375 30.171875 
Q 43.3125 39.265625 39.765625 43.875 
Q 36.234375 48.484375 29.59375 48.484375 
Q 23.390625 48.484375 19.828125 43.84375 
Q 16.265625 39.203125 15.484375 30.171875 
z
" id="DejaVuSerif-101"/>
      <path d="M 47.796875 52 
L 47.796875 39.015625 
L 42.625 39.015625 
Q 42.390625 42.875 40.484375 44.78125 
Q 38.578125 46.6875 34.90625 46.6875 
Q 28.265625 46.6875 24.71875 42.09375 
Q 21.1875 37.5 21.1875 28.90625 
L 21.1875 5.171875 
L 31.59375 5.171875 
L 31.59375 0 
L 4.109375 0 
L 4.109375 5.171875 
L 12.203125 5.171875 
L 12.203125 46.78125 
L 3.609375 46.78125 
L 3.609375 51.90625 
L 21.1875 51.90625 
L 21.1875 42.671875 
Q 23.828125 48.09375 27.96875 50.703125 
Q 32.125 53.328125 38.09375 53.328125 
Q 40.28125 53.328125 42.703125 52.984375 
Q 45.125 52.640625 47.796875 52 
z
" id="DejaVuSerif-114"/>
      <path d="M 9.71875 68.015625 
Q 9.71875 70.265625 11.34375 71.921875 
Q 12.984375 73.578125 15.28125 73.578125 
Q 17.53125 73.578125 19.15625 71.921875 
Q 20.796875 70.265625 20.796875 68.015625 
Q 20.796875 65.71875 19.1875 64.109375 
Q 17.578125 62.5 15.28125 62.5 
Q 12.984375 62.5 11.34375 64.109375 
Q 9.71875 65.71875 9.71875 68.015625 
z
M 21.1875 5.171875 
L 29.6875 5.171875 
L 29.6875 0 
L 3.609375 0 
L 3.609375 5.171875 
L 12.203125 5.171875 
L 12.203125 46.6875 
L 3.609375 46.6875 
L 3.609375 51.90625 
L 21.1875 51.90625 
z
" id="DejaVuSerif-105"/>
      <path d="M 20.515625 5.171875 
L 29 5.171875 
L 29 0 
L 2.875 0 
L 2.875 5.171875 
L 11.53125 5.171875 
L 11.53125 70.796875 
L 2.875 70.796875 
L 2.875 75.984375 
L 20.515625 75.984375 
z
" id="DejaVuSerif-108"/>
      <path id="DejaVuSerif-32"/>
      <path d="M 52.484375 5.171875 
L 61.078125 5.171875 
L 61.078125 0 
L 43.5 0 
L 43.5 8.109375 
Q 40.875 3.21875 36.796875 0.890625 
Q 32.71875 -1.421875 26.703125 -1.421875 
Q 17.140625 -1.421875 11.0625 6.171875 
Q 4.984375 13.765625 4.984375 25.984375 
Q 4.984375 38.1875 11.03125 45.75 
Q 17.09375 53.328125 26.703125 53.328125 
Q 32.71875 53.328125 36.796875 51 
Q 40.875 48.6875 43.5 43.796875 
L 43.5 70.796875 
L 35.015625 70.796875 
L 35.015625 75.984375 
L 52.484375 75.984375 
z
M 43.5 23.390625 
L 43.5 28.515625 
Q 43.5 37.84375 39.90625 42.765625 
Q 36.328125 47.703125 29.5 47.703125 
Q 22.5625 47.703125 19.015625 42.234375 
Q 15.484375 36.765625 15.484375 25.984375 
Q 15.484375 15.234375 19.015625 9.71875 
Q 22.5625 4.203125 29.5 4.203125 
Q 36.328125 4.203125 39.90625 9.109375 
Q 43.5 14.015625 43.5 23.390625 
z
" id="DejaVuSerif-100"/>
      <path d="M 4.109375 0 
L 4.109375 5.171875 
L 12.203125 5.171875 
L 12.203125 46.6875 
L 3.609375 46.6875 
L 3.609375 51.90625 
L 21.1875 51.90625 
L 21.1875 42.671875 
Q 23.6875 47.953125 27.65625 50.640625 
Q 31.640625 53.328125 36.921875 53.328125 
Q 45.515625 53.328125 49.5625 48.390625 
Q 53.609375 43.453125 53.609375 33.015625 
L 53.609375 5.171875 
L 61.625 5.171875 
L 61.625 0 
L 36.8125 0 
L 36.8125 5.171875 
L 44.578125 5.171875 
L 44.578125 30.171875 
Q 44.578125 39.703125 42.234375 43.234375 
Q 39.890625 46.78125 33.984375 46.78125 
Q 27.734375 46.78125 24.453125 42.203125 
Q 21.1875 37.640625 21.1875 28.90625 
L 21.1875 5.171875 
L 29 5.171875 
L 29 0 
z
" id="DejaVuSerif-110"/>
      <path d="M 5.609375 2.875 
L 5.609375 14.984375 
L 10.796875 14.984375 
Q 10.984375 9.1875 14.421875 6.296875 
Q 17.875 3.421875 24.609375 3.421875 
Q 30.671875 3.421875 33.84375 5.6875 
Q 37.015625 7.953125 37.015625 12.3125 
Q 37.015625 15.71875 34.6875 17.8125 
Q 32.375 19.921875 24.90625 22.3125 
L 18.40625 24.515625 
Q 11.71875 26.65625 8.71875 29.875 
Q 5.71875 33.109375 5.71875 38.09375 
Q 5.71875 45.21875 10.9375 49.265625 
Q 16.15625 53.328125 25.390625 53.328125 
Q 29.5 53.328125 34.03125 52.25 
Q 38.578125 51.171875 43.40625 49.125 
L 43.40625 37.796875 
L 38.234375 37.796875 
Q 38.03125 42.828125 34.703125 45.65625 
Q 31.390625 48.484375 25.6875 48.484375 
Q 20.015625 48.484375 17.109375 46.484375 
Q 14.203125 44.484375 14.203125 40.484375 
Q 14.203125 37.203125 16.40625 35.21875 
Q 18.609375 33.25 25.203125 31.203125 
L 32.328125 29 
Q 39.703125 26.703125 42.9375 23.265625 
Q 46.1875 19.828125 46.1875 14.40625 
Q 46.1875 7.03125 40.546875 2.796875 
Q 34.90625 -1.421875 25 -1.421875 
Q 19.96875 -1.421875 15.1875 -0.34375 
Q 10.40625 0.734375 5.609375 2.875 
z
" id="DejaVuSerif-115"/>
      <path d="M 21.578125 -9.515625 
L 25 -0.875 
L 5.609375 46.6875 
L -0.296875 46.6875 
L -0.296875 51.90625 
L 23.578125 51.90625 
L 23.578125 46.6875 
L 15.28125 46.6875 
L 29.890625 10.984375 
L 44.484375 46.6875 
L 36.71875 46.6875 
L 36.71875 51.90625 
L 56.203125 51.90625 
L 56.203125 46.6875 
L 50.390625 46.6875 
L 26.609375 -11.71875 
Q 24.171875 -17.78125 21.1875 -20 
Q 18.21875 -22.21875 12.796875 -22.21875 
Q 10.5 -22.21875 8.078125 -21.828125 
Q 5.671875 -21.4375 3.21875 -20.703125 
L 3.21875 -10.796875 
L 7.8125 -10.796875 
Q 8.109375 -14.109375 9.5 -15.546875 
Q 10.890625 -17 13.8125 -17 
Q 16.5 -17 18.140625 -15.5 
Q 19.78125 -14.015625 21.578125 -9.515625 
z
" id="DejaVuSerif-121"/>
      <path d="M 31.890625 -15.578125 
Q 20.015625 -10.25 13.953125 1.296875 
Q 7.90625 12.84375 7.90625 30.171875 
Q 7.90625 47.5625 13.953125 59.109375 
Q 20.015625 70.65625 31.890625 75.984375 
L 31.890625 71.1875 
Q 24.359375 66.015625 21.09375 56.609375 
Q 17.828125 47.21875 17.828125 30.171875 
Q 17.828125 13.1875 21.09375 3.78125 
Q 24.359375 -5.609375 31.890625 -10.796875 
z
" id="DejaVuSerif-40"/>
      <path d="M 51.8125 41.796875 
Q 54.390625 47.515625 58.421875 50.421875 
Q 62.453125 53.328125 67.828125 53.328125 
Q 75.984375 53.328125 79.984375 48.265625 
Q 83.984375 43.21875 83.984375 33.015625 
L 83.984375 5.171875 
L 92.09375 5.171875 
L 92.09375 0 
L 67.1875 0 
L 67.1875 5.171875 
L 75 5.171875 
L 75 31.984375 
Q 75 39.9375 72.65625 43.3125 
Q 70.3125 46.6875 64.890625 46.6875 
Q 58.890625 46.6875 55.734375 42.140625 
Q 52.59375 37.59375 52.59375 28.90625 
L 52.59375 5.171875 
L 60.40625 5.171875 
L 60.40625 0 
L 35.796875 0 
L 35.796875 5.171875 
L 43.609375 5.171875 
L 43.609375 32.328125 
Q 43.609375 40.09375 41.265625 43.390625 
Q 38.921875 46.6875 33.5 46.6875 
Q 27.484375 46.6875 24.328125 42.140625 
Q 21.1875 37.59375 21.1875 28.90625 
L 21.1875 5.171875 
L 29 5.171875 
L 29 0 
L 4.109375 0 
L 4.109375 5.171875 
L 12.203125 5.171875 
L 12.203125 46.78125 
L 3.609375 46.78125 
L 3.609375 51.90625 
L 21.1875 51.90625 
L 21.1875 42.671875 
Q 23.6875 47.859375 27.53125 50.59375 
Q 31.390625 53.328125 36.28125 53.328125 
Q 42.328125 53.328125 46.375 50.3125 
Q 50.4375 47.3125 51.8125 41.796875 
z
" id="DejaVuSerif-109"/>
      <path d="M 10.59375 35.5 
L 73.1875 35.5 
L 73.1875 27.203125 
L 10.59375 27.203125 
z
" id="DejaVuSans-8722"/>
      <path d="M 40.578125 39.3125 
Q 47.65625 37.796875 51.625 33 
Q 55.609375 28.21875 55.609375 21.1875 
Q 55.609375 10.40625 48.1875 4.484375 
Q 40.765625 -1.421875 27.09375 -1.421875 
Q 22.515625 -1.421875 17.65625 -0.515625 
Q 12.796875 0.390625 7.625 2.203125 
L 7.625 11.71875 
Q 11.71875 9.328125 16.59375 8.109375 
Q 21.484375 6.890625 26.8125 6.890625 
Q 36.078125 6.890625 40.9375 10.546875 
Q 45.796875 14.203125 45.796875 21.1875 
Q 45.796875 27.640625 41.28125 31.265625 
Q 36.765625 34.90625 28.71875 34.90625 
L 20.21875 34.90625 
L 20.21875 43.015625 
L 29.109375 43.015625 
Q 36.375 43.015625 40.234375 45.921875 
Q 44.09375 48.828125 44.09375 54.296875 
Q 44.09375 59.90625 40.109375 62.90625 
Q 36.140625 65.921875 28.71875 65.921875 
Q 24.65625 65.921875 20.015625 65.03125 
Q 15.375 64.15625 9.8125 62.3125 
L 9.8125 71.09375 
Q 15.4375 72.65625 20.34375 73.4375 
Q 25.25 74.21875 29.59375 74.21875 
Q 40.828125 74.21875 47.359375 69.109375 
Q 53.90625 64.015625 53.90625 55.328125 
Q 53.90625 49.265625 50.4375 45.09375 
Q 46.96875 40.921875 40.578125 39.3125 
z
" id="DejaVuSans-51"/>
      <path d="M 7.078125 -15.578125 
L 7.078125 -10.796875 
Q 14.59375 -5.609375 17.890625 3.78125 
Q 21.1875 13.1875 21.1875 30.171875 
Q 21.1875 47.21875 17.890625 56.609375 
Q 14.59375 66.015625 7.078125 71.1875 
L 7.078125 75.984375 
Q 19 70.65625 25.046875 59.109375 
Q 31.109375 47.5625 31.109375 30.171875 
Q 31.109375 12.84375 25.046875 1.296875 
Q 19 -10.25 7.078125 -15.578125 
z
" id="DejaVuSerif-41"/>
     </defs>
     <g style="fill:#262626;" transform="translate(80.721 228.188)scale(0.08 -0.08)">
      <use transform="translate(0 0.765625)" xlink:href="#DejaVuSerif-66"/>
      <use transform="translate(73.486328 0.765625)" xlink:href="#DejaVuSerif-97"/>
      <use transform="translate(133.105469 0.765625)" xlink:href="#DejaVuSerif-99"/>
      <use transform="translate(189.111328 0.765625)" xlink:href="#DejaVuSerif-116"/>
      <use transform="translate(229.296875 0.765625)" xlink:href="#DejaVuSerif-101"/>
      <use transform="translate(288.476562 0.765625)" xlink:href="#DejaVuSerif-114"/>
      <use transform="translate(336.279297 0.765625)" xlink:href="#DejaVuSerif-105"/>
      <use transform="translate(368.261719 0.765625)" xlink:href="#DejaVuSerif-97"/>
      <use transform="translate(427.880859 0.765625)" xlink:href="#DejaVuSerif-108"/>
      <use transform="translate(459.863281 0.765625)" xlink:href="#DejaVuSerif-32"/>
      <use transform="translate(491.650391 0.765625)" xlink:href="#DejaVuSerif-100"/>
      <use transform="translate(555.664062 0.765625)" xlink:href="#DejaVuSerif-101"/>
      <use transform="translate(614.84375 0.765625)" xlink:href="#DejaVuSerif-110"/>
      <use transform="translate(679.248047 0.765625)" xlink:href="#DejaVuSerif-115"/>
      <use transform="translate(730.566406 0.765625)" xlink:href="#DejaVuSerif-105"/>
      <use transform="translate(762.548828 0.765625)" xlink:href="#DejaVuSerif-116"/>
      <use transform="translate(802.734375 0.765625)" xlink:href="#DejaVuSerif-121"/>
      <use transform="translate(859.228516 0.765625)" xlink:href="#DejaVuSerif-32"/>
      <use transform="translate(891.015625 0.765625)" xlink:href="#DejaVuSerif-40"/>
      <use transform="translate(930.029297 0.765625)" xlink:href="#DejaVuSerif-109"/>
      <use transform="translate(1024.853516 0.765625)" xlink:href="#DejaVuSerif-109"/>
      <use transform="translate(1120.634766 39.046875)scale(0.7)" xlink:href="#DejaVuSans-8722"/>
      <use transform="translate(1179.287109 39.046875)scale(0.7)" xlink:href="#DejaVuSans-51"/>
      <use transform="translate(1226.557617 0.765625)" xlink:href="#DejaVuSerif-41"/>
     </g>
    </g>
   </g>
   <g id="matplotlib.axis_6">
    <g id="text_18">
     <!-- Distance up urethra (mm) -->
     <defs>
      <path d="M 24.703125 5.171875 
L 33.796875 5.171875 
Q 48 5.171875 55.59375 13.28125 
Q 63.1875 21.390625 63.1875 36.53125 
Q 63.1875 51.65625 55.609375 59.65625 
Q 48.046875 67.671875 33.796875 67.671875 
L 24.703125 67.671875 
z
M 5.515625 0 
L 5.515625 5.171875 
L 14.796875 5.171875 
L 14.796875 67.671875 
L 5.515625 67.671875 
L 5.515625 72.90625 
L 34.515625 72.90625 
Q 53.375 72.90625 63.890625 63.28125 
Q 74.421875 53.65625 74.421875 36.53125 
Q 74.421875 19.34375 63.875 9.671875 
Q 53.328125 0 34.515625 0 
z
" id="DejaVuSerif-68"/>
      <path d="M 35.40625 51.90625 
L 52.203125 51.90625 
L 52.203125 5.171875 
L 60.6875 5.171875 
L 60.6875 0 
L 43.21875 0 
L 43.21875 9.1875 
Q 40.71875 4 36.765625 1.28125 
Q 32.8125 -1.421875 27.59375 -1.421875 
Q 18.953125 -1.421875 14.875 3.484375 
Q 10.796875 8.40625 10.796875 18.890625 
L 10.796875 46.6875 
L 2.6875 46.6875 
L 2.6875 51.90625 
L 19.828125 51.90625 
L 19.828125 21.6875 
Q 19.828125 12.203125 22.140625 8.6875 
Q 24.46875 5.171875 30.421875 5.171875 
Q 36.671875 5.171875 39.9375 9.765625 
Q 43.21875 14.359375 43.21875 23.09375 
L 43.21875 46.6875 
L 35.40625 46.6875 
z
" id="DejaVuSerif-117"/>
      <path d="M 20.515625 28.515625 
L 20.515625 23.390625 
Q 20.515625 14.015625 24.09375 9.109375 
Q 27.6875 4.203125 34.515625 4.203125 
Q 41.40625 4.203125 44.9375 9.71875 
Q 48.484375 15.234375 48.484375 25.984375 
Q 48.484375 36.765625 44.9375 42.234375 
Q 41.40625 47.703125 34.515625 47.703125 
Q 27.6875 47.703125 24.09375 42.765625 
Q 20.515625 37.84375 20.515625 28.515625 
z
M 11.53125 46.6875 
L 2.875 46.6875 
L 2.875 51.90625 
L 20.515625 51.90625 
L 20.515625 43.796875 
Q 23.140625 48.6875 27.21875 51 
Q 31.296875 53.328125 37.3125 53.328125 
Q 46.875 53.328125 52.921875 45.75 
Q 58.984375 38.1875 58.984375 25.984375 
Q 58.984375 13.765625 52.921875 6.171875 
Q 46.875 -1.421875 37.3125 -1.421875 
Q 31.296875 -1.421875 27.21875 0.890625 
Q 23.140625 3.21875 20.515625 8.109375 
L 20.515625 -15.578125 
L 29 -15.578125 
L 29 -20.796875 
L 2.875 -20.796875 
L 2.875 -15.578125 
L 11.53125 -15.578125 
z
" id="DejaVuSerif-112"/>
      <path d="M 4.109375 0 
L 4.109375 5.171875 
L 12.203125 5.171875 
L 12.203125 70.796875 
L 3.609375 70.796875 
L 3.609375 75.984375 
L 21.1875 75.984375 
L 21.1875 42.671875 
Q 23.6875 47.953125 27.65625 50.640625 
Q 31.640625 53.328125 36.921875 53.328125 
Q 45.515625 53.328125 49.5625 48.390625 
Q 53.609375 43.453125 53.609375 33.015625 
L 53.609375 5.171875 
L 61.625 5.171875 
L 61.625 0 
L 36.8125 0 
L 36.8125 5.171875 
L 44.578125 5.171875 
L 44.578125 30.171875 
Q 44.578125 39.703125 42.25 43.1875 
Q 39.9375 46.6875 33.984375 46.6875 
Q 27.734375 46.6875 24.453125 42.140625 
Q 21.1875 37.59375 21.1875 28.90625 
L 21.1875 5.171875 
L 29 5.171875 
L 29 0 
z
" id="DejaVuSerif-104"/>
     </defs>
     <g style="fill:#262626;" transform="translate(6.86425 156.239375)rotate(-90)scale(0.08 -0.08)">
      <use xlink:href="#DejaVuSerif-68"/>
      <use x="80.175781" xlink:href="#DejaVuSerif-105"/>
      <use x="112.158203" xlink:href="#DejaVuSerif-115"/>
      <use x="163.476562" xlink:href="#DejaVuSerif-116"/>
      <use x="203.662109" xlink:href="#DejaVuSerif-97"/>
      <use x="263.28125" xlink:href="#DejaVuSerif-110"/>
      <use x="327.685547" xlink:href="#DejaVuSerif-99"/>
      <use x="383.691406" xlink:href="#DejaVuSerif-101"/>
      <use x="442.871094" xlink:href="#DejaVuSerif-32"/>
      <use x="474.658203" xlink:href="#DejaVuSerif-117"/>
      <use x="539.0625" xlink:href="#DejaVuSerif-112"/>
      <use x="603.076172" xlink:href="#DejaVuSerif-32"/>
      <use x="634.863281" xlink:href="#DejaVuSerif-117"/>
      <use x="699.267578" xlink:href="#DejaVuSerif-114"/>
      <use x="747.070312" xlink:href="#DejaVuSerif-101"/>
      <use x="806.25" xlink:href="#DejaVuSerif-116"/>
      <use x="846.435547" xlink:href="#DejaVuSerif-104"/>
      <use x="910.839844" xlink:href="#DejaVuSerif-114"/>
      <use x="958.642578" xlink:href="#DejaVuSerif-97"/>
      <use x="1018.261719" xlink:href="#DejaVuSerif-32"/>
      <use x="1050.048828" xlink:href="#DejaVuSerif-40"/>
      <use x="1089.0625" xlink:href="#DejaVuSerif-109"/>
      <use x="1183.886719" xlink:href="#DejaVuSerif-109"/>
      <use x="1278.710938" xlink:href="#DejaVuSerif-41"/>
     </g>
    </g>
   </g>
  </g>
 </g>
 <defs>
  <clipPath id="pd855b64ef5">
   <rect height="204.756" width="195.666" x="33.528" y="1.152"/>
  </clipPath>
  <clipPath id="pd34212d9fd">
   <rect height="204.756" width="16.566066" x="33.528" y="1.152"/>
  </clipPath>
  <clipPath id="pc4b7d5991b">
   <rect height="204.756" width="161.312116" x="67.881884" y="1.152"/>
  </clipPath>
 </defs>
</svg>
