<?xml version="1.0" encoding="utf-8" standalone="no"?>
<!DOCTYPE svg PUBLIC "-//W3C//DTD SVG 1.1//EN"
  "http://www.w3.org/Graphics/SVG/1.1/DTD/svg11.dtd">
<!-- Created with matplotlib (https://matplotlib.org/) -->
<svg height="111.6pt" version="1.1" viewBox="0 0 111.6 111.6" width="111.6pt" xmlns="http://www.w3.org/2000/svg" xmlns:xlink="http://www.w3.org/1999/xlink">
 <defs>
  <style type="text/css">
*{stroke-linecap:butt;stroke-linejoin:round;}
  </style>
 </defs>
 <g id="figure_1">
  <g id="patch_1">
   <path d="M 0 111.6 
L 111.6 111.6 
L 111.6 0 
L 0 0 
z
" style="fill:#ffffff;"/>
  </g>
  <g id="axes_1">
   <g id="patch_2">
    <path clip-path="url(#p51f5613d3e)" d="M 31.310642 87.259453 
L 31.310642 7.501401 
L 107.149702 7.501401 
L 107.149702 87.259453 
z
" style="fill:#b3b3b3;stroke:#b3b3b3;stroke-linejoin:miter;"/>
   </g>
   <g id="text_1">
    <!-- Outside -->
    <defs>
     <path d="M 67.296875 33.84375 
C 67.296875 54.5 52.59375 70 36 70 
C 19 70 4.59375 54.296875 4.59375 33.84375 
C 4.59375 13.390625 19.203125 -2 35.90625 -2 
C 53 -2 67.296875 13.6875 67.296875 33.84375 
z
M 36 -0.203125 
C 24.59375 -0.203125 12.203125 11.28125 12.203125 35.15625 
C 12.203125 58.921875 25.796875 68.1875 35.90625 68.1875 
C 46.5 68.1875 59.703125 58.625 59.703125 35.15625 
C 59.703125 10.875 47 -0.203125 36 -0.203125 
z
" id="CMR17-79"/>
     <path d="M 29.40625 42.890625 
L 29.40625 40.296875 
C 35.296875 40.296875 36.203125 39.6875 36.203125 34.828125 
L 36.203125 16.453125 
C 36.203125 7.96875 31.703125 0.59375 24.296875 0.59375 
C 16.09375 0.59375 15.40625 5.546875 15.40625 10.796875 
L 15.40625 44 
L 3.296875 42.890625 
L 3.296875 40.296875 
C 7.296875 40.296875 10 40.296875 10.09375 36.25 
L 10.09375 16.859375 
C 10.09375 10.09375 10.09375 5.75 12.703125 2.921875 
C 14 1.609375 16.5 -1 23.703125 -1 
C 32.203125 -1 35.5 6.25 36.296875 8.375 
L 36.40625 8.375 
L 36.40625 -1 
L 48.296875 -0.203125 
L 48.296875 2.40625 
C 42.40625 2.40625 41.5 3.015625 41.5 7.859375 
L 41.5 44 
z
" id="CMR17-117"/>
     <path d="M 15.09375 40.390625 
L 29.09375 40.390625 
L 29.09375 43 
L 15.09375 43 
L 15.09375 62 
L 13.296875 62 
C 13.09375 51.4375 9.59375 42.1875 1.09375 41.984375 
L 1.09375 40.390625 
L 9.796875 40.390625 
L 9.796875 12.15625 
C 9.796875 10.234375 9.796875 -1 21.40625 -1 
C 27.296875 -1 30.703125 4.8125 30.703125 12.25 
L 30.703125 17.984375 
L 28.90625 17.984375 
L 28.90625 12.34375 
C 28.90625 5.421875 26.203125 0.796875 22 0.796875 
C 19.09375 0.796875 15.09375 2.796875 15.09375 11.953125 
z
" id="CMR17-116"/>
     <path d="M 30.90625 42 
C 30.90625 43.796875 30.796875 43.890625 30.203125 43.890625 
C 29.796875 43.890625 29.703125 43.796875 28.5 42.296875 
C 28.203125 41.890625 27.296875 40.890625 27 40.5 
C 23.796875 43.890625 19.296875 44 17.59375 44 
C 6.5 44 2.5 38.1875 2.5 32.390625 
C 2.5 23.390625 12.703125 21.296875 15.59375 20.6875 
C 21.90625 19.390625 24.09375 19 26.203125 17.1875 
C 27.5 16 29.703125 13.796875 29.703125 10.1875 
C 29.703125 6 27.296875 0.59375 18.09375 0.59375 
C 9.40625 0.59375 6.296875 7.1875 4.5 16 
C 4.203125 17.390625 4.203125 17.5 3.40625 17.5 
C 2.59375 17.5 2.5 17.390625 2.5 15.390625 
L 2.5 1 
C 2.5 -0.8125 2.59375 -0.90625 3.203125 -0.90625 
C 3.703125 -0.90625 3.796875 -0.8125 4.296875 0 
C 4.90625 0.890625 6.40625 3.296875 7 4.296875 
C 9 1.59375 12.5 -1 18.09375 -1 
C 28 -1 33.296875 4.390625 33.296875 12.1875 
C 33.296875 17.296875 30.59375 20 29.296875 21.1875 
C 26.296875 24.296875 22.796875 25 18.59375 25.796875 
C 13.09375 27 6.09375 28.390625 6.09375 34.5 
C 6.09375 37.09375 7.5 42.59375 17.59375 42.59375 
C 28.296875 42.59375 28.90625 32.59375 29.09375 29.390625 
C 29.203125 28.890625 29.703125 28.796875 30 28.796875 
C 30.90625 28.796875 30.90625 29.09375 30.90625 30.796875 
z
" id="CMR17-115"/>
     <path d="M 15.5 61.890625 
C 15.5 64.09375 13.703125 66 11.40625 66 
C 9.203125 66 7.296875 64.1875 7.296875 61.890625 
C 7.296875 59.6875 9.09375 57.796875 11.40625 57.796875 
C 13.59375 57.796875 15.5 59.59375 15.5 61.890625 
z
M 3.796875 42.890625 
L 3.796875 40.296875 
C 9.40625 40.296875 10.203125 39.6875 10.203125 34.859375 
L 10.203125 6.921875 
C 10.203125 3.09375 9.796875 2.59375 3.40625 2.59375 
L 3.40625 0 
C 5.796875 0.1875 10.09375 0.1875 12.59375 0.1875 
C 15 0.1875 19.09375 0.1875 21.40625 0 
L 21.40625 2.59375 
C 15.5 2.59375 15.296875 3.203125 15.296875 6.8125 
L 15.296875 44 
z
" id="CMR17-105"/>
     <path d="M 29.203125 67.890625 
L 29.203125 65.296875 
C 35.09375 65.296875 36 64.703125 36 60.046875 
L 36 37.046875 
C 35.59375 37.546875 31.5 44 23.40625 44 
C 13.203125 44 3.296875 34.8125 3.296875 21.5 
C 3.296875 8.265625 12.59375 -1 22.40625 -1 
C 30.90625 -1 35.296875 5.640625 35.796875 6.34375 
L 35.796875 -1 
L 47.90625 -0.203125 
L 47.90625 2.40625 
C 42 2.40625 41.09375 3.015625 41.09375 7.859375 
L 41.09375 69 
z
M 35.796875 11.90625 
C 35.796875 8.875 34 6.140625 31.703125 4.125 
C 28.296875 1.09375 24.90625 0.59375 23 0.59375 
C 20.09375 0.59375 9.703125 2.109375 9.703125 21.390625 
C 9.703125 41.1875 21.296875 42.390625 23.90625 42.390625 
C 28.5 42.390625 32.203125 39.765625 34.5 36.140625 
C 35.796875 34.015625 35.796875 33.703125 35.796875 31.890625 
z
" id="CMR17-100"/>
     <path d="M 38.09375 23.484375 
C 38.5 23.890625 38.5 24.09375 38.5 25.09375 
C 38.5 35.171875 33.09375 44 21.703125 44 
C 11.09375 44 2.703125 33.984375 2.703125 21.78125 
C 2.703125 8.65625 12.203125 -1 22.796875 -1 
C 34 -1 38.40625 9.671875 38.40625 11.796875 
C 38.40625 12.5 37.796875 12.5 37.59375 12.5 
C 36.90625 12.5 36.796875 12.296875 36.40625 11.078125 
C 34.203125 4.21875 28.703125 0.796875 23.5 0.796875 
C 19.203125 0.796875 14.90625 3.21875 12.203125 7.65625 
C 9.09375 12.796875 9.09375 18.75 9.09375 23.484375 
z
M 9.203125 25 
C 9.90625 39.234375 17.59375 42.390625 21.59375 42.390625 
C 28.40625 42.390625 33 36.0625 33.09375 25 
z
" id="CMR17-101"/>
    </defs>
    <g style="fill:#262626;" transform="translate(30.400574 6.70382)scale(0.08 -0.08)">
     <use transform="scale(0.996264)" xlink:href="#CMR17-79"/>
     <use transform="translate(71.714788 0)scale(0.996264)" xlink:href="#CMR17-117"/>
     <use transform="translate(122.610158 0)scale(0.996264)" xlink:href="#CMR17-116"/>
     <use transform="translate(157.890926 0)scale(0.996264)" xlink:href="#CMR17-115"/>
     <use transform="translate(193.692264 0)scale(0.996264)" xlink:href="#CMR17-105"/>
     <use transform="translate(218.563322 0)scale(0.996264)" xlink:href="#CMR17-100"/>
     <use transform="translate(269.458692 0)scale(0.996264)" xlink:href="#CMR17-101"/>
    </g>
   </g>
   <g id="text_2">
    <!-- Inside -->
    <defs>
     <path d="M 19.703125 60.90625 
C 19.703125 65.390625 20.90625 65.390625 28.09375 65.390625 
L 28.09375 68 
C 24.90625 67.796875 19.796875 67.796875 16.40625 67.796875 
C 13 67.796875 7.90625 67.796875 4.703125 68 
L 4.703125 65.390625 
C 11.90625 65.390625 13.09375 65.390625 13.09375 60.90625 
L 13.09375 7.078125 
C 13.09375 2.59375 11.90625 2.59375 4.703125 2.59375 
L 4.703125 0 
C 7.90625 0.1875 13 0.1875 16.40625 0.1875 
C 19.796875 0.1875 24.90625 0.1875 28.09375 0 
L 28.09375 2.59375 
C 20.90625 2.59375 19.703125 2.59375 19.703125 7.078125 
z
" id="CMR17-73"/>
     <path d="M 41.5 30.53125 
C 41.5 35.65625 40.5 44 28.703125 44 
C 20.796875 44 16.703125 37.875 15.203125 33.84375 
L 15.09375 33.84375 
L 15.09375 44 
L 3.296875 42.890625 
L 3.296875 40.28125 
C 9.203125 40.28125 10.09375 39.6875 10.09375 34.859375 
L 10.09375 6.921875 
C 10.09375 3.09375 9.703125 2.59375 3.296875 2.59375 
L 3.296875 0 
C 5.703125 0.1875 10.09375 0.1875 12.703125 0.1875 
C 15.296875 0.1875 19.796875 0.1875 22.203125 0 
L 22.203125 2.59375 
C 15.796875 2.59375 15.40625 3 15.40625 6.921875 
L 15.40625 26.21875 
C 15.40625 35.453125 21 42.390625 28 42.390625 
C 35.40625 42.390625 36.203125 35.765625 36.203125 30.9375 
L 36.203125 6.921875 
C 36.203125 3.09375 35.796875 2.59375 29.40625 2.59375 
L 29.40625 0 
C 31.796875 0.1875 36.203125 0.1875 38.796875 0.1875 
C 41.40625 0.1875 45.90625 0.1875 48.296875 0 
L 48.296875 2.59375 
C 41.90625 2.59375 41.5 3 41.5 6.921875 
z
" id="CMR17-110"/>
    </defs>
    <g style="fill:#262626;" transform="translate(79.468445 6.70382)scale(0.08 -0.08)">
     <use transform="scale(0.996264)" xlink:href="#CMR17-73"/>
     <use transform="translate(32.638409 0)scale(0.996264)" xlink:href="#CMR17-110"/>
     <use transform="translate(83.533779 0)scale(0.996264)" xlink:href="#CMR17-115"/>
     <use transform="translate(119.335117 0)scale(0.996264)" xlink:href="#CMR17-105"/>
     <use transform="translate(144.206175 0)scale(0.996264)" xlink:href="#CMR17-100"/>
     <use transform="translate(195.101545 0)scale(0.996264)" xlink:href="#CMR17-101"/>
    </g>
   </g>
  </g>
  <g id="axes_2">
   <g id="patch_3">
    <path d="M 27.51869 87.259453 
L 65.438219 87.259453 
L 65.438219 7.501401 
L 27.51869 7.501401 
z
" style="fill:#ffffff;"/>
   </g>
   <g id="matplotlib.axis_1">
    <g id="xtick_1">
     <g id="line2d_1">
      <defs>
       <path d="M 0 0 
L 0 3.5 
" id="mbb1dfa70d4" style="stroke:#262626;stroke-width:0.8;"/>
      </defs>
      <g>
       <use style="fill:#262626;stroke:#262626;stroke-width:0.8;" x="35.855282" xlink:href="#mbb1dfa70d4" y="87.259453"/>
      </g>
     </g>
     <g id="text_3">
      <!-- $10^7$ -->
      <defs>
       <path d="M 26.59375 63.796875 
C 26.59375 65.890625 26.5 66 25.09375 66 
C 21.203125 61.359375 15.296875 59.890625 9.703125 59.6875 
C 9.40625 59.6875 8.90625 59.6875 8.796875 59.5 
C 8.703125 59.296875 8.703125 59.09375 8.703125 57 
C 11.796875 57 17 57.59375 21 59.984375 
L 21 7.296875 
C 21 3.796875 20.796875 2.59375 12.203125 2.59375 
L 9.203125 2.59375 
L 9.203125 0 
C 14 0.09375 19 0.1875 23.796875 0.1875 
C 28.59375 0.1875 33.59375 0.09375 38.40625 0 
L 38.40625 2.59375 
L 35.40625 2.59375 
C 26.796875 2.59375 26.59375 3.6875 26.59375 7.296875 
z
" id="CMR17-49"/>
       <path d="M 42 31.84375 
C 42 37.96875 41.90625 48.421875 37.703125 56.453125 
C 34 63.484375 28.09375 66 22.90625 66 
C 18.09375 66 12 63.78125 8.203125 56.5625 
C 4.203125 49.015625 3.796875 39.671875 3.796875 31.84375 
C 3.796875 26.109375 3.90625 17.375 7 9.734375 
C 11.296875 -0.609375 19 -2 22.90625 -2 
C 27.5 -2 34.5 -0.109375 38.59375 9.4375 
C 41.59375 16.375 42 24.5 42 31.84375 
z
M 22.90625 -0.40625 
C 16.5 -0.40625 12.703125 5.125 11.296875 12.75 
C 10.203125 18.6875 10.203125 27.328125 10.203125 32.953125 
C 10.203125 40.6875 10.203125 47.109375 11.5 53.234375 
C 13.40625 61.78125 19 64.390625 22.90625 64.390625 
C 27 64.390625 32.296875 61.671875 34.203125 53.4375 
C 35.5 47.71875 35.59375 40.984375 35.59375 32.953125 
C 35.59375 26.421875 35.59375 18.375 34.40625 12.453125 
C 32.296875 1.5 26.40625 -0.40625 22.90625 -0.40625 
z
" id="CMR17-48"/>
       <path d="M 45.09375 61.796875 
L 45.09375 64 
L 21.59375 64 
C 9.90625 64 9.703125 65.09375 9.296875 67 
L 7.5 67 
L 4.59375 48.5 
L 6.40625 48.5 
C 6.703125 50.40625 7.40625 55.5 8.59375 57.390625 
C 9.203125 58.1875 16.59375 58.1875 18.296875 58.1875 
L 40.296875 58.1875 
L 29.203125 41.71875 
C 21.796875 30.640625 16.703125 15.671875 16.703125 2.59375 
C 16.703125 1.390625 16.703125 -2 20.296875 -2 
C 23.90625 -2 23.90625 1.390625 23.90625 2.6875 
L 23.90625 7.28125 
C 23.90625 23.65625 26.703125 34.4375 31.296875 41.3125 
z
" id="CMR17-55"/>
      </defs>
      <g style="fill:#262626;" transform="translate(29.794643 100.294254)scale(0.08 -0.08)">
       <use transform="scale(0.996264)" xlink:href="#CMR17-49"/>
       <use transform="translate(45.690477 0)scale(0.996264)" xlink:href="#CMR17-48"/>
       <use transform="translate(91.380954 36.153639)scale(0.697382)" xlink:href="#CMR17-55"/>
      </g>
     </g>
    </g>
    <g id="xtick_2">
     <g id="line2d_2">
      <g>
       <use style="fill:#262626;stroke:#262626;stroke-width:0.8;" x="65.438219" xlink:href="#mbb1dfa70d4" y="87.259453"/>
      </g>
     </g>
    </g>
   </g>
   <g id="matplotlib.axis_2">
    <g id="ytick_1">
     <g id="line2d_3">
      <defs>
       <path d="M 0 0 
L -3.5 0 
" id="m41b953aec0" style="stroke:#262626;stroke-width:0.8;"/>
      </defs>
      <g>
       <use style="fill:#262626;stroke:#262626;stroke-width:0.8;" x="27.51869" xlink:href="#m41b953aec0" y="83.634087"/>
      </g>
     </g>
     <g id="text_4">
      <!-- $0$ -->
      <g style="fill:#262626;" transform="translate(15.784507 86.401487)scale(0.08 -0.08)">
       <use transform="scale(0.996264)" xlink:href="#CMR17-48"/>
      </g>
     </g>
    </g>
    <g id="ytick_2">
     <g id="line2d_4">
      <g>
       <use style="fill:#262626;stroke:#262626;stroke-width:0.8;" x="27.51869" xlink:href="#m41b953aec0" y="47.380427"/>
      </g>
     </g>
     <g id="text_5">
      <!-- $20$ -->
      <defs>
       <path d="M 41.703125 15.46875 
L 39.90625 15.46875 
C 38.90625 8.390625 38.09375 7.1875 37.703125 6.59375 
C 37.203125 5.796875 30 5.796875 28.59375 5.796875 
L 9.40625 5.796875 
C 13 9.6875 20 16.765625 28.5 24.9375 
C 34.59375 30.71875 41.703125 37.5 41.703125 47.390625 
C 41.703125 59.1875 32.296875 66 21.796875 66 
C 10.796875 66 4.09375 56.296875 4.09375 47.296875 
C 4.09375 43.390625 7 42.890625 8.203125 42.890625 
C 9.203125 42.890625 12.203125 43.484375 12.203125 46.984375 
C 12.203125 50.09375 9.59375 51 8.203125 51 
C 7.59375 51 7 50.890625 6.59375 50.6875 
C 8.5 59.1875 14.296875 63.390625 20.40625 63.390625 
C 29.09375 63.390625 34.796875 56.5 34.796875 47.390625 
C 34.796875 38.703125 29.703125 31.21875 24 24.734375 
L 4.09375 2.296875 
L 4.09375 0 
L 39.296875 0 
z
" id="CMR17-50"/>
      </defs>
      <g style="fill:#262626;" transform="translate(11.550324 50.147828)scale(0.08 -0.08)">
       <use transform="scale(0.996264)" xlink:href="#CMR17-50"/>
       <use transform="translate(45.690477 0)scale(0.996264)" xlink:href="#CMR17-48"/>
      </g>
     </g>
    </g>
    <g id="ytick_3">
     <g id="line2d_5">
      <g>
       <use style="fill:#262626;stroke:#262626;stroke-width:0.8;" x="27.51869" xlink:href="#m41b953aec0" y="11.126767"/>
      </g>
     </g>
     <g id="text_6">
      <!-- $40$ -->
      <defs>
       <path d="M 33.59375 64.796875 
C 33.59375 66.890625 33.5 67 31.703125 67 
L 2 19.59375 
L 2 17 
L 27.796875 17 
L 27.796875 7.1875 
C 27.796875 3.59375 27.59375 2.59375 20.59375 2.59375 
L 18.703125 2.59375 
L 18.703125 0 
C 21.90625 0.1875 27.296875 0.1875 30.703125 0.1875 
C 34.09375 0.1875 39.5 0.1875 42.703125 0 
L 42.703125 2.59375 
L 40.796875 2.59375 
C 33.796875 2.59375 33.59375 3.59375 33.59375 7.1875 
L 33.59375 17 
L 43.796875 17 
L 43.796875 19.59375 
L 33.59375 19.59375 
z
M 28.09375 58.171875 
L 28.09375 19.59375 
L 4 19.59375 
z
" id="CMR17-52"/>
      </defs>
      <g style="fill:#262626;" transform="translate(11.550324 13.894168)scale(0.08 -0.08)">
       <use transform="scale(0.996264)" xlink:href="#CMR17-52"/>
       <use transform="translate(45.690477 0)scale(0.996264)" xlink:href="#CMR17-48"/>
      </g>
     </g>
    </g>
   </g>
   <g id="line2d_6">
    <path d="M 64.254523 88.443149 
L 66.621916 86.075756 
" style="fill:none;stroke:#000000;stroke-linecap:round;stroke-width:0.8;"/>
   </g>
   <g id="line2d_7">
    <path clip-path="url(#peb2ca7caef)" d="M 74.669427 83.634087 
L 95.021156 82.909013 
L 95.021156 82.18394 
L 95.021156 81.458867 
L 95.021156 80.733794 
L 95.021156 80.008721 
L 95.021156 79.283647 
L 95.021156 78.558574 
L 95.021156 77.833501 
L 95.021156 77.108428 
L 95.021156 76.383355 
L 95.021156 75.658281 
L 95.021156 74.933208 
L 95.021156 74.208135 
L 95.021156 73.483062 
L 95.021156 72.757989 
L 95.021156 72.032915 
L 95.021156 71.307842 
L 95.021156 70.582769 
L 95.021156 69.857696 
L 95.021156 69.132623 
L 95.021156 68.407549 
L 95.021156 67.682476 
L 95.021156 66.957403 
L 95.021156 66.23233 
L 95.021156 65.507257 
L 95.021156 64.782183 
L 95.021156 64.05711 
L 95.021156 63.332037 
L 95.020831 62.606964 
L 65.438219 61.881891 
L 65.438219 61.156817 
L 65.438219 60.431744 
L 65.438219 59.706671 
L 65.438219 58.981598 
L 65.438219 58.256525 
L 65.438219 57.531451 
L 65.438219 56.806378 
L 65.438219 56.081305 
L 65.438219 55.356232 
L 65.438219 54.631159 
L 65.438219 53.906085 
L 65.438219 53.181012 
L 65.438219 52.455939 
L 65.438219 51.730866 
L 65.438219 51.005793 
L 65.438219 50.280719 
L 65.438219 49.555646 
L 65.438219 48.830573 
L 65.438219 48.1055 
L 65.438219 47.380427 
L 65.438219 46.655354 
L 65.438219 45.93028 
L 65.438219 45.205207 
L 65.438219 44.480134 
L 65.438219 43.755061 
L 65.438219 43.029988 
L 65.438219 42.304914 
L 65.438219 41.579841 
L 65.438219 40.854768 
L 65.438219 40.129695 
L 65.438219 39.404622 
L 65.438219 38.679548 
L 65.438219 37.954475 
L 65.438219 37.229402 
L 65.438219 36.504329 
L 65.438219 35.779256 
L 65.438219 35.054182 
L 65.438219 34.329109 
L 65.438219 33.604036 
L 65.438219 32.878963 
L 65.438219 32.15389 
L 65.438219 31.428816 
L 65.438219 30.703743 
L 65.438219 29.97867 
L 65.438219 29.253597 
L 65.438219 28.528524 
L 65.438219 27.80345 
L 65.438219 27.078377 
L 65.438219 26.353304 
L 65.438219 25.628231 
L 65.438219 24.903158 
L 65.438219 24.178084 
L 65.438219 23.453011 
L 65.438219 22.727938 
L 65.438219 22.002865 
L 65.438219 21.277792 
L 65.438219 20.552718 
L 65.438219 19.827645 
L 65.438219 19.102572 
L 65.438219 18.377499 
L 65.438219 17.652426 
L 65.438219 16.927352 
L 65.438219 16.202279 
L 65.438219 15.477206 
L 65.438219 14.752133 
L 65.438219 14.02706 
L 65.438219 13.301986 
L 65.438219 12.576913 
L 65.438219 11.85184 
L 65.438219 11.126767 
" style="fill:none;stroke:#8dd35f;stroke-dasharray:3.7,1.6;stroke-dashoffset:0;"/>
   </g>
   <g id="line2d_8">
    <path clip-path="url(#peb2ca7caef)" d="M 65.438219 83.634087 
L 65.438219 82.909013 
L 65.438219 82.18394 
L 65.438219 81.458867 
L 65.438219 80.733794 
L 65.438219 80.008721 
L 65.438219 79.283647 
L 65.438219 78.558574 
L 65.438219 77.833501 
L 65.438219 77.108428 
L 65.438219 76.383355 
L 65.438219 75.658281 
L 65.438219 74.933208 
L 65.438219 74.208135 
L 65.438219 73.483062 
L 65.438219 72.757989 
L 65.438219 72.032915 
L 65.438219 71.307842 
L 65.438219 70.582769 
L 65.438219 69.857696 
L 65.438219 69.132623 
L 65.438219 68.407549 
L 65.438219 67.682476 
L 65.438219 66.957403 
L 65.438219 66.23233 
L 65.438219 65.507257 
L 65.438219 64.782183 
L 65.438219 64.05711 
L 65.438219 63.332037 
L 65.438219 62.606964 
L 65.438219 61.881891 
L 65.438219 61.156817 
L 65.438219 60.431744 
L 65.438219 59.706671 
L 65.438219 58.981598 
L 65.438219 58.256525 
L 65.438219 57.531451 
L 65.438219 56.806378 
L 65.438219 56.081305 
L 65.438219 55.356232 
L 65.438219 54.631159 
L 65.438219 53.906085 
L 65.438219 53.181012 
L 65.438219 52.455939 
L 65.438219 51.730866 
L 65.438219 51.005793 
L 65.438219 50.280719 
L 65.438219 49.555646 
L 65.438219 48.830573 
L 65.438219 48.1055 
L 65.438219 47.380427 
L 65.438219 46.655354 
L 65.438219 45.93028 
L 65.438219 45.205207 
L 65.438219 44.480134 
L 65.438219 43.755061 
L 65.438219 43.029988 
L 65.438219 42.304914 
L 65.438219 41.579841 
L 65.438219 40.854768 
L 65.438219 40.129695 
L 65.438219 39.404622 
L 65.438219 38.679548 
L 65.438219 37.954475 
L 65.438219 37.229402 
L 65.438219 36.504329 
L 65.438219 35.779256 
L 65.438219 35.054182 
L 65.438219 34.329109 
L 65.438219 33.604036 
L 65.438219 32.878963 
L 65.438219 32.15389 
L 65.438219 31.428816 
L 65.438219 30.703743 
L 65.438219 29.97867 
L 65.438219 29.253597 
L 65.438219 28.528524 
L 65.438219 27.80345 
L 65.438219 27.078377 
L 65.438219 26.353304 
L 65.438219 25.628231 
L 65.438219 24.903158 
L 65.438219 24.178084 
L 65.438219 23.453011 
L 65.438219 22.727938 
L 65.438219 22.002865 
L 65.438219 21.277792 
L 65.438219 20.552718 
L 65.438219 19.827645 
L 65.438219 19.102572 
L 65.438219 18.377499 
L 65.438219 17.652426 
L 65.438219 16.927352 
L 65.438219 16.202279 
L 65.438219 15.477206 
L 65.438219 14.752133 
L 65.438219 14.02706 
L 65.438219 13.301986 
L 65.438219 12.576913 
L 65.438219 11.85184 
L 65.438219 11.126767 
" style="fill:none;stroke:#8dd35f;stroke-dasharray:3.7,1.6;stroke-dashoffset:0;"/>
   </g>
   <g id="line2d_9">
    <path clip-path="url(#peb2ca7caef)" d="M 74.669427 83.634087 
L 95.021156 82.909013 
L 95.021156 82.18394 
L 95.021156 81.458867 
L 95.021156 80.733794 
L 95.021156 80.008721 
L 95.021156 79.283647 
L 95.021156 78.558574 
L 95.021156 77.833501 
L 95.021156 77.108428 
L 95.021156 76.383355 
L 95.021156 75.658281 
L 95.021156 74.933208 
L 95.021156 74.208135 
L 95.021156 73.483062 
L 95.021156 72.757989 
L 95.021156 72.032915 
L 95.021156 71.307842 
L 95.021156 70.582769 
L 95.021156 69.857696 
L 95.021156 69.132623 
L 95.021156 68.407549 
L 95.021156 67.682476 
L 95.021156 66.957403 
L 95.021156 66.23233 
L 95.021156 65.507257 
L 95.021156 64.782183 
L 95.021156 64.05711 
L 95.021156 63.332037 
L 95.021156 62.606964 
L 95.021156 61.881891 
L 95.021156 61.156817 
L 95.021156 60.431744 
L 95.021156 59.706671 
L 95.021156 58.981598 
L 95.020565 58.256525 
L 65.438219 57.531451 
L 65.438219 56.806378 
L 65.438219 56.081305 
L 65.438219 55.356232 
L 65.438219 54.631159 
L 65.438219 53.906085 
L 65.438219 53.181012 
L 65.438219 52.455939 
L 65.438219 51.730866 
L 65.438219 51.005793 
L 65.438219 50.280719 
L 65.438219 49.555646 
L 65.438219 48.830573 
L 65.438219 48.1055 
L 65.438219 47.380427 
L 65.438219 46.655354 
L 65.438219 45.93028 
L 65.438219 45.205207 
L 65.438219 44.480134 
L 65.438219 43.755061 
L 65.438219 43.029988 
L 65.438219 42.304914 
L 65.438219 41.579841 
L 65.438219 40.854768 
L 65.438219 40.129695 
L 65.438219 39.404622 
L 65.438219 38.679548 
L 65.438219 37.954475 
L 65.438219 37.229402 
L 65.438219 36.504329 
L 65.438219 35.779256 
L 65.438219 35.054182 
L 65.438219 34.329109 
L 65.438219 33.604036 
L 65.438219 32.878963 
L 65.438219 32.15389 
L 65.438219 31.428816 
L 65.438219 30.703743 
L 65.438219 29.97867 
L 65.438219 29.253597 
L 65.438219 28.528524 
L 65.438219 27.80345 
L 65.438219 27.078377 
L 65.438219 26.353304 
L 65.438219 25.628231 
L 65.438219 24.903158 
L 65.438219 24.178084 
L 65.438219 23.453011 
L 65.438219 22.727938 
L 65.438219 22.002865 
L 65.438219 21.277792 
L 65.438219 20.552718 
L 65.438219 19.827645 
L 65.438219 19.102572 
L 65.438219 18.377499 
L 65.438219 17.652426 
L 65.438219 16.927352 
L 65.438219 16.202279 
L 65.438219 15.477206 
L 65.438219 14.752133 
L 65.438219 14.02706 
L 65.438219 13.301986 
L 65.438219 12.576913 
L 65.438219 11.85184 
L 65.438219 11.126767 
" style="fill:none;stroke:#447821;stroke-linecap:round;stroke-width:2;"/>
   </g>
   <g id="line2d_10">
    <path clip-path="url(#peb2ca7caef)" d="M 65.438219 83.634087 
L 65.438219 82.909013 
L 65.438219 82.18394 
L 65.438219 81.458867 
L 65.438219 80.733794 
L 65.438219 80.008721 
L 65.438219 79.283647 
L 65.438219 78.558574 
L 65.438219 77.833501 
L 65.438219 77.108428 
L 65.438219 76.383355 
L 65.438219 75.658281 
L 65.438219 74.933208 
L 65.438219 74.208135 
L 65.438219 73.483062 
L 65.438219 72.757989 
L 65.438219 72.032915 
L 65.438219 71.307842 
L 65.438219 70.582769 
L 65.438219 69.857696 
L 65.438219 69.132623 
L 65.438219 68.407549 
L 65.438219 67.682476 
L 65.438219 66.957403 
L 65.438219 66.23233 
L 65.438219 65.507257 
L 65.438219 64.782183 
L 65.438219 64.05711 
L 65.438219 63.332037 
L 65.438219 62.606964 
L 65.438219 61.881891 
L 65.438219 61.156817 
L 65.438219 60.431744 
L 65.438219 59.706671 
L 65.438219 58.981598 
L 65.438219 58.256525 
L 65.438219 57.531451 
L 65.438219 56.806378 
L 65.438219 56.081305 
L 65.438219 55.356232 
L 65.438219 54.631159 
L 65.438219 53.906085 
L 65.438219 53.181012 
L 65.438219 52.455939 
L 65.438219 51.730866 
L 65.438219 51.005793 
L 65.438219 50.280719 
L 65.438219 49.555646 
L 65.438219 48.830573 
L 65.438219 48.1055 
L 65.438219 47.380427 
L 65.438219 46.655354 
L 65.438219 45.93028 
L 65.438219 45.205207 
L 65.438219 44.480134 
L 65.438219 43.755061 
L 65.438219 43.029988 
L 65.438219 42.304914 
L 65.438219 41.579841 
L 65.438219 40.854768 
L 65.438219 40.129695 
L 65.438219 39.404622 
L 65.438219 38.679548 
L 65.438219 37.954475 
L 65.438219 37.229402 
L 65.438219 36.504329 
L 65.438219 35.779256 
L 65.438219 35.054182 
L 65.438219 34.329109 
L 65.438219 33.604036 
L 65.438219 32.878963 
L 65.438219 32.15389 
L 65.438219 31.428816 
L 65.438219 30.703743 
L 65.438219 29.97867 
L 65.438219 29.253597 
L 65.438219 28.528524 
L 65.438219 27.80345 
L 65.438219 27.078377 
L 65.438219 26.353304 
L 65.438219 25.628231 
L 65.438219 24.903158 
L 65.438219 24.178084 
L 65.438219 23.453011 
L 65.438219 22.727938 
L 65.438219 22.002865 
L 65.438219 21.277792 
L 65.438219 20.552718 
L 65.438219 19.827645 
L 65.438219 19.102572 
L 65.438219 18.377499 
L 65.438219 17.652426 
L 65.438219 16.927352 
L 65.438219 16.202279 
L 65.438219 15.477206 
L 65.438219 14.752133 
L 65.438219 14.02706 
L 65.438219 13.301986 
L 65.438219 12.576913 
L 65.438219 11.85184 
L 65.438219 11.126767 
" style="fill:none;stroke:#447821;stroke-linecap:round;stroke-width:2;"/>
   </g>
   <g id="patch_4">
    <path d="M 27.51869 87.259453 
L 27.51869 7.501401 
" style="fill:none;stroke:#262626;stroke-linecap:square;stroke-linejoin:miter;stroke-width:0.8;"/>
   </g>
   <g id="patch_5">
    <path d="M 27.51869 87.259453 
L 65.438219 87.259453 
" style="fill:none;stroke:#262626;stroke-linecap:square;stroke-linejoin:miter;stroke-width:0.8;"/>
   </g>
  </g>
  <g id="axes_3">
   <g id="patch_6">
    <path d="M 73.022125 87.259453 
L 110.941655 87.259453 
L 110.941655 7.501401 
L 73.022125 7.501401 
z
" style="fill:#ffffff;"/>
   </g>
   <g id="matplotlib.axis_3">
    <g id="xtick_3">
     <g id="line2d_11">
      <g>
       <use style="fill:#262626;stroke:#262626;stroke-width:0.8;" x="73.022125" xlink:href="#mbb1dfa70d4" y="87.259453"/>
      </g>
     </g>
     <g id="text_7">
      <!-- 0 -->
      <g style="fill:#262626;" transform="translate(70.905034 100.294254)scale(0.08 -0.08)">
       <use transform="scale(0.996264)" xlink:href="#CMR17-48"/>
      </g>
     </g>
    </g>
    <g id="xtick_4">
     <g id="line2d_12">
      <g>
       <use style="fill:#262626;stroke:#262626;stroke-width:0.8;" x="102.605062" xlink:href="#mbb1dfa70d4" y="87.259453"/>
      </g>
     </g>
     <g id="text_8">
      <!-- $10^7$ -->
      <g style="fill:#262626;" transform="translate(96.544423 100.294254)scale(0.08 -0.08)">
       <use transform="scale(0.996264)" xlink:href="#CMR17-49"/>
       <use transform="translate(45.690477 0)scale(0.996264)" xlink:href="#CMR17-48"/>
       <use transform="translate(91.380954 36.153639)scale(0.697382)" xlink:href="#CMR17-55"/>
      </g>
     </g>
    </g>
   </g>
   <g id="matplotlib.axis_4">
    <g id="ytick_4"/>
    <g id="ytick_5"/>
    <g id="ytick_6"/>
   </g>
   <g id="line2d_13">
    <path d="M 71.838429 88.443149 
L 74.205822 86.075756 
" style="fill:none;stroke:#000000;stroke-linecap:round;stroke-width:0.8;"/>
   </g>
   <g id="line2d_14">
    <path clip-path="url(#p050f9fd83f)" d="M 82.253333 83.634087 
L 102.605062 82.909013 
L 102.605062 82.18394 
L 102.605062 81.458867 
L 102.605062 80.733794 
L 102.605062 80.008721 
L 102.605062 79.283647 
L 102.605062 78.558574 
L 102.605062 77.833501 
L 102.605062 77.108428 
L 102.605062 76.383355 
L 102.605062 75.658281 
L 102.605062 74.933208 
L 102.605062 74.208135 
L 102.605062 73.483062 
L 102.605062 72.757989 
L 102.605062 72.032915 
L 102.605062 71.307842 
L 102.605062 70.582769 
L 102.605062 69.857696 
L 102.605062 69.132623 
L 102.605062 68.407549 
L 102.605062 67.682476 
L 102.605062 66.957403 
L 102.605062 66.23233 
L 102.605062 65.507257 
L 102.605062 64.782183 
L 102.605062 64.05711 
L 102.605062 63.332037 
L 102.604737 62.606964 
L 73.022125 61.881891 
L 73.022125 61.156817 
L 73.022125 60.431744 
L 73.022125 59.706671 
L 73.022125 58.981598 
L 73.022125 58.256525 
L 73.022125 57.531451 
L 73.022125 56.806378 
L 73.022125 56.081305 
L 73.022125 55.356232 
L 73.022125 54.631159 
L 73.022125 53.906085 
L 73.022125 53.181012 
L 73.022125 52.455939 
L 73.022125 51.730866 
L 73.022125 51.005793 
L 73.022125 50.280719 
L 73.022125 49.555646 
L 73.022125 48.830573 
L 73.022125 48.1055 
L 73.022125 47.380427 
L 73.022125 46.655354 
L 73.022125 45.93028 
L 73.022125 45.205207 
L 73.022125 44.480134 
L 73.022125 43.755061 
L 73.022125 43.029988 
L 73.022125 42.304914 
L 73.022125 41.579841 
L 73.022125 40.854768 
L 73.022125 40.129695 
L 73.022125 39.404622 
L 73.022125 38.679548 
L 73.022125 37.954475 
L 73.022125 37.229402 
L 73.022125 36.504329 
L 73.022125 35.779256 
L 73.022125 35.054182 
L 73.022125 34.329109 
L 73.022125 33.604036 
L 73.022125 32.878963 
L 73.022125 32.15389 
L 73.022125 31.428816 
L 73.022125 30.703743 
L 73.022125 29.97867 
L 73.022125 29.253597 
L 73.022125 28.528524 
L 73.022125 27.80345 
L 73.022125 27.078377 
L 73.022125 26.353304 
L 73.022125 25.628231 
L 73.022125 24.903158 
L 73.022125 24.178084 
L 73.022125 23.453011 
L 73.022125 22.727938 
L 73.022125 22.002865 
L 73.022125 21.277792 
L 73.022125 20.552718 
L 73.022125 19.827645 
L 73.022125 19.102572 
L 73.022125 18.377499 
L 73.022125 17.652426 
L 73.022125 16.927352 
L 73.022125 16.202279 
L 73.022125 15.477206 
L 73.022125 14.752133 
L 73.022125 14.02706 
L 73.022125 13.301986 
L 73.022125 12.576913 
L 73.022125 11.85184 
L 73.022125 11.126767 
" style="fill:none;stroke:#8dd35f;stroke-dasharray:3.7,1.6;stroke-dashoffset:0;"/>
   </g>
   <g id="line2d_15">
    <path clip-path="url(#p050f9fd83f)" d="M 73.022125 83.634087 
L 73.022125 82.909013 
L 73.022125 82.18394 
L 73.022125 81.458867 
L 73.022125 80.733794 
L 73.022125 80.008721 
L 73.022125 79.283647 
L 73.022125 78.558574 
L 73.022125 77.833501 
L 73.022125 77.108428 
L 73.022125 76.383355 
L 73.022125 75.658281 
L 73.022125 74.933208 
L 73.022125 74.208135 
L 73.022125 73.483062 
L 73.022125 72.757989 
L 73.022125 72.032915 
L 73.022125 71.307842 
L 73.022125 70.582769 
L 73.022125 69.857696 
L 73.022125 69.132623 
L 73.022125 68.407549 
L 73.022125 67.682476 
L 73.022125 66.957403 
L 73.022125 66.23233 
L 73.022125 65.507257 
L 73.022125 64.782183 
L 73.022125 64.05711 
L 73.022125 63.332037 
L 73.022125 62.606964 
L 73.022125 61.881891 
L 73.022125 61.156817 
L 73.022125 60.431744 
L 73.022125 59.706671 
L 73.022125 58.981598 
L 73.022125 58.256525 
L 73.022125 57.531451 
L 73.022125 56.806378 
L 73.022125 56.081305 
L 73.022125 55.356232 
L 73.022125 54.631159 
L 73.022125 53.906085 
L 73.022125 53.181012 
L 73.022125 52.455939 
L 73.022125 51.730866 
L 73.022125 51.005793 
L 73.022125 50.280719 
L 73.022125 49.555646 
L 73.022125 48.830573 
L 73.022125 48.1055 
L 73.022125 47.380427 
L 73.022125 46.655354 
L 73.022125 45.93028 
L 73.022125 45.205207 
L 73.022125 44.480134 
L 73.022125 43.755061 
L 73.022125 43.029988 
L 73.022125 42.304914 
L 73.022125 41.579841 
L 73.022125 40.854768 
L 73.022125 40.129695 
L 73.022125 39.404622 
L 73.022125 38.679548 
L 73.022125 37.954475 
L 73.022125 37.229402 
L 73.022125 36.504329 
L 73.022125 35.779256 
L 73.022125 35.054182 
L 73.022125 34.329109 
L 73.022125 33.604036 
L 73.022125 32.878963 
L 73.022125 32.15389 
L 73.022125 31.428816 
L 73.022125 30.703743 
L 73.022125 29.97867 
L 73.022125 29.253597 
L 73.022125 28.528524 
L 73.022125 27.80345 
L 73.022125 27.078377 
L 73.022125 26.353304 
L 73.022125 25.628231 
L 73.022125 24.903158 
L 73.022125 24.178084 
L 73.022125 23.453011 
L 73.022125 22.727938 
L 73.022125 22.002865 
L 73.022125 21.277792 
L 73.022125 20.552718 
L 73.022125 19.827645 
L 73.022125 19.102572 
L 73.022125 18.377499 
L 73.022125 17.652426 
L 73.022125 16.927352 
L 73.022125 16.202279 
L 73.022125 15.477206 
L 73.022125 14.752133 
L 73.022125 14.02706 
L 73.022125 13.301986 
L 73.022125 12.576913 
L 73.022125 11.85184 
L 73.022125 11.126767 
" style="fill:none;stroke:#8dd35f;stroke-dasharray:3.7,1.6;stroke-dashoffset:0;"/>
   </g>
   <g id="line2d_16">
    <path clip-path="url(#p050f9fd83f)" d="M 82.253333 83.634087 
L 102.605062 82.909013 
L 102.605062 82.18394 
L 102.605062 81.458867 
L 102.605062 80.733794 
L 102.605062 80.008721 
L 102.605062 79.283647 
L 102.605062 78.558574 
L 102.605062 77.833501 
L 102.605062 77.108428 
L 102.605062 76.383355 
L 102.605062 75.658281 
L 102.605062 74.933208 
L 102.605062 74.208135 
L 102.605062 73.483062 
L 102.605062 72.757989 
L 102.605062 72.032915 
L 102.605062 71.307842 
L 102.605062 70.582769 
L 102.605062 69.857696 
L 102.605062 69.132623 
L 102.605062 68.407549 
L 102.605062 67.682476 
L 102.605062 66.957403 
L 102.605062 66.23233 
L 102.605062 65.507257 
L 102.605062 64.782183 
L 102.605062 64.05711 
L 102.605062 63.332037 
L 102.605062 62.606964 
L 102.605062 61.881891 
L 102.605062 61.156817 
L 102.605062 60.431744 
L 102.605062 59.706671 
L 102.605062 58.981598 
L 102.604471 58.256525 
L 73.022125 57.531451 
L 73.022125 56.806378 
L 73.022125 56.081305 
L 73.022125 55.356232 
L 73.022125 54.631159 
L 73.022125 53.906085 
L 73.022125 53.181012 
L 73.022125 52.455939 
L 73.022125 51.730866 
L 73.022125 51.005793 
L 73.022125 50.280719 
L 73.022125 49.555646 
L 73.022125 48.830573 
L 73.022125 48.1055 
L 73.022125 47.380427 
L 73.022125 46.655354 
L 73.022125 45.93028 
L 73.022125 45.205207 
L 73.022125 44.480134 
L 73.022125 43.755061 
L 73.022125 43.029988 
L 73.022125 42.304914 
L 73.022125 41.579841 
L 73.022125 40.854768 
L 73.022125 40.129695 
L 73.022125 39.404622 
L 73.022125 38.679548 
L 73.022125 37.954475 
L 73.022125 37.229402 
L 73.022125 36.504329 
L 73.022125 35.779256 
L 73.022125 35.054182 
L 73.022125 34.329109 
L 73.022125 33.604036 
L 73.022125 32.878963 
L 73.022125 32.15389 
L 73.022125 31.428816 
L 73.022125 30.703743 
L 73.022125 29.97867 
L 73.022125 29.253597 
L 73.022125 28.528524 
L 73.022125 27.80345 
L 73.022125 27.078377 
L 73.022125 26.353304 
L 73.022125 25.628231 
L 73.022125 24.903158 
L 73.022125 24.178084 
L 73.022125 23.453011 
L 73.022125 22.727938 
L 73.022125 22.002865 
L 73.022125 21.277792 
L 73.022125 20.552718 
L 73.022125 19.827645 
L 73.022125 19.102572 
L 73.022125 18.377499 
L 73.022125 17.652426 
L 73.022125 16.927352 
L 73.022125 16.202279 
L 73.022125 15.477206 
L 73.022125 14.752133 
L 73.022125 14.02706 
L 73.022125 13.301986 
L 73.022125 12.576913 
L 73.022125 11.85184 
L 73.022125 11.126767 
" style="fill:none;stroke:#447821;stroke-linecap:round;stroke-width:2;"/>
   </g>
   <g id="line2d_17">
    <path clip-path="url(#p050f9fd83f)" d="M 73.022125 83.634087 
L 73.022125 82.909013 
L 73.022125 82.18394 
L 73.022125 81.458867 
L 73.022125 80.733794 
L 73.022125 80.008721 
L 73.022125 79.283647 
L 73.022125 78.558574 
L 73.022125 77.833501 
L 73.022125 77.108428 
L 73.022125 76.383355 
L 73.022125 75.658281 
L 73.022125 74.933208 
L 73.022125 74.208135 
L 73.022125 73.483062 
L 73.022125 72.757989 
L 73.022125 72.032915 
L 73.022125 71.307842 
L 73.022125 70.582769 
L 73.022125 69.857696 
L 73.022125 69.132623 
L 73.022125 68.407549 
L 73.022125 67.682476 
L 73.022125 66.957403 
L 73.022125 66.23233 
L 73.022125 65.507257 
L 73.022125 64.782183 
L 73.022125 64.05711 
L 73.022125 63.332037 
L 73.022125 62.606964 
L 73.022125 61.881891 
L 73.022125 61.156817 
L 73.022125 60.431744 
L 73.022125 59.706671 
L 73.022125 58.981598 
L 73.022125 58.256525 
L 73.022125 57.531451 
L 73.022125 56.806378 
L 73.022125 56.081305 
L 73.022125 55.356232 
L 73.022125 54.631159 
L 73.022125 53.906085 
L 73.022125 53.181012 
L 73.022125 52.455939 
L 73.022125 51.730866 
L 73.022125 51.005793 
L 73.022125 50.280719 
L 73.022125 49.555646 
L 73.022125 48.830573 
L 73.022125 48.1055 
L 73.022125 47.380427 
L 73.022125 46.655354 
L 73.022125 45.93028 
L 73.022125 45.205207 
L 73.022125 44.480134 
L 73.022125 43.755061 
L 73.022125 43.029988 
L 73.022125 42.304914 
L 73.022125 41.579841 
L 73.022125 40.854768 
L 73.022125 40.129695 
L 73.022125 39.404622 
L 73.022125 38.679548 
L 73.022125 37.954475 
L 73.022125 37.229402 
L 73.022125 36.504329 
L 73.022125 35.779256 
L 73.022125 35.054182 
L 73.022125 34.329109 
L 73.022125 33.604036 
L 73.022125 32.878963 
L 73.022125 32.15389 
L 73.022125 31.428816 
L 73.022125 30.703743 
L 73.022125 29.97867 
L 73.022125 29.253597 
L 73.022125 28.528524 
L 73.022125 27.80345 
L 73.022125 27.078377 
L 73.022125 26.353304 
L 73.022125 25.628231 
L 73.022125 24.903158 
L 73.022125 24.178084 
L 73.022125 23.453011 
L 73.022125 22.727938 
L 73.022125 22.002865 
L 73.022125 21.277792 
L 73.022125 20.552718 
L 73.022125 19.827645 
L 73.022125 19.102572 
L 73.022125 18.377499 
L 73.022125 17.652426 
L 73.022125 16.927352 
L 73.022125 16.202279 
L 73.022125 15.477206 
L 73.022125 14.752133 
L 73.022125 14.02706 
L 73.022125 13.301986 
L 73.022125 12.576913 
L 73.022125 11.85184 
L 73.022125 11.126767 
" style="fill:none;stroke:#447821;stroke-linecap:round;stroke-width:2;"/>
   </g>
   <g id="patch_7">
    <path d="M 73.022125 87.259453 
L 110.941655 87.259453 
" style="fill:none;stroke:#262626;stroke-linecap:square;stroke-linejoin:miter;stroke-width:0.8;"/>
   </g>
  </g>
  <g id="axes_4">
   <g id="patch_8">
    <path d="M 27.51869 87.259453 
L 110.941655 87.259453 
L 110.941655 7.501401 
L 27.51869 7.501401 
z
" style="fill:none;"/>
   </g>
   <g id="matplotlib.axis_5">
    <g id="text_9">
     <!-- Bacterial density (mm$^{-2}$) -->
     <defs>
      <path d="M 5.203125 68 
L 5.203125 65.390625 
C 12.09375 65.390625 13.203125 65.390625 13.203125 60.890625 
L 13.203125 7.046875 
C 13.203125 2.59375 12.09375 2.59375 5.203125 2.59375 
L 5.203125 0 
L 39.59375 0 
C 52.40625 0 60.703125 9.03125 60.703125 18.046875 
C 60.703125 26.96875 52.5 34.59375 41.796875 35.296875 
C 51.40625 37.1875 58.09375 43.59375 58.09375 51.1875 
C 58.09375 59.5 49.90625 68 37 68 
z
M 19.5 36 
L 19.5 61.5 
C 19.5 64.890625 19.703125 65.390625 23.703125 65.390625 
L 36.5 65.390625 
C 46.40625 65.390625 50.796875 57.390625 50.796875 51.1875 
C 50.796875 43.59375 44.703125 36 33.90625 36 
z
M 23.703125 2.59375 
C 19.703125 2.59375 19.5 3.09375 19.5 6.453125 
L 19.5 34.390625 
L 38 34.390625 
C 48.296875 34.390625 53.296875 25.375 53.296875 18.140625 
C 53.296875 10.90625 47.59375 2.59375 36.703125 2.59375 
z
" id="CMR17-66"/>
      <path d="M 36 25.875 
C 36 32 36 35.546875 31.796875 39.59375 
C 28.09375 42.984375 23.796875 44 20.40625 44 
C 12.5 44 6.796875 37.625 6.796875 30.890625 
C 6.796875 27.1875 9.796875 27 10.40625 27 
C 11.703125 27 14 27.796875 14 30.59375 
C 14 33.09375 12.09375 34.1875 10.40625 34.1875 
C 10 34.1875 9.5 34.09375 9.203125 34 
C 11.296875 40.53125 16.703125 42.390625 20.203125 42.390625 
C 25.203125 42.390625 30.703125 37.828125 30.703125 29.296875 
L 30.703125 25.5 
C 24.796875 25.296875 17.703125 24.5 12.09375 21.453125 
C 5.796875 17.921875 4 12.84375 4 9 
C 4 1.203125 13 -1 18.296875 -1 
C 23.796875 -1 28.90625 2.109375 31.09375 7.890625 
C 31.296875 3.421875 34.09375 -0.609375 38.5 -0.609375 
C 40.59375 -0.609375 45.90625 0.796875 45.90625 8.796875 
L 45.90625 14.46875 
L 44.09375 14.46875 
L 44.09375 8.703125 
C 44.09375 2.515625 41.40625 1.703125 40.09375 1.703125 
C 36 1.703125 36 6.96875 36 11.4375 
z
M 30.703125 13.859375 
C 30.703125 5.046875 24.5 0.59375 19 0.59375 
C 14 0.59375 10.09375 4.34375 10.09375 9 
C 10.09375 12.046875 11.40625 17.40625 17.203125 20.65625 
C 22 23.390625 27.5 23.796875 30.703125 24 
z
" id="CMR17-97"/>
      <path d="M 34.90625 35 
C 33 35 30.203125 35 30.203125 31.484375 
C 30.203125 28.6875 32.5 27.890625 33.796875 27.890625 
C 34.5 27.890625 37.40625 28.1875 37.40625 31.6875 
C 37.40625 38.6875 30.59375 44 22.90625 44 
C 12.296875 44 3.296875 34.390625 3.296875 21.546875 
C 3.296875 8.140625 12.703125 -1 22.90625 -1 
C 35.296875 -1 38.40625 10.5625 38.40625 11.671875 
C 38.40625 12.078125 38.296875 12.375 37.59375 12.375 
C 36.90625 12.375 36.796875 12.28125 36.40625 10.96875 
C 33.796875 2.8125 28.09375 0.796875 23.796875 0.796875 
C 17.40625 0.796875 9.703125 6.734375 9.703125 21.640625 
C 9.703125 36.84375 17.09375 42.1875 23 42.1875 
C 26.90625 42.1875 32.703125 40.34375 34.90625 35 
z
" id="CMR17-99"/>
      <path d="M 15 23.703125 
C 15 33.34375 19.09375 42.390625 26.59375 42.390625 
C 27.296875 42.390625 28 42.296875 28.703125 41.984375 
C 28.703125 41.984375 26.5 41.28125 26.5 38.671875 
C 26.5 36.265625 28.40625 35.265625 29.90625 35.265625 
C 31.09375 35.265625 33.296875 35.96875 33.296875 38.78125 
C 33.296875 41.984375 30.09375 44 26.703125 44 
C 19.09375 44 15.796875 36.5625 14.796875 33.046875 
L 14.703125 33.046875 
L 14.703125 44 
L 3.09375 42.890625 
L 3.09375 40.28125 
C 9 40.28125 9.90625 39.6875 9.90625 34.859375 
L 9.90625 6.921875 
C 9.90625 3.09375 9.5 2.59375 3.09375 2.59375 
L 3.09375 0 
C 5.5 0.1875 10.09375 0.1875 12.703125 0.1875 
C 15.59375 0.1875 20.703125 0.1875 23.40625 0 
L 23.40625 2.59375 
C 16.203125 2.59375 15 2.59375 15 7.109375 
z
" id="CMR17-114"/>
      <path d="M 15.296875 69 
L 3.40625 67.890625 
L 3.40625 65.296875 
C 9.296875 65.296875 10.203125 64.703125 10.203125 59.921875 
L 10.203125 6.859375 
C 10.203125 3.09375 9.796875 2.59375 3.40625 2.59375 
L 3.40625 0 
C 5.796875 0.1875 10.203125 0.1875 12.703125 0.1875 
C 15.296875 0.1875 19.703125 0.1875 22.09375 0 
L 22.09375 2.59375 
C 15.703125 2.59375 15.296875 2.984375 15.296875 6.859375 
z
" id="CMR17-108"/>
      <path d="M 39 34.109375 
C 41.5 40.296875 46 40.390625 47.40625 40.390625 
L 47.40625 43 
C 45.5 42.890625 43 42.796875 41.09375 42.796875 
C 39 42.796875 35.703125 42.796875 33.703125 43 
L 33.703125 40.390625 
C 37.5 40.09375 37.59375 37.25 37.59375 36.4375 
C 37.59375 35.4375 37.40625 34.921875 36.90625 33.71875 
L 26 6.390625 
L 14.09375 35.9375 
C 13.59375 37.15625 13.59375 37.859375 13.59375 37.96875 
C 13.59375 40.1875 15.90625 40.390625 18.296875 40.390625 
L 18.296875 43 
C 15.90625 42.796875 11.59375 42.796875 9.09375 42.796875 
C 6.40625 42.796875 3.203125 42.796875 1 43 
L 1 40.390625 
C 6.40625 40.390625 7 39.890625 8.296875 36.640625 
L 23.203125 -0.484375 
C 18.703125 -12.421875 16.09375 -19.40625 9.796875 -19.40625 
C 8.703125 -19.40625 6.203125 -19.109375 4.40625 -17.28125 
C 6.703125 -17.078125 7.703125 -15.65625 7.703125 -13.9375 
C 7.703125 -12.21875 6.5 -10.703125 4.5 -10.703125 
C 2.296875 -10.703125 1.203125 -12.21875 1.203125 -14.046875 
C 1.203125 -18.09375 5.296875 -21 9.796875 -21 
C 15.59375 -21 19.203125 -15.359375 21.203125 -10.296875 
z
" id="CMR17-121"/>
      <path d="M 30.59375 -24.40625 
C 30.59375 -24.3125 30.59375 -24.109375 30.296875 -23.8125 
C 25.703125 -19.109375 13.40625 -6.296875 13.40625 24.9375 
C 13.40625 56.171875 25.5 68.875 30.40625 73.890625 
C 30.40625 73.984375 30.59375 74.1875 30.59375 74.484375 
C 30.59375 74.796875 30.296875 75 29.90625 75 
C 28.796875 75 20.296875 67.578125 15.40625 56.5625 
C 10.40625 45.453125 9 34.65625 9 25.046875 
C 9 17.828125 9.703125 5.625 15.703125 -7.296875 
C 20.5 -17.703125 28.703125 -25 29.90625 -25 
C 30.40625 -25 30.59375 -24.8125 30.59375 -24.40625 
z
" id="CMR17-40"/>
      <path d="M 67.59375 30.53125 
C 67.59375 35.5625 66.703125 44 54.796875 44 
C 48 44 43.296875 39.375 41.5 33.953125 
L 41.40625 33.953125 
C 40.203125 42.1875 34.296875 44 28.703125 44 
C 20.796875 44 16.703125 37.875 15.203125 33.84375 
L 15.09375 33.84375 
L 15.09375 44 
L 3.296875 42.890625 
L 3.296875 40.28125 
C 9.203125 40.28125 10.09375 39.6875 10.09375 34.859375 
L 10.09375 6.921875 
C 10.09375 3.09375 9.703125 2.59375 3.296875 2.59375 
L 3.296875 0 
C 5.703125 0.1875 10.09375 0.1875 12.703125 0.1875 
C 15.296875 0.1875 19.796875 0.1875 22.203125 0 
L 22.203125 2.59375 
C 15.796875 2.59375 15.40625 3 15.40625 6.921875 
L 15.40625 26.21875 
C 15.40625 35.453125 21 42.390625 28 42.390625 
C 35.40625 42.390625 36.203125 35.765625 36.203125 30.9375 
L 36.203125 6.921875 
C 36.203125 3.09375 35.796875 2.59375 29.40625 2.59375 
L 29.40625 0 
C 31.796875 0.1875 36.203125 0.1875 38.796875 0.1875 
C 41.40625 0.1875 45.90625 0.1875 48.296875 0 
L 48.296875 2.59375 
C 41.90625 2.59375 41.5 3 41.5 6.921875 
L 41.5 26.21875 
C 41.5 35.453125 47.09375 42.390625 54.09375 42.390625 
C 61.5 42.390625 62.296875 35.765625 62.296875 30.9375 
L 62.296875 6.921875 
C 62.296875 3.09375 61.90625 2.59375 55.5 2.59375 
L 55.5 0 
C 57.90625 0.1875 62.296875 0.1875 64.90625 0.1875 
C 67.5 0.1875 72 0.1875 74.40625 0 
L 74.40625 2.59375 
C 68 2.59375 67.59375 3 67.59375 6.921875 
z
" id="CMR17-109"/>
      <path d="M 65.90625 23 
C 67.59375 23 69.40625 23 69.40625 25 
C 69.40625 27 67.59375 27 65.90625 27 
L 11.796875 27 
C 10.09375 27 8.296875 27 8.296875 25 
C 8.296875 23 10.09375 23 11.796875 23 
z
" id="CMSY10-0"/>
      <path d="M 26.296875 24.9375 
C 26.296875 32.140625 25.59375 44.359375 19.59375 57.265625 
C 14.796875 67.6875 6.59375 75 5.40625 75 
C 5.09375 75 4.703125 74.890625 4.703125 74.390625 
C 4.703125 74.1875 4.796875 74.09375 4.90625 73.890625 
C 9.703125 68.875 21.90625 56.171875 21.90625 25.046875 
C 21.90625 -6.1875 9.796875 -18.90625 4.90625 -23.90625 
C 4.796875 -24.109375 4.703125 -24.203125 4.703125 -24.40625 
C 4.703125 -24.90625 5.09375 -25 5.40625 -25 
C 6.5 -25 15 -17.609375 19.90625 -6.59375 
C 24.90625 4.515625 26.296875 15.328125 26.296875 24.9375 
z
" id="CMR17-41"/>
     </defs>
     <g style="fill:#262626;" transform="translate(12.920658 108.924446)scale(0.08 -0.08)">
      <use transform="scale(0.996264)" xlink:href="#CMR17-66"/>
      <use transform="translate(65.188754 0)scale(0.996264)" xlink:href="#CMR17-97"/>
      <use transform="translate(110.879232 0)scale(0.996264)" xlink:href="#CMR17-99"/>
      <use transform="translate(151.364892 0)scale(0.996264)" xlink:href="#CMR17-116"/>
      <use transform="translate(186.64566 0)scale(0.996264)" xlink:href="#CMR17-101"/>
      <use transform="translate(227.13132 0)scale(0.996264)" xlink:href="#CMR17-114"/>
      <use transform="translate(262.412088 0)scale(0.996264)" xlink:href="#CMR17-105"/>
      <use transform="translate(287.283147 0)scale(0.996264)" xlink:href="#CMR17-97"/>
      <use transform="translate(332.973624 0)scale(0.996264)" xlink:href="#CMR17-108"/>
      <use transform="translate(387.920649 0)scale(0.996264)" xlink:href="#CMR17-100"/>
      <use transform="translate(438.816018 0)scale(0.996264)" xlink:href="#CMR17-101"/>
      <use transform="translate(479.301679 0)scale(0.996264)" xlink:href="#CMR17-110"/>
      <use transform="translate(530.197049 0)scale(0.996264)" xlink:href="#CMR17-115"/>
      <use transform="translate(565.998386 0)scale(0.996264)" xlink:href="#CMR17-105"/>
      <use transform="translate(590.869445 0)scale(0.996264)" xlink:href="#CMR17-116"/>
      <use transform="translate(623.547759 0)scale(0.996264)" xlink:href="#CMR17-121"/>
      <use transform="translate(701.916641 0)scale(0.996264)" xlink:href="#CMR17-40"/>
      <use transform="translate(737.197409 0)scale(0.996264)" xlink:href="#CMR17-109"/>
      <use transform="translate(814.116998 0)scale(0.996264)" xlink:href="#CMR17-109"/>
      <use transform="translate(891.036588 36.153639)scale(0.697382)" xlink:href="#CMSY10-0"/>
      <use transform="translate(945.277582 36.153639)scale(0.697382)" xlink:href="#CMR17-50"/>
      <use transform="translate(977.758895 0)scale(0.996264)" xlink:href="#CMR17-41"/>
     </g>
    </g>
   </g>
   <g id="matplotlib.axis_6">
    <g id="text_10">
     <!-- $\it{x}$ (mm) -->
     <defs>
      <path d="M 46.40625 40.796875 
C 44.203125 40.1875 42.90625 38.390625 42.90625 36.390625 
C 42.90625 34.296875 44.5 33.484375 46 33.484375 
C 47.796875 33.484375 50.5 34.796875 50.5 38.390625 
C 50.5 42.890625 45 44 42.09375 44 
C 37.09375 44 34 40.09375 32.5 37.390625 
C 31.40625 40.6875 28.296875 44 23.296875 44 
C 13.296875 44 8.296875 30.90625 8.296875 28.9375 
C 8.296875 28.03125 9.203125 28.03125 9.703125 28.03125 
C 10.796875 28.03125 10.90625 28.234375 11.40625 29.828125 
C 13.703125 37.390625 18.5 41.984375 23.09375 41.984375 
C 25.40625 41.984375 27.703125 40.59375 27.703125 35.796875 
C 27.703125 33.484375 26.703125 29.53125 25.90625 26.453125 
C 25.40625 24.265625 22 10.890625 21.796875 10.09375 
C 20.703125 6.6875 18.203125 1 13.703125 1 
C 13.203125 1 11 1 9.203125 2.671875 
C 12.09375 3.484375 12.796875 5.890625 12.796875 7.09375 
C 12.796875 8.984375 11.40625 10 9.703125 10 
C 7.09375 10 5.09375 7.796875 5.09375 5.09375 
C 5.09375 0.796875 9.5 -1 13.5 -1 
C 17.59375 -1 20.796875 1.828125 23 6.1875 
C 23.796875 3.796875 26.40625 -1 32.40625 -1 
C 42.203125 -1 47.296875 12.5625 47.296875 14.546875 
C 47.296875 15.453125 46.40625 15.453125 46 15.453125 
C 44.796875 15.453125 44.796875 15.25 44.296875 13.5625 
C 42.203125 6.796875 37.5 1 32.59375 1 
C 28.40625 1 27.796875 5.890625 27.796875 7.6875 
C 27.796875 9.796875 28.59375 12.96875 29.796875 17.828125 
C 30.40625 20 31.40625 24.078125 32.09375 26.84375 
C 34 34.484375 36 41.984375 42 41.984375 
C 42.5 41.984375 44.59375 41.984375 46.40625 40.796875 
z
" id="CMTI12-120"/>
     </defs>
     <g style="fill:#262626;" transform="translate(5.526161 61.597438)rotate(-90)scale(0.08 -0.08)">
      <use transform="scale(0.996264)" xlink:href="#CMTI12-120"/>
      <use transform="translate(86.877426 0)scale(0.996264)" xlink:href="#CMR17-40"/>
      <use transform="translate(122.158194 0)scale(0.996264)" xlink:href="#CMR17-109"/>
      <use transform="translate(199.077784 0)scale(0.996264)" xlink:href="#CMR17-109"/>
      <use transform="translate(275.997374 0)scale(0.996264)" xlink:href="#CMR17-41"/>
     </g>
    </g>
   </g>
  </g>
 </g>
 <defs>
  <clipPath id="p51f5613d3e">
   <rect height="79.758052" width="83.422966" x="27.51869" y="7.501401"/>
  </clipPath>
  <clipPath id="peb2ca7caef">
   <rect height="79.758052" width="37.91953" x="27.51869" y="7.501401"/>
  </clipPath>
  <clipPath id="p050f9fd83f">
   <rect height="79.758052" width="37.91953" x="73.022125" y="7.501401"/>
  </clipPath>
 </defs>
</svg>
