<?xml version="1.0" encoding="utf-8" standalone="no"?>
<!DOCTYPE svg PUBLIC "-//W3C//DTD SVG 1.1//EN"
  "http://www.w3.org/Graphics/SVG/1.1/DTD/svg11.dtd">
<!-- Created with matplotlib (https://matplotlib.org/) -->
<svg height="230.4pt" version="1.1" viewBox="0 0 230.4 230.4" width="230.4pt" xmlns="http://www.w3.org/2000/svg" xmlns:xlink="http://www.w3.org/1999/xlink">
 <defs>
  <style type="text/css">
*{stroke-linecap:butt;stroke-linejoin:round;}
  </style>
 </defs>
 <g id="figure_1">
  <g id="patch_1">
   <path d="M 0 230.4 
L 230.4 230.4 
L 230.4 0 
L 0 0 
z
" style="fill:#ffffff;"/>
  </g>
  <g id="axes_1">
   <g id="patch_2">
    <path clip-path="url(#p4ae225e8c9)" d="M 42.421909 205.908 
L 42.421909 1.152 
L 220.300091 1.152 
L 220.300091 205.908 
z
" style="fill:#b3b3b3;stroke:#b3b3b3;stroke-linejoin:miter;"/>
   </g>
  </g>
  <g id="axes_2">
   <g id="patch_3">
    <path d="M 33.528 205.908 
L 50.094044 205.908 
L 50.094044 1.152 
L 33.528 1.152 
z
" style="fill:#ffffff;"/>
   </g>
   <g id="matplotlib.axis_1">
    <g id="xtick_1">
     <g id="line2d_1">
      <defs>
       <path d="M 0 0 
L 0 3.5 
" id="mf8d689f3d1" style="stroke:#262626;stroke-width:0.8;"/>
      </defs>
      <g>
       <use style="fill:#262626;stroke:#262626;stroke-width:0.8;" x="50.094044" xlink:href="#mf8d689f3d1" y="205.908"/>
      </g>
     </g>
     <g id="text_1">
      <!-- 0 -->
      <defs>
       <path d="M 31.78125 3.421875 
Q 39.265625 3.421875 42.96875 11.625 
Q 46.6875 19.828125 46.6875 36.375 
Q 46.6875 52.984375 42.96875 61.1875 
Q 39.265625 69.390625 31.78125 69.390625 
Q 24.3125 69.390625 20.59375 61.1875 
Q 16.890625 52.984375 16.890625 36.375 
Q 16.890625 19.828125 20.59375 11.625 
Q 24.3125 3.421875 31.78125 3.421875 
z
M 31.78125 -1.421875 
Q 19.921875 -1.421875 13.25 8.53125 
Q 6.59375 18.5 6.59375 36.375 
Q 6.59375 54.296875 13.25 64.25 
Q 19.921875 74.21875 31.78125 74.21875 
Q 43.703125 74.21875 50.34375 64.25 
Q 56.984375 54.296875 56.984375 36.375 
Q 56.984375 18.5 50.34375 8.53125 
Q 43.703125 -1.421875 31.78125 -1.421875 
z
" id="DejaVuSerif-48"/>
      </defs>
      <g style="fill:#262626;" transform="translate(47.549044 219.48675)scale(0.08 -0.08)">
       <use xlink:href="#DejaVuSerif-48"/>
      </g>
     </g>
    </g>
   </g>
   <g id="matplotlib.axis_2">
    <g id="ytick_1">
     <g id="line2d_2">
      <defs>
       <path d="M 0 0 
L -3.5 0 
" id="m590e47888b" style="stroke:#262626;stroke-width:0.8;"/>
      </defs>
      <g>
       <use style="fill:#262626;stroke:#262626;stroke-width:0.8;" x="33.528" xlink:href="#m590e47888b" y="196.600909"/>
      </g>
     </g>
     <g id="text_2">
      <!-- 0 -->
      <g style="fill:#262626;" transform="translate(20.938 199.640284)scale(0.08 -0.08)">
       <use xlink:href="#DejaVuSerif-48"/>
      </g>
     </g>
    </g>
    <g id="ytick_2">
     <g id="line2d_3">
      <g>
       <use style="fill:#262626;stroke:#262626;stroke-width:0.8;" x="33.528" xlink:href="#m590e47888b" y="173.333182"/>
      </g>
     </g>
     <g id="text_3">
      <!-- 20 -->
      <defs>
       <path d="M 12.796875 55.515625 
L 7.328125 55.515625 
L 7.328125 68.5 
Q 12.546875 71.296875 17.84375 72.75 
Q 23.140625 74.21875 28.21875 74.21875 
Q 39.59375 74.21875 46.1875 68.703125 
Q 52.78125 63.1875 52.78125 53.71875 
Q 52.78125 43.015625 37.84375 28.125 
Q 36.671875 27 36.078125 26.421875 
L 17.671875 8.015625 
L 48.09375 8.015625 
L 48.09375 17 
L 53.8125 17 
L 53.8125 0 
L 6.78125 0 
L 6.78125 5.328125 
L 28.90625 27.390625 
Q 36.234375 34.71875 39.359375 40.84375 
Q 42.484375 46.96875 42.484375 53.71875 
Q 42.484375 61.078125 38.640625 65.234375 
Q 34.8125 69.390625 28.078125 69.390625 
Q 21.09375 69.390625 17.28125 65.921875 
Q 13.484375 62.453125 12.796875 55.515625 
z
" id="DejaVuSerif-50"/>
      </defs>
      <g style="fill:#262626;" transform="translate(15.848 176.372557)scale(0.08 -0.08)">
       <use xlink:href="#DejaVuSerif-50"/>
       <use x="63.623047" xlink:href="#DejaVuSerif-48"/>
      </g>
     </g>
    </g>
    <g id="ytick_3">
     <g id="line2d_4">
      <g>
       <use style="fill:#262626;stroke:#262626;stroke-width:0.8;" x="33.528" xlink:href="#m590e47888b" y="150.065455"/>
      </g>
     </g>
     <g id="text_4">
      <!-- 40 -->
      <defs>
       <path d="M 34.90625 24.703125 
L 34.90625 63.484375 
L 10.015625 24.703125 
z
M 56.390625 0 
L 23.1875 0 
L 23.1875 5.171875 
L 34.90625 5.171875 
L 34.90625 19.484375 
L 3.078125 19.484375 
L 3.078125 24.8125 
L 35.015625 74.21875 
L 44.671875 74.21875 
L 44.671875 24.703125 
L 58.59375 24.703125 
L 58.59375 19.484375 
L 44.671875 19.484375 
L 44.671875 5.171875 
L 56.390625 5.171875 
z
" id="DejaVuSerif-52"/>
      </defs>
      <g style="fill:#262626;" transform="translate(15.848 153.10483)scale(0.08 -0.08)">
       <use xlink:href="#DejaVuSerif-52"/>
       <use x="63.623047" xlink:href="#DejaVuSerif-48"/>
      </g>
     </g>
    </g>
    <g id="ytick_4">
     <g id="line2d_5">
      <g>
       <use style="fill:#262626;stroke:#262626;stroke-width:0.8;" x="33.528" xlink:href="#m590e47888b" y="126.797727"/>
      </g>
     </g>
     <g id="text_5">
      <!-- 60 -->
      <defs>
       <path d="M 32.71875 3.421875 
Q 39.59375 3.421875 43.296875 8.46875 
Q 47.015625 13.53125 47.015625 23 
Q 47.015625 32.46875 43.296875 37.515625 
Q 39.59375 42.578125 32.71875 42.578125 
Q 25.734375 42.578125 22.0625 37.6875 
Q 18.40625 32.8125 18.40625 23.578125 
Q 18.40625 13.875 22.109375 8.640625 
Q 25.828125 3.421875 32.71875 3.421875 
z
M 16.796875 40.140625 
Q 20.125 43.796875 24.3125 45.59375 
Q 28.515625 47.40625 33.796875 47.40625 
Q 44.671875 47.40625 51 40.859375 
Q 57.328125 34.328125 57.328125 23 
Q 57.328125 11.921875 50.515625 5.25 
Q 43.703125 -1.421875 32.328125 -1.421875 
Q 19.96875 -1.421875 13.328125 7.78125 
Q 6.6875 17 6.6875 34.078125 
Q 6.6875 53.21875 14.546875 63.71875 
Q 22.40625 74.21875 36.71875 74.21875 
Q 40.578125 74.21875 44.828125 73.484375 
Q 49.078125 72.75 53.515625 71.296875 
L 53.515625 59.28125 
L 48 59.28125 
Q 47.40625 64.203125 44.234375 66.796875 
Q 41.0625 69.390625 35.6875 69.390625 
Q 26.21875 69.390625 21.578125 62.203125 
Q 16.9375 55.03125 16.796875 40.140625 
z
" id="DejaVuSerif-54"/>
      </defs>
      <g style="fill:#262626;" transform="translate(15.848 129.837102)scale(0.08 -0.08)">
       <use xlink:href="#DejaVuSerif-54"/>
       <use x="63.623047" xlink:href="#DejaVuSerif-48"/>
      </g>
     </g>
    </g>
    <g id="ytick_5">
     <g id="line2d_6">
      <g>
       <use style="fill:#262626;stroke:#262626;stroke-width:0.8;" x="33.528" xlink:href="#m590e47888b" y="103.53"/>
      </g>
     </g>
     <g id="text_6">
      <!-- 80 -->
      <defs>
       <path d="M 46.578125 19.921875 
Q 46.578125 27.734375 42.6875 32.046875 
Q 38.8125 36.375 31.78125 36.375 
Q 24.75 36.375 20.875 32.046875 
Q 17 27.734375 17 19.921875 
Q 17 12.0625 20.875 7.734375 
Q 24.75 3.421875 31.78125 3.421875 
Q 38.8125 3.421875 42.6875 7.734375 
Q 46.578125 12.0625 46.578125 19.921875 
z
M 44.578125 55.328125 
Q 44.578125 61.96875 41.203125 65.671875 
Q 37.84375 69.390625 31.78125 69.390625 
Q 25.78125 69.390625 22.390625 65.671875 
Q 19 61.96875 19 55.328125 
Q 19 48.640625 22.390625 44.921875 
Q 25.78125 41.21875 31.78125 41.21875 
Q 37.84375 41.21875 41.203125 44.921875 
Q 44.578125 48.640625 44.578125 55.328125 
z
M 39.3125 38.8125 
Q 47.609375 37.703125 52.25 32.6875 
Q 56.890625 27.6875 56.890625 19.921875 
Q 56.890625 9.671875 50.390625 4.125 
Q 43.890625 -1.421875 31.78125 -1.421875 
Q 19.734375 -1.421875 13.203125 4.125 
Q 6.6875 9.671875 6.6875 19.921875 
Q 6.6875 27.6875 11.328125 32.6875 
Q 15.96875 37.703125 24.3125 38.8125 
Q 16.9375 40.140625 13 44.40625 
Q 9.078125 48.6875 9.078125 55.328125 
Q 9.078125 64.109375 15.125 69.15625 
Q 21.1875 74.21875 31.78125 74.21875 
Q 42.390625 74.21875 48.4375 69.15625 
Q 54.5 64.109375 54.5 55.328125 
Q 54.5 48.6875 50.5625 44.40625 
Q 46.625 40.140625 39.3125 38.8125 
z
" id="DejaVuSerif-56"/>
      </defs>
      <g style="fill:#262626;" transform="translate(15.848 106.569375)scale(0.08 -0.08)">
       <use xlink:href="#DejaVuSerif-56"/>
       <use x="63.623047" xlink:href="#DejaVuSerif-48"/>
      </g>
     </g>
    </g>
    <g id="ytick_6">
     <g id="line2d_7">
      <g>
       <use style="fill:#262626;stroke:#262626;stroke-width:0.8;" x="33.528" xlink:href="#m590e47888b" y="80.262273"/>
      </g>
     </g>
     <g id="text_7">
      <!-- 100 -->
      <defs>
       <path d="M 14.203125 0 
L 14.203125 5.171875 
L 26.90625 5.171875 
L 26.90625 65.828125 
L 12.203125 56.296875 
L 12.203125 62.703125 
L 29.984375 74.21875 
L 36.71875 74.21875 
L 36.71875 5.171875 
L 49.421875 5.171875 
L 49.421875 0 
z
" id="DejaVuSerif-49"/>
      </defs>
      <g style="fill:#262626;" transform="translate(10.758 83.301648)scale(0.08 -0.08)">
       <use xlink:href="#DejaVuSerif-49"/>
       <use x="63.623047" xlink:href="#DejaVuSerif-48"/>
       <use x="127.246094" xlink:href="#DejaVuSerif-48"/>
      </g>
     </g>
    </g>
    <g id="ytick_7">
     <g id="line2d_8">
      <g>
       <use style="fill:#262626;stroke:#262626;stroke-width:0.8;" x="33.528" xlink:href="#m590e47888b" y="56.994545"/>
      </g>
     </g>
     <g id="text_8">
      <!-- 120 -->
      <g style="fill:#262626;" transform="translate(10.758 60.03392)scale(0.08 -0.08)">
       <use xlink:href="#DejaVuSerif-49"/>
       <use x="63.623047" xlink:href="#DejaVuSerif-50"/>
       <use x="127.246094" xlink:href="#DejaVuSerif-48"/>
      </g>
     </g>
    </g>
    <g id="ytick_8">
     <g id="line2d_9">
      <g>
       <use style="fill:#262626;stroke:#262626;stroke-width:0.8;" x="33.528" xlink:href="#m590e47888b" y="33.726818"/>
      </g>
     </g>
     <g id="text_9">
      <!-- 140 -->
      <g style="fill:#262626;" transform="translate(10.758 36.766193)scale(0.08 -0.08)">
       <use xlink:href="#DejaVuSerif-49"/>
       <use x="63.623047" xlink:href="#DejaVuSerif-52"/>
       <use x="127.246094" xlink:href="#DejaVuSerif-48"/>
      </g>
     </g>
    </g>
    <g id="ytick_9">
     <g id="line2d_10">
      <g>
       <use style="fill:#262626;stroke:#262626;stroke-width:0.8;" x="33.528" xlink:href="#m590e47888b" y="10.459091"/>
      </g>
     </g>
     <g id="text_10">
      <!-- 160 -->
      <g style="fill:#262626;" transform="translate(10.758 13.498466)scale(0.08 -0.08)">
       <use xlink:href="#DejaVuSerif-49"/>
       <use x="63.623047" xlink:href="#DejaVuSerif-54"/>
       <use x="127.246094" xlink:href="#DejaVuSerif-48"/>
      </g>
     </g>
    </g>
   </g>
   <g id="patch_4">
    <path clip-path="url(#p47e0abc301)" d="M 50.094044 205.908 
L 50.094044 1.152 
L 211.406182 1.152 
L 211.406182 205.908 
z
" style="fill:#ffdd55;opacity:0.35;stroke:#ffdd55;stroke-linejoin:miter;"/>
   </g>
   <g id="PolyCollection_1">
    <defs>
     <path d="M 50.094044 -33.799091 
L 97.111624 -33.799091 
L 97.353302 -35.660509 
L 97.606216 -37.521927 
L 97.861281 -39.383345 
L 98.11802 -41.244764 
L 98.376432 -43.106182 
L 98.636517 -44.9676 
L 98.898515 -46.829018 
L 99.162186 -48.690436 
L 99.427769 -50.551855 
L 99.695265 -52.413273 
L 99.964673 -54.274691 
L 100.235994 -56.136109 
L 100.509226 -57.997527 
L 100.78485 -59.858945 
L 101.062147 -61.720364 
L 101.341834 -63.581782 
L 101.623673 -65.4432 
L 101.907663 -67.304618 
L 102.193804 -69.166036 
L 102.482576 -71.027455 
L 102.773498 -72.888873 
L 103.06705 -74.750291 
L 103.362993 -76.611709 
L 103.661565 -78.473127 
L 103.962767 -80.334545 
L 104.266598 -82.195964 
L 104.573537 -84.057382 
L 104.883105 -85.9188 
L 105.195781 -87.780218 
L 105.511326 -89.641636 
L 105.830217 -91.503055 
L 106.152216 -93.364473 
L 106.4778 -95.225891 
L 106.806732 -97.087309 
L 107.139249 -98.948727 
L 107.475591 -100.810145 
L 107.815757 -102.671564 
L 108.159988 -104.532982 
L 108.508282 -106.3944 
L 108.860879 -108.255818 
L 109.217779 -110.117236 
L 109.5797 -111.978655 
L 109.946162 -113.840073 
L 110.317883 -115.701491 
L 110.694624 -117.562909 
L 111.076863 -119.424327 
L 111.464839 -121.285745 
L 111.858792 -123.147164 
L 112.259199 -125.008582 
L 112.665821 -126.87 
L 113.079137 -128.731418 
L 113.499863 -130.592836 
L 113.928 -132.454255 
L 114.363786 -134.315673 
L 114.807939 -136.177091 
L 115.260698 -138.038509 
L 115.722779 -139.899927 
L 116.194184 -141.761345 
L 116.675867 -143.622764 
L 117.168069 -145.484182 
L 117.671745 -147.3456 
L 118.187135 -149.207018 
L 118.715194 -151.068436 
L 119.25664 -152.929855 
L 119.812429 -154.791273 
L 120.383277 -156.652691 
L 120.970382 -158.514109 
L 121.574697 -160.375527 
L 122.19742 -162.236945 
L 122.839744 -164.098364 
L 123.503105 -165.959782 
L 124.189415 -167.8212 
L 124.900346 -169.682618 
L 125.637812 -171.544036 
L 126.403964 -173.405455 
L 127.201431 -175.266873 
L 128.032844 -177.128291 
L 128.901786 -178.989709 
L 129.811607 -180.851127 
L 130.766846 -182.712545 
L 131.772047 -184.573964 
L 132.833185 -186.435382 
L 133.956954 -188.2968 
L 135.151482 -190.158218 
L 136.425852 -192.019636 
L 137.792256 -193.881055 
L 139.264558 -195.742473 
L 140.860688 -197.603891 
L 142.603116 -199.465309 
L 144.520527 -201.326727 
L 146.651409 -203.188145 
L 149.047875 -205.049564 
L 151.782834 -206.910982 
L 154.964097 -208.7724 
L 158.758999 -210.633818 
L 163.447466 -212.495236 
L 169.536521 -214.356655 
L 178.015826 -216.218073 
L 190.918014 -218.079491 
L 211.406182 -219.940909 
L 50.094044 -219.940909 
L 50.094044 -219.940909 
L 50.094044 -218.079491 
L 50.094044 -216.218073 
L 50.094044 -214.356655 
L 50.094044 -212.495236 
L 50.094044 -210.633818 
L 50.094044 -208.7724 
L 50.094044 -206.910982 
L 50.094044 -205.049564 
L 50.094044 -203.188145 
L 50.094044 -201.326727 
L 50.094044 -199.465309 
L 50.094044 -197.603891 
L 50.094044 -195.742473 
L 50.094044 -193.881055 
L 50.094044 -192.019636 
L 50.094044 -190.158218 
L 50.094044 -188.2968 
L 50.094044 -186.435382 
L 50.094044 -184.573964 
L 50.094044 -182.712545 
L 50.094044 -180.851127 
L 50.094044 -178.989709 
L 50.094044 -177.128291 
L 50.094044 -175.266873 
L 50.094044 -173.405455 
L 50.094044 -171.544036 
L 50.094044 -169.682618 
L 50.094044 -167.8212 
L 50.094044 -165.959782 
L 50.094044 -164.098364 
L 50.094044 -162.236945 
L 50.094044 -160.375527 
L 50.094044 -158.514109 
L 50.094044 -156.652691 
L 50.094044 -154.791273 
L 50.094044 -152.929855 
L 50.094044 -151.068436 
L 50.094044 -149.207018 
L 50.094044 -147.3456 
L 50.094044 -145.484182 
L 50.094044 -143.622764 
L 50.094044 -141.761345 
L 50.094044 -139.899927 
L 50.094044 -138.038509 
L 50.094044 -136.177091 
L 50.094044 -134.315673 
L 50.094044 -132.454255 
L 50.094044 -130.592836 
L 50.094044 -128.731418 
L 50.094044 -126.87 
L 50.094044 -125.008582 
L 50.094044 -123.147164 
L 50.094044 -121.285745 
L 50.094044 -119.424327 
L 50.094044 -117.562909 
L 50.094044 -115.701491 
L 50.094044 -113.840073 
L 50.094044 -111.978655 
L 50.094044 -110.117236 
L 50.094044 -108.255818 
L 50.094044 -106.3944 
L 50.094044 -104.532982 
L 50.094044 -102.671564 
L 50.094044 -100.810145 
L 50.094044 -98.948727 
L 50.094044 -97.087309 
L 50.094044 -95.225891 
L 50.094044 -93.364473 
L 50.094044 -91.503055 
L 50.094044 -89.641636 
L 50.094044 -87.780218 
L 50.094044 -85.9188 
L 50.094044 -84.057382 
L 50.094044 -82.195964 
L 50.094044 -80.334545 
L 50.094044 -78.473127 
L 50.094044 -76.611709 
L 50.094044 -74.750291 
L 50.094044 -72.888873 
L 50.094044 -71.027455 
L 50.094044 -69.166036 
L 50.094044 -67.304618 
L 50.094044 -65.4432 
L 50.094044 -63.581782 
L 50.094044 -61.720364 
L 50.094044 -59.858945 
L 50.094044 -57.997527 
L 50.094044 -56.136109 
L 50.094044 -54.274691 
L 50.094044 -52.413273 
L 50.094044 -50.551855 
L 50.094044 -48.690436 
L 50.094044 -46.829018 
L 50.094044 -44.9676 
L 50.094044 -43.106182 
L 50.094044 -41.244764 
L 50.094044 -39.383345 
L 50.094044 -37.521927 
L 50.094044 -35.660509 
L 50.094044 -33.799091 
z
" id="m1a9f5677b8" style="stroke:#447821;"/>
    </defs>
    <g clip-path="url(#p47e0abc301)">
     <use style="fill:#447821;stroke:#447821;" x="0" xlink:href="#m1a9f5677b8" y="230.4"/>
    </g>
   </g>
   <g id="PolyCollection_2">
    <defs>
     <path d="M 50.094044 -33.799091 
L 47.703554 -33.799091 
L 47.703554 -35.660509 
L 47.703554 -37.521927 
L 47.703554 -39.383345 
L 47.703554 -41.244764 
L 47.703554 -43.106182 
L 47.703554 -44.9676 
L 47.703554 -46.829018 
L 47.703554 -48.690436 
L 47.703554 -50.551855 
L 47.703554 -52.413273 
L 47.703554 -54.274691 
L 47.703554 -56.136109 
L 47.703554 -57.997527 
L 47.703554 -59.858945 
L 47.703554 -61.720364 
L 47.703554 -63.581782 
L 47.703554 -65.4432 
L 47.703554 -67.304618 
L 47.703554 -69.166036 
L 47.703554 -71.027455 
L 47.703554 -72.888873 
L 47.703554 -74.750291 
L 47.703554 -76.611709 
L 47.703554 -78.473127 
L 47.703554 -80.334545 
L 47.703554 -82.195964 
L 47.703554 -84.057382 
L 47.703554 -85.9188 
L 47.703554 -87.780218 
L 47.703554 -89.641636 
L 47.703554 -91.503055 
L 47.703554 -93.364473 
L 47.703554 -95.225891 
L 47.703554 -97.087309 
L 47.703554 -98.948727 
L 47.703554 -100.810145 
L 47.703554 -102.671564 
L 47.703554 -104.532982 
L 47.703554 -106.3944 
L 47.703554 -108.255818 
L 47.703554 -110.117236 
L 47.703554 -111.978655 
L 47.703554 -113.840073 
L 47.703554 -115.701491 
L 47.703554 -117.562909 
L 47.703554 -119.424327 
L 47.703554 -121.285745 
L 47.703554 -123.147164 
L 47.703554 -125.008582 
L 47.703554 -126.87 
L 47.703554 -128.731418 
L 47.703554 -130.592836 
L 47.703554 -132.454255 
L 47.703554 -134.315673 
L 47.703554 -136.177091 
L 47.703554 -138.038509 
L 47.703554 -139.899927 
L 47.703554 -141.761345 
L 47.703554 -143.622764 
L 47.703554 -145.484182 
L 47.703554 -147.3456 
L 47.703554 -149.207018 
L 47.703554 -151.068436 
L 47.703554 -152.929855 
L 47.703554 -154.791273 
L 47.703554 -156.652691 
L 47.703554 -158.514109 
L 47.703554 -160.375527 
L 47.703554 -162.236945 
L 47.703554 -164.098364 
L 47.703554 -165.959782 
L 47.703554 -167.8212 
L 47.703554 -169.682618 
L 47.703554 -171.544036 
L 47.703554 -173.405455 
L 47.703554 -175.266873 
L 47.703554 -177.128291 
L 47.703554 -178.989709 
L 47.703554 -180.851127 
L 47.703554 -182.712545 
L 47.703554 -184.573964 
L 47.703554 -186.435382 
L 47.703554 -188.2968 
L 47.703554 -190.158218 
L 47.703554 -192.019636 
L 47.703554 -193.881055 
L 47.703554 -195.742473 
L 47.703531 -197.603891 
L 47.703483 -199.465309 
L 47.703387 -201.326727 
L 47.703052 -203.188145 
L 47.702096 -205.049564 
L 47.699323 -206.910982 
L 47.691291 -208.7724 
L 47.668127 -210.633818 
L 47.60062 -212.495236 
L 47.400799 -214.356655 
L 46.780658 -216.218073 
L 44.584205 -218.079491 
L 33.528 -219.940909 
L 50.094044 -219.940909 
L 50.094044 -219.940909 
L 50.094044 -218.079491 
L 50.094044 -216.218073 
L 50.094044 -214.356655 
L 50.094044 -212.495236 
L 50.094044 -210.633818 
L 50.094044 -208.7724 
L 50.094044 -206.910982 
L 50.094044 -205.049564 
L 50.094044 -203.188145 
L 50.094044 -201.326727 
L 50.094044 -199.465309 
L 50.094044 -197.603891 
L 50.094044 -195.742473 
L 50.094044 -193.881055 
L 50.094044 -192.019636 
L 50.094044 -190.158218 
L 50.094044 -188.2968 
L 50.094044 -186.435382 
L 50.094044 -184.573964 
L 50.094044 -182.712545 
L 50.094044 -180.851127 
L 50.094044 -178.989709 
L 50.094044 -177.128291 
L 50.094044 -175.266873 
L 50.094044 -173.405455 
L 50.094044 -171.544036 
L 50.094044 -169.682618 
L 50.094044 -167.8212 
L 50.094044 -165.959782 
L 50.094044 -164.098364 
L 50.094044 -162.236945 
L 50.094044 -160.375527 
L 50.094044 -158.514109 
L 50.094044 -156.652691 
L 50.094044 -154.791273 
L 50.094044 -152.929855 
L 50.094044 -151.068436 
L 50.094044 -149.207018 
L 50.094044 -147.3456 
L 50.094044 -145.484182 
L 50.094044 -143.622764 
L 50.094044 -141.761345 
L 50.094044 -139.899927 
L 50.094044 -138.038509 
L 50.094044 -136.177091 
L 50.094044 -134.315673 
L 50.094044 -132.454255 
L 50.094044 -130.592836 
L 50.094044 -128.731418 
L 50.094044 -126.87 
L 50.094044 -125.008582 
L 50.094044 -123.147164 
L 50.094044 -121.285745 
L 50.094044 -119.424327 
L 50.094044 -117.562909 
L 50.094044 -115.701491 
L 50.094044 -113.840073 
L 50.094044 -111.978655 
L 50.094044 -110.117236 
L 50.094044 -108.255818 
L 50.094044 -106.3944 
L 50.094044 -104.532982 
L 50.094044 -102.671564 
L 50.094044 -100.810145 
L 50.094044 -98.948727 
L 50.094044 -97.087309 
L 50.094044 -95.225891 
L 50.094044 -93.364473 
L 50.094044 -91.503055 
L 50.094044 -89.641636 
L 50.094044 -87.780218 
L 50.094044 -85.9188 
L 50.094044 -84.057382 
L 50.094044 -82.195964 
L 50.094044 -80.334545 
L 50.094044 -78.473127 
L 50.094044 -76.611709 
L 50.094044 -74.750291 
L 50.094044 -72.888873 
L 50.094044 -71.027455 
L 50.094044 -69.166036 
L 50.094044 -67.304618 
L 50.094044 -65.4432 
L 50.094044 -63.581782 
L 50.094044 -61.720364 
L 50.094044 -59.858945 
L 50.094044 -57.997527 
L 50.094044 -56.136109 
L 50.094044 -54.274691 
L 50.094044 -52.413273 
L 50.094044 -50.551855 
L 50.094044 -48.690436 
L 50.094044 -46.829018 
L 50.094044 -44.9676 
L 50.094044 -43.106182 
L 50.094044 -41.244764 
L 50.094044 -39.383345 
L 50.094044 -37.521927 
L 50.094044 -35.660509 
L 50.094044 -33.799091 
z
" id="m9eb9ab502c" style="stroke:#447821;"/>
    </defs>
    <g clip-path="url(#p47e0abc301)">
     <use style="fill:#447821;stroke:#447821;" x="0" xlink:href="#m9eb9ab502c" y="230.4"/>
    </g>
   </g>
   <g id="line2d_11">
    <path d="M 47.650283 208.351761 
L 52.537805 203.464239 
" style="fill:none;stroke:#000000;stroke-linecap:round;stroke-width:0.8;"/>
   </g>
   <g id="patch_5">
    <path d="M 33.528 205.908 
L 33.528 1.152 
" style="fill:none;stroke:#262626;stroke-linecap:square;stroke-linejoin:miter;stroke-width:0.8;"/>
   </g>
   <g id="patch_6">
    <path d="M 33.528 205.908 
L 50.094044 205.908 
" style="fill:none;stroke:#262626;stroke-linecap:square;stroke-linejoin:miter;stroke-width:0.8;"/>
   </g>
   <g id="PolyCollection_3">
    <defs>
     <path d="M 50.094044 -33.799091 
L 97.08987 -33.799091 
L 97.33131 -35.660509 
L 97.584463 -37.521927 
L 97.839289 -39.383345 
L 98.095788 -41.244764 
L 98.353961 -43.106182 
L 98.614046 -44.9676 
L 98.875805 -46.829018 
L 99.139476 -48.690436 
L 99.40482 -50.551855 
L 99.672316 -52.413273 
L 99.941485 -54.274691 
L 100.212806 -56.136109 
L 100.486039 -57.997527 
L 100.761184 -59.858945 
L 101.03872 -61.720364 
L 101.318168 -63.581782 
L 101.599768 -65.4432 
L 101.883758 -67.304618 
L 102.169899 -69.166036 
L 102.458193 -71.027455 
L 102.749115 -72.888873 
L 103.042428 -74.750291 
L 103.338371 -76.611709 
L 103.636704 -78.473127 
L 103.937905 -80.334545 
L 104.241498 -82.195964 
L 104.548197 -84.057382 
L 104.857766 -85.9188 
L 105.170203 -87.780218 
L 105.485747 -89.641636 
L 105.8044 -91.503055 
L 106.126399 -93.364473 
L 106.451744 -95.225891 
L 106.780436 -97.087309 
L 107.112954 -98.948727 
L 107.449056 -100.810145 
L 107.788984 -102.671564 
L 108.132975 -104.532982 
L 108.481031 -106.3944 
L 108.833628 -108.255818 
L 109.190528 -110.117236 
L 109.55197 -111.978655 
L 109.918432 -113.840073 
L 110.289914 -115.701491 
L 110.666416 -117.562909 
L 111.048655 -119.424327 
L 111.436393 -121.285745 
L 111.830345 -123.147164 
L 112.230274 -125.008582 
L 112.636657 -126.87 
L 113.049973 -128.731418 
L 113.47046 -130.592836 
L 113.898358 -132.454255 
L 114.333905 -134.315673 
L 114.778058 -136.177091 
L 115.230577 -138.038509 
L 115.692181 -139.899927 
L 116.163585 -141.761345 
L 116.644791 -143.622764 
L 117.136993 -145.484182 
L 117.640191 -147.3456 
L 118.15558 -149.207018 
L 118.6834 -151.068436 
L 119.224607 -152.929855 
L 119.780157 -154.791273 
L 120.350767 -156.652691 
L 120.937393 -158.514109 
L 121.54147 -160.375527 
L 122.163714 -162.236945 
L 122.805799 -164.098364 
L 123.46916 -165.959782 
L 124.154992 -167.8212 
L 124.865684 -169.682618 
L 125.602672 -171.544036 
L 126.368346 -173.405455 
L 127.165335 -175.266873 
L 127.996508 -177.128291 
L 128.864973 -178.989709 
L 129.774554 -180.851127 
L 130.729077 -182.712545 
L 131.734038 -184.573964 
L 132.794698 -186.435382 
L 133.917989 -188.2968 
L 135.1118 -190.158218 
L 136.385692 -192.019636 
L 137.751378 -193.881055 
L 139.223203 -195.742473 
L 140.818376 -197.603891 
L 142.559848 -199.465309 
L 144.476542 -201.326727 
L 146.606468 -203.188145 
L 149.001739 -205.049564 
L 151.735502 -206.910982 
L 154.915092 -208.7724 
L 158.708082 -210.633818 
L 163.394397 -212.495236 
L 169.480583 -214.356655 
L 177.956063 -216.218073 
L 190.852276 -218.079491 
L 211.330164 -219.940909 
L 50.094044 -219.940909 
L 50.094044 -219.940909 
L 50.094044 -218.079491 
L 50.094044 -216.218073 
L 50.094044 -214.356655 
L 50.094044 -212.495236 
L 50.094044 -210.633818 
L 50.094044 -208.7724 
L 50.094044 -206.910982 
L 50.094044 -205.049564 
L 50.094044 -203.188145 
L 50.094044 -201.326727 
L 50.094044 -199.465309 
L 50.094044 -197.603891 
L 50.094044 -195.742473 
L 50.094044 -193.881055 
L 50.094044 -192.019636 
L 50.094044 -190.158218 
L 50.094044 -188.2968 
L 50.094044 -186.435382 
L 50.094044 -184.573964 
L 50.094044 -182.712545 
L 50.094044 -180.851127 
L 50.094044 -178.989709 
L 50.094044 -177.128291 
L 50.094044 -175.266873 
L 50.094044 -173.405455 
L 50.094044 -171.544036 
L 50.094044 -169.682618 
L 50.094044 -167.8212 
L 50.094044 -165.959782 
L 50.094044 -164.098364 
L 50.094044 -162.236945 
L 50.094044 -160.375527 
L 50.094044 -158.514109 
L 50.094044 -156.652691 
L 50.094044 -154.791273 
L 50.094044 -152.929855 
L 50.094044 -151.068436 
L 50.094044 -149.207018 
L 50.094044 -147.3456 
L 50.094044 -145.484182 
L 50.094044 -143.622764 
L 50.094044 -141.761345 
L 50.094044 -139.899927 
L 50.094044 -138.038509 
L 50.094044 -136.177091 
L 50.094044 -134.315673 
L 50.094044 -132.454255 
L 50.094044 -130.592836 
L 50.094044 -128.731418 
L 50.094044 -126.87 
L 50.094044 -125.008582 
L 50.094044 -123.147164 
L 50.094044 -121.285745 
L 50.094044 -119.424327 
L 50.094044 -117.562909 
L 50.094044 -115.701491 
L 50.094044 -113.840073 
L 50.094044 -111.978655 
L 50.094044 -110.117236 
L 50.094044 -108.255818 
L 50.094044 -106.3944 
L 50.094044 -104.532982 
L 50.094044 -102.671564 
L 50.094044 -100.810145 
L 50.094044 -98.948727 
L 50.094044 -97.087309 
L 50.094044 -95.225891 
L 50.094044 -93.364473 
L 50.094044 -91.503055 
L 50.094044 -89.641636 
L 50.094044 -87.780218 
L 50.094044 -85.9188 
L 50.094044 -84.057382 
L 50.094044 -82.195964 
L 50.094044 -80.334545 
L 50.094044 -78.473127 
L 50.094044 -76.611709 
L 50.094044 -74.750291 
L 50.094044 -72.888873 
L 50.094044 -71.027455 
L 50.094044 -69.166036 
L 50.094044 -67.304618 
L 50.094044 -65.4432 
L 50.094044 -63.581782 
L 50.094044 -61.720364 
L 50.094044 -59.858945 
L 50.094044 -57.997527 
L 50.094044 -56.136109 
L 50.094044 -54.274691 
L 50.094044 -52.413273 
L 50.094044 -50.551855 
L 50.094044 -48.690436 
L 50.094044 -46.829018 
L 50.094044 -44.9676 
L 50.094044 -43.106182 
L 50.094044 -41.244764 
L 50.094044 -39.383345 
L 50.094044 -37.521927 
L 50.094044 -35.660509 
L 50.094044 -33.799091 
z
" id="m9395f52553" style="stroke:#8dd35f;"/>
    </defs>
    <g clip-path="url(#p47e0abc301)">
     <use style="fill:#8dd35f;stroke:#8dd35f;" x="0" xlink:href="#m9395f52553" y="230.4"/>
    </g>
   </g>
   <g id="PolyCollection_4">
    <defs>
     <path d="M 50.094044 -33.799091 
L 47.703951 -33.799091 
L 47.703942 -35.660509 
L 47.703915 -37.521927 
L 47.703872 -39.383345 
L 47.703825 -41.244764 
L 47.703772 -43.106182 
L 47.703724 -44.9676 
L 47.703681 -46.829018 
L 47.703645 -48.690436 
L 47.703619 -50.551855 
L 47.7036 -52.413273 
L 47.703583 -54.274691 
L 47.703574 -56.136109 
L 47.703566 -57.997527 
L 47.703564 -59.858945 
L 47.703559 -61.720364 
L 47.703557 -63.581782 
L 47.703557 -65.4432 
L 47.703557 -67.304618 
L 47.703554 -69.166036 
L 47.703554 -71.027455 
L 47.703554 -72.888873 
L 47.703554 -74.750291 
L 47.703554 -76.611709 
L 47.703554 -78.473127 
L 47.703554 -80.334545 
L 47.703554 -82.195964 
L 47.703554 -84.057382 
L 47.703554 -85.9188 
L 47.703554 -87.780218 
L 47.703554 -89.641636 
L 47.703554 -91.503055 
L 47.703554 -93.364473 
L 47.703554 -95.225891 
L 47.703554 -97.087309 
L 47.703554 -98.948727 
L 47.703554 -100.810145 
L 47.703554 -102.671564 
L 47.703554 -104.532982 
L 47.703554 -106.3944 
L 47.703554 -108.255818 
L 47.703554 -110.117236 
L 47.703554 -111.978655 
L 47.703554 -113.840073 
L 47.703554 -115.701491 
L 47.703554 -117.562909 
L 47.703554 -119.424327 
L 47.703554 -121.285745 
L 47.703554 -123.147164 
L 47.703554 -125.008582 
L 47.703554 -126.87 
L 47.703554 -128.731418 
L 47.703554 -130.592836 
L 47.703554 -132.454255 
L 47.703554 -134.315673 
L 47.703554 -136.177091 
L 47.703554 -138.038509 
L 47.703554 -139.899927 
L 47.703554 -141.761345 
L 47.703554 -143.622764 
L 47.703554 -145.484182 
L 47.703554 -147.3456 
L 47.703554 -149.207018 
L 47.703554 -151.068436 
L 47.703554 -152.929855 
L 47.703554 -154.791273 
L 47.703554 -156.652691 
L 47.703554 -158.514109 
L 47.703554 -160.375527 
L 47.703554 -162.236945 
L 47.703554 -164.098364 
L 47.703554 -165.959782 
L 47.703554 -167.8212 
L 47.703554 -169.682618 
L 47.703554 -171.544036 
L 47.703554 -173.405455 
L 47.703554 -175.266873 
L 47.703554 -177.128291 
L 47.703554 -178.989709 
L 47.703554 -180.851127 
L 47.703554 -182.712545 
L 47.703554 -184.573964 
L 47.703554 -186.435382 
L 47.703554 -188.2968 
L 47.703554 -190.158218 
L 47.703554 -192.019636 
L 47.703554 -193.881055 
L 47.703554 -195.742473 
L 47.703531 -197.603891 
L 47.703483 -199.465309 
L 47.703387 -201.326727 
L 47.703052 -203.188145 
L 47.702096 -205.049564 
L 47.699323 -206.910982 
L 47.691315 -208.7724 
L 47.668127 -210.633818 
L 47.600644 -212.495236 
L 47.400871 -214.356655 
L 46.780849 -216.218073 
L 44.584922 -218.079491 
L 33.532183 -219.940909 
L 50.094044 -219.940909 
L 50.094044 -219.940909 
L 50.094044 -218.079491 
L 50.094044 -216.218073 
L 50.094044 -214.356655 
L 50.094044 -212.495236 
L 50.094044 -210.633818 
L 50.094044 -208.7724 
L 50.094044 -206.910982 
L 50.094044 -205.049564 
L 50.094044 -203.188145 
L 50.094044 -201.326727 
L 50.094044 -199.465309 
L 50.094044 -197.603891 
L 50.094044 -195.742473 
L 50.094044 -193.881055 
L 50.094044 -192.019636 
L 50.094044 -190.158218 
L 50.094044 -188.2968 
L 50.094044 -186.435382 
L 50.094044 -184.573964 
L 50.094044 -182.712545 
L 50.094044 -180.851127 
L 50.094044 -178.989709 
L 50.094044 -177.128291 
L 50.094044 -175.266873 
L 50.094044 -173.405455 
L 50.094044 -171.544036 
L 50.094044 -169.682618 
L 50.094044 -167.8212 
L 50.094044 -165.959782 
L 50.094044 -164.098364 
L 50.094044 -162.236945 
L 50.094044 -160.375527 
L 50.094044 -158.514109 
L 50.094044 -156.652691 
L 50.094044 -154.791273 
L 50.094044 -152.929855 
L 50.094044 -151.068436 
L 50.094044 -149.207018 
L 50.094044 -147.3456 
L 50.094044 -145.484182 
L 50.094044 -143.622764 
L 50.094044 -141.761345 
L 50.094044 -139.899927 
L 50.094044 -138.038509 
L 50.094044 -136.177091 
L 50.094044 -134.315673 
L 50.094044 -132.454255 
L 50.094044 -130.592836 
L 50.094044 -128.731418 
L 50.094044 -126.87 
L 50.094044 -125.008582 
L 50.094044 -123.147164 
L 50.094044 -121.285745 
L 50.094044 -119.424327 
L 50.094044 -117.562909 
L 50.094044 -115.701491 
L 50.094044 -113.840073 
L 50.094044 -111.978655 
L 50.094044 -110.117236 
L 50.094044 -108.255818 
L 50.094044 -106.3944 
L 50.094044 -104.532982 
L 50.094044 -102.671564 
L 50.094044 -100.810145 
L 50.094044 -98.948727 
L 50.094044 -97.087309 
L 50.094044 -95.225891 
L 50.094044 -93.364473 
L 50.094044 -91.503055 
L 50.094044 -89.641636 
L 50.094044 -87.780218 
L 50.094044 -85.9188 
L 50.094044 -84.057382 
L 50.094044 -82.195964 
L 50.094044 -80.334545 
L 50.094044 -78.473127 
L 50.094044 -76.611709 
L 50.094044 -74.750291 
L 50.094044 -72.888873 
L 50.094044 -71.027455 
L 50.094044 -69.166036 
L 50.094044 -67.304618 
L 50.094044 -65.4432 
L 50.094044 -63.581782 
L 50.094044 -61.720364 
L 50.094044 -59.858945 
L 50.094044 -57.997527 
L 50.094044 -56.136109 
L 50.094044 -54.274691 
L 50.094044 -52.413273 
L 50.094044 -50.551855 
L 50.094044 -48.690436 
L 50.094044 -46.829018 
L 50.094044 -44.9676 
L 50.094044 -43.106182 
L 50.094044 -41.244764 
L 50.094044 -39.383345 
L 50.094044 -37.521927 
L 50.094044 -35.660509 
L 50.094044 -33.799091 
z
" id="m0cbfacdf4e" style="stroke:#8dd35f;"/>
    </defs>
    <g clip-path="url(#p47e0abc301)">
     <use style="fill:#8dd35f;stroke:#8dd35f;" x="0" xlink:href="#m0cbfacdf4e" y="230.4"/>
    </g>
   </g>
   <g id="text_11">
    <!-- $\times 10^7$ -->
    <defs>
     <path d="M 70.125 53.71875 
L 47.796875 31.296875 
L 70.125 8.984375 
L 64.3125 3.078125 
L 41.890625 25.484375 
L 19.484375 3.078125 
L 13.71875 8.984375 
L 35.984375 31.296875 
L 13.71875 53.71875 
L 19.484375 59.625 
L 41.890625 37.203125 
L 64.3125 59.625 
z
" id="DejaVuSans-215"/>
     <path d="M 12.40625 8.296875 
L 28.515625 8.296875 
L 28.515625 63.921875 
L 10.984375 60.40625 
L 10.984375 69.390625 
L 28.421875 72.90625 
L 38.28125 72.90625 
L 38.28125 8.296875 
L 54.390625 8.296875 
L 54.390625 0 
L 12.40625 0 
z
" id="DejaVuSans-49"/>
     <path d="M 31.78125 66.40625 
Q 24.171875 66.40625 20.328125 58.90625 
Q 16.5 51.421875 16.5 36.375 
Q 16.5 21.390625 20.328125 13.890625 
Q 24.171875 6.390625 31.78125 6.390625 
Q 39.453125 6.390625 43.28125 13.890625 
Q 47.125 21.390625 47.125 36.375 
Q 47.125 51.421875 43.28125 58.90625 
Q 39.453125 66.40625 31.78125 66.40625 
z
M 31.78125 74.21875 
Q 44.046875 74.21875 50.515625 64.515625 
Q 56.984375 54.828125 56.984375 36.375 
Q 56.984375 17.96875 50.515625 8.265625 
Q 44.046875 -1.421875 31.78125 -1.421875 
Q 19.53125 -1.421875 13.0625 8.265625 
Q 6.59375 17.96875 6.59375 36.375 
Q 6.59375 54.828125 13.0625 64.515625 
Q 19.53125 74.21875 31.78125 74.21875 
z
" id="DejaVuSans-48"/>
     <path d="M 8.203125 72.90625 
L 55.078125 72.90625 
L 55.078125 68.703125 
L 28.609375 0 
L 18.3125 0 
L 43.21875 64.59375 
L 8.203125 64.59375 
z
" id="DejaVuSans-55"/>
    </defs>
    <g style="fill:#262626;" transform="translate(188.74243 202.417841)scale(0.08 -0.08)">
     <use transform="translate(0 0.684375)" xlink:href="#DejaVuSans-215"/>
     <use transform="translate(83.789062 0.684375)" xlink:href="#DejaVuSans-49"/>
     <use transform="translate(147.412109 0.684375)" xlink:href="#DejaVuSans-48"/>
     <use transform="translate(211.992188 38.965625)scale(0.7)" xlink:href="#DejaVuSans-55"/>
    </g>
   </g>
   <g id="PolyCollection_5">
    <defs>
     <path d="M 50.094044 -33.799091 
L 67.160106 -33.799091 
L 67.238538 -35.660509 
L 67.326054 -37.521927 
L 67.414646 -39.383345 
L 67.503835 -41.244764 
L 67.593645 -43.106182 
L 67.684054 -44.9676 
L 67.775084 -46.829018 
L 67.866759 -48.690436 
L 67.95908 -50.551855 
L 68.05207 -52.413273 
L 68.145705 -54.274691 
L 68.240058 -56.136109 
L 68.33508 -57.997527 
L 68.430819 -59.858945 
L 68.527299 -61.720364 
L 68.624496 -63.581782 
L 68.722482 -65.4432 
L 68.821234 -67.304618 
L 68.920773 -69.166036 
L 69.021126 -71.027455 
L 69.122316 -72.888873 
L 69.224366 -74.750291 
L 69.3273 -76.611709 
L 69.431119 -78.473127 
L 69.535894 -80.334545 
L 69.641578 -82.195964 
L 69.748265 -84.057382 
L 69.855957 -85.9188 
L 69.9647 -87.780218 
L 70.074495 -89.641636 
L 70.18539 -91.503055 
L 70.297432 -93.364473 
L 70.410646 -95.225891 
L 70.525079 -97.087309 
L 70.640778 -98.948727 
L 70.757769 -100.810145 
L 70.876098 -102.671564 
L 70.995838 -104.532982 
L 71.117012 -106.3944 
L 71.239692 -108.255818 
L 71.363925 -110.117236 
L 71.489785 -111.978655 
L 71.617317 -113.840073 
L 71.746619 -115.701491 
L 71.877737 -117.562909 
L 72.010768 -119.424327 
L 72.145783 -121.285745 
L 72.282877 -123.147164 
L 72.422123 -125.008582 
L 72.563664 -126.87 
L 72.707548 -128.731418 
L 72.853941 -130.592836 
L 73.002917 -132.454255 
L 73.154617 -134.315673 
L 73.30921 -136.177091 
L 73.466791 -138.038509 
L 73.627575 -139.899927 
L 73.791683 -141.761345 
L 73.959304 -143.622764 
L 74.130654 -145.484182 
L 74.305877 -147.3456 
L 74.485403 -149.207018 
L 74.669231 -151.068436 
L 74.857602 -152.929855 
L 75.051231 -154.791273 
L 75.249881 -156.652691 
L 75.454268 -158.514109 
L 75.664631 -160.375527 
L 75.881448 -162.236945 
L 76.104959 -164.098364 
L 76.336119 -165.959782 
L 76.574929 -167.8212 
L 76.822584 -169.682618 
L 77.079323 -171.544036 
L 77.345862 -173.405455 
L 77.623637 -175.266873 
L 77.913125 -177.128291 
L 78.215761 -178.989709 
L 78.532501 -180.851127 
L 78.865257 -182.712545 
L 79.215225 -184.573964 
L 79.584795 -186.435382 
L 79.976118 -188.2968 
L 80.392063 -190.158218 
L 80.835977 -192.019636 
L 81.311923 -193.881055 
L 81.824683 -195.742473 
L 82.380711 -197.603891 
L 82.987656 -199.465309 
L 83.655798 -201.326727 
L 84.398045 -203.188145 
L 85.233282 -205.049564 
L 86.18637 -206.910982 
L 87.295318 -208.7724 
L 88.618454 -210.633818 
L 90.254266 -212.495236 
L 92.380128 -214.356655 
L 95.342901 -216.218073 
L 99.837499 -218.079491 
L 106.36736 -219.940909 
L 50.094044 -219.940909 
L 50.094044 -219.940909 
L 50.094044 -218.079491 
L 50.094044 -216.218073 
L 50.094044 -214.356655 
L 50.094044 -212.495236 
L 50.094044 -210.633818 
L 50.094044 -208.7724 
L 50.094044 -206.910982 
L 50.094044 -205.049564 
L 50.094044 -203.188145 
L 50.094044 -201.326727 
L 50.094044 -199.465309 
L 50.094044 -197.603891 
L 50.094044 -195.742473 
L 50.094044 -193.881055 
L 50.094044 -192.019636 
L 50.094044 -190.158218 
L 50.094044 -188.2968 
L 50.094044 -186.435382 
L 50.094044 -184.573964 
L 50.094044 -182.712545 
L 50.094044 -180.851127 
L 50.094044 -178.989709 
L 50.094044 -177.128291 
L 50.094044 -175.266873 
L 50.094044 -173.405455 
L 50.094044 -171.544036 
L 50.094044 -169.682618 
L 50.094044 -167.8212 
L 50.094044 -165.959782 
L 50.094044 -164.098364 
L 50.094044 -162.236945 
L 50.094044 -160.375527 
L 50.094044 -158.514109 
L 50.094044 -156.652691 
L 50.094044 -154.791273 
L 50.094044 -152.929855 
L 50.094044 -151.068436 
L 50.094044 -149.207018 
L 50.094044 -147.3456 
L 50.094044 -145.484182 
L 50.094044 -143.622764 
L 50.094044 -141.761345 
L 50.094044 -139.899927 
L 50.094044 -138.038509 
L 50.094044 -136.177091 
L 50.094044 -134.315673 
L 50.094044 -132.454255 
L 50.094044 -130.592836 
L 50.094044 -128.731418 
L 50.094044 -126.87 
L 50.094044 -125.008582 
L 50.094044 -123.147164 
L 50.094044 -121.285745 
L 50.094044 -119.424327 
L 50.094044 -117.562909 
L 50.094044 -115.701491 
L 50.094044 -113.840073 
L 50.094044 -111.978655 
L 50.094044 -110.117236 
L 50.094044 -108.255818 
L 50.094044 -106.3944 
L 50.094044 -104.532982 
L 50.094044 -102.671564 
L 50.094044 -100.810145 
L 50.094044 -98.948727 
L 50.094044 -97.087309 
L 50.094044 -95.225891 
L 50.094044 -93.364473 
L 50.094044 -91.503055 
L 50.094044 -89.641636 
L 50.094044 -87.780218 
L 50.094044 -85.9188 
L 50.094044 -84.057382 
L 50.094044 -82.195964 
L 50.094044 -80.334545 
L 50.094044 -78.473127 
L 50.094044 -76.611709 
L 50.094044 -74.750291 
L 50.094044 -72.888873 
L 50.094044 -71.027455 
L 50.094044 -69.166036 
L 50.094044 -67.304618 
L 50.094044 -65.4432 
L 50.094044 -63.581782 
L 50.094044 -61.720364 
L 50.094044 -59.858945 
L 50.094044 -57.997527 
L 50.094044 -56.136109 
L 50.094044 -54.274691 
L 50.094044 -52.413273 
L 50.094044 -50.551855 
L 50.094044 -48.690436 
L 50.094044 -46.829018 
L 50.094044 -44.9676 
L 50.094044 -43.106182 
L 50.094044 -41.244764 
L 50.094044 -39.383345 
L 50.094044 -37.521927 
L 50.094044 -35.660509 
L 50.094044 -33.799091 
z
" id="m5135285cae" style="stroke:#ffb380;"/>
    </defs>
    <g clip-path="url(#p47e0abc301)">
     <use style="fill:#ffb380;stroke:#ffb380;" x="0" xlink:href="#m5135285cae" y="230.4"/>
    </g>
   </g>
   <g id="PolyCollection_6">
    <defs>
     <path d="M 50.094044 -33.799091 
L 50.094044 -33.799091 
L 50.094044 -35.660509 
L 50.094044 -37.521927 
L 50.094044 -39.383345 
L 50.094044 -41.244764 
L 50.094044 -43.106182 
L 50.094044 -44.9676 
L 50.094044 -46.829018 
L 50.094044 -48.690436 
L 50.094044 -50.551855 
L 50.094044 -52.413273 
L 50.094044 -54.274691 
L 50.094044 -56.136109 
L 50.094044 -57.997527 
L 50.094044 -59.858945 
L 50.094044 -61.720364 
L 50.094044 -63.581782 
L 50.094044 -65.4432 
L 50.094044 -67.304618 
L 50.094044 -69.166036 
L 50.094044 -71.027455 
L 50.094044 -72.888873 
L 50.094044 -74.750291 
L 50.094044 -76.611709 
L 50.094044 -78.473127 
L 50.094044 -80.334545 
L 50.094044 -82.195964 
L 50.094044 -84.057382 
L 50.094044 -85.9188 
L 50.094044 -87.780218 
L 50.094043 -89.641636 
L 50.094043 -91.503055 
L 50.094041 -93.364473 
L 50.094035 -95.225891 
L 50.094019 -97.087309 
L 50.093975 -98.948727 
L 50.093859 -100.810145 
L 50.093556 -102.671564 
L 50.092782 -104.532982 
L 50.090866 -106.3944 
L 50.086276 -108.255818 
L 50.075728 -110.117236 
L 50.052706 -111.978655 
L 50.00566 -113.840073 
L 49.917274 -115.701491 
L 49.76785 -117.562909 
L 49.545417 -119.424327 
L 49.258639 -121.285745 
L 48.940059 -123.147164 
L 48.632317 -125.008582 
L 48.368361 -126.87 
L 48.162031 -128.731418 
L 48.011325 -130.592836 
L 47.906332 -132.454255 
L 47.835486 -134.315673 
L 47.78868 -136.177091 
L 47.758179 -138.038509 
L 47.738484 -139.899927 
L 47.725836 -141.761345 
L 47.717747 -143.622764 
L 47.712586 -145.484182 
L 47.709296 -147.3456 
L 47.707205 -149.207018 
L 47.705873 -151.068436 
L 47.705027 -152.929855 
L 47.704489 -154.791273 
L 47.704147 -156.652691 
L 47.703932 -158.514109 
L 47.703793 -160.375527 
L 47.703705 -162.236945 
L 47.70365 -164.098364 
L 47.703617 -165.959782 
L 47.703593 -167.8212 
L 47.703578 -169.682618 
L 47.703571 -171.544036 
L 47.703564 -173.405455 
L 47.703562 -175.266873 
L 47.703559 -177.128291 
L 47.703557 -178.989709 
L 47.703557 -180.851127 
L 47.703554 -182.712545 
L 47.703554 -184.573964 
L 47.703554 -186.435382 
L 47.703554 -188.2968 
L 47.703554 -190.158218 
L 47.703554 -192.019636 
L 47.703554 -193.881055 
L 47.703554 -195.742473 
L 47.703554 -197.603891 
L 47.703531 -199.465309 
L 47.703483 -201.326727 
L 47.703315 -203.188145 
L 47.702813 -205.049564 
L 47.701355 -206.910982 
L 47.697004 -208.7724 
L 47.683952 -210.633818 
L 47.644868 -212.495236 
L 47.52673 -214.356655 
L 47.160005 -216.218073 
L 45.926393 -218.079491 
L 40.719883 -219.940909 
L 50.094044 -219.940909 
L 50.094044 -219.940909 
L 50.094044 -218.079491 
L 50.094044 -216.218073 
L 50.094044 -214.356655 
L 50.094044 -212.495236 
L 50.094044 -210.633818 
L 50.094044 -208.7724 
L 50.094044 -206.910982 
L 50.094044 -205.049564 
L 50.094044 -203.188145 
L 50.094044 -201.326727 
L 50.094044 -199.465309 
L 50.094044 -197.603891 
L 50.094044 -195.742473 
L 50.094044 -193.881055 
L 50.094044 -192.019636 
L 50.094044 -190.158218 
L 50.094044 -188.2968 
L 50.094044 -186.435382 
L 50.094044 -184.573964 
L 50.094044 -182.712545 
L 50.094044 -180.851127 
L 50.094044 -178.989709 
L 50.094044 -177.128291 
L 50.094044 -175.266873 
L 50.094044 -173.405455 
L 50.094044 -171.544036 
L 50.094044 -169.682618 
L 50.094044 -167.8212 
L 50.094044 -165.959782 
L 50.094044 -164.098364 
L 50.094044 -162.236945 
L 50.094044 -160.375527 
L 50.094044 -158.514109 
L 50.094044 -156.652691 
L 50.094044 -154.791273 
L 50.094044 -152.929855 
L 50.094044 -151.068436 
L 50.094044 -149.207018 
L 50.094044 -147.3456 
L 50.094044 -145.484182 
L 50.094044 -143.622764 
L 50.094044 -141.761345 
L 50.094044 -139.899927 
L 50.094044 -138.038509 
L 50.094044 -136.177091 
L 50.094044 -134.315673 
L 50.094044 -132.454255 
L 50.094044 -130.592836 
L 50.094044 -128.731418 
L 50.094044 -126.87 
L 50.094044 -125.008582 
L 50.094044 -123.147164 
L 50.094044 -121.285745 
L 50.094044 -119.424327 
L 50.094044 -117.562909 
L 50.094044 -115.701491 
L 50.094044 -113.840073 
L 50.094044 -111.978655 
L 50.094044 -110.117236 
L 50.094044 -108.255818 
L 50.094044 -106.3944 
L 50.094044 -104.532982 
L 50.094044 -102.671564 
L 50.094044 -100.810145 
L 50.094044 -98.948727 
L 50.094044 -97.087309 
L 50.094044 -95.225891 
L 50.094044 -93.364473 
L 50.094044 -91.503055 
L 50.094044 -89.641636 
L 50.094044 -87.780218 
L 50.094044 -85.9188 
L 50.094044 -84.057382 
L 50.094044 -82.195964 
L 50.094044 -80.334545 
L 50.094044 -78.473127 
L 50.094044 -76.611709 
L 50.094044 -74.750291 
L 50.094044 -72.888873 
L 50.094044 -71.027455 
L 50.094044 -69.166036 
L 50.094044 -67.304618 
L 50.094044 -65.4432 
L 50.094044 -63.581782 
L 50.094044 -61.720364 
L 50.094044 -59.858945 
L 50.094044 -57.997527 
L 50.094044 -56.136109 
L 50.094044 -54.274691 
L 50.094044 -52.413273 
L 50.094044 -50.551855 
L 50.094044 -48.690436 
L 50.094044 -46.829018 
L 50.094044 -44.9676 
L 50.094044 -43.106182 
L 50.094044 -41.244764 
L 50.094044 -39.383345 
L 50.094044 -37.521927 
L 50.094044 -35.660509 
L 50.094044 -33.799091 
z
" id="mff3446d9d1" style="stroke:#ffb380;"/>
    </defs>
    <g clip-path="url(#p47e0abc301)">
     <use style="fill:#ffb380;stroke:#ffb380;" x="0" xlink:href="#mff3446d9d1" y="230.4"/>
    </g>
   </g>
  </g>
  <g id="axes_3">
   <g id="patch_7">
    <path d="M 67.881862 205.908 
L 229.194 205.908 
L 229.194 1.152 
L 67.881862 1.152 
z
" style="fill:#ffffff;"/>
   </g>
   <g id="matplotlib.axis_3">
    <g id="xtick_2">
     <g id="line2d_12">
      <g>
       <use style="fill:#262626;stroke:#262626;stroke-width:0.8;" x="67.881862" xlink:href="#mf8d689f3d1" y="205.908"/>
      </g>
     </g>
     <g id="text_12">
      <!-- 0 -->
      <g style="fill:#262626;" transform="translate(65.336862 219.48675)scale(0.08 -0.08)">
       <use xlink:href="#DejaVuSerif-48"/>
      </g>
     </g>
    </g>
    <g id="xtick_3">
     <g id="line2d_13">
      <g>
       <use style="fill:#262626;stroke:#262626;stroke-width:0.8;" x="115.69165" xlink:href="#mf8d689f3d1" y="205.908"/>
      </g>
     </g>
     <g id="text_13">
      <!-- 2 -->
      <g style="fill:#262626;" transform="translate(113.14665 219.48675)scale(0.08 -0.08)">
       <use xlink:href="#DejaVuSerif-50"/>
      </g>
     </g>
    </g>
    <g id="xtick_4">
     <g id="line2d_14">
      <g>
       <use style="fill:#262626;stroke:#262626;stroke-width:0.8;" x="163.501439" xlink:href="#mf8d689f3d1" y="205.908"/>
      </g>
     </g>
     <g id="text_14">
      <!-- 4 -->
      <g style="fill:#262626;" transform="translate(160.956439 219.48675)scale(0.08 -0.08)">
       <use xlink:href="#DejaVuSerif-52"/>
      </g>
     </g>
    </g>
    <g id="xtick_5">
     <g id="line2d_15">
      <g>
       <use style="fill:#262626;stroke:#262626;stroke-width:0.8;" x="211.311227" xlink:href="#mf8d689f3d1" y="205.908"/>
      </g>
     </g>
     <g id="text_15">
      <!-- 6 -->
      <g style="fill:#262626;" transform="translate(208.766227 219.48675)scale(0.08 -0.08)">
       <use xlink:href="#DejaVuSerif-54"/>
      </g>
     </g>
    </g>
   </g>
   <g id="matplotlib.axis_4">
    <g id="ytick_10"/>
    <g id="ytick_11"/>
    <g id="ytick_12"/>
    <g id="ytick_13"/>
    <g id="ytick_14"/>
    <g id="ytick_15"/>
    <g id="ytick_16"/>
    <g id="ytick_17"/>
    <g id="ytick_18"/>
   </g>
   <g id="patch_8">
    <path clip-path="url(#p6d8c30a85d)" d="M 67.881862 205.908 
L 67.881862 1.152 
L 229.194 1.152 
L 229.194 205.908 
z
" style="fill:#ffdd55;opacity:0.35;stroke:#ffdd55;stroke-linejoin:miter;"/>
   </g>
   <g id="PolyCollection_7">
    <defs>
     <path d="M 67.881862 -33.799091 
L 114.899442 -33.799091 
L 115.141121 -35.660509 
L 115.394034 -37.521927 
L 115.6491 -39.383345 
L 115.905838 -41.244764 
L 116.16425 -43.106182 
L 116.424335 -44.9676 
L 116.686333 -46.829018 
L 116.950004 -48.690436 
L 117.215587 -50.551855 
L 117.483083 -52.413273 
L 117.752491 -54.274691 
L 118.023812 -56.136109 
L 118.297045 -57.997527 
L 118.572668 -59.858945 
L 118.849965 -61.720364 
L 119.129652 -63.581782 
L 119.411491 -65.4432 
L 119.695481 -67.304618 
L 119.981623 -69.166036 
L 120.270394 -71.027455 
L 120.561316 -72.888873 
L 120.854868 -74.750291 
L 121.150811 -76.611709 
L 121.449383 -78.473127 
L 121.750585 -80.334545 
L 122.054416 -82.195964 
L 122.361355 -84.057382 
L 122.670923 -85.9188 
L 122.983599 -87.780218 
L 123.299144 -89.641636 
L 123.618035 -91.503055 
L 123.940034 -93.364473 
L 124.265619 -95.225891 
L 124.59455 -97.087309 
L 124.927067 -98.948727 
L 125.263409 -100.810145 
L 125.603576 -102.671564 
L 125.947806 -104.532982 
L 126.2961 -106.3944 
L 126.648698 -108.255818 
L 127.005598 -110.117236 
L 127.367518 -111.978655 
L 127.73398 -113.840073 
L 128.105701 -115.701491 
L 128.482442 -117.562909 
L 128.864681 -119.424327 
L 129.252658 -121.285745 
L 129.64661 -123.147164 
L 130.047017 -125.008582 
L 130.45364 -126.87 
L 130.866955 -128.731418 
L 131.287681 -130.592836 
L 131.715818 -132.454255 
L 132.151604 -134.315673 
L 132.595757 -136.177091 
L 133.048516 -138.038509 
L 133.510597 -139.899927 
L 133.982002 -141.761345 
L 134.463686 -143.622764 
L 134.955887 -145.484182 
L 135.459563 -147.3456 
L 135.974953 -149.207018 
L 136.503012 -151.068436 
L 137.044458 -152.929855 
L 137.600247 -154.791273 
L 138.171096 -156.652691 
L 138.7582 -158.514109 
L 139.362515 -160.375527 
L 139.985238 -162.236945 
L 140.627562 -164.098364 
L 141.290923 -165.959782 
L 141.977233 -167.8212 
L 142.688164 -169.682618 
L 143.42563 -171.544036 
L 144.191782 -173.405455 
L 144.989249 -175.266873 
L 145.820662 -177.128291 
L 146.689605 -178.989709 
L 147.599425 -180.851127 
L 148.554664 -182.712545 
L 149.559865 -184.573964 
L 150.621003 -186.435382 
L 151.744773 -188.2968 
L 152.9393 -190.158218 
L 154.21367 -192.019636 
L 155.580074 -193.881055 
L 157.052376 -195.742473 
L 158.648506 -197.603891 
L 160.390934 -199.465309 
L 162.308345 -201.326727 
L 164.439228 -203.188145 
L 166.835693 -205.049564 
L 169.570652 -206.910982 
L 172.751915 -208.7724 
L 176.546817 -210.633818 
L 181.235284 -212.495236 
L 187.324339 -214.356655 
L 195.803644 -216.218073 
L 208.705832 -218.079491 
L 229.194 -219.940909 
L 67.881862 -219.940909 
L 67.881862 -219.940909 
L 67.881862 -218.079491 
L 67.881862 -216.218073 
L 67.881862 -214.356655 
L 67.881862 -212.495236 
L 67.881862 -210.633818 
L 67.881862 -208.7724 
L 67.881862 -206.910982 
L 67.881862 -205.049564 
L 67.881862 -203.188145 
L 67.881862 -201.326727 
L 67.881862 -199.465309 
L 67.881862 -197.603891 
L 67.881862 -195.742473 
L 67.881862 -193.881055 
L 67.881862 -192.019636 
L 67.881862 -190.158218 
L 67.881862 -188.2968 
L 67.881862 -186.435382 
L 67.881862 -184.573964 
L 67.881862 -182.712545 
L 67.881862 -180.851127 
L 67.881862 -178.989709 
L 67.881862 -177.128291 
L 67.881862 -175.266873 
L 67.881862 -173.405455 
L 67.881862 -171.544036 
L 67.881862 -169.682618 
L 67.881862 -167.8212 
L 67.881862 -165.959782 
L 67.881862 -164.098364 
L 67.881862 -162.236945 
L 67.881862 -160.375527 
L 67.881862 -158.514109 
L 67.881862 -156.652691 
L 67.881862 -154.791273 
L 67.881862 -152.929855 
L 67.881862 -151.068436 
L 67.881862 -149.207018 
L 67.881862 -147.3456 
L 67.881862 -145.484182 
L 67.881862 -143.622764 
L 67.881862 -141.761345 
L 67.881862 -139.899927 
L 67.881862 -138.038509 
L 67.881862 -136.177091 
L 67.881862 -134.315673 
L 67.881862 -132.454255 
L 67.881862 -130.592836 
L 67.881862 -128.731418 
L 67.881862 -126.87 
L 67.881862 -125.008582 
L 67.881862 -123.147164 
L 67.881862 -121.285745 
L 67.881862 -119.424327 
L 67.881862 -117.562909 
L 67.881862 -115.701491 
L 67.881862 -113.840073 
L 67.881862 -111.978655 
L 67.881862 -110.117236 
L 67.881862 -108.255818 
L 67.881862 -106.3944 
L 67.881862 -104.532982 
L 67.881862 -102.671564 
L 67.881862 -100.810145 
L 67.881862 -98.948727 
L 67.881862 -97.087309 
L 67.881862 -95.225891 
L 67.881862 -93.364473 
L 67.881862 -91.503055 
L 67.881862 -89.641636 
L 67.881862 -87.780218 
L 67.881862 -85.9188 
L 67.881862 -84.057382 
L 67.881862 -82.195964 
L 67.881862 -80.334545 
L 67.881862 -78.473127 
L 67.881862 -76.611709 
L 67.881862 -74.750291 
L 67.881862 -72.888873 
L 67.881862 -71.027455 
L 67.881862 -69.166036 
L 67.881862 -67.304618 
L 67.881862 -65.4432 
L 67.881862 -63.581782 
L 67.881862 -61.720364 
L 67.881862 -59.858945 
L 67.881862 -57.997527 
L 67.881862 -56.136109 
L 67.881862 -54.274691 
L 67.881862 -52.413273 
L 67.881862 -50.551855 
L 67.881862 -48.690436 
L 67.881862 -46.829018 
L 67.881862 -44.9676 
L 67.881862 -43.106182 
L 67.881862 -41.244764 
L 67.881862 -39.383345 
L 67.881862 -37.521927 
L 67.881862 -35.660509 
L 67.881862 -33.799091 
z
" id="mbb649d1896" style="stroke:#447821;"/>
    </defs>
    <g clip-path="url(#p6d8c30a85d)">
     <use style="fill:#447821;stroke:#447821;" x="0" xlink:href="#mbb649d1896" y="230.4"/>
    </g>
   </g>
   <g id="PolyCollection_8">
    <defs>
     <path d="M 67.881862 -33.799091 
L 65.491373 -33.799091 
L 65.491373 -35.660509 
L 65.491373 -37.521927 
L 65.491373 -39.383345 
L 65.491373 -41.244764 
L 65.491373 -43.106182 
L 65.491373 -44.9676 
L 65.491373 -46.829018 
L 65.491373 -48.690436 
L 65.491373 -50.551855 
L 65.491373 -52.413273 
L 65.491373 -54.274691 
L 65.491373 -56.136109 
L 65.491373 -57.997527 
L 65.491373 -59.858945 
L 65.491373 -61.720364 
L 65.491373 -63.581782 
L 65.491373 -65.4432 
L 65.491373 -67.304618 
L 65.491373 -69.166036 
L 65.491373 -71.027455 
L 65.491373 -72.888873 
L 65.491373 -74.750291 
L 65.491373 -76.611709 
L 65.491373 -78.473127 
L 65.491373 -80.334545 
L 65.491373 -82.195964 
L 65.491373 -84.057382 
L 65.491373 -85.9188 
L 65.491373 -87.780218 
L 65.491373 -89.641636 
L 65.491373 -91.503055 
L 65.491373 -93.364473 
L 65.491373 -95.225891 
L 65.491373 -97.087309 
L 65.491373 -98.948727 
L 65.491373 -100.810145 
L 65.491373 -102.671564 
L 65.491373 -104.532982 
L 65.491373 -106.3944 
L 65.491373 -108.255818 
L 65.491373 -110.117236 
L 65.491373 -111.978655 
L 65.491373 -113.840073 
L 65.491373 -115.701491 
L 65.491373 -117.562909 
L 65.491373 -119.424327 
L 65.491373 -121.285745 
L 65.491373 -123.147164 
L 65.491373 -125.008582 
L 65.491373 -126.87 
L 65.491373 -128.731418 
L 65.491373 -130.592836 
L 65.491373 -132.454255 
L 65.491373 -134.315673 
L 65.491373 -136.177091 
L 65.491373 -138.038509 
L 65.491373 -139.899927 
L 65.491373 -141.761345 
L 65.491373 -143.622764 
L 65.491373 -145.484182 
L 65.491373 -147.3456 
L 65.491373 -149.207018 
L 65.491373 -151.068436 
L 65.491373 -152.929855 
L 65.491373 -154.791273 
L 65.491373 -156.652691 
L 65.491373 -158.514109 
L 65.491373 -160.375527 
L 65.491373 -162.236945 
L 65.491373 -164.098364 
L 65.491373 -165.959782 
L 65.491373 -167.8212 
L 65.491373 -169.682618 
L 65.491373 -171.544036 
L 65.491373 -173.405455 
L 65.491373 -175.266873 
L 65.491373 -177.128291 
L 65.491373 -178.989709 
L 65.491373 -180.851127 
L 65.491373 -182.712545 
L 65.491373 -184.573964 
L 65.491373 -186.435382 
L 65.491373 -188.2968 
L 65.491373 -190.158218 
L 65.491373 -192.019636 
L 65.491373 -193.881055 
L 65.491373 -195.742473 
L 65.491349 -197.603891 
L 65.491301 -199.465309 
L 65.491205 -201.326727 
L 65.490871 -203.188145 
L 65.489914 -205.049564 
L 65.487141 -206.910982 
L 65.479109 -208.7724 
L 65.455946 -210.633818 
L 65.388438 -212.495236 
L 65.188617 -214.356655 
L 64.568476 -216.218073 
L 62.372023 -218.079491 
L 51.315818 -219.940909 
L 67.881862 -219.940909 
L 67.881862 -219.940909 
L 67.881862 -218.079491 
L 67.881862 -216.218073 
L 67.881862 -214.356655 
L 67.881862 -212.495236 
L 67.881862 -210.633818 
L 67.881862 -208.7724 
L 67.881862 -206.910982 
L 67.881862 -205.049564 
L 67.881862 -203.188145 
L 67.881862 -201.326727 
L 67.881862 -199.465309 
L 67.881862 -197.603891 
L 67.881862 -195.742473 
L 67.881862 -193.881055 
L 67.881862 -192.019636 
L 67.881862 -190.158218 
L 67.881862 -188.2968 
L 67.881862 -186.435382 
L 67.881862 -184.573964 
L 67.881862 -182.712545 
L 67.881862 -180.851127 
L 67.881862 -178.989709 
L 67.881862 -177.128291 
L 67.881862 -175.266873 
L 67.881862 -173.405455 
L 67.881862 -171.544036 
L 67.881862 -169.682618 
L 67.881862 -167.8212 
L 67.881862 -165.959782 
L 67.881862 -164.098364 
L 67.881862 -162.236945 
L 67.881862 -160.375527 
L 67.881862 -158.514109 
L 67.881862 -156.652691 
L 67.881862 -154.791273 
L 67.881862 -152.929855 
L 67.881862 -151.068436 
L 67.881862 -149.207018 
L 67.881862 -147.3456 
L 67.881862 -145.484182 
L 67.881862 -143.622764 
L 67.881862 -141.761345 
L 67.881862 -139.899927 
L 67.881862 -138.038509 
L 67.881862 -136.177091 
L 67.881862 -134.315673 
L 67.881862 -132.454255 
L 67.881862 -130.592836 
L 67.881862 -128.731418 
L 67.881862 -126.87 
L 67.881862 -125.008582 
L 67.881862 -123.147164 
L 67.881862 -121.285745 
L 67.881862 -119.424327 
L 67.881862 -117.562909 
L 67.881862 -115.701491 
L 67.881862 -113.840073 
L 67.881862 -111.978655 
L 67.881862 -110.117236 
L 67.881862 -108.255818 
L 67.881862 -106.3944 
L 67.881862 -104.532982 
L 67.881862 -102.671564 
L 67.881862 -100.810145 
L 67.881862 -98.948727 
L 67.881862 -97.087309 
L 67.881862 -95.225891 
L 67.881862 -93.364473 
L 67.881862 -91.503055 
L 67.881862 -89.641636 
L 67.881862 -87.780218 
L 67.881862 -85.9188 
L 67.881862 -84.057382 
L 67.881862 -82.195964 
L 67.881862 -80.334545 
L 67.881862 -78.473127 
L 67.881862 -76.611709 
L 67.881862 -74.750291 
L 67.881862 -72.888873 
L 67.881862 -71.027455 
L 67.881862 -69.166036 
L 67.881862 -67.304618 
L 67.881862 -65.4432 
L 67.881862 -63.581782 
L 67.881862 -61.720364 
L 67.881862 -59.858945 
L 67.881862 -57.997527 
L 67.881862 -56.136109 
L 67.881862 -54.274691 
L 67.881862 -52.413273 
L 67.881862 -50.551855 
L 67.881862 -48.690436 
L 67.881862 -46.829018 
L 67.881862 -44.9676 
L 67.881862 -43.106182 
L 67.881862 -41.244764 
L 67.881862 -39.383345 
L 67.881862 -37.521927 
L 67.881862 -35.660509 
L 67.881862 -33.799091 
z
" id="m0e4c0d856e" style="stroke:#447821;"/>
    </defs>
    <g clip-path="url(#p6d8c30a85d)">
     <use style="fill:#447821;stroke:#447821;" x="0" xlink:href="#m0e4c0d856e" y="230.4"/>
    </g>
   </g>
   <g id="line2d_16">
    <path d="M 65.438101 208.351761 
L 70.325623 203.464239 
" style="fill:none;stroke:#000000;stroke-linecap:round;stroke-width:0.8;"/>
   </g>
   <g id="patch_9">
    <path d="M 67.881862 205.908 
L 229.194 205.908 
" style="fill:none;stroke:#262626;stroke-linecap:square;stroke-linejoin:miter;stroke-width:0.8;"/>
   </g>
   <g id="PolyCollection_9">
    <defs>
     <path d="M 67.881862 -33.799091 
L 114.877689 -33.799091 
L 115.119128 -35.660509 
L 115.372281 -37.521927 
L 115.627107 -39.383345 
L 115.883607 -41.244764 
L 116.141779 -43.106182 
L 116.401865 -44.9676 
L 116.663623 -46.829018 
L 116.927294 -48.690436 
L 117.192639 -50.551855 
L 117.460134 -52.413273 
L 117.729303 -54.274691 
L 118.000624 -56.136109 
L 118.273857 -57.997527 
L 118.549002 -59.858945 
L 118.826538 -61.720364 
L 119.105986 -63.581782 
L 119.387586 -65.4432 
L 119.671576 -67.304618 
L 119.957718 -69.166036 
L 120.246011 -71.027455 
L 120.536933 -72.888873 
L 120.830246 -74.750291 
L 121.126189 -76.611709 
L 121.424522 -78.473127 
L 121.725724 -80.334545 
L 122.029316 -82.195964 
L 122.336016 -84.057382 
L 122.645584 -85.9188 
L 122.958021 -87.780218 
L 123.273566 -89.641636 
L 123.592218 -91.503055 
L 123.914217 -93.364473 
L 124.239562 -95.225891 
L 124.568255 -97.087309 
L 124.900772 -98.948727 
L 125.236874 -100.810145 
L 125.576802 -102.671564 
L 125.920794 -104.532982 
L 126.268849 -106.3944 
L 126.621446 -108.255818 
L 126.978346 -110.117236 
L 127.339788 -111.978655 
L 127.70625 -113.840073 
L 128.077732 -115.701491 
L 128.454234 -117.562909 
L 128.836473 -119.424327 
L 129.224211 -121.285745 
L 129.618163 -123.147164 
L 130.018092 -125.008582 
L 130.424476 -126.87 
L 130.837791 -128.731418 
L 131.258278 -130.592836 
L 131.686176 -132.454255 
L 132.121723 -134.315673 
L 132.565876 -136.177091 
L 133.018396 -138.038509 
L 133.479999 -139.899927 
L 133.951404 -141.761345 
L 134.432609 -143.622764 
L 134.924811 -145.484182 
L 135.428009 -147.3456 
L 135.943398 -149.207018 
L 136.471219 -151.068436 
L 137.012425 -152.929855 
L 137.567975 -154.791273 
L 138.138585 -156.652691 
L 138.725211 -158.514109 
L 139.329288 -160.375527 
L 139.951532 -162.236945 
L 140.593618 -164.098364 
L 141.256978 -165.959782 
L 141.94281 -167.8212 
L 142.653502 -169.682618 
L 143.39049 -171.544036 
L 144.156164 -173.405455 
L 144.953153 -175.266873 
L 145.784326 -177.128291 
L 146.652791 -178.989709 
L 147.562372 -180.851127 
L 148.516895 -182.712545 
L 149.521856 -184.573964 
L 150.582517 -186.435382 
L 151.705808 -188.2968 
L 152.899618 -190.158218 
L 154.17351 -192.019636 
L 155.539196 -193.881055 
L 157.011021 -195.742473 
L 158.606194 -197.603891 
L 160.347666 -199.465309 
L 162.26436 -201.326727 
L 164.394286 -203.188145 
L 166.789557 -205.049564 
L 169.52332 -206.910982 
L 172.70291 -208.7724 
L 176.4959 -210.633818 
L 181.182215 -212.495236 
L 187.268401 -214.356655 
L 195.743882 -216.218073 
L 208.640094 -218.079491 
L 229.117982 -219.940909 
L 67.881862 -219.940909 
L 67.881862 -219.940909 
L 67.881862 -218.079491 
L 67.881862 -216.218073 
L 67.881862 -214.356655 
L 67.881862 -212.495236 
L 67.881862 -210.633818 
L 67.881862 -208.7724 
L 67.881862 -206.910982 
L 67.881862 -205.049564 
L 67.881862 -203.188145 
L 67.881862 -201.326727 
L 67.881862 -199.465309 
L 67.881862 -197.603891 
L 67.881862 -195.742473 
L 67.881862 -193.881055 
L 67.881862 -192.019636 
L 67.881862 -190.158218 
L 67.881862 -188.2968 
L 67.881862 -186.435382 
L 67.881862 -184.573964 
L 67.881862 -182.712545 
L 67.881862 -180.851127 
L 67.881862 -178.989709 
L 67.881862 -177.128291 
L 67.881862 -175.266873 
L 67.881862 -173.405455 
L 67.881862 -171.544036 
L 67.881862 -169.682618 
L 67.881862 -167.8212 
L 67.881862 -165.959782 
L 67.881862 -164.098364 
L 67.881862 -162.236945 
L 67.881862 -160.375527 
L 67.881862 -158.514109 
L 67.881862 -156.652691 
L 67.881862 -154.791273 
L 67.881862 -152.929855 
L 67.881862 -151.068436 
L 67.881862 -149.207018 
L 67.881862 -147.3456 
L 67.881862 -145.484182 
L 67.881862 -143.622764 
L 67.881862 -141.761345 
L 67.881862 -139.899927 
L 67.881862 -138.038509 
L 67.881862 -136.177091 
L 67.881862 -134.315673 
L 67.881862 -132.454255 
L 67.881862 -130.592836 
L 67.881862 -128.731418 
L 67.881862 -126.87 
L 67.881862 -125.008582 
L 67.881862 -123.147164 
L 67.881862 -121.285745 
L 67.881862 -119.424327 
L 67.881862 -117.562909 
L 67.881862 -115.701491 
L 67.881862 -113.840073 
L 67.881862 -111.978655 
L 67.881862 -110.117236 
L 67.881862 -108.255818 
L 67.881862 -106.3944 
L 67.881862 -104.532982 
L 67.881862 -102.671564 
L 67.881862 -100.810145 
L 67.881862 -98.948727 
L 67.881862 -97.087309 
L 67.881862 -95.225891 
L 67.881862 -93.364473 
L 67.881862 -91.503055 
L 67.881862 -89.641636 
L 67.881862 -87.780218 
L 67.881862 -85.9188 
L 67.881862 -84.057382 
L 67.881862 -82.195964 
L 67.881862 -80.334545 
L 67.881862 -78.473127 
L 67.881862 -76.611709 
L 67.881862 -74.750291 
L 67.881862 -72.888873 
L 67.881862 -71.027455 
L 67.881862 -69.166036 
L 67.881862 -67.304618 
L 67.881862 -65.4432 
L 67.881862 -63.581782 
L 67.881862 -61.720364 
L 67.881862 -59.858945 
L 67.881862 -57.997527 
L 67.881862 -56.136109 
L 67.881862 -54.274691 
L 67.881862 -52.413273 
L 67.881862 -50.551855 
L 67.881862 -48.690436 
L 67.881862 -46.829018 
L 67.881862 -44.9676 
L 67.881862 -43.106182 
L 67.881862 -41.244764 
L 67.881862 -39.383345 
L 67.881862 -37.521927 
L 67.881862 -35.660509 
L 67.881862 -33.799091 
z
" id="m3af866d701" style="stroke:#8dd35f;"/>
    </defs>
    <g clip-path="url(#p6d8c30a85d)">
     <use style="fill:#8dd35f;stroke:#8dd35f;" x="0" xlink:href="#m3af866d701" y="230.4"/>
    </g>
   </g>
   <g id="PolyCollection_10">
    <defs>
     <path d="M 67.881862 -33.799091 
L 65.491769 -33.799091 
L 65.49176 -35.660509 
L 65.491734 -37.521927 
L 65.491691 -39.383345 
L 65.491643 -41.244764 
L 65.49159 -43.106182 
L 65.491542 -44.9676 
L 65.491499 -46.829018 
L 65.491463 -48.690436 
L 65.491437 -50.551855 
L 65.491418 -52.413273 
L 65.491401 -54.274691 
L 65.491392 -56.136109 
L 65.491385 -57.997527 
L 65.491382 -59.858945 
L 65.491377 -61.720364 
L 65.491375 -63.581782 
L 65.491375 -65.4432 
L 65.491375 -67.304618 
L 65.491373 -69.166036 
L 65.491373 -71.027455 
L 65.491373 -72.888873 
L 65.491373 -74.750291 
L 65.491373 -76.611709 
L 65.491373 -78.473127 
L 65.491373 -80.334545 
L 65.491373 -82.195964 
L 65.491373 -84.057382 
L 65.491373 -85.9188 
L 65.491373 -87.780218 
L 65.491373 -89.641636 
L 65.491373 -91.503055 
L 65.491373 -93.364473 
L 65.491373 -95.225891 
L 65.491373 -97.087309 
L 65.491373 -98.948727 
L 65.491373 -100.810145 
L 65.491373 -102.671564 
L 65.491373 -104.532982 
L 65.491373 -106.3944 
L 65.491373 -108.255818 
L 65.491373 -110.117236 
L 65.491373 -111.978655 
L 65.491373 -113.840073 
L 65.491373 -115.701491 
L 65.491373 -117.562909 
L 65.491373 -119.424327 
L 65.491373 -121.285745 
L 65.491373 -123.147164 
L 65.491373 -125.008582 
L 65.491373 -126.87 
L 65.491373 -128.731418 
L 65.491373 -130.592836 
L 65.491373 -132.454255 
L 65.491373 -134.315673 
L 65.491373 -136.177091 
L 65.491373 -138.038509 
L 65.491373 -139.899927 
L 65.491373 -141.761345 
L 65.491373 -143.622764 
L 65.491373 -145.484182 
L 65.491373 -147.3456 
L 65.491373 -149.207018 
L 65.491373 -151.068436 
L 65.491373 -152.929855 
L 65.491373 -154.791273 
L 65.491373 -156.652691 
L 65.491373 -158.514109 
L 65.491373 -160.375527 
L 65.491373 -162.236945 
L 65.491373 -164.098364 
L 65.491373 -165.959782 
L 65.491373 -167.8212 
L 65.491373 -169.682618 
L 65.491373 -171.544036 
L 65.491373 -173.405455 
L 65.491373 -175.266873 
L 65.491373 -177.128291 
L 65.491373 -178.989709 
L 65.491373 -180.851127 
L 65.491373 -182.712545 
L 65.491373 -184.573964 
L 65.491373 -186.435382 
L 65.491373 -188.2968 
L 65.491373 -190.158218 
L 65.491373 -192.019636 
L 65.491373 -193.881055 
L 65.491373 -195.742473 
L 65.491349 -197.603891 
L 65.491301 -199.465309 
L 65.491205 -201.326727 
L 65.490871 -203.188145 
L 65.489914 -205.049564 
L 65.487141 -206.910982 
L 65.479133 -208.7724 
L 65.455946 -210.633818 
L 65.388462 -212.495236 
L 65.188689 -214.356655 
L 64.568668 -216.218073 
L 62.37274 -218.079491 
L 51.320002 -219.940909 
L 67.881862 -219.940909 
L 67.881862 -219.940909 
L 67.881862 -218.079491 
L 67.881862 -216.218073 
L 67.881862 -214.356655 
L 67.881862 -212.495236 
L 67.881862 -210.633818 
L 67.881862 -208.7724 
L 67.881862 -206.910982 
L 67.881862 -205.049564 
L 67.881862 -203.188145 
L 67.881862 -201.326727 
L 67.881862 -199.465309 
L 67.881862 -197.603891 
L 67.881862 -195.742473 
L 67.881862 -193.881055 
L 67.881862 -192.019636 
L 67.881862 -190.158218 
L 67.881862 -188.2968 
L 67.881862 -186.435382 
L 67.881862 -184.573964 
L 67.881862 -182.712545 
L 67.881862 -180.851127 
L 67.881862 -178.989709 
L 67.881862 -177.128291 
L 67.881862 -175.266873 
L 67.881862 -173.405455 
L 67.881862 -171.544036 
L 67.881862 -169.682618 
L 67.881862 -167.8212 
L 67.881862 -165.959782 
L 67.881862 -164.098364 
L 67.881862 -162.236945 
L 67.881862 -160.375527 
L 67.881862 -158.514109 
L 67.881862 -156.652691 
L 67.881862 -154.791273 
L 67.881862 -152.929855 
L 67.881862 -151.068436 
L 67.881862 -149.207018 
L 67.881862 -147.3456 
L 67.881862 -145.484182 
L 67.881862 -143.622764 
L 67.881862 -141.761345 
L 67.881862 -139.899927 
L 67.881862 -138.038509 
L 67.881862 -136.177091 
L 67.881862 -134.315673 
L 67.881862 -132.454255 
L 67.881862 -130.592836 
L 67.881862 -128.731418 
L 67.881862 -126.87 
L 67.881862 -125.008582 
L 67.881862 -123.147164 
L 67.881862 -121.285745 
L 67.881862 -119.424327 
L 67.881862 -117.562909 
L 67.881862 -115.701491 
L 67.881862 -113.840073 
L 67.881862 -111.978655 
L 67.881862 -110.117236 
L 67.881862 -108.255818 
L 67.881862 -106.3944 
L 67.881862 -104.532982 
L 67.881862 -102.671564 
L 67.881862 -100.810145 
L 67.881862 -98.948727 
L 67.881862 -97.087309 
L 67.881862 -95.225891 
L 67.881862 -93.364473 
L 67.881862 -91.503055 
L 67.881862 -89.641636 
L 67.881862 -87.780218 
L 67.881862 -85.9188 
L 67.881862 -84.057382 
L 67.881862 -82.195964 
L 67.881862 -80.334545 
L 67.881862 -78.473127 
L 67.881862 -76.611709 
L 67.881862 -74.750291 
L 67.881862 -72.888873 
L 67.881862 -71.027455 
L 67.881862 -69.166036 
L 67.881862 -67.304618 
L 67.881862 -65.4432 
L 67.881862 -63.581782 
L 67.881862 -61.720364 
L 67.881862 -59.858945 
L 67.881862 -57.997527 
L 67.881862 -56.136109 
L 67.881862 -54.274691 
L 67.881862 -52.413273 
L 67.881862 -50.551855 
L 67.881862 -48.690436 
L 67.881862 -46.829018 
L 67.881862 -44.9676 
L 67.881862 -43.106182 
L 67.881862 -41.244764 
L 67.881862 -39.383345 
L 67.881862 -37.521927 
L 67.881862 -35.660509 
L 67.881862 -33.799091 
z
" id="mb3e4b81702" style="stroke:#8dd35f;"/>
    </defs>
    <g clip-path="url(#p6d8c30a85d)">
     <use style="fill:#8dd35f;stroke:#8dd35f;" x="0" xlink:href="#mb3e4b81702" y="230.4"/>
    </g>
   </g>
   <g id="text_16">
    <!-- $\times 10^7$ -->
    <g style="fill:#262626;" transform="translate(206.530248 202.417841)scale(0.08 -0.08)">
     <use transform="translate(0 0.684375)" xlink:href="#DejaVuSans-215"/>
     <use transform="translate(83.789062 0.684375)" xlink:href="#DejaVuSans-49"/>
     <use transform="translate(147.412109 0.684375)" xlink:href="#DejaVuSans-48"/>
     <use transform="translate(211.992188 38.965625)scale(0.7)" xlink:href="#DejaVuSans-55"/>
    </g>
   </g>
   <g id="PolyCollection_11">
    <defs>
     <path d="M 67.881862 -33.799091 
L 84.947924 -33.799091 
L 85.026356 -35.660509 
L 85.113872 -37.521927 
L 85.202464 -39.383345 
L 85.291653 -41.244764 
L 85.381464 -43.106182 
L 85.471872 -44.9676 
L 85.562902 -46.829018 
L 85.654577 -48.690436 
L 85.746898 -50.551855 
L 85.839888 -52.413273 
L 85.933523 -54.274691 
L 86.027876 -56.136109 
L 86.122898 -57.997527 
L 86.218637 -59.858945 
L 86.315117 -61.720364 
L 86.412314 -63.581782 
L 86.510301 -65.4432 
L 86.609052 -67.304618 
L 86.708592 -69.166036 
L 86.808944 -71.027455 
L 86.910134 -72.888873 
L 87.012184 -74.750291 
L 87.115118 -76.611709 
L 87.218937 -78.473127 
L 87.323712 -80.334545 
L 87.429396 -82.195964 
L 87.536083 -84.057382 
L 87.643775 -85.9188 
L 87.752518 -87.780218 
L 87.862314 -89.641636 
L 87.973208 -91.503055 
L 88.085251 -93.364473 
L 88.198464 -95.225891 
L 88.312897 -97.087309 
L 88.428597 -98.948727 
L 88.545587 -100.810145 
L 88.663916 -102.671564 
L 88.783656 -104.532982 
L 88.90483 -106.3944 
L 89.02751 -108.255818 
L 89.151744 -110.117236 
L 89.277603 -111.978655 
L 89.405135 -113.840073 
L 89.534437 -115.701491 
L 89.665555 -117.562909 
L 89.798586 -119.424327 
L 89.933601 -121.285745 
L 90.070696 -123.147164 
L 90.209942 -125.008582 
L 90.351482 -126.87 
L 90.495366 -128.731418 
L 90.64176 -130.592836 
L 90.790735 -132.454255 
L 90.942435 -134.315673 
L 91.097028 -136.177091 
L 91.254609 -138.038509 
L 91.415394 -139.899927 
L 91.579501 -141.761345 
L 91.747122 -143.622764 
L 91.918472 -145.484182 
L 92.093695 -147.3456 
L 92.273221 -149.207018 
L 92.457049 -151.068436 
L 92.64542 -152.929855 
L 92.83905 -154.791273 
L 93.037699 -156.652691 
L 93.242086 -158.514109 
L 93.452449 -160.375527 
L 93.669267 -162.236945 
L 93.892777 -164.098364 
L 94.123938 -165.959782 
L 94.362748 -167.8212 
L 94.610402 -169.682618 
L 94.867141 -171.544036 
L 95.13368 -173.405455 
L 95.411455 -175.266873 
L 95.700944 -177.128291 
L 96.003579 -178.989709 
L 96.320319 -180.851127 
L 96.653075 -182.712545 
L 97.003043 -184.573964 
L 97.372613 -186.435382 
L 97.763936 -188.2968 
L 98.179881 -190.158218 
L 98.623795 -192.019636 
L 99.099741 -193.881055 
L 99.612501 -195.742473 
L 100.168529 -197.603891 
L 100.775474 -199.465309 
L 101.443616 -201.326727 
L 102.185863 -203.188145 
L 103.0211 -205.049564 
L 103.974188 -206.910982 
L 105.083136 -208.7724 
L 106.406272 -210.633818 
L 108.042084 -212.495236 
L 110.167946 -214.356655 
L 113.130719 -216.218073 
L 117.625317 -218.079491 
L 124.155178 -219.940909 
L 67.881862 -219.940909 
L 67.881862 -219.940909 
L 67.881862 -218.079491 
L 67.881862 -216.218073 
L 67.881862 -214.356655 
L 67.881862 -212.495236 
L 67.881862 -210.633818 
L 67.881862 -208.7724 
L 67.881862 -206.910982 
L 67.881862 -205.049564 
L 67.881862 -203.188145 
L 67.881862 -201.326727 
L 67.881862 -199.465309 
L 67.881862 -197.603891 
L 67.881862 -195.742473 
L 67.881862 -193.881055 
L 67.881862 -192.019636 
L 67.881862 -190.158218 
L 67.881862 -188.2968 
L 67.881862 -186.435382 
L 67.881862 -184.573964 
L 67.881862 -182.712545 
L 67.881862 -180.851127 
L 67.881862 -178.989709 
L 67.881862 -177.128291 
L 67.881862 -175.266873 
L 67.881862 -173.405455 
L 67.881862 -171.544036 
L 67.881862 -169.682618 
L 67.881862 -167.8212 
L 67.881862 -165.959782 
L 67.881862 -164.098364 
L 67.881862 -162.236945 
L 67.881862 -160.375527 
L 67.881862 -158.514109 
L 67.881862 -156.652691 
L 67.881862 -154.791273 
L 67.881862 -152.929855 
L 67.881862 -151.068436 
L 67.881862 -149.207018 
L 67.881862 -147.3456 
L 67.881862 -145.484182 
L 67.881862 -143.622764 
L 67.881862 -141.761345 
L 67.881862 -139.899927 
L 67.881862 -138.038509 
L 67.881862 -136.177091 
L 67.881862 -134.315673 
L 67.881862 -132.454255 
L 67.881862 -130.592836 
L 67.881862 -128.731418 
L 67.881862 -126.87 
L 67.881862 -125.008582 
L 67.881862 -123.147164 
L 67.881862 -121.285745 
L 67.881862 -119.424327 
L 67.881862 -117.562909 
L 67.881862 -115.701491 
L 67.881862 -113.840073 
L 67.881862 -111.978655 
L 67.881862 -110.117236 
L 67.881862 -108.255818 
L 67.881862 -106.3944 
L 67.881862 -104.532982 
L 67.881862 -102.671564 
L 67.881862 -100.810145 
L 67.881862 -98.948727 
L 67.881862 -97.087309 
L 67.881862 -95.225891 
L 67.881862 -93.364473 
L 67.881862 -91.503055 
L 67.881862 -89.641636 
L 67.881862 -87.780218 
L 67.881862 -85.9188 
L 67.881862 -84.057382 
L 67.881862 -82.195964 
L 67.881862 -80.334545 
L 67.881862 -78.473127 
L 67.881862 -76.611709 
L 67.881862 -74.750291 
L 67.881862 -72.888873 
L 67.881862 -71.027455 
L 67.881862 -69.166036 
L 67.881862 -67.304618 
L 67.881862 -65.4432 
L 67.881862 -63.581782 
L 67.881862 -61.720364 
L 67.881862 -59.858945 
L 67.881862 -57.997527 
L 67.881862 -56.136109 
L 67.881862 -54.274691 
L 67.881862 -52.413273 
L 67.881862 -50.551855 
L 67.881862 -48.690436 
L 67.881862 -46.829018 
L 67.881862 -44.9676 
L 67.881862 -43.106182 
L 67.881862 -41.244764 
L 67.881862 -39.383345 
L 67.881862 -37.521927 
L 67.881862 -35.660509 
L 67.881862 -33.799091 
z
" id="m782fd81ef9" style="stroke:#ffb380;"/>
    </defs>
    <g clip-path="url(#p6d8c30a85d)">
     <use style="fill:#ffb380;stroke:#ffb380;" x="0" xlink:href="#m782fd81ef9" y="230.4"/>
    </g>
   </g>
   <g id="PolyCollection_12">
    <defs>
     <path d="M 67.881862 -33.799091 
L 67.881862 -33.799091 
L 67.881862 -35.660509 
L 67.881862 -37.521927 
L 67.881862 -39.383345 
L 67.881862 -41.244764 
L 67.881862 -43.106182 
L 67.881862 -44.9676 
L 67.881862 -46.829018 
L 67.881862 -48.690436 
L 67.881862 -50.551855 
L 67.881862 -52.413273 
L 67.881862 -54.274691 
L 67.881862 -56.136109 
L 67.881862 -57.997527 
L 67.881862 -59.858945 
L 67.881862 -61.720364 
L 67.881862 -63.581782 
L 67.881862 -65.4432 
L 67.881862 -67.304618 
L 67.881862 -69.166036 
L 67.881862 -71.027455 
L 67.881862 -72.888873 
L 67.881862 -74.750291 
L 67.881862 -76.611709 
L 67.881862 -78.473127 
L 67.881862 -80.334545 
L 67.881862 -82.195964 
L 67.881862 -84.057382 
L 67.881862 -85.9188 
L 67.881862 -87.780218 
L 67.881862 -89.641636 
L 67.881861 -91.503055 
L 67.881859 -93.364473 
L 67.881853 -95.225891 
L 67.881837 -97.087309 
L 67.881794 -98.948727 
L 67.881677 -100.810145 
L 67.881374 -102.671564 
L 67.8806 -104.532982 
L 67.878684 -106.3944 
L 67.874095 -108.255818 
L 67.863546 -110.117236 
L 67.840524 -111.978655 
L 67.793479 -113.840073 
L 67.705092 -115.701491 
L 67.555668 -117.562909 
L 67.333235 -119.424327 
L 67.046458 -121.285745 
L 66.727877 -123.147164 
L 66.420135 -125.008582 
L 66.15618 -126.87 
L 65.949849 -128.731418 
L 65.799143 -130.592836 
L 65.694151 -132.454255 
L 65.623304 -134.315673 
L 65.576498 -136.177091 
L 65.545998 -138.038509 
L 65.526302 -139.899927 
L 65.513654 -141.761345 
L 65.505565 -143.622764 
L 65.500404 -145.484182 
L 65.497115 -147.3456 
L 65.495023 -149.207018 
L 65.493691 -151.068436 
L 65.492845 -152.929855 
L 65.492307 -154.791273 
L 65.491965 -156.652691 
L 65.49175 -158.514109 
L 65.491612 -160.375527 
L 65.491523 -162.236945 
L 65.491468 -164.098364 
L 65.491435 -165.959782 
L 65.491411 -167.8212 
L 65.491396 -169.682618 
L 65.491389 -171.544036 
L 65.491382 -173.405455 
L 65.49138 -175.266873 
L 65.491377 -177.128291 
L 65.491375 -178.989709 
L 65.491375 -180.851127 
L 65.491373 -182.712545 
L 65.491373 -184.573964 
L 65.491373 -186.435382 
L 65.491373 -188.2968 
L 65.491373 -190.158218 
L 65.491373 -192.019636 
L 65.491373 -193.881055 
L 65.491373 -195.742473 
L 65.491373 -197.603891 
L 65.491349 -199.465309 
L 65.491301 -201.326727 
L 65.491134 -203.188145 
L 65.490632 -205.049564 
L 65.489173 -206.910982 
L 65.484823 -208.7724 
L 65.471771 -210.633818 
L 65.432686 -212.495236 
L 65.314548 -214.356655 
L 64.947823 -216.218073 
L 63.714211 -218.079491 
L 58.507701 -219.940909 
L 67.881862 -219.940909 
L 67.881862 -219.940909 
L 67.881862 -218.079491 
L 67.881862 -216.218073 
L 67.881862 -214.356655 
L 67.881862 -212.495236 
L 67.881862 -210.633818 
L 67.881862 -208.7724 
L 67.881862 -206.910982 
L 67.881862 -205.049564 
L 67.881862 -203.188145 
L 67.881862 -201.326727 
L 67.881862 -199.465309 
L 67.881862 -197.603891 
L 67.881862 -195.742473 
L 67.881862 -193.881055 
L 67.881862 -192.019636 
L 67.881862 -190.158218 
L 67.881862 -188.2968 
L 67.881862 -186.435382 
L 67.881862 -184.573964 
L 67.881862 -182.712545 
L 67.881862 -180.851127 
L 67.881862 -178.989709 
L 67.881862 -177.128291 
L 67.881862 -175.266873 
L 67.881862 -173.405455 
L 67.881862 -171.544036 
L 67.881862 -169.682618 
L 67.881862 -167.8212 
L 67.881862 -165.959782 
L 67.881862 -164.098364 
L 67.881862 -162.236945 
L 67.881862 -160.375527 
L 67.881862 -158.514109 
L 67.881862 -156.652691 
L 67.881862 -154.791273 
L 67.881862 -152.929855 
L 67.881862 -151.068436 
L 67.881862 -149.207018 
L 67.881862 -147.3456 
L 67.881862 -145.484182 
L 67.881862 -143.622764 
L 67.881862 -141.761345 
L 67.881862 -139.899927 
L 67.881862 -138.038509 
L 67.881862 -136.177091 
L 67.881862 -134.315673 
L 67.881862 -132.454255 
L 67.881862 -130.592836 
L 67.881862 -128.731418 
L 67.881862 -126.87 
L 67.881862 -125.008582 
L 67.881862 -123.147164 
L 67.881862 -121.285745 
L 67.881862 -119.424327 
L 67.881862 -117.562909 
L 67.881862 -115.701491 
L 67.881862 -113.840073 
L 67.881862 -111.978655 
L 67.881862 -110.117236 
L 67.881862 -108.255818 
L 67.881862 -106.3944 
L 67.881862 -104.532982 
L 67.881862 -102.671564 
L 67.881862 -100.810145 
L 67.881862 -98.948727 
L 67.881862 -97.087309 
L 67.881862 -95.225891 
L 67.881862 -93.364473 
L 67.881862 -91.503055 
L 67.881862 -89.641636 
L 67.881862 -87.780218 
L 67.881862 -85.9188 
L 67.881862 -84.057382 
L 67.881862 -82.195964 
L 67.881862 -80.334545 
L 67.881862 -78.473127 
L 67.881862 -76.611709 
L 67.881862 -74.750291 
L 67.881862 -72.888873 
L 67.881862 -71.027455 
L 67.881862 -69.166036 
L 67.881862 -67.304618 
L 67.881862 -65.4432 
L 67.881862 -63.581782 
L 67.881862 -61.720364 
L 67.881862 -59.858945 
L 67.881862 -57.997527 
L 67.881862 -56.136109 
L 67.881862 -54.274691 
L 67.881862 -52.413273 
L 67.881862 -50.551855 
L 67.881862 -48.690436 
L 67.881862 -46.829018 
L 67.881862 -44.9676 
L 67.881862 -43.106182 
L 67.881862 -41.244764 
L 67.881862 -39.383345 
L 67.881862 -37.521927 
L 67.881862 -35.660509 
L 67.881862 -33.799091 
z
" id="m0ac89955c6" style="stroke:#ffb380;"/>
    </defs>
    <g clip-path="url(#p6d8c30a85d)">
     <use style="fill:#ffb380;stroke:#ffb380;" x="0" xlink:href="#m0ac89955c6" y="230.4"/>
    </g>
   </g>
  </g>
  <g id="axes_4">
   <g id="patch_10">
    <path d="M 33.528 205.908 
L 229.194 205.908 
L 229.194 1.152 
L 33.528 1.152 
z
" style="fill:none;"/>
   </g>
   <g id="matplotlib.axis_5">
    <g id="text_17">
     <!-- Bacterial density (mm$^{-3}$) -->
     <defs>
      <path d="M 24.703125 5.171875 
L 39.3125 5.171875 
Q 48.09375 5.171875 52.140625 8.984375 
Q 56.203125 12.796875 56.203125 21.09375 
Q 56.203125 29.34375 52.171875 33.125 
Q 48.140625 36.921875 39.3125 36.921875 
L 24.703125 36.921875 
z
M 24.703125 42.09375 
L 37.109375 42.09375 
Q 45.125 42.09375 48.796875 45.171875 
Q 52.484375 48.25 52.484375 54.890625 
Q 52.484375 61.578125 48.796875 64.625 
Q 45.125 67.671875 37.109375 67.671875 
L 24.703125 67.671875 
z
M 5.515625 0 
L 5.515625 5.171875 
L 14.796875 5.171875 
L 14.796875 67.671875 
L 5.515625 67.671875 
L 5.515625 72.90625 
L 41.5 72.90625 
Q 52.546875 72.90625 58.125 68.390625 
Q 63.71875 63.875 63.71875 54.890625 
Q 63.71875 48.390625 59.828125 44.53125 
Q 55.953125 40.671875 48.484375 39.796875 
Q 57.765625 38.625 62.578125 33.859375 
Q 67.390625 29.109375 67.390625 21.09375 
Q 67.390625 10.25 60.546875 5.125 
Q 53.71875 0 39.203125 0 
z
" id="DejaVuSerif-66"/>
      <path d="M 39.796875 16.3125 
L 39.796875 27.296875 
L 28.21875 27.296875 
Q 21.53125 27.296875 18.25 24.40625 
Q 14.984375 21.53125 14.984375 15.578125 
Q 14.984375 10.15625 18.296875 6.984375 
Q 21.625 3.8125 27.296875 3.8125 
Q 32.90625 3.8125 36.34375 7.28125 
Q 39.796875 10.75 39.796875 16.3125 
z
M 48.78125 32.421875 
L 48.78125 5.171875 
L 56.78125 5.171875 
L 56.78125 0 
L 39.796875 0 
L 39.796875 5.609375 
Q 36.8125 2 32.90625 0.28125 
Q 29 -1.421875 23.78125 -1.421875 
Q 15.140625 -1.421875 10.0625 3.171875 
Q 4.984375 7.765625 4.984375 15.578125 
Q 4.984375 23.640625 10.796875 28.078125 
Q 16.609375 32.515625 27.203125 32.515625 
L 39.796875 32.515625 
L 39.796875 36.078125 
Q 39.796875 42 36.203125 45.234375 
Q 32.625 48.484375 26.125 48.484375 
Q 20.75 48.484375 17.578125 46.046875 
Q 14.40625 43.609375 13.625 38.8125 
L 8.984375 38.8125 
L 8.984375 49.3125 
Q 13.671875 51.3125 18.09375 52.3125 
Q 22.515625 53.328125 26.703125 53.328125 
Q 37.5 53.328125 43.140625 47.96875 
Q 48.78125 42.625 48.78125 32.421875 
z
" id="DejaVuSerif-97"/>
      <path d="M 51.421875 15.578125 
Q 49.515625 7.28125 44.09375 2.921875 
Q 38.671875 -1.421875 30.078125 -1.421875 
Q 18.75 -1.421875 11.859375 6.078125 
Q 4.984375 13.578125 4.984375 25.984375 
Q 4.984375 38.421875 11.859375 45.875 
Q 18.75 53.328125 30.078125 53.328125 
Q 35.015625 53.328125 39.890625 52.171875 
Q 44.78125 51.03125 49.703125 48.6875 
L 49.703125 35.40625 
L 44.484375 35.40625 
Q 43.453125 42.234375 40.015625 45.359375 
Q 36.578125 48.484375 30.171875 48.484375 
Q 22.90625 48.484375 19.1875 42.84375 
Q 15.484375 37.203125 15.484375 25.984375 
Q 15.484375 14.75 19.171875 9.078125 
Q 22.859375 3.421875 30.171875 3.421875 
Q 35.984375 3.421875 39.453125 6.4375 
Q 42.921875 9.46875 44.1875 15.578125 
z
" id="DejaVuSerif-99"/>
      <path d="M 10.796875 46.6875 
L 2.875 46.6875 
L 2.875 51.90625 
L 10.796875 51.90625 
L 10.796875 68.015625 
L 19.828125 68.015625 
L 19.828125 51.90625 
L 36.71875 51.90625 
L 36.71875 46.6875 
L 19.828125 46.6875 
L 19.828125 13.71875 
Q 19.828125 7.125 21.09375 5.265625 
Q 22.359375 3.421875 25.78125 3.421875 
Q 29.296875 3.421875 30.90625 5.484375 
Q 32.515625 7.5625 32.625 12.203125 
L 39.40625 12.203125 
Q 39.015625 5.125 35.546875 1.84375 
Q 32.078125 -1.421875 25 -1.421875 
Q 17.234375 -1.421875 14.015625 2.015625 
Q 10.796875 5.46875 10.796875 13.71875 
z
" id="DejaVuSerif-116"/>
      <path d="M 54.203125 25 
L 15.484375 25 
L 15.484375 24.609375 
Q 15.484375 14.109375 19.4375 8.765625 
Q 23.390625 3.421875 31.109375 3.421875 
Q 37.015625 3.421875 40.796875 6.515625 
Q 44.578125 9.625 46.09375 15.71875 
L 53.328125 15.71875 
Q 51.171875 7.171875 45.375 2.875 
Q 39.59375 -1.421875 30.171875 -1.421875 
Q 18.796875 -1.421875 11.890625 6.078125 
Q 4.984375 13.578125 4.984375 25.984375 
Q 4.984375 38.28125 11.765625 45.796875 
Q 18.5625 53.328125 29.59375 53.328125 
Q 41.359375 53.328125 47.65625 46.0625 
Q 53.953125 38.8125 54.203125 25 
z
M 43.609375 30.171875 
Q 43.3125 39.265625 39.765625 43.875 
Q 36.234375 48.484375 29.59375 48.484375 
Q 23.390625 48.484375 19.828125 43.84375 
Q 16.265625 39.203125 15.484375 30.171875 
z
" id="DejaVuSerif-101"/>
      <path d="M 47.796875 52 
L 47.796875 39.015625 
L 42.625 39.015625 
Q 42.390625 42.875 40.484375 44.78125 
Q 38.578125 46.6875 34.90625 46.6875 
Q 28.265625 46.6875 24.71875 42.09375 
Q 21.1875 37.5 21.1875 28.90625 
L 21.1875 5.171875 
L 31.59375 5.171875 
L 31.59375 0 
L 4.109375 0 
L 4.109375 5.171875 
L 12.203125 5.171875 
L 12.203125 46.78125 
L 3.609375 46.78125 
L 3.609375 51.90625 
L 21.1875 51.90625 
L 21.1875 42.671875 
Q 23.828125 48.09375 27.96875 50.703125 
Q 32.125 53.328125 38.09375 53.328125 
Q 40.28125 53.328125 42.703125 52.984375 
Q 45.125 52.640625 47.796875 52 
z
" id="DejaVuSerif-114"/>
      <path d="M 9.71875 68.015625 
Q 9.71875 70.265625 11.34375 71.921875 
Q 12.984375 73.578125 15.28125 73.578125 
Q 17.53125 73.578125 19.15625 71.921875 
Q 20.796875 70.265625 20.796875 68.015625 
Q 20.796875 65.71875 19.1875 64.109375 
Q 17.578125 62.5 15.28125 62.5 
Q 12.984375 62.5 11.34375 64.109375 
Q 9.71875 65.71875 9.71875 68.015625 
z
M 21.1875 5.171875 
L 29.6875 5.171875 
L 29.6875 0 
L 3.609375 0 
L 3.609375 5.171875 
L 12.203125 5.171875 
L 12.203125 46.6875 
L 3.609375 46.6875 
L 3.609375 51.90625 
L 21.1875 51.90625 
z
" id="DejaVuSerif-105"/>
      <path d="M 20.515625 5.171875 
L 29 5.171875 
L 29 0 
L 2.875 0 
L 2.875 5.171875 
L 11.53125 5.171875 
L 11.53125 70.796875 
L 2.875 70.796875 
L 2.875 75.984375 
L 20.515625 75.984375 
z
" id="DejaVuSerif-108"/>
      <path id="DejaVuSerif-32"/>
      <path d="M 52.484375 5.171875 
L 61.078125 5.171875 
L 61.078125 0 
L 43.5 0 
L 43.5 8.109375 
Q 40.875 3.21875 36.796875 0.890625 
Q 32.71875 -1.421875 26.703125 -1.421875 
Q 17.140625 -1.421875 11.0625 6.171875 
Q 4.984375 13.765625 4.984375 25.984375 
Q 4.984375 38.1875 11.03125 45.75 
Q 17.09375 53.328125 26.703125 53.328125 
Q 32.71875 53.328125 36.796875 51 
Q 40.875 48.6875 43.5 43.796875 
L 43.5 70.796875 
L 35.015625 70.796875 
L 35.015625 75.984375 
L 52.484375 75.984375 
z
M 43.5 23.390625 
L 43.5 28.515625 
Q 43.5 37.84375 39.90625 42.765625 
Q 36.328125 47.703125 29.5 47.703125 
Q 22.5625 47.703125 19.015625 42.234375 
Q 15.484375 36.765625 15.484375 25.984375 
Q 15.484375 15.234375 19.015625 9.71875 
Q 22.5625 4.203125 29.5 4.203125 
Q 36.328125 4.203125 39.90625 9.109375 
Q 43.5 14.015625 43.5 23.390625 
z
" id="DejaVuSerif-100"/>
      <path d="M 4.109375 0 
L 4.109375 5.171875 
L 12.203125 5.171875 
L 12.203125 46.6875 
L 3.609375 46.6875 
L 3.609375 51.90625 
L 21.1875 51.90625 
L 21.1875 42.671875 
Q 23.6875 47.953125 27.65625 50.640625 
Q 31.640625 53.328125 36.921875 53.328125 
Q 45.515625 53.328125 49.5625 48.390625 
Q 53.609375 43.453125 53.609375 33.015625 
L 53.609375 5.171875 
L 61.625 5.171875 
L 61.625 0 
L 36.8125 0 
L 36.8125 5.171875 
L 44.578125 5.171875 
L 44.578125 30.171875 
Q 44.578125 39.703125 42.234375 43.234375 
Q 39.890625 46.78125 33.984375 46.78125 
Q 27.734375 46.78125 24.453125 42.203125 
Q 21.1875 37.640625 21.1875 28.90625 
L 21.1875 5.171875 
L 29 5.171875 
L 29 0 
z
" id="DejaVuSerif-110"/>
      <path d="M 5.609375 2.875 
L 5.609375 14.984375 
L 10.796875 14.984375 
Q 10.984375 9.1875 14.421875 6.296875 
Q 17.875 3.421875 24.609375 3.421875 
Q 30.671875 3.421875 33.84375 5.6875 
Q 37.015625 7.953125 37.015625 12.3125 
Q 37.015625 15.71875 34.6875 17.8125 
Q 32.375 19.921875 24.90625 22.3125 
L 18.40625 24.515625 
Q 11.71875 26.65625 8.71875 29.875 
Q 5.71875 33.109375 5.71875 38.09375 
Q 5.71875 45.21875 10.9375 49.265625 
Q 16.15625 53.328125 25.390625 53.328125 
Q 29.5 53.328125 34.03125 52.25 
Q 38.578125 51.171875 43.40625 49.125 
L 43.40625 37.796875 
L 38.234375 37.796875 
Q 38.03125 42.828125 34.703125 45.65625 
Q 31.390625 48.484375 25.6875 48.484375 
Q 20.015625 48.484375 17.109375 46.484375 
Q 14.203125 44.484375 14.203125 40.484375 
Q 14.203125 37.203125 16.40625 35.21875 
Q 18.609375 33.25 25.203125 31.203125 
L 32.328125 29 
Q 39.703125 26.703125 42.9375 23.265625 
Q 46.1875 19.828125 46.1875 14.40625 
Q 46.1875 7.03125 40.546875 2.796875 
Q 34.90625 -1.421875 25 -1.421875 
Q 19.96875 -1.421875 15.1875 -0.34375 
Q 10.40625 0.734375 5.609375 2.875 
z
" id="DejaVuSerif-115"/>
      <path d="M 21.578125 -9.515625 
L 25 -0.875 
L 5.609375 46.6875 
L -0.296875 46.6875 
L -0.296875 51.90625 
L 23.578125 51.90625 
L 23.578125 46.6875 
L 15.28125 46.6875 
L 29.890625 10.984375 
L 44.484375 46.6875 
L 36.71875 46.6875 
L 36.71875 51.90625 
L 56.203125 51.90625 
L 56.203125 46.6875 
L 50.390625 46.6875 
L 26.609375 -11.71875 
Q 24.171875 -17.78125 21.1875 -20 
Q 18.21875 -22.21875 12.796875 -22.21875 
Q 10.5 -22.21875 8.078125 -21.828125 
Q 5.671875 -21.4375 3.21875 -20.703125 
L 3.21875 -10.796875 
L 7.8125 -10.796875 
Q 8.109375 -14.109375 9.5 -15.546875 
Q 10.890625 -17 13.8125 -17 
Q 16.5 -17 18.140625 -15.5 
Q 19.78125 -14.015625 21.578125 -9.515625 
z
" id="DejaVuSerif-121"/>
      <path d="M 31.890625 -15.578125 
Q 20.015625 -10.25 13.953125 1.296875 
Q 7.90625 12.84375 7.90625 30.171875 
Q 7.90625 47.5625 13.953125 59.109375 
Q 20.015625 70.65625 31.890625 75.984375 
L 31.890625 71.1875 
Q 24.359375 66.015625 21.09375 56.609375 
Q 17.828125 47.21875 17.828125 30.171875 
Q 17.828125 13.1875 21.09375 3.78125 
Q 24.359375 -5.609375 31.890625 -10.796875 
z
" id="DejaVuSerif-40"/>
      <path d="M 51.8125 41.796875 
Q 54.390625 47.515625 58.421875 50.421875 
Q 62.453125 53.328125 67.828125 53.328125 
Q 75.984375 53.328125 79.984375 48.265625 
Q 83.984375 43.21875 83.984375 33.015625 
L 83.984375 5.171875 
L 92.09375 5.171875 
L 92.09375 0 
L 67.1875 0 
L 67.1875 5.171875 
L 75 5.171875 
L 75 31.984375 
Q 75 39.9375 72.65625 43.3125 
Q 70.3125 46.6875 64.890625 46.6875 
Q 58.890625 46.6875 55.734375 42.140625 
Q 52.59375 37.59375 52.59375 28.90625 
L 52.59375 5.171875 
L 60.40625 5.171875 
L 60.40625 0 
L 35.796875 0 
L 35.796875 5.171875 
L 43.609375 5.171875 
L 43.609375 32.328125 
Q 43.609375 40.09375 41.265625 43.390625 
Q 38.921875 46.6875 33.5 46.6875 
Q 27.484375 46.6875 24.328125 42.140625 
Q 21.1875 37.59375 21.1875 28.90625 
L 21.1875 5.171875 
L 29 5.171875 
L 29 0 
L 4.109375 0 
L 4.109375 5.171875 
L 12.203125 5.171875 
L 12.203125 46.78125 
L 3.609375 46.78125 
L 3.609375 51.90625 
L 21.1875 51.90625 
L 21.1875 42.671875 
Q 23.6875 47.859375 27.53125 50.59375 
Q 31.390625 53.328125 36.28125 53.328125 
Q 42.328125 53.328125 46.375 50.3125 
Q 50.4375 47.3125 51.8125 41.796875 
z
" id="DejaVuSerif-109"/>
      <path d="M 10.59375 35.5 
L 73.1875 35.5 
L 73.1875 27.203125 
L 10.59375 27.203125 
z
" id="DejaVuSans-8722"/>
      <path d="M 40.578125 39.3125 
Q 47.65625 37.796875 51.625 33 
Q 55.609375 28.21875 55.609375 21.1875 
Q 55.609375 10.40625 48.1875 4.484375 
Q 40.765625 -1.421875 27.09375 -1.421875 
Q 22.515625 -1.421875 17.65625 -0.515625 
Q 12.796875 0.390625 7.625 2.203125 
L 7.625 11.71875 
Q 11.71875 9.328125 16.59375 8.109375 
Q 21.484375 6.890625 26.8125 6.890625 
Q 36.078125 6.890625 40.9375 10.546875 
Q 45.796875 14.203125 45.796875 21.1875 
Q 45.796875 27.640625 41.28125 31.265625 
Q 36.765625 34.90625 28.71875 34.90625 
L 20.21875 34.90625 
L 20.21875 43.015625 
L 29.109375 43.015625 
Q 36.375 43.015625 40.234375 45.921875 
Q 44.09375 48.828125 44.09375 54.296875 
Q 44.09375 59.90625 40.109375 62.90625 
Q 36.140625 65.921875 28.71875 65.921875 
Q 24.65625 65.921875 20.015625 65.03125 
Q 15.375 64.15625 9.8125 62.3125 
L 9.8125 71.09375 
Q 15.4375 72.65625 20.34375 73.4375 
Q 25.25 74.21875 29.59375 74.21875 
Q 40.828125 74.21875 47.359375 69.109375 
Q 53.90625 64.015625 53.90625 55.328125 
Q 53.90625 49.265625 50.4375 45.09375 
Q 46.96875 40.921875 40.578125 39.3125 
z
" id="DejaVuSans-51"/>
      <path d="M 7.078125 -15.578125 
L 7.078125 -10.796875 
Q 14.59375 -5.609375 17.890625 3.78125 
Q 21.1875 13.1875 21.1875 30.171875 
Q 21.1875 47.21875 17.890625 56.609375 
Q 14.59375 66.015625 7.078125 71.1875 
L 7.078125 75.984375 
Q 19 70.65625 25.046875 59.109375 
Q 31.109375 47.5625 31.109375 30.171875 
Q 31.109375 12.84375 25.046875 1.296875 
Q 19 -10.25 7.078125 -15.578125 
z
" id="DejaVuSerif-41"/>
     </defs>
     <g style="fill:#262626;" transform="translate(80.721 228.188)scale(0.08 -0.08)">
      <use transform="translate(0 0.765625)" xlink:href="#DejaVuSerif-66"/>
      <use transform="translate(73.486328 0.765625)" xlink:href="#DejaVuSerif-97"/>
      <use transform="translate(133.105469 0.765625)" xlink:href="#DejaVuSerif-99"/>
      <use transform="translate(189.111328 0.765625)" xlink:href="#DejaVuSerif-116"/>
      <use transform="translate(229.296875 0.765625)" xlink:href="#DejaVuSerif-101"/>
      <use transform="translate(288.476562 0.765625)" xlink:href="#DejaVuSerif-114"/>
      <use transform="translate(336.279297 0.765625)" xlink:href="#DejaVuSerif-105"/>
      <use transform="translate(368.261719 0.765625)" xlink:href="#DejaVuSerif-97"/>
      <use transform="translate(427.880859 0.765625)" xlink:href="#DejaVuSerif-108"/>
      <use transform="translate(459.863281 0.765625)" xlink:href="#DejaVuSerif-32"/>
      <use transform="translate(491.650391 0.765625)" xlink:href="#DejaVuSerif-100"/>
      <use transform="translate(555.664062 0.765625)" xlink:href="#DejaVuSerif-101"/>
      <use transform="translate(614.84375 0.765625)" xlink:href="#DejaVuSerif-110"/>
      <use transform="translate(679.248047 0.765625)" xlink:href="#DejaVuSerif-115"/>
      <use transform="translate(730.566406 0.765625)" xlink:href="#DejaVuSerif-105"/>
      <use transform="translate(762.548828 0.765625)" xlink:href="#DejaVuSerif-116"/>
      <use transform="translate(802.734375 0.765625)" xlink:href="#DejaVuSerif-121"/>
      <use transform="translate(859.228516 0.765625)" xlink:href="#DejaVuSerif-32"/>
      <use transform="translate(891.015625 0.765625)" xlink:href="#DejaVuSerif-40"/>
      <use transform="translate(930.029297 0.765625)" xlink:href="#DejaVuSerif-109"/>
      <use transform="translate(1024.853516 0.765625)" xlink:href="#DejaVuSerif-109"/>
      <use transform="translate(1120.634766 39.046875)scale(0.7)" xlink:href="#DejaVuSans-8722"/>
      <use transform="translate(1179.287109 39.046875)scale(0.7)" xlink:href="#DejaVuSans-51"/>
      <use transform="translate(1226.557617 0.765625)" xlink:href="#DejaVuSerif-41"/>
     </g>
    </g>
   </g>
   <g id="matplotlib.axis_6">
    <g id="text_18">
     <!-- Distance up urethra (mm) -->
     <defs>
      <path d="M 24.703125 5.171875 
L 33.796875 5.171875 
Q 48 5.171875 55.59375 13.28125 
Q 63.1875 21.390625 63.1875 36.53125 
Q 63.1875 51.65625 55.609375 59.65625 
Q 48.046875 67.671875 33.796875 67.671875 
L 24.703125 67.671875 
z
M 5.515625 0 
L 5.515625 5.171875 
L 14.796875 5.171875 
L 14.796875 67.671875 
L 5.515625 67.671875 
L 5.515625 72.90625 
L 34.515625 72.90625 
Q 53.375 72.90625 63.890625 63.28125 
Q 74.421875 53.65625 74.421875 36.53125 
Q 74.421875 19.34375 63.875 9.671875 
Q 53.328125 0 34.515625 0 
z
" id="DejaVuSerif-68"/>
      <path d="M 35.40625 51.90625 
L 52.203125 51.90625 
L 52.203125 5.171875 
L 60.6875 5.171875 
L 60.6875 0 
L 43.21875 0 
L 43.21875 9.1875 
Q 40.71875 4 36.765625 1.28125 
Q 32.8125 -1.421875 27.59375 -1.421875 
Q 18.953125 -1.421875 14.875 3.484375 
Q 10.796875 8.40625 10.796875 18.890625 
L 10.796875 46.6875 
L 2.6875 46.6875 
L 2.6875 51.90625 
L 19.828125 51.90625 
L 19.828125 21.6875 
Q 19.828125 12.203125 22.140625 8.6875 
Q 24.46875 5.171875 30.421875 5.171875 
Q 36.671875 5.171875 39.9375 9.765625 
Q 43.21875 14.359375 43.21875 23.09375 
L 43.21875 46.6875 
L 35.40625 46.6875 
z
" id="DejaVuSerif-117"/>
      <path d="M 20.515625 28.515625 
L 20.515625 23.390625 
Q 20.515625 14.015625 24.09375 9.109375 
Q 27.6875 4.203125 34.515625 4.203125 
Q 41.40625 4.203125 44.9375 9.71875 
Q 48.484375 15.234375 48.484375 25.984375 
Q 48.484375 36.765625 44.9375 42.234375 
Q 41.40625 47.703125 34.515625 47.703125 
Q 27.6875 47.703125 24.09375 42.765625 
Q 20.515625 37.84375 20.515625 28.515625 
z
M 11.53125 46.6875 
L 2.875 46.6875 
L 2.875 51.90625 
L 20.515625 51.90625 
L 20.515625 43.796875 
Q 23.140625 48.6875 27.21875 51 
Q 31.296875 53.328125 37.3125 53.328125 
Q 46.875 53.328125 52.921875 45.75 
Q 58.984375 38.1875 58.984375 25.984375 
Q 58.984375 13.765625 52.921875 6.171875 
Q 46.875 -1.421875 37.3125 -1.421875 
Q 31.296875 -1.421875 27.21875 0.890625 
Q 23.140625 3.21875 20.515625 8.109375 
L 20.515625 -15.578125 
L 29 -15.578125 
L 29 -20.796875 
L 2.875 -20.796875 
L 2.875 -15.578125 
L 11.53125 -15.578125 
z
" id="DejaVuSerif-112"/>
      <path d="M 4.109375 0 
L 4.109375 5.171875 
L 12.203125 5.171875 
L 12.203125 70.796875 
L 3.609375 70.796875 
L 3.609375 75.984375 
L 21.1875 75.984375 
L 21.1875 42.671875 
Q 23.6875 47.953125 27.65625 50.640625 
Q 31.640625 53.328125 36.921875 53.328125 
Q 45.515625 53.328125 49.5625 48.390625 
Q 53.609375 43.453125 53.609375 33.015625 
L 53.609375 5.171875 
L 61.625 5.171875 
L 61.625 0 
L 36.8125 0 
L 36.8125 5.171875 
L 44.578125 5.171875 
L 44.578125 30.171875 
Q 44.578125 39.703125 42.25 43.1875 
Q 39.9375 46.6875 33.984375 46.6875 
Q 27.734375 46.6875 24.453125 42.140625 
Q 21.1875 37.59375 21.1875 28.90625 
L 21.1875 5.171875 
L 29 5.171875 
L 29 0 
z
" id="DejaVuSerif-104"/>
     </defs>
     <g style="fill:#262626;" transform="translate(6.86425 156.239375)rotate(-90)scale(0.08 -0.08)">
      <use xlink:href="#DejaVuSerif-68"/>
      <use x="80.175781" xlink:href="#DejaVuSerif-105"/>
      <use x="112.158203" xlink:href="#DejaVuSerif-115"/>
      <use x="163.476562" xlink:href="#DejaVuSerif-116"/>
      <use x="203.662109" xlink:href="#DejaVuSerif-97"/>
      <use x="263.28125" xlink:href="#DejaVuSerif-110"/>
      <use x="327.685547" xlink:href="#DejaVuSerif-99"/>
      <use x="383.691406" xlink:href="#DejaVuSerif-101"/>
      <use x="442.871094" xlink:href="#DejaVuSerif-32"/>
      <use x="474.658203" xlink:href="#DejaVuSerif-117"/>
      <use x="539.0625" xlink:href="#DejaVuSerif-112"/>
      <use x="603.076172" xlink:href="#DejaVuSerif-32"/>
      <use x="634.863281" xlink:href="#DejaVuSerif-117"/>
      <use x="699.267578" xlink:href="#DejaVuSerif-114"/>
      <use x="747.070312" xlink:href="#DejaVuSerif-101"/>
      <use x="806.25" xlink:href="#DejaVuSerif-116"/>
      <use x="846.435547" xlink:href="#DejaVuSerif-104"/>
      <use x="910.839844" xlink:href="#DejaVuSerif-114"/>
      <use x="958.642578" xlink:href="#DejaVuSerif-97"/>
      <use x="1018.261719" xlink:href="#DejaVuSerif-32"/>
      <use x="1050.048828" xlink:href="#DejaVuSerif-40"/>
      <use x="1089.0625" xlink:href="#DejaVuSerif-109"/>
      <use x="1183.886719" xlink:href="#DejaVuSerif-109"/>
      <use x="1278.710938" xlink:href="#DejaVuSerif-41"/>
     </g>
    </g>
   </g>
  </g>
 </g>
 <defs>
  <clipPath id="p4ae225e8c9">
   <rect height="204.756" width="195.666" x="33.528" y="1.152"/>
  </clipPath>
  <clipPath id="p47e0abc301">
   <rect height="204.756" width="16.566044" x="33.528" y="1.152"/>
  </clipPath>
  <clipPath id="p6d8c30a85d">
   <rect height="204.756" width="161.312138" x="67.881862" y="1.152"/>
  </clipPath>
 </defs>
</svg>
