<?xml version="1.0" encoding="utf-8" standalone="no"?>
<!DOCTYPE svg PUBLIC "-//W3C//DTD SVG 1.1//EN"
  "http://www.w3.org/Graphics/SVG/1.1/DTD/svg11.dtd">
<!-- Created with matplotlib (https://matplotlib.org/) -->
<svg height="111.6pt" version="1.1" viewBox="0 0 111.6 111.6" width="111.6pt" xmlns="http://www.w3.org/2000/svg" xmlns:xlink="http://www.w3.org/1999/xlink">
 <defs>
  <style type="text/css">
*{stroke-linecap:butt;stroke-linejoin:round;}
  </style>
 </defs>
 <g id="figure_1">
  <g id="patch_1">
   <path d="M 0 111.6 
L 111.6 111.6 
L 111.6 0 
L 0 0 
z
" style="fill:#ffffff;"/>
  </g>
  <g id="axes_1">
   <g id="patch_2">
    <path clip-path="url(#p8ad0bd851f)" d="M 33.136364 87.144 
L 33.136364 7.614 
L 106.303636 7.614 
L 106.303636 87.144 
z
" style="fill:#b3b3b3;stroke:#b3b3b3;stroke-linejoin:miter;"/>
   </g>
   <g id="text_1">
    <!-- Outside -->
    <defs>
     <path d="M 41.015625 3.8125 
Q 52.984375 3.8125 59.078125 12.03125 
Q 65.1875 20.265625 65.1875 36.375 
Q 65.1875 52.546875 59.078125 60.765625 
Q 52.984375 69 41.015625 69 
Q 29 69 22.890625 60.765625 
Q 16.796875 52.546875 16.796875 36.375 
Q 16.796875 20.265625 22.890625 12.03125 
Q 29 3.8125 41.015625 3.8125 
z
M 41.015625 -1.421875 
Q 33.59375 -1.421875 27.359375 1.015625 
Q 21.140625 3.46875 16.40625 8.203125 
Q 10.9375 13.671875 8.265625 20.609375 
Q 5.609375 27.546875 5.609375 36.375 
Q 5.609375 45.21875 8.265625 52.171875 
Q 10.9375 59.125 16.40625 64.59375 
Q 21.1875 69.390625 27.34375 71.796875 
Q 33.5 74.21875 41.015625 74.21875 
Q 56.890625 74.21875 66.65625 63.8125 
Q 76.421875 53.421875 76.421875 36.375 
Q 76.421875 27.640625 73.734375 20.625 
Q 71.046875 13.625 65.578125 8.203125 
Q 60.796875 3.421875 54.640625 1 
Q 48.484375 -1.421875 41.015625 -1.421875 
z
" id="DejaVuSerif-79"/>
     <path d="M 35.40625 51.90625 
L 52.203125 51.90625 
L 52.203125 5.171875 
L 60.6875 5.171875 
L 60.6875 0 
L 43.21875 0 
L 43.21875 9.1875 
Q 40.71875 4 36.765625 1.28125 
Q 32.8125 -1.421875 27.59375 -1.421875 
Q 18.953125 -1.421875 14.875 3.484375 
Q 10.796875 8.40625 10.796875 18.890625 
L 10.796875 46.6875 
L 2.6875 46.6875 
L 2.6875 51.90625 
L 19.828125 51.90625 
L 19.828125 21.6875 
Q 19.828125 12.203125 22.140625 8.6875 
Q 24.46875 5.171875 30.421875 5.171875 
Q 36.671875 5.171875 39.9375 9.765625 
Q 43.21875 14.359375 43.21875 23.09375 
L 43.21875 46.6875 
L 35.40625 46.6875 
z
" id="DejaVuSerif-117"/>
     <path d="M 10.796875 46.6875 
L 2.875 46.6875 
L 2.875 51.90625 
L 10.796875 51.90625 
L 10.796875 68.015625 
L 19.828125 68.015625 
L 19.828125 51.90625 
L 36.71875 51.90625 
L 36.71875 46.6875 
L 19.828125 46.6875 
L 19.828125 13.71875 
Q 19.828125 7.125 21.09375 5.265625 
Q 22.359375 3.421875 25.78125 3.421875 
Q 29.296875 3.421875 30.90625 5.484375 
Q 32.515625 7.5625 32.625 12.203125 
L 39.40625 12.203125 
Q 39.015625 5.125 35.546875 1.84375 
Q 32.078125 -1.421875 25 -1.421875 
Q 17.234375 -1.421875 14.015625 2.015625 
Q 10.796875 5.46875 10.796875 13.71875 
z
" id="DejaVuSerif-116"/>
     <path d="M 5.609375 2.875 
L 5.609375 14.984375 
L 10.796875 14.984375 
Q 10.984375 9.1875 14.421875 6.296875 
Q 17.875 3.421875 24.609375 3.421875 
Q 30.671875 3.421875 33.84375 5.6875 
Q 37.015625 7.953125 37.015625 12.3125 
Q 37.015625 15.71875 34.6875 17.8125 
Q 32.375 19.921875 24.90625 22.3125 
L 18.40625 24.515625 
Q 11.71875 26.65625 8.71875 29.875 
Q 5.71875 33.109375 5.71875 38.09375 
Q 5.71875 45.21875 10.9375 49.265625 
Q 16.15625 53.328125 25.390625 53.328125 
Q 29.5 53.328125 34.03125 52.25 
Q 38.578125 51.171875 43.40625 49.125 
L 43.40625 37.796875 
L 38.234375 37.796875 
Q 38.03125 42.828125 34.703125 45.65625 
Q 31.390625 48.484375 25.6875 48.484375 
Q 20.015625 48.484375 17.109375 46.484375 
Q 14.203125 44.484375 14.203125 40.484375 
Q 14.203125 37.203125 16.40625 35.21875 
Q 18.609375 33.25 25.203125 31.203125 
L 32.328125 29 
Q 39.703125 26.703125 42.9375 23.265625 
Q 46.1875 19.828125 46.1875 14.40625 
Q 46.1875 7.03125 40.546875 2.796875 
Q 34.90625 -1.421875 25 -1.421875 
Q 19.96875 -1.421875 15.1875 -0.34375 
Q 10.40625 0.734375 5.609375 2.875 
z
" id="DejaVuSerif-115"/>
     <path d="M 9.71875 68.015625 
Q 9.71875 70.265625 11.34375 71.921875 
Q 12.984375 73.578125 15.28125 73.578125 
Q 17.53125 73.578125 19.15625 71.921875 
Q 20.796875 70.265625 20.796875 68.015625 
Q 20.796875 65.71875 19.1875 64.109375 
Q 17.578125 62.5 15.28125 62.5 
Q 12.984375 62.5 11.34375 64.109375 
Q 9.71875 65.71875 9.71875 68.015625 
z
M 21.1875 5.171875 
L 29.6875 5.171875 
L 29.6875 0 
L 3.609375 0 
L 3.609375 5.171875 
L 12.203125 5.171875 
L 12.203125 46.6875 
L 3.609375 46.6875 
L 3.609375 51.90625 
L 21.1875 51.90625 
z
" id="DejaVuSerif-105"/>
     <path d="M 52.484375 5.171875 
L 61.078125 5.171875 
L 61.078125 0 
L 43.5 0 
L 43.5 8.109375 
Q 40.875 3.21875 36.796875 0.890625 
Q 32.71875 -1.421875 26.703125 -1.421875 
Q 17.140625 -1.421875 11.0625 6.171875 
Q 4.984375 13.765625 4.984375 25.984375 
Q 4.984375 38.1875 11.03125 45.75 
Q 17.09375 53.328125 26.703125 53.328125 
Q 32.71875 53.328125 36.796875 51 
Q 40.875 48.6875 43.5 43.796875 
L 43.5 70.796875 
L 35.015625 70.796875 
L 35.015625 75.984375 
L 52.484375 75.984375 
z
M 43.5 23.390625 
L 43.5 28.515625 
Q 43.5 37.84375 39.90625 42.765625 
Q 36.328125 47.703125 29.5 47.703125 
Q 22.5625 47.703125 19.015625 42.234375 
Q 15.484375 36.765625 15.484375 25.984375 
Q 15.484375 15.234375 19.015625 9.71875 
Q 22.5625 4.203125 29.5 4.203125 
Q 36.328125 4.203125 39.90625 9.109375 
Q 43.5 14.015625 43.5 23.390625 
z
" id="DejaVuSerif-100"/>
     <path d="M 54.203125 25 
L 15.484375 25 
L 15.484375 24.609375 
Q 15.484375 14.109375 19.4375 8.765625 
Q 23.390625 3.421875 31.109375 3.421875 
Q 37.015625 3.421875 40.796875 6.515625 
Q 44.578125 9.625 46.09375 15.71875 
L 53.328125 15.71875 
Q 51.171875 7.171875 45.375 2.875 
Q 39.59375 -1.421875 30.171875 -1.421875 
Q 18.796875 -1.421875 11.890625 6.078125 
Q 4.984375 13.578125 4.984375 25.984375 
Q 4.984375 38.28125 11.765625 45.796875 
Q 18.5625 53.328125 29.59375 53.328125 
Q 41.359375 53.328125 47.65625 46.0625 
Q 53.953125 38.8125 54.203125 25 
z
M 43.609375 30.171875 
Q 43.3125 39.265625 39.765625 43.875 
Q 36.234375 48.484375 29.59375 48.484375 
Q 23.390625 48.484375 19.828125 43.84375 
Q 16.265625 39.203125 15.484375 30.171875 
z
" id="DejaVuSerif-101"/>
    </defs>
    <g style="fill:#262626;" transform="translate(32.258356 6.8187)scale(0.08 -0.08)">
     <use xlink:href="#DejaVuSerif-79"/>
     <use x="81.982422" xlink:href="#DejaVuSerif-117"/>
     <use x="146.386719" xlink:href="#DejaVuSerif-116"/>
     <use x="186.572266" xlink:href="#DejaVuSerif-115"/>
     <use x="237.890625" xlink:href="#DejaVuSerif-105"/>
     <use x="269.873047" xlink:href="#DejaVuSerif-100"/>
     <use x="333.886719" xlink:href="#DejaVuSerif-101"/>
    </g>
   </g>
   <g id="text_2">
    <!-- Inside -->
    <defs>
     <path d="M 24.703125 5.171875 
L 33.984375 5.171875 
L 33.984375 0 
L 5.515625 0 
L 5.515625 5.171875 
L 14.796875 5.171875 
L 14.796875 67.671875 
L 5.515625 67.671875 
L 5.515625 72.90625 
L 33.984375 72.90625 
L 33.984375 67.671875 
L 24.703125 67.671875 
z
" id="DejaVuSerif-73"/>
     <path d="M 4.109375 0 
L 4.109375 5.171875 
L 12.203125 5.171875 
L 12.203125 46.6875 
L 3.609375 46.6875 
L 3.609375 51.90625 
L 21.1875 51.90625 
L 21.1875 42.671875 
Q 23.6875 47.953125 27.65625 50.640625 
Q 31.640625 53.328125 36.921875 53.328125 
Q 45.515625 53.328125 49.5625 48.390625 
Q 53.609375 43.453125 53.609375 33.015625 
L 53.609375 5.171875 
L 61.625 5.171875 
L 61.625 0 
L 36.8125 0 
L 36.8125 5.171875 
L 44.578125 5.171875 
L 44.578125 30.171875 
Q 44.578125 39.703125 42.234375 43.234375 
Q 39.890625 46.78125 33.984375 46.78125 
Q 27.734375 46.78125 24.453125 42.203125 
Q 21.1875 37.640625 21.1875 28.90625 
L 21.1875 5.171875 
L 29 5.171875 
L 29 0 
z
" id="DejaVuSerif-110"/>
    </defs>
    <g style="fill:#262626;" transform="translate(79.597582 6.8187)scale(0.08 -0.08)">
     <use xlink:href="#DejaVuSerif-73"/>
     <use x="39.501953" xlink:href="#DejaVuSerif-110"/>
     <use x="103.90625" xlink:href="#DejaVuSerif-115"/>
     <use x="155.224609" xlink:href="#DejaVuSerif-105"/>
     <use x="187.207031" xlink:href="#DejaVuSerif-100"/>
     <use x="251.220703" xlink:href="#DejaVuSerif-101"/>
    </g>
   </g>
  </g>
  <g id="axes_2">
   <g id="patch_3">
    <path d="M 29.478 87.144 
L 66.061636 87.144 
L 66.061636 7.614 
L 29.478 7.614 
z
" style="fill:#ffffff;"/>
   </g>
   <g id="matplotlib.axis_1">
    <g id="xtick_1">
     <g id="line2d_1">
      <defs>
       <path d="M 0 0 
L 0 3.5 
" id="mef4ce27ca2" style="stroke:#262626;stroke-width:0.8;"/>
      </defs>
      <g>
       <use style="fill:#262626;stroke:#262626;stroke-width:0.8;" x="37.520897" xlink:href="#mef4ce27ca2" y="87.144"/>
      </g>
     </g>
     <g id="text_3">
      <!-- $10^7$ -->
      <defs>
       <path d="M 12.40625 8.296875 
L 28.515625 8.296875 
L 28.515625 63.921875 
L 10.984375 60.40625 
L 10.984375 69.390625 
L 28.421875 72.90625 
L 38.28125 72.90625 
L 38.28125 8.296875 
L 54.390625 8.296875 
L 54.390625 0 
L 12.40625 0 
z
" id="DejaVuSans-49"/>
       <path d="M 31.78125 66.40625 
Q 24.171875 66.40625 20.328125 58.90625 
Q 16.5 51.421875 16.5 36.375 
Q 16.5 21.390625 20.328125 13.890625 
Q 24.171875 6.390625 31.78125 6.390625 
Q 39.453125 6.390625 43.28125 13.890625 
Q 47.125 21.390625 47.125 36.375 
Q 47.125 51.421875 43.28125 58.90625 
Q 39.453125 66.40625 31.78125 66.40625 
z
M 31.78125 74.21875 
Q 44.046875 74.21875 50.515625 64.515625 
Q 56.984375 54.828125 56.984375 36.375 
Q 56.984375 17.96875 50.515625 8.265625 
Q 44.046875 -1.421875 31.78125 -1.421875 
Q 19.53125 -1.421875 13.0625 8.265625 
Q 6.59375 17.96875 6.59375 36.375 
Q 6.59375 54.828125 13.0625 64.515625 
Q 19.53125 74.21875 31.78125 74.21875 
z
" id="DejaVuSans-48"/>
       <path d="M 8.203125 72.90625 
L 55.078125 72.90625 
L 55.078125 68.703125 
L 28.609375 0 
L 18.3125 0 
L 43.21875 64.59375 
L 8.203125 64.59375 
z
" id="DejaVuSans-55"/>
      </defs>
      <g style="fill:#262626;" transform="translate(30.480897 100.72275)scale(0.08 -0.08)">
       <use transform="translate(0 0.684375)" xlink:href="#DejaVuSans-49"/>
       <use transform="translate(63.623047 0.684375)" xlink:href="#DejaVuSans-48"/>
       <use transform="translate(128.203125 38.965625)scale(0.7)" xlink:href="#DejaVuSans-55"/>
      </g>
     </g>
    </g>
    <g id="xtick_2">
     <g id="line2d_2">
      <g>
       <use style="fill:#262626;stroke:#262626;stroke-width:0.8;" x="66.061636" xlink:href="#mef4ce27ca2" y="87.144"/>
      </g>
     </g>
    </g>
   </g>
   <g id="matplotlib.axis_2">
    <g id="ytick_1">
     <g id="line2d_3">
      <defs>
       <path d="M 0 0 
L -3.5 0 
" id="m6602d5489b" style="stroke:#262626;stroke-width:0.8;"/>
      </defs>
      <g>
       <use style="fill:#262626;stroke:#262626;stroke-width:0.8;" x="29.478" xlink:href="#m6602d5489b" y="83.529"/>
      </g>
     </g>
     <g id="text_4">
      <!-- 0 -->
      <defs>
       <path d="M 31.78125 3.421875 
Q 39.265625 3.421875 42.96875 11.625 
Q 46.6875 19.828125 46.6875 36.375 
Q 46.6875 52.984375 42.96875 61.1875 
Q 39.265625 69.390625 31.78125 69.390625 
Q 24.3125 69.390625 20.59375 61.1875 
Q 16.890625 52.984375 16.890625 36.375 
Q 16.890625 19.828125 20.59375 11.625 
Q 24.3125 3.421875 31.78125 3.421875 
z
M 31.78125 -1.421875 
Q 19.921875 -1.421875 13.25 8.53125 
Q 6.59375 18.5 6.59375 36.375 
Q 6.59375 54.296875 13.25 64.25 
Q 19.921875 74.21875 31.78125 74.21875 
Q 43.703125 74.21875 50.34375 64.25 
Q 56.984375 54.296875 56.984375 36.375 
Q 56.984375 18.5 50.34375 8.53125 
Q 43.703125 -1.421875 31.78125 -1.421875 
z
" id="DejaVuSerif-48"/>
      </defs>
      <g style="fill:#262626;" transform="translate(16.888 86.568375)scale(0.08 -0.08)">
       <use xlink:href="#DejaVuSerif-48"/>
      </g>
     </g>
    </g>
    <g id="ytick_2">
     <g id="line2d_4">
      <g>
       <use style="fill:#262626;stroke:#262626;stroke-width:0.8;" x="29.478" xlink:href="#m6602d5489b" y="47.379"/>
      </g>
     </g>
     <g id="text_5">
      <!-- 20 -->
      <defs>
       <path d="M 12.796875 55.515625 
L 7.328125 55.515625 
L 7.328125 68.5 
Q 12.546875 71.296875 17.84375 72.75 
Q 23.140625 74.21875 28.21875 74.21875 
Q 39.59375 74.21875 46.1875 68.703125 
Q 52.78125 63.1875 52.78125 53.71875 
Q 52.78125 43.015625 37.84375 28.125 
Q 36.671875 27 36.078125 26.421875 
L 17.671875 8.015625 
L 48.09375 8.015625 
L 48.09375 17 
L 53.8125 17 
L 53.8125 0 
L 6.78125 0 
L 6.78125 5.328125 
L 28.90625 27.390625 
Q 36.234375 34.71875 39.359375 40.84375 
Q 42.484375 46.96875 42.484375 53.71875 
Q 42.484375 61.078125 38.640625 65.234375 
Q 34.8125 69.390625 28.078125 69.390625 
Q 21.09375 69.390625 17.28125 65.921875 
Q 13.484375 62.453125 12.796875 55.515625 
z
" id="DejaVuSerif-50"/>
      </defs>
      <g style="fill:#262626;" transform="translate(11.798 50.418375)scale(0.08 -0.08)">
       <use xlink:href="#DejaVuSerif-50"/>
       <use x="63.623047" xlink:href="#DejaVuSerif-48"/>
      </g>
     </g>
    </g>
    <g id="ytick_3">
     <g id="line2d_5">
      <g>
       <use style="fill:#262626;stroke:#262626;stroke-width:0.8;" x="29.478" xlink:href="#m6602d5489b" y="11.229"/>
      </g>
     </g>
     <g id="text_6">
      <!-- 40 -->
      <defs>
       <path d="M 34.90625 24.703125 
L 34.90625 63.484375 
L 10.015625 24.703125 
z
M 56.390625 0 
L 23.1875 0 
L 23.1875 5.171875 
L 34.90625 5.171875 
L 34.90625 19.484375 
L 3.078125 19.484375 
L 3.078125 24.8125 
L 35.015625 74.21875 
L 44.671875 74.21875 
L 44.671875 24.703125 
L 58.59375 24.703125 
L 58.59375 19.484375 
L 44.671875 19.484375 
L 44.671875 5.171875 
L 56.390625 5.171875 
z
" id="DejaVuSerif-52"/>
      </defs>
      <g style="fill:#262626;" transform="translate(11.798 14.268375)scale(0.08 -0.08)">
       <use xlink:href="#DejaVuSerif-52"/>
       <use x="63.623047" xlink:href="#DejaVuSerif-48"/>
      </g>
     </g>
    </g>
   </g>
   <g id="line2d_6">
    <path d="M 64.87794 88.327697 
L 67.245333 85.960303 
" style="fill:none;stroke:#000000;stroke-linecap:round;stroke-width:0.8;"/>
   </g>
   <g id="line2d_7">
    <path clip-path="url(#p3f0e781cf3)" d="M 96.364195 83.529 
L 96.369903 82.806 
L 96.375326 82.083 
L 96.38132 81.36 
L 96.387028 80.637 
L 96.393021 79.914 
L 96.39873 79.191 
L 96.405009 78.468 
L 96.411002 77.745 
L 96.417281 77.022 
L 96.42356 76.299 
L 96.430124 75.576 
L 96.436403 74.853 
L 96.443253 74.13 
L 96.449817 73.407 
L 96.456667 72.684 
L 96.463517 71.961 
L 96.470652 71.238 
L 96.477787 70.515 
L 96.484923 69.792 
L 96.492343 69.069 
L 96.499764 68.346 
L 96.50747 67.623 
L 96.515176 66.9 
L 96.522882 66.177 
L 96.530873 65.454 
L 96.53915 64.731 
L 96.547427 64.008 
L 96.555704 63.285 
L 96.564266 62.562 
L 96.573113 61.839 
L 96.581961 61.116 
L 96.591094 60.393 
L 96.600227 59.67 
L 96.609646 58.947 
L 96.619349 58.224 
L 96.629053 57.501 
L 96.639043 56.778 
L 96.649317 56.055 
L 96.659592 55.332 
L 96.670437 54.609 
L 96.681283 53.886 
L 96.692414 53.163 
L 96.70383 52.44 
L 96.715246 51.717 
L 96.727233 50.994 
L 96.739506 50.271 
L 96.752064 49.548 
L 96.764622 48.825 
L 96.777751 48.102 
L 96.791165 47.379 
L 96.80515 46.656 
L 96.819135 45.933 
L 96.83369 45.21 
L 96.848817 44.487 
L 96.864229 43.764 
L 96.879926 43.041 
L 96.896195 42.318 
L 96.913034 41.595 
L 96.930444 40.872 
L 96.948424 40.149 
L 96.96669 39.426 
L 96.985813 38.703 
L 97.005506 37.98 
L 97.026055 37.257 
L 97.047175 36.534 
L 97.069152 35.811 
L 97.091984 35.088 
L 97.115958 34.365 
L 97.140503 33.642 
L 97.16619 32.919 
L 97.193304 32.196 
L 97.221274 31.473 
L 97.250671 30.75 
L 97.28178 30.027 
L 97.314031 29.304 
L 97.34828 28.581 
L 97.384241 27.858 
L 97.422486 27.135 
L 97.462728 26.412 
L 97.505825 25.689 
L 97.55149 24.966 
L 97.600295 24.243 
L 97.653095 23.52 
L 97.709606 22.797 
L 97.771254 22.074 
L 97.838039 21.351 
L 97.911389 20.628 
L 97.992159 19.905 
L 98.082062 19.182 
L 98.183097 18.459 
L 98.29783 17.736 
L 98.430259 17.013 
L 98.585236 16.29 
L 98.771607 15.567 
L 99.00193 14.844 
L 99.299039 14.121 
L 99.708884 13.398 
L 100.340206 12.675 
L 101.57973 11.952 
L 96.640184 11.229 
" style="fill:none;stroke:#8dd35f;stroke-dasharray:3.7,1.6;stroke-dashoffset:0;"/>
   </g>
   <g id="line2d_8">
    <path clip-path="url(#p3f0e781cf3)" d="M 37.520897 83.529 
L 37.520897 82.806 
L 37.520897 82.083 
L 37.520897 81.36 
L 37.520897 80.637 
L 37.520897 79.914 
L 37.520897 79.191 
L 37.520897 78.468 
L 37.520897 77.745 
L 37.520897 77.022 
L 37.520897 76.299 
L 37.520897 75.576 
L 37.520897 74.853 
L 37.520897 74.13 
L 37.520897 73.407 
L 37.520897 72.684 
L 37.520897 71.961 
L 37.520897 71.238 
L 37.520897 70.515 
L 37.520897 69.792 
L 37.520897 69.069 
L 37.520897 68.346 
L 37.520897 67.623 
L 37.520897 66.9 
L 37.520897 66.177 
L 37.520897 65.454 
L 37.520897 64.731 
L 37.520897 64.008 
L 37.520897 63.285 
L 37.520897 62.562 
L 37.520897 61.839 
L 37.520897 61.116 
L 37.520897 60.393 
L 37.520897 59.67 
L 37.520897 58.947 
L 37.520897 58.224 
L 37.520897 57.501 
L 37.520897 56.778 
L 37.520897 56.055 
L 37.520897 55.332 
L 37.520897 54.609 
L 37.520897 53.886 
L 37.520897 53.163 
L 37.520897 52.44 
L 37.520897 51.717 
L 37.520897 50.994 
L 37.520897 50.271 
L 37.520897 49.548 
L 37.520897 48.825 
L 37.520897 48.102 
L 37.520897 47.379 
L 37.520897 46.656 
L 37.520897 45.933 
L 37.520897 45.21 
L 37.520897 44.487 
L 37.520897 43.764 
L 37.520897 43.041 
L 37.520897 42.318 
L 37.520897 41.595 
L 37.520897 40.872 
L 37.520897 40.149 
L 37.520897 39.426 
L 37.520897 38.703 
L 37.520897 37.98 
L 37.520897 37.257 
L 37.520897 36.534 
L 37.520897 35.811 
L 37.520897 35.088 
L 37.520897 34.365 
L 37.520897 33.642 
L 37.520897 32.919 
L 37.520897 32.196 
L 37.520897 31.473 
L 37.520897 30.75 
L 37.520897 30.027 
L 37.520897 29.304 
L 37.520897 28.581 
L 37.520897 27.858 
L 37.520897 27.135 
L 37.520897 26.412 
L 37.520897 25.689 
L 37.520897 24.966 
L 37.520897 24.243 
L 37.520897 23.52 
L 37.520897 22.797 
L 37.520897 22.074 
L 37.520897 21.351 
L 37.520897 20.628 
L 37.520897 19.905 
L 37.520897 19.182 
L 37.520897 18.459 
L 37.520897 17.736 
L 37.520897 17.013 
L 37.520897 16.29 
L 37.520897 15.567 
L 37.520897 14.844 
L 37.520897 14.121 
L 37.520897 13.398 
L 37.520897 12.675 
L 37.520897 11.952 
L 40.910795 11.229 
" style="fill:none;stroke:#8dd35f;stroke-dasharray:3.7,1.6;stroke-dashoffset:0;"/>
   </g>
   <g id="line2d_9">
    <path clip-path="url(#p3f0e781cf3)" d="M 96.364195 83.529 
L 96.369903 82.806 
L 96.375326 82.083 
L 96.38132 81.36 
L 96.387028 80.637 
L 96.393021 79.914 
L 96.39873 79.191 
L 96.405009 78.468 
L 96.411002 77.745 
L 96.417281 77.022 
L 96.42356 76.299 
L 96.430124 75.576 
L 96.436403 74.853 
L 96.443253 74.13 
L 96.449817 73.407 
L 96.456667 72.684 
L 96.463517 71.961 
L 96.470652 71.238 
L 96.477787 70.515 
L 96.484923 69.792 
L 96.492343 69.069 
L 96.499764 68.346 
L 96.50747 67.623 
L 96.515176 66.9 
L 96.522882 66.177 
L 96.530873 65.454 
L 96.53915 64.731 
L 96.547427 64.008 
L 96.555704 63.285 
L 96.564266 62.562 
L 96.573113 61.839 
L 96.581961 61.116 
L 96.591094 60.393 
L 96.600227 59.67 
L 96.609646 58.947 
L 96.619349 58.224 
L 96.629053 57.501 
L 96.639043 56.778 
L 96.649317 56.055 
L 96.659592 55.332 
L 96.670437 54.609 
L 96.681283 53.886 
L 96.692414 53.163 
L 96.70383 52.44 
L 96.715246 51.717 
L 96.727233 50.994 
L 96.739506 50.271 
L 96.752064 49.548 
L 96.764622 48.825 
L 96.777751 48.102 
L 96.791165 47.379 
L 96.80515 46.656 
L 96.819135 45.933 
L 96.83369 45.21 
L 96.848817 44.487 
L 96.864229 43.764 
L 96.879926 43.041 
L 96.896195 42.318 
L 96.913034 41.595 
L 96.930444 40.872 
L 96.948424 40.149 
L 96.96669 39.426 
L 96.985813 38.703 
L 97.005506 37.98 
L 97.026055 37.257 
L 97.047175 36.534 
L 97.069152 35.811 
L 97.091984 35.088 
L 97.115958 34.365 
L 97.140503 33.642 
L 97.16619 32.919 
L 97.193304 32.196 
L 97.221274 31.473 
L 97.250671 30.75 
L 97.28178 30.027 
L 97.314031 29.304 
L 97.34828 28.581 
L 97.384241 27.858 
L 97.422486 27.135 
L 97.462728 26.412 
L 97.505825 25.689 
L 97.55149 24.966 
L 97.600295 24.243 
L 97.653095 23.52 
L 97.709606 22.797 
L 97.771254 22.074 
L 97.838039 21.351 
L 97.911389 20.628 
L 97.992159 19.905 
L 98.082062 19.182 
L 98.183097 18.459 
L 98.29783 17.736 
L 98.430259 17.013 
L 98.585236 16.29 
L 98.771607 15.567 
L 99.00193 14.844 
L 99.299039 14.121 
L 99.708884 13.398 
L 100.340206 12.675 
L 101.57973 11.952 
L 96.640184 11.229 
" style="fill:none;stroke:#447821;stroke-linecap:round;stroke-width:2;"/>
   </g>
   <g id="line2d_10">
    <path clip-path="url(#p3f0e781cf3)" d="M 37.520897 83.529 
L 37.520897 82.806 
L 37.520897 82.083 
L 37.520897 81.36 
L 37.520897 80.637 
L 37.520897 79.914 
L 37.520897 79.191 
L 37.520897 78.468 
L 37.520897 77.745 
L 37.520897 77.022 
L 37.520897 76.299 
L 37.520897 75.576 
L 37.520897 74.853 
L 37.520897 74.13 
L 37.520897 73.407 
L 37.520897 72.684 
L 37.520897 71.961 
L 37.520897 71.238 
L 37.520897 70.515 
L 37.520897 69.792 
L 37.520897 69.069 
L 37.520897 68.346 
L 37.520897 67.623 
L 37.520897 66.9 
L 37.520897 66.177 
L 37.520897 65.454 
L 37.520897 64.731 
L 37.520897 64.008 
L 37.520897 63.285 
L 37.520897 62.562 
L 37.520897 61.839 
L 37.520897 61.116 
L 37.520897 60.393 
L 37.520897 59.67 
L 37.520897 58.947 
L 37.520897 58.224 
L 37.520897 57.501 
L 37.520897 56.778 
L 37.520897 56.055 
L 37.520897 55.332 
L 37.520897 54.609 
L 37.520897 53.886 
L 37.520897 53.163 
L 37.520897 52.44 
L 37.520897 51.717 
L 37.520897 50.994 
L 37.520897 50.271 
L 37.520897 49.548 
L 37.520897 48.825 
L 37.520897 48.102 
L 37.520897 47.379 
L 37.520897 46.656 
L 37.520897 45.933 
L 37.520897 45.21 
L 37.520897 44.487 
L 37.520897 43.764 
L 37.520897 43.041 
L 37.520897 42.318 
L 37.520897 41.595 
L 37.520897 40.872 
L 37.520897 40.149 
L 37.520897 39.426 
L 37.520897 38.703 
L 37.520897 37.98 
L 37.520897 37.257 
L 37.520897 36.534 
L 37.520897 35.811 
L 37.520897 35.088 
L 37.520897 34.365 
L 37.520897 33.642 
L 37.520897 32.919 
L 37.520897 32.196 
L 37.520897 31.473 
L 37.520897 30.75 
L 37.520897 30.027 
L 37.520897 29.304 
L 37.520897 28.581 
L 37.520897 27.858 
L 37.520897 27.135 
L 37.520897 26.412 
L 37.520897 25.689 
L 37.520897 24.966 
L 37.520897 24.243 
L 37.520897 23.52 
L 37.520897 22.797 
L 37.520897 22.074 
L 37.520897 21.351 
L 37.520897 20.628 
L 37.520897 19.905 
L 37.520897 19.182 
L 37.520897 18.459 
L 37.520897 17.736 
L 37.520897 17.013 
L 37.520897 16.29 
L 37.520897 15.567 
L 37.520897 14.844 
L 37.520897 14.121 
L 37.520897 13.398 
L 37.520897 12.675 
L 37.520897 11.952 
L 40.910795 11.229 
" style="fill:none;stroke:#447821;stroke-linecap:round;stroke-width:2;"/>
   </g>
   <g id="patch_4">
    <path d="M 29.478 87.144 
L 29.478 7.614 
" style="fill:none;stroke:#262626;stroke-linecap:square;stroke-linejoin:miter;stroke-width:0.8;"/>
   </g>
   <g id="patch_5">
    <path d="M 29.478 87.144 
L 66.061636 87.144 
" style="fill:none;stroke:#262626;stroke-linecap:square;stroke-linejoin:miter;stroke-width:0.8;"/>
   </g>
  </g>
  <g id="axes_3">
   <g id="patch_6">
    <path d="M 73.378364 87.144 
L 109.962 87.144 
L 109.962 7.614 
L 73.378364 7.614 
z
" style="fill:#ffffff;"/>
   </g>
   <g id="matplotlib.axis_3">
    <g id="xtick_3">
     <g id="line2d_11">
      <g>
       <use style="fill:#262626;stroke:#262626;stroke-width:0.8;" x="73.378364" xlink:href="#mef4ce27ca2" y="87.144"/>
      </g>
     </g>
     <g id="text_7">
      <!-- 0 -->
      <g style="fill:#262626;" transform="translate(70.833364 100.72275)scale(0.08 -0.08)">
       <use xlink:href="#DejaVuSerif-48"/>
      </g>
     </g>
    </g>
    <g id="xtick_4">
     <g id="line2d_12">
      <g>
       <use style="fill:#262626;stroke:#262626;stroke-width:0.8;" x="101.919103" xlink:href="#mef4ce27ca2" y="87.144"/>
      </g>
     </g>
     <g id="text_8">
      <!-- $10^7$ -->
      <g style="fill:#262626;" transform="translate(94.879103 100.72275)scale(0.08 -0.08)">
       <use transform="translate(0 0.684375)" xlink:href="#DejaVuSans-49"/>
       <use transform="translate(63.623047 0.684375)" xlink:href="#DejaVuSans-48"/>
       <use transform="translate(128.203125 38.965625)scale(0.7)" xlink:href="#DejaVuSans-55"/>
      </g>
     </g>
    </g>
   </g>
   <g id="matplotlib.axis_4">
    <g id="ytick_4"/>
    <g id="ytick_5"/>
    <g id="ytick_6"/>
   </g>
   <g id="line2d_13">
    <path d="M 72.194667 88.327697 
L 74.56206 85.960303 
" style="fill:none;stroke:#000000;stroke-linecap:round;stroke-width:0.8;"/>
   </g>
   <g id="line2d_14">
    <path clip-path="url(#pb6a0dd3dd3)" d="M 103.680923 83.529 
L 103.686631 82.806 
L 103.692053 82.083 
L 103.698047 81.36 
L 103.703755 80.637 
L 103.709749 79.914 
L 103.715457 79.191 
L 103.721736 78.468 
L 103.727729 77.745 
L 103.734008 77.022 
L 103.740287 76.299 
L 103.746852 75.576 
L 103.753131 74.853 
L 103.75998 74.13 
L 103.766545 73.407 
L 103.773395 72.684 
L 103.780244 71.961 
L 103.787379 71.238 
L 103.794515 70.515 
L 103.80165 69.792 
L 103.80907 69.069 
L 103.816491 68.346 
L 103.824197 67.623 
L 103.831903 66.9 
L 103.839609 66.177 
L 103.8476 65.454 
L 103.855877 64.731 
L 103.864154 64.008 
L 103.872431 63.285 
L 103.880993 62.562 
L 103.889841 61.839 
L 103.898688 61.116 
L 103.907821 60.393 
L 103.916954 59.67 
L 103.926373 58.947 
L 103.936077 58.224 
L 103.945781 57.501 
L 103.95577 56.778 
L 103.966045 56.055 
L 103.976319 55.332 
L 103.987165 54.609 
L 103.99801 53.886 
L 104.009141 53.163 
L 104.020557 52.44 
L 104.031974 51.717 
L 104.043961 50.994 
L 104.056233 50.271 
L 104.068791 49.548 
L 104.081349 48.825 
L 104.094478 48.102 
L 104.107892 47.379 
L 104.121877 46.656 
L 104.135862 45.933 
L 104.150418 45.21 
L 104.165544 44.487 
L 104.180956 43.764 
L 104.196654 43.041 
L 104.212922 42.318 
L 104.229761 41.595 
L 104.247171 40.872 
L 104.265151 40.149 
L 104.283418 39.426 
L 104.30254 38.703 
L 104.322233 37.98 
L 104.342782 37.257 
L 104.363902 36.534 
L 104.385879 35.811 
L 104.408711 35.088 
L 104.432686 34.365 
L 104.457231 33.642 
L 104.482917 32.919 
L 104.510031 32.196 
L 104.538001 31.473 
L 104.567398 30.75 
L 104.598507 30.027 
L 104.630758 29.304 
L 104.665007 28.581 
L 104.700969 27.858 
L 104.739213 27.135 
L 104.779456 26.412 
L 104.822552 25.689 
L 104.868217 24.966 
L 104.917022 24.243 
L 104.969822 23.52 
L 105.026333 22.797 
L 105.087981 22.074 
L 105.154766 21.351 
L 105.228116 20.628 
L 105.308886 19.905 
L 105.39879 19.182 
L 105.499824 18.459 
L 105.614558 17.736 
L 105.746987 17.013 
L 105.901963 16.29 
L 106.088334 15.567 
L 106.318658 14.844 
L 106.615767 14.121 
L 107.025612 13.398 
L 107.656933 12.675 
L 108.896457 11.952 
L 103.956911 11.229 
" style="fill:none;stroke:#8dd35f;stroke-dasharray:3.7,1.6;stroke-dashoffset:0;"/>
   </g>
   <g id="line2d_15">
    <path clip-path="url(#pb6a0dd3dd3)" d="M 44.837625 83.529 
L 44.837625 82.806 
L 44.837625 82.083 
L 44.837625 81.36 
L 44.837625 80.637 
L 44.837625 79.914 
L 44.837625 79.191 
L 44.837625 78.468 
L 44.837625 77.745 
L 44.837625 77.022 
L 44.837625 76.299 
L 44.837625 75.576 
L 44.837625 74.853 
L 44.837625 74.13 
L 44.837625 73.407 
L 44.837625 72.684 
L 44.837625 71.961 
L 44.837625 71.238 
L 44.837625 70.515 
L 44.837625 69.792 
L 44.837625 69.069 
L 44.837625 68.346 
L 44.837625 67.623 
L 44.837625 66.9 
L 44.837625 66.177 
L 44.837625 65.454 
L 44.837625 64.731 
L 44.837625 64.008 
L 44.837625 63.285 
L 44.837625 62.562 
L 44.837625 61.839 
L 44.837625 61.116 
L 44.837625 60.393 
L 44.837625 59.67 
L 44.837625 58.947 
L 44.837625 58.224 
L 44.837625 57.501 
L 44.837625 56.778 
L 44.837625 56.055 
L 44.837625 55.332 
L 44.837625 54.609 
L 44.837625 53.886 
L 44.837625 53.163 
L 44.837625 52.44 
L 44.837625 51.717 
L 44.837625 50.994 
L 44.837625 50.271 
L 44.837625 49.548 
L 44.837625 48.825 
L 44.837625 48.102 
L 44.837625 47.379 
L 44.837625 46.656 
L 44.837625 45.933 
L 44.837625 45.21 
L 44.837625 44.487 
L 44.837625 43.764 
L 44.837625 43.041 
L 44.837625 42.318 
L 44.837625 41.595 
L 44.837625 40.872 
L 44.837625 40.149 
L 44.837625 39.426 
L 44.837625 38.703 
L 44.837625 37.98 
L 44.837625 37.257 
L 44.837625 36.534 
L 44.837625 35.811 
L 44.837625 35.088 
L 44.837625 34.365 
L 44.837625 33.642 
L 44.837625 32.919 
L 44.837625 32.196 
L 44.837625 31.473 
L 44.837625 30.75 
L 44.837625 30.027 
L 44.837625 29.304 
L 44.837625 28.581 
L 44.837625 27.858 
L 44.837625 27.135 
L 44.837625 26.412 
L 44.837625 25.689 
L 44.837625 24.966 
L 44.837625 24.243 
L 44.837625 23.52 
L 44.837625 22.797 
L 44.837625 22.074 
L 44.837625 21.351 
L 44.837625 20.628 
L 44.837625 19.905 
L 44.837625 19.182 
L 44.837625 18.459 
L 44.837625 17.736 
L 44.837625 17.013 
L 44.837625 16.29 
L 44.837625 15.567 
L 44.837625 14.844 
L 44.837625 14.121 
L 44.837625 13.398 
L 44.837625 12.675 
L 44.837625 11.952 
L 48.227522 11.229 
" style="fill:none;stroke:#8dd35f;stroke-dasharray:3.7,1.6;stroke-dashoffset:0;"/>
   </g>
   <g id="line2d_16">
    <path clip-path="url(#pb6a0dd3dd3)" d="M 103.680923 83.529 
L 103.686631 82.806 
L 103.692053 82.083 
L 103.698047 81.36 
L 103.703755 80.637 
L 103.709749 79.914 
L 103.715457 79.191 
L 103.721736 78.468 
L 103.727729 77.745 
L 103.734008 77.022 
L 103.740287 76.299 
L 103.746852 75.576 
L 103.753131 74.853 
L 103.75998 74.13 
L 103.766545 73.407 
L 103.773395 72.684 
L 103.780244 71.961 
L 103.787379 71.238 
L 103.794515 70.515 
L 103.80165 69.792 
L 103.80907 69.069 
L 103.816491 68.346 
L 103.824197 67.623 
L 103.831903 66.9 
L 103.839609 66.177 
L 103.8476 65.454 
L 103.855877 64.731 
L 103.864154 64.008 
L 103.872431 63.285 
L 103.880993 62.562 
L 103.889841 61.839 
L 103.898688 61.116 
L 103.907821 60.393 
L 103.916954 59.67 
L 103.926373 58.947 
L 103.936077 58.224 
L 103.945781 57.501 
L 103.95577 56.778 
L 103.966045 56.055 
L 103.976319 55.332 
L 103.987165 54.609 
L 103.99801 53.886 
L 104.009141 53.163 
L 104.020557 52.44 
L 104.031974 51.717 
L 104.043961 50.994 
L 104.056233 50.271 
L 104.068791 49.548 
L 104.081349 48.825 
L 104.094478 48.102 
L 104.107892 47.379 
L 104.121877 46.656 
L 104.135862 45.933 
L 104.150418 45.21 
L 104.165544 44.487 
L 104.180956 43.764 
L 104.196654 43.041 
L 104.212922 42.318 
L 104.229761 41.595 
L 104.247171 40.872 
L 104.265151 40.149 
L 104.283418 39.426 
L 104.30254 38.703 
L 104.322233 37.98 
L 104.342782 37.257 
L 104.363902 36.534 
L 104.385879 35.811 
L 104.408711 35.088 
L 104.432686 34.365 
L 104.457231 33.642 
L 104.482917 32.919 
L 104.510031 32.196 
L 104.538001 31.473 
L 104.567398 30.75 
L 104.598507 30.027 
L 104.630758 29.304 
L 104.665007 28.581 
L 104.700969 27.858 
L 104.739213 27.135 
L 104.779456 26.412 
L 104.822552 25.689 
L 104.868217 24.966 
L 104.917022 24.243 
L 104.969822 23.52 
L 105.026333 22.797 
L 105.087981 22.074 
L 105.154766 21.351 
L 105.228116 20.628 
L 105.308886 19.905 
L 105.39879 19.182 
L 105.499824 18.459 
L 105.614558 17.736 
L 105.746987 17.013 
L 105.901963 16.29 
L 106.088334 15.567 
L 106.318658 14.844 
L 106.615767 14.121 
L 107.025612 13.398 
L 107.656933 12.675 
L 108.896457 11.952 
L 103.956911 11.229 
" style="fill:none;stroke:#447821;stroke-linecap:round;stroke-width:2;"/>
   </g>
   <g id="line2d_17">
    <path clip-path="url(#pb6a0dd3dd3)" d="M 44.837625 83.529 
L 44.837625 82.806 
L 44.837625 82.083 
L 44.837625 81.36 
L 44.837625 80.637 
L 44.837625 79.914 
L 44.837625 79.191 
L 44.837625 78.468 
L 44.837625 77.745 
L 44.837625 77.022 
L 44.837625 76.299 
L 44.837625 75.576 
L 44.837625 74.853 
L 44.837625 74.13 
L 44.837625 73.407 
L 44.837625 72.684 
L 44.837625 71.961 
L 44.837625 71.238 
L 44.837625 70.515 
L 44.837625 69.792 
L 44.837625 69.069 
L 44.837625 68.346 
L 44.837625 67.623 
L 44.837625 66.9 
L 44.837625 66.177 
L 44.837625 65.454 
L 44.837625 64.731 
L 44.837625 64.008 
L 44.837625 63.285 
L 44.837625 62.562 
L 44.837625 61.839 
L 44.837625 61.116 
L 44.837625 60.393 
L 44.837625 59.67 
L 44.837625 58.947 
L 44.837625 58.224 
L 44.837625 57.501 
L 44.837625 56.778 
L 44.837625 56.055 
L 44.837625 55.332 
L 44.837625 54.609 
L 44.837625 53.886 
L 44.837625 53.163 
L 44.837625 52.44 
L 44.837625 51.717 
L 44.837625 50.994 
L 44.837625 50.271 
L 44.837625 49.548 
L 44.837625 48.825 
L 44.837625 48.102 
L 44.837625 47.379 
L 44.837625 46.656 
L 44.837625 45.933 
L 44.837625 45.21 
L 44.837625 44.487 
L 44.837625 43.764 
L 44.837625 43.041 
L 44.837625 42.318 
L 44.837625 41.595 
L 44.837625 40.872 
L 44.837625 40.149 
L 44.837625 39.426 
L 44.837625 38.703 
L 44.837625 37.98 
L 44.837625 37.257 
L 44.837625 36.534 
L 44.837625 35.811 
L 44.837625 35.088 
L 44.837625 34.365 
L 44.837625 33.642 
L 44.837625 32.919 
L 44.837625 32.196 
L 44.837625 31.473 
L 44.837625 30.75 
L 44.837625 30.027 
L 44.837625 29.304 
L 44.837625 28.581 
L 44.837625 27.858 
L 44.837625 27.135 
L 44.837625 26.412 
L 44.837625 25.689 
L 44.837625 24.966 
L 44.837625 24.243 
L 44.837625 23.52 
L 44.837625 22.797 
L 44.837625 22.074 
L 44.837625 21.351 
L 44.837625 20.628 
L 44.837625 19.905 
L 44.837625 19.182 
L 44.837625 18.459 
L 44.837625 17.736 
L 44.837625 17.013 
L 44.837625 16.29 
L 44.837625 15.567 
L 44.837625 14.844 
L 44.837625 14.121 
L 44.837625 13.398 
L 44.837625 12.675 
L 44.837625 11.952 
L 48.227522 11.229 
" style="fill:none;stroke:#447821;stroke-linecap:round;stroke-width:2;"/>
   </g>
   <g id="patch_7">
    <path d="M 73.378364 87.144 
L 109.962 87.144 
" style="fill:none;stroke:#262626;stroke-linecap:square;stroke-linejoin:miter;stroke-width:0.8;"/>
   </g>
  </g>
  <g id="axes_4">
   <g id="patch_8">
    <path d="M 29.478 87.144 
L 109.962 87.144 
L 109.962 7.614 
L 29.478 7.614 
z
" style="fill:none;"/>
   </g>
   <g id="matplotlib.axis_5">
    <g id="text_9">
     <!-- Bacterial density (mm$^{-2}$) -->
     <defs>
      <path d="M 24.703125 5.171875 
L 39.3125 5.171875 
Q 48.09375 5.171875 52.140625 8.984375 
Q 56.203125 12.796875 56.203125 21.09375 
Q 56.203125 29.34375 52.171875 33.125 
Q 48.140625 36.921875 39.3125 36.921875 
L 24.703125 36.921875 
z
M 24.703125 42.09375 
L 37.109375 42.09375 
Q 45.125 42.09375 48.796875 45.171875 
Q 52.484375 48.25 52.484375 54.890625 
Q 52.484375 61.578125 48.796875 64.625 
Q 45.125 67.671875 37.109375 67.671875 
L 24.703125 67.671875 
z
M 5.515625 0 
L 5.515625 5.171875 
L 14.796875 5.171875 
L 14.796875 67.671875 
L 5.515625 67.671875 
L 5.515625 72.90625 
L 41.5 72.90625 
Q 52.546875 72.90625 58.125 68.390625 
Q 63.71875 63.875 63.71875 54.890625 
Q 63.71875 48.390625 59.828125 44.53125 
Q 55.953125 40.671875 48.484375 39.796875 
Q 57.765625 38.625 62.578125 33.859375 
Q 67.390625 29.109375 67.390625 21.09375 
Q 67.390625 10.25 60.546875 5.125 
Q 53.71875 0 39.203125 0 
z
" id="DejaVuSerif-66"/>
      <path d="M 39.796875 16.3125 
L 39.796875 27.296875 
L 28.21875 27.296875 
Q 21.53125 27.296875 18.25 24.40625 
Q 14.984375 21.53125 14.984375 15.578125 
Q 14.984375 10.15625 18.296875 6.984375 
Q 21.625 3.8125 27.296875 3.8125 
Q 32.90625 3.8125 36.34375 7.28125 
Q 39.796875 10.75 39.796875 16.3125 
z
M 48.78125 32.421875 
L 48.78125 5.171875 
L 56.78125 5.171875 
L 56.78125 0 
L 39.796875 0 
L 39.796875 5.609375 
Q 36.8125 2 32.90625 0.28125 
Q 29 -1.421875 23.78125 -1.421875 
Q 15.140625 -1.421875 10.0625 3.171875 
Q 4.984375 7.765625 4.984375 15.578125 
Q 4.984375 23.640625 10.796875 28.078125 
Q 16.609375 32.515625 27.203125 32.515625 
L 39.796875 32.515625 
L 39.796875 36.078125 
Q 39.796875 42 36.203125 45.234375 
Q 32.625 48.484375 26.125 48.484375 
Q 20.75 48.484375 17.578125 46.046875 
Q 14.40625 43.609375 13.625 38.8125 
L 8.984375 38.8125 
L 8.984375 49.3125 
Q 13.671875 51.3125 18.09375 52.3125 
Q 22.515625 53.328125 26.703125 53.328125 
Q 37.5 53.328125 43.140625 47.96875 
Q 48.78125 42.625 48.78125 32.421875 
z
" id="DejaVuSerif-97"/>
      <path d="M 51.421875 15.578125 
Q 49.515625 7.28125 44.09375 2.921875 
Q 38.671875 -1.421875 30.078125 -1.421875 
Q 18.75 -1.421875 11.859375 6.078125 
Q 4.984375 13.578125 4.984375 25.984375 
Q 4.984375 38.421875 11.859375 45.875 
Q 18.75 53.328125 30.078125 53.328125 
Q 35.015625 53.328125 39.890625 52.171875 
Q 44.78125 51.03125 49.703125 48.6875 
L 49.703125 35.40625 
L 44.484375 35.40625 
Q 43.453125 42.234375 40.015625 45.359375 
Q 36.578125 48.484375 30.171875 48.484375 
Q 22.90625 48.484375 19.1875 42.84375 
Q 15.484375 37.203125 15.484375 25.984375 
Q 15.484375 14.75 19.171875 9.078125 
Q 22.859375 3.421875 30.171875 3.421875 
Q 35.984375 3.421875 39.453125 6.4375 
Q 42.921875 9.46875 44.1875 15.578125 
z
" id="DejaVuSerif-99"/>
      <path d="M 47.796875 52 
L 47.796875 39.015625 
L 42.625 39.015625 
Q 42.390625 42.875 40.484375 44.78125 
Q 38.578125 46.6875 34.90625 46.6875 
Q 28.265625 46.6875 24.71875 42.09375 
Q 21.1875 37.5 21.1875 28.90625 
L 21.1875 5.171875 
L 31.59375 5.171875 
L 31.59375 0 
L 4.109375 0 
L 4.109375 5.171875 
L 12.203125 5.171875 
L 12.203125 46.78125 
L 3.609375 46.78125 
L 3.609375 51.90625 
L 21.1875 51.90625 
L 21.1875 42.671875 
Q 23.828125 48.09375 27.96875 50.703125 
Q 32.125 53.328125 38.09375 53.328125 
Q 40.28125 53.328125 42.703125 52.984375 
Q 45.125 52.640625 47.796875 52 
z
" id="DejaVuSerif-114"/>
      <path d="M 20.515625 5.171875 
L 29 5.171875 
L 29 0 
L 2.875 0 
L 2.875 5.171875 
L 11.53125 5.171875 
L 11.53125 70.796875 
L 2.875 70.796875 
L 2.875 75.984375 
L 20.515625 75.984375 
z
" id="DejaVuSerif-108"/>
      <path id="DejaVuSerif-32"/>
      <path d="M 21.578125 -9.515625 
L 25 -0.875 
L 5.609375 46.6875 
L -0.296875 46.6875 
L -0.296875 51.90625 
L 23.578125 51.90625 
L 23.578125 46.6875 
L 15.28125 46.6875 
L 29.890625 10.984375 
L 44.484375 46.6875 
L 36.71875 46.6875 
L 36.71875 51.90625 
L 56.203125 51.90625 
L 56.203125 46.6875 
L 50.390625 46.6875 
L 26.609375 -11.71875 
Q 24.171875 -17.78125 21.1875 -20 
Q 18.21875 -22.21875 12.796875 -22.21875 
Q 10.5 -22.21875 8.078125 -21.828125 
Q 5.671875 -21.4375 3.21875 -20.703125 
L 3.21875 -10.796875 
L 7.8125 -10.796875 
Q 8.109375 -14.109375 9.5 -15.546875 
Q 10.890625 -17 13.8125 -17 
Q 16.5 -17 18.140625 -15.5 
Q 19.78125 -14.015625 21.578125 -9.515625 
z
" id="DejaVuSerif-121"/>
      <path d="M 31.890625 -15.578125 
Q 20.015625 -10.25 13.953125 1.296875 
Q 7.90625 12.84375 7.90625 30.171875 
Q 7.90625 47.5625 13.953125 59.109375 
Q 20.015625 70.65625 31.890625 75.984375 
L 31.890625 71.1875 
Q 24.359375 66.015625 21.09375 56.609375 
Q 17.828125 47.21875 17.828125 30.171875 
Q 17.828125 13.1875 21.09375 3.78125 
Q 24.359375 -5.609375 31.890625 -10.796875 
z
" id="DejaVuSerif-40"/>
      <path d="M 51.8125 41.796875 
Q 54.390625 47.515625 58.421875 50.421875 
Q 62.453125 53.328125 67.828125 53.328125 
Q 75.984375 53.328125 79.984375 48.265625 
Q 83.984375 43.21875 83.984375 33.015625 
L 83.984375 5.171875 
L 92.09375 5.171875 
L 92.09375 0 
L 67.1875 0 
L 67.1875 5.171875 
L 75 5.171875 
L 75 31.984375 
Q 75 39.9375 72.65625 43.3125 
Q 70.3125 46.6875 64.890625 46.6875 
Q 58.890625 46.6875 55.734375 42.140625 
Q 52.59375 37.59375 52.59375 28.90625 
L 52.59375 5.171875 
L 60.40625 5.171875 
L 60.40625 0 
L 35.796875 0 
L 35.796875 5.171875 
L 43.609375 5.171875 
L 43.609375 32.328125 
Q 43.609375 40.09375 41.265625 43.390625 
Q 38.921875 46.6875 33.5 46.6875 
Q 27.484375 46.6875 24.328125 42.140625 
Q 21.1875 37.59375 21.1875 28.90625 
L 21.1875 5.171875 
L 29 5.171875 
L 29 0 
L 4.109375 0 
L 4.109375 5.171875 
L 12.203125 5.171875 
L 12.203125 46.78125 
L 3.609375 46.78125 
L 3.609375 51.90625 
L 21.1875 51.90625 
L 21.1875 42.671875 
Q 23.6875 47.859375 27.53125 50.59375 
Q 31.390625 53.328125 36.28125 53.328125 
Q 42.328125 53.328125 46.375 50.3125 
Q 50.4375 47.3125 51.8125 41.796875 
z
" id="DejaVuSerif-109"/>
      <path d="M 10.59375 35.5 
L 73.1875 35.5 
L 73.1875 27.203125 
L 10.59375 27.203125 
z
" id="DejaVuSans-8722"/>
      <path d="M 19.1875 8.296875 
L 53.609375 8.296875 
L 53.609375 0 
L 7.328125 0 
L 7.328125 8.296875 
Q 12.9375 14.109375 22.625 23.890625 
Q 32.328125 33.6875 34.8125 36.53125 
Q 39.546875 41.84375 41.421875 45.53125 
Q 43.3125 49.21875 43.3125 52.78125 
Q 43.3125 58.59375 39.234375 62.25 
Q 35.15625 65.921875 28.609375 65.921875 
Q 23.96875 65.921875 18.8125 64.3125 
Q 13.671875 62.703125 7.8125 59.421875 
L 7.8125 69.390625 
Q 13.765625 71.78125 18.9375 73 
Q 24.125 74.21875 28.421875 74.21875 
Q 39.75 74.21875 46.484375 68.546875 
Q 53.21875 62.890625 53.21875 53.421875 
Q 53.21875 48.921875 51.53125 44.890625 
Q 49.859375 40.875 45.40625 35.40625 
Q 44.1875 33.984375 37.640625 27.21875 
Q 31.109375 20.453125 19.1875 8.296875 
z
" id="DejaVuSans-50"/>
      <path d="M 7.078125 -15.578125 
L 7.078125 -10.796875 
Q 14.59375 -5.609375 17.890625 3.78125 
Q 21.1875 13.1875 21.1875 30.171875 
Q 21.1875 47.21875 17.890625 56.609375 
Q 14.59375 66.015625 7.078125 71.1875 
L 7.078125 75.984375 
Q 19 70.65625 25.046875 59.109375 
Q 31.109375 47.5625 31.109375 30.171875 
Q 31.109375 12.84375 25.046875 1.296875 
Q 19 -10.25 7.078125 -15.578125 
z
" id="DejaVuSerif-41"/>
     </defs>
     <g style="fill:#262626;" transform="translate(11.0316 109.424)scale(0.08 -0.08)">
      <use transform="translate(0 0.765625)" xlink:href="#DejaVuSerif-66"/>
      <use transform="translate(73.486328 0.765625)" xlink:href="#DejaVuSerif-97"/>
      <use transform="translate(133.105469 0.765625)" xlink:href="#DejaVuSerif-99"/>
      <use transform="translate(189.111328 0.765625)" xlink:href="#DejaVuSerif-116"/>
      <use transform="translate(229.296875 0.765625)" xlink:href="#DejaVuSerif-101"/>
      <use transform="translate(288.476562 0.765625)" xlink:href="#DejaVuSerif-114"/>
      <use transform="translate(336.279297 0.765625)" xlink:href="#DejaVuSerif-105"/>
      <use transform="translate(368.261719 0.765625)" xlink:href="#DejaVuSerif-97"/>
      <use transform="translate(427.880859 0.765625)" xlink:href="#DejaVuSerif-108"/>
      <use transform="translate(459.863281 0.765625)" xlink:href="#DejaVuSerif-32"/>
      <use transform="translate(491.650391 0.765625)" xlink:href="#DejaVuSerif-100"/>
      <use transform="translate(555.664062 0.765625)" xlink:href="#DejaVuSerif-101"/>
      <use transform="translate(614.84375 0.765625)" xlink:href="#DejaVuSerif-110"/>
      <use transform="translate(679.248047 0.765625)" xlink:href="#DejaVuSerif-115"/>
      <use transform="translate(730.566406 0.765625)" xlink:href="#DejaVuSerif-105"/>
      <use transform="translate(762.548828 0.765625)" xlink:href="#DejaVuSerif-116"/>
      <use transform="translate(802.734375 0.765625)" xlink:href="#DejaVuSerif-121"/>
      <use transform="translate(859.228516 0.765625)" xlink:href="#DejaVuSerif-32"/>
      <use transform="translate(891.015625 0.765625)" xlink:href="#DejaVuSerif-40"/>
      <use transform="translate(930.029297 0.765625)" xlink:href="#DejaVuSerif-109"/>
      <use transform="translate(1024.853516 0.765625)" xlink:href="#DejaVuSerif-109"/>
      <use transform="translate(1120.634766 39.046875)scale(0.7)" xlink:href="#DejaVuSans-8722"/>
      <use transform="translate(1179.287109 39.046875)scale(0.7)" xlink:href="#DejaVuSans-50"/>
      <use transform="translate(1226.557617 0.765625)" xlink:href="#DejaVuSerif-41"/>
     </g>
    </g>
   </g>
   <g id="matplotlib.axis_6">
    <g id="text_10">
     <!-- $\it{x}$ (mm) -->
     <defs>
      <path d="M 60.015625 54.6875 
L 34.90625 27.875 
L 50.296875 0 
L 39.984375 0 
L 28.421875 21.6875 
L 8.296875 0 
L -2.59375 0 
L 24.3125 28.8125 
L 10.015625 54.6875 
L 20.3125 54.6875 
L 30.8125 34.90625 
L 49.125 54.6875 
z
" id="DejaVuSans-Oblique-120"/>
     </defs>
     <g style="fill:#262626;" transform="translate(7.81425 61.739)rotate(-90)scale(0.08 -0.08)">
      <use transform="translate(0 0.015625)" xlink:href="#DejaVuSans-Oblique-120"/>
      <use transform="translate(59.179688 0.015625)" xlink:href="#DejaVuSerif-32"/>
      <use transform="translate(90.966797 0.015625)" xlink:href="#DejaVuSerif-40"/>
      <use transform="translate(129.980469 0.015625)" xlink:href="#DejaVuSerif-109"/>
      <use transform="translate(224.804688 0.015625)" xlink:href="#DejaVuSerif-109"/>
      <use transform="translate(319.628906 0.015625)" xlink:href="#DejaVuSerif-41"/>
     </g>
    </g>
   </g>
  </g>
 </g>
 <defs>
  <clipPath id="p8ad0bd851f">
   <rect height="79.53" width="80.484" x="29.478" y="7.614"/>
  </clipPath>
  <clipPath id="p3f0e781cf3">
   <rect height="79.53" width="36.583636" x="29.478" y="7.614"/>
  </clipPath>
  <clipPath id="pb6a0dd3dd3">
   <rect height="79.53" width="36.583636" x="73.378364" y="7.614"/>
  </clipPath>
 </defs>
</svg>
