<?xml version="1.0" encoding="utf-8" standalone="no"?>
<!DOCTYPE svg PUBLIC "-//W3C//DTD SVG 1.1//EN"
  "http://www.w3.org/Graphics/SVG/1.1/DTD/svg11.dtd">
<!-- Created with matplotlib (https://matplotlib.org/) -->
<svg height="230.4pt" version="1.1" viewBox="0 0 230.4 230.4" width="230.4pt" xmlns="http://www.w3.org/2000/svg" xmlns:xlink="http://www.w3.org/1999/xlink">
 <defs>
  <style type="text/css">
*{stroke-linecap:butt;stroke-linejoin:round;}
  </style>
 </defs>
 <g id="figure_1">
  <g id="patch_1">
   <path d="M 0 230.4 
L 230.4 230.4 
L 230.4 0 
L 0 0 
z
" style="fill:#ffffff;"/>
  </g>
  <g id="axes_1">
   <g id="patch_2">
    <path clip-path="url(#p856b323f95)" d="M 42.421909 205.908 
L 42.421909 1.152 
L 220.300091 1.152 
L 220.300091 205.908 
z
" style="fill:#b3b3b3;stroke:#b3b3b3;stroke-linejoin:miter;"/>
   </g>
  </g>
  <g id="axes_2">
   <g id="patch_3">
    <path d="M 33.528 205.908 
L 50.094066 205.908 
L 50.094066 1.152 
L 33.528 1.152 
z
" style="fill:#ffffff;"/>
   </g>
   <g id="matplotlib.axis_1">
    <g id="xtick_1">
     <g id="line2d_1">
      <defs>
       <path d="M 0 0 
L 0 3.5 
" id="m402d85ffb7" style="stroke:#262626;stroke-width:0.8;"/>
      </defs>
      <g>
       <use style="fill:#262626;stroke:#262626;stroke-width:0.8;" x="50.094066" xlink:href="#m402d85ffb7" y="205.908"/>
      </g>
     </g>
     <g id="text_1">
      <!-- 0 -->
      <defs>
       <path d="M 31.78125 3.421875 
Q 39.265625 3.421875 42.96875 11.625 
Q 46.6875 19.828125 46.6875 36.375 
Q 46.6875 52.984375 42.96875 61.1875 
Q 39.265625 69.390625 31.78125 69.390625 
Q 24.3125 69.390625 20.59375 61.1875 
Q 16.890625 52.984375 16.890625 36.375 
Q 16.890625 19.828125 20.59375 11.625 
Q 24.3125 3.421875 31.78125 3.421875 
z
M 31.78125 -1.421875 
Q 19.921875 -1.421875 13.25 8.53125 
Q 6.59375 18.5 6.59375 36.375 
Q 6.59375 54.296875 13.25 64.25 
Q 19.921875 74.21875 31.78125 74.21875 
Q 43.703125 74.21875 50.34375 64.25 
Q 56.984375 54.296875 56.984375 36.375 
Q 56.984375 18.5 50.34375 8.53125 
Q 43.703125 -1.421875 31.78125 -1.421875 
z
" id="DejaVuSerif-48"/>
      </defs>
      <g style="fill:#262626;" transform="translate(47.549066 219.48675)scale(0.08 -0.08)">
       <use xlink:href="#DejaVuSerif-48"/>
      </g>
     </g>
    </g>
   </g>
   <g id="matplotlib.axis_2">
    <g id="ytick_1">
     <g id="line2d_2">
      <defs>
       <path d="M 0 0 
L -3.5 0 
" id="mfe3716e0b4" style="stroke:#262626;stroke-width:0.8;"/>
      </defs>
      <g>
       <use style="fill:#262626;stroke:#262626;stroke-width:0.8;" x="33.528" xlink:href="#mfe3716e0b4" y="196.600909"/>
      </g>
     </g>
     <g id="text_2">
      <!-- 0 -->
      <g style="fill:#262626;" transform="translate(20.938 199.640284)scale(0.08 -0.08)">
       <use xlink:href="#DejaVuSerif-48"/>
      </g>
     </g>
    </g>
    <g id="ytick_2">
     <g id="line2d_3">
      <g>
       <use style="fill:#262626;stroke:#262626;stroke-width:0.8;" x="33.528" xlink:href="#mfe3716e0b4" y="173.333182"/>
      </g>
     </g>
     <g id="text_3">
      <!-- 20 -->
      <defs>
       <path d="M 12.796875 55.515625 
L 7.328125 55.515625 
L 7.328125 68.5 
Q 12.546875 71.296875 17.84375 72.75 
Q 23.140625 74.21875 28.21875 74.21875 
Q 39.59375 74.21875 46.1875 68.703125 
Q 52.78125 63.1875 52.78125 53.71875 
Q 52.78125 43.015625 37.84375 28.125 
Q 36.671875 27 36.078125 26.421875 
L 17.671875 8.015625 
L 48.09375 8.015625 
L 48.09375 17 
L 53.8125 17 
L 53.8125 0 
L 6.78125 0 
L 6.78125 5.328125 
L 28.90625 27.390625 
Q 36.234375 34.71875 39.359375 40.84375 
Q 42.484375 46.96875 42.484375 53.71875 
Q 42.484375 61.078125 38.640625 65.234375 
Q 34.8125 69.390625 28.078125 69.390625 
Q 21.09375 69.390625 17.28125 65.921875 
Q 13.484375 62.453125 12.796875 55.515625 
z
" id="DejaVuSerif-50"/>
      </defs>
      <g style="fill:#262626;" transform="translate(15.848 176.372557)scale(0.08 -0.08)">
       <use xlink:href="#DejaVuSerif-50"/>
       <use x="63.623047" xlink:href="#DejaVuSerif-48"/>
      </g>
     </g>
    </g>
    <g id="ytick_3">
     <g id="line2d_4">
      <g>
       <use style="fill:#262626;stroke:#262626;stroke-width:0.8;" x="33.528" xlink:href="#mfe3716e0b4" y="150.065455"/>
      </g>
     </g>
     <g id="text_4">
      <!-- 40 -->
      <defs>
       <path d="M 34.90625 24.703125 
L 34.90625 63.484375 
L 10.015625 24.703125 
z
M 56.390625 0 
L 23.1875 0 
L 23.1875 5.171875 
L 34.90625 5.171875 
L 34.90625 19.484375 
L 3.078125 19.484375 
L 3.078125 24.8125 
L 35.015625 74.21875 
L 44.671875 74.21875 
L 44.671875 24.703125 
L 58.59375 24.703125 
L 58.59375 19.484375 
L 44.671875 19.484375 
L 44.671875 5.171875 
L 56.390625 5.171875 
z
" id="DejaVuSerif-52"/>
      </defs>
      <g style="fill:#262626;" transform="translate(15.848 153.10483)scale(0.08 -0.08)">
       <use xlink:href="#DejaVuSerif-52"/>
       <use x="63.623047" xlink:href="#DejaVuSerif-48"/>
      </g>
     </g>
    </g>
    <g id="ytick_4">
     <g id="line2d_5">
      <g>
       <use style="fill:#262626;stroke:#262626;stroke-width:0.8;" x="33.528" xlink:href="#mfe3716e0b4" y="126.797727"/>
      </g>
     </g>
     <g id="text_5">
      <!-- 60 -->
      <defs>
       <path d="M 32.71875 3.421875 
Q 39.59375 3.421875 43.296875 8.46875 
Q 47.015625 13.53125 47.015625 23 
Q 47.015625 32.46875 43.296875 37.515625 
Q 39.59375 42.578125 32.71875 42.578125 
Q 25.734375 42.578125 22.0625 37.6875 
Q 18.40625 32.8125 18.40625 23.578125 
Q 18.40625 13.875 22.109375 8.640625 
Q 25.828125 3.421875 32.71875 3.421875 
z
M 16.796875 40.140625 
Q 20.125 43.796875 24.3125 45.59375 
Q 28.515625 47.40625 33.796875 47.40625 
Q 44.671875 47.40625 51 40.859375 
Q 57.328125 34.328125 57.328125 23 
Q 57.328125 11.921875 50.515625 5.25 
Q 43.703125 -1.421875 32.328125 -1.421875 
Q 19.96875 -1.421875 13.328125 7.78125 
Q 6.6875 17 6.6875 34.078125 
Q 6.6875 53.21875 14.546875 63.71875 
Q 22.40625 74.21875 36.71875 74.21875 
Q 40.578125 74.21875 44.828125 73.484375 
Q 49.078125 72.75 53.515625 71.296875 
L 53.515625 59.28125 
L 48 59.28125 
Q 47.40625 64.203125 44.234375 66.796875 
Q 41.0625 69.390625 35.6875 69.390625 
Q 26.21875 69.390625 21.578125 62.203125 
Q 16.9375 55.03125 16.796875 40.140625 
z
" id="DejaVuSerif-54"/>
      </defs>
      <g style="fill:#262626;" transform="translate(15.848 129.837102)scale(0.08 -0.08)">
       <use xlink:href="#DejaVuSerif-54"/>
       <use x="63.623047" xlink:href="#DejaVuSerif-48"/>
      </g>
     </g>
    </g>
    <g id="ytick_5">
     <g id="line2d_6">
      <g>
       <use style="fill:#262626;stroke:#262626;stroke-width:0.8;" x="33.528" xlink:href="#mfe3716e0b4" y="103.53"/>
      </g>
     </g>
     <g id="text_6">
      <!-- 80 -->
      <defs>
       <path d="M 46.578125 19.921875 
Q 46.578125 27.734375 42.6875 32.046875 
Q 38.8125 36.375 31.78125 36.375 
Q 24.75 36.375 20.875 32.046875 
Q 17 27.734375 17 19.921875 
Q 17 12.0625 20.875 7.734375 
Q 24.75 3.421875 31.78125 3.421875 
Q 38.8125 3.421875 42.6875 7.734375 
Q 46.578125 12.0625 46.578125 19.921875 
z
M 44.578125 55.328125 
Q 44.578125 61.96875 41.203125 65.671875 
Q 37.84375 69.390625 31.78125 69.390625 
Q 25.78125 69.390625 22.390625 65.671875 
Q 19 61.96875 19 55.328125 
Q 19 48.640625 22.390625 44.921875 
Q 25.78125 41.21875 31.78125 41.21875 
Q 37.84375 41.21875 41.203125 44.921875 
Q 44.578125 48.640625 44.578125 55.328125 
z
M 39.3125 38.8125 
Q 47.609375 37.703125 52.25 32.6875 
Q 56.890625 27.6875 56.890625 19.921875 
Q 56.890625 9.671875 50.390625 4.125 
Q 43.890625 -1.421875 31.78125 -1.421875 
Q 19.734375 -1.421875 13.203125 4.125 
Q 6.6875 9.671875 6.6875 19.921875 
Q 6.6875 27.6875 11.328125 32.6875 
Q 15.96875 37.703125 24.3125 38.8125 
Q 16.9375 40.140625 13 44.40625 
Q 9.078125 48.6875 9.078125 55.328125 
Q 9.078125 64.109375 15.125 69.15625 
Q 21.1875 74.21875 31.78125 74.21875 
Q 42.390625 74.21875 48.4375 69.15625 
Q 54.5 64.109375 54.5 55.328125 
Q 54.5 48.6875 50.5625 44.40625 
Q 46.625 40.140625 39.3125 38.8125 
z
" id="DejaVuSerif-56"/>
      </defs>
      <g style="fill:#262626;" transform="translate(15.848 106.569375)scale(0.08 -0.08)">
       <use xlink:href="#DejaVuSerif-56"/>
       <use x="63.623047" xlink:href="#DejaVuSerif-48"/>
      </g>
     </g>
    </g>
    <g id="ytick_6">
     <g id="line2d_7">
      <g>
       <use style="fill:#262626;stroke:#262626;stroke-width:0.8;" x="33.528" xlink:href="#mfe3716e0b4" y="80.262273"/>
      </g>
     </g>
     <g id="text_7">
      <!-- 100 -->
      <defs>
       <path d="M 14.203125 0 
L 14.203125 5.171875 
L 26.90625 5.171875 
L 26.90625 65.828125 
L 12.203125 56.296875 
L 12.203125 62.703125 
L 29.984375 74.21875 
L 36.71875 74.21875 
L 36.71875 5.171875 
L 49.421875 5.171875 
L 49.421875 0 
z
" id="DejaVuSerif-49"/>
      </defs>
      <g style="fill:#262626;" transform="translate(10.758 83.301648)scale(0.08 -0.08)">
       <use xlink:href="#DejaVuSerif-49"/>
       <use x="63.623047" xlink:href="#DejaVuSerif-48"/>
       <use x="127.246094" xlink:href="#DejaVuSerif-48"/>
      </g>
     </g>
    </g>
    <g id="ytick_7">
     <g id="line2d_8">
      <g>
       <use style="fill:#262626;stroke:#262626;stroke-width:0.8;" x="33.528" xlink:href="#mfe3716e0b4" y="56.994545"/>
      </g>
     </g>
     <g id="text_8">
      <!-- 120 -->
      <g style="fill:#262626;" transform="translate(10.758 60.03392)scale(0.08 -0.08)">
       <use xlink:href="#DejaVuSerif-49"/>
       <use x="63.623047" xlink:href="#DejaVuSerif-50"/>
       <use x="127.246094" xlink:href="#DejaVuSerif-48"/>
      </g>
     </g>
    </g>
    <g id="ytick_8">
     <g id="line2d_9">
      <g>
       <use style="fill:#262626;stroke:#262626;stroke-width:0.8;" x="33.528" xlink:href="#mfe3716e0b4" y="33.726818"/>
      </g>
     </g>
     <g id="text_9">
      <!-- 140 -->
      <g style="fill:#262626;" transform="translate(10.758 36.766193)scale(0.08 -0.08)">
       <use xlink:href="#DejaVuSerif-49"/>
       <use x="63.623047" xlink:href="#DejaVuSerif-52"/>
       <use x="127.246094" xlink:href="#DejaVuSerif-48"/>
      </g>
     </g>
    </g>
    <g id="ytick_9">
     <g id="line2d_10">
      <g>
       <use style="fill:#262626;stroke:#262626;stroke-width:0.8;" x="33.528" xlink:href="#mfe3716e0b4" y="10.459091"/>
      </g>
     </g>
     <g id="text_10">
      <!-- 160 -->
      <g style="fill:#262626;" transform="translate(10.758 13.498466)scale(0.08 -0.08)">
       <use xlink:href="#DejaVuSerif-49"/>
       <use x="63.623047" xlink:href="#DejaVuSerif-54"/>
       <use x="127.246094" xlink:href="#DejaVuSerif-48"/>
      </g>
     </g>
    </g>
   </g>
   <g id="patch_4">
    <path clip-path="url(#p7557c37690)" d="M 50.094066 205.908 
L 50.094066 1.152 
L 211.406182 1.152 
L 211.406182 205.908 
z
" style="fill:#ffdd55;opacity:0.35;stroke:#ffdd55;stroke-linejoin:miter;"/>
   </g>
   <g id="PolyCollection_1">
    <defs>
     <path d="M 50.094066 -33.799091 
L 97.108602 -33.799091 
L 97.350281 -35.660509 
L 97.603434 -37.521927 
L 97.85826 -39.383345 
L 98.114999 -41.244764 
L 98.373411 -43.106182 
L 98.633497 -44.9676 
L 98.895495 -46.829018 
L 99.159405 -48.690436 
L 99.424989 -50.551855 
L 99.692485 -52.413273 
L 99.961894 -54.274691 
L 100.233215 -56.136109 
L 100.506687 -57.997527 
L 100.782072 -59.858945 
L 101.059608 -61.720364 
L 101.339057 -63.581782 
L 101.620896 -65.4432 
L 101.904886 -67.304618 
L 102.191267 -69.166036 
L 102.4798 -71.027455 
L 102.770962 -72.888873 
L 103.064514 -74.750291 
L 103.360457 -76.611709 
L 103.65903 -78.473127 
L 103.960232 -80.334545 
L 104.264302 -82.195964 
L 104.571003 -84.057382 
L 104.880571 -85.9188 
L 105.193248 -87.780218 
L 105.509032 -89.641636 
L 105.827685 -91.503055 
L 106.149923 -93.364473 
L 106.475508 -95.225891 
L 106.80444 -97.087309 
L 107.136957 -98.948727 
L 107.4733 -100.810145 
L 107.813467 -102.671564 
L 108.157698 -104.532982 
L 108.505992 -106.3944 
L 108.85859 -108.255818 
L 109.21573 -110.117236 
L 109.577411 -111.978655 
L 109.943874 -113.840073 
L 110.315595 -115.701491 
L 110.692576 -117.562909 
L 111.074816 -119.424327 
L 111.462793 -121.285745 
L 111.856746 -123.147164 
L 112.256914 -125.008582 
L 112.663776 -126.87 
L 113.077092 -128.731418 
L 113.497819 -130.592836 
L 113.925956 -132.454255 
L 114.361743 -134.315673 
L 114.806136 -136.177091 
L 115.258895 -138.038509 
L 115.720738 -139.899927 
L 116.192382 -141.761345 
L 116.673828 -143.622764 
L 117.166269 -145.484182 
L 117.669707 -147.3456 
L 118.185336 -149.207018 
L 118.713396 -151.068436 
L 119.254843 -152.929855 
L 119.810632 -154.791273 
L 120.381721 -156.652691 
L 120.968587 -158.514109 
L 121.572903 -160.375527 
L 122.195627 -162.236945 
L 122.837952 -164.098364 
L 123.501553 -165.959782 
L 124.187863 -167.8212 
L 124.898796 -169.682618 
L 125.636263 -171.544036 
L 126.402415 -173.405455 
L 127.199884 -175.266873 
L 128.031297 -177.128291 
L 128.900241 -178.989709 
L 129.810063 -180.851127 
L 130.765304 -182.712545 
L 131.770506 -184.573964 
L 132.831884 -186.435382 
L 133.955655 -188.2968 
L 135.150184 -190.158218 
L 136.424795 -192.019636 
L 137.790961 -193.881055 
L 139.263505 -195.742473 
L 140.859637 -197.603891 
L 142.601828 -199.465309 
L 144.519481 -201.326727 
L 146.650366 -203.188145 
L 149.046835 -205.049564 
L 151.781798 -206.910982 
L 154.963065 -208.7724 
L 158.758211 -210.633818 
L 163.446684 -212.495236 
L 169.535747 -214.356655 
L 178.015303 -216.218073 
L 190.917748 -218.079491 
L 211.406182 -219.940909 
L 50.094066 -219.940909 
L 50.094066 -219.940909 
L 50.094066 -218.079491 
L 50.094066 -216.218073 
L 50.094066 -214.356655 
L 50.094066 -212.495236 
L 50.094066 -210.633818 
L 50.094066 -208.7724 
L 50.094066 -206.910982 
L 50.094066 -205.049564 
L 50.094066 -203.188145 
L 50.094066 -201.326727 
L 50.094066 -199.465309 
L 50.094066 -197.603891 
L 50.094066 -195.742473 
L 50.094066 -193.881055 
L 50.094066 -192.019636 
L 50.094066 -190.158218 
L 50.094066 -188.2968 
L 50.094066 -186.435382 
L 50.094066 -184.573964 
L 50.094066 -182.712545 
L 50.094066 -180.851127 
L 50.094066 -178.989709 
L 50.094066 -177.128291 
L 50.094066 -175.266873 
L 50.094066 -173.405455 
L 50.094066 -171.544036 
L 50.094066 -169.682618 
L 50.094066 -167.8212 
L 50.094066 -165.959782 
L 50.094066 -164.098364 
L 50.094066 -162.236945 
L 50.094066 -160.375527 
L 50.094066 -158.514109 
L 50.094066 -156.652691 
L 50.094066 -154.791273 
L 50.094066 -152.929855 
L 50.094066 -151.068436 
L 50.094066 -149.207018 
L 50.094066 -147.3456 
L 50.094066 -145.484182 
L 50.094066 -143.622764 
L 50.094066 -141.761345 
L 50.094066 -139.899927 
L 50.094066 -138.038509 
L 50.094066 -136.177091 
L 50.094066 -134.315673 
L 50.094066 -132.454255 
L 50.094066 -130.592836 
L 50.094066 -128.731418 
L 50.094066 -126.87 
L 50.094066 -125.008582 
L 50.094066 -123.147164 
L 50.094066 -121.285745 
L 50.094066 -119.424327 
L 50.094066 -117.562909 
L 50.094066 -115.701491 
L 50.094066 -113.840073 
L 50.094066 -111.978655 
L 50.094066 -110.117236 
L 50.094066 -108.255818 
L 50.094066 -106.3944 
L 50.094066 -104.532982 
L 50.094066 -102.671564 
L 50.094066 -100.810145 
L 50.094066 -98.948727 
L 50.094066 -97.087309 
L 50.094066 -95.225891 
L 50.094066 -93.364473 
L 50.094066 -91.503055 
L 50.094066 -89.641636 
L 50.094066 -87.780218 
L 50.094066 -85.9188 
L 50.094066 -84.057382 
L 50.094066 -82.195964 
L 50.094066 -80.334545 
L 50.094066 -78.473127 
L 50.094066 -76.611709 
L 50.094066 -74.750291 
L 50.094066 -72.888873 
L 50.094066 -71.027455 
L 50.094066 -69.166036 
L 50.094066 -67.304618 
L 50.094066 -65.4432 
L 50.094066 -63.581782 
L 50.094066 -61.720364 
L 50.094066 -59.858945 
L 50.094066 -57.997527 
L 50.094066 -56.136109 
L 50.094066 -54.274691 
L 50.094066 -52.413273 
L 50.094066 -50.551855 
L 50.094066 -48.690436 
L 50.094066 -46.829018 
L 50.094066 -44.9676 
L 50.094066 -43.106182 
L 50.094066 -41.244764 
L 50.094066 -39.383345 
L 50.094066 -37.521927 
L 50.094066 -35.660509 
L 50.094066 -33.799091 
z
" id="m78184f43eb" style="stroke:#447821;"/>
    </defs>
    <g clip-path="url(#p7557c37690)">
     <use style="fill:#447821;stroke:#447821;" x="0" xlink:href="#m78184f43eb" y="230.4"/>
    </g>
   </g>
   <g id="PolyCollection_2">
    <defs>
     <path d="M 50.094066 -33.799091 
L 47.703573 -33.799091 
L 47.703573 -35.660509 
L 47.703573 -37.521927 
L 47.703573 -39.383345 
L 47.703573 -41.244764 
L 47.703573 -43.106182 
L 47.703573 -44.9676 
L 47.703573 -46.829018 
L 47.703573 -48.690436 
L 47.703573 -50.551855 
L 47.703573 -52.413273 
L 47.703573 -54.274691 
L 47.703573 -56.136109 
L 47.703573 -57.997527 
L 47.703573 -59.858945 
L 47.703573 -61.720364 
L 47.703573 -63.581782 
L 47.703573 -65.4432 
L 47.703573 -67.304618 
L 47.703573 -69.166036 
L 47.703573 -71.027455 
L 47.703573 -72.888873 
L 47.703573 -74.750291 
L 47.703573 -76.611709 
L 47.703573 -78.473127 
L 47.703573 -80.334545 
L 47.703573 -82.195964 
L 47.703573 -84.057382 
L 47.703573 -85.9188 
L 47.703573 -87.780218 
L 47.703573 -89.641636 
L 47.703573 -91.503055 
L 47.703573 -93.364473 
L 47.703573 -95.225891 
L 47.703573 -97.087309 
L 47.703573 -98.948727 
L 47.703573 -100.810145 
L 47.703573 -102.671564 
L 47.703573 -104.532982 
L 47.703573 -106.3944 
L 47.703573 -108.255818 
L 47.703573 -110.117236 
L 47.703573 -111.978655 
L 47.703573 -113.840073 
L 47.703573 -115.701491 
L 47.703573 -117.562909 
L 47.703573 -119.424327 
L 47.703573 -121.285745 
L 47.703573 -123.147164 
L 47.703573 -125.008582 
L 47.703573 -126.87 
L 47.703573 -128.731418 
L 47.703573 -130.592836 
L 47.703573 -132.454255 
L 47.703573 -134.315673 
L 47.703573 -136.177091 
L 47.703573 -138.038509 
L 47.703573 -139.899927 
L 47.703573 -141.761345 
L 47.703573 -143.622764 
L 47.703573 -145.484182 
L 47.703573 -147.3456 
L 47.703573 -149.207018 
L 47.703573 -151.068436 
L 47.703573 -152.929855 
L 47.703573 -154.791273 
L 47.703573 -156.652691 
L 47.703573 -158.514109 
L 47.703573 -160.375527 
L 47.703573 -162.236945 
L 47.703573 -164.098364 
L 47.703573 -165.959782 
L 47.703573 -167.8212 
L 47.703573 -169.682618 
L 47.703573 -171.544036 
L 47.703573 -173.405455 
L 47.703573 -175.266873 
L 47.703573 -177.128291 
L 47.703573 -178.989709 
L 47.703573 -180.851127 
L 47.703573 -182.712545 
L 47.703573 -184.573964 
L 47.703573 -186.435382 
L 47.703573 -188.2968 
L 47.703573 -190.158218 
L 47.703573 -192.019636 
L 47.703573 -193.881055 
L 47.703573 -195.742473 
L 47.70355 -197.603891 
L 47.703502 -199.465309 
L 47.703406 -201.326727 
L 47.703071 -203.188145 
L 47.702115 -205.049564 
L 47.699342 -206.910982 
L 47.69131 -208.7724 
L 47.668146 -210.633818 
L 47.600639 -212.495236 
L 47.400818 -214.356655 
L 46.780676 -216.218073 
L 44.58422 -218.079491 
L 33.528 -219.940909 
L 50.094066 -219.940909 
L 50.094066 -219.940909 
L 50.094066 -218.079491 
L 50.094066 -216.218073 
L 50.094066 -214.356655 
L 50.094066 -212.495236 
L 50.094066 -210.633818 
L 50.094066 -208.7724 
L 50.094066 -206.910982 
L 50.094066 -205.049564 
L 50.094066 -203.188145 
L 50.094066 -201.326727 
L 50.094066 -199.465309 
L 50.094066 -197.603891 
L 50.094066 -195.742473 
L 50.094066 -193.881055 
L 50.094066 -192.019636 
L 50.094066 -190.158218 
L 50.094066 -188.2968 
L 50.094066 -186.435382 
L 50.094066 -184.573964 
L 50.094066 -182.712545 
L 50.094066 -180.851127 
L 50.094066 -178.989709 
L 50.094066 -177.128291 
L 50.094066 -175.266873 
L 50.094066 -173.405455 
L 50.094066 -171.544036 
L 50.094066 -169.682618 
L 50.094066 -167.8212 
L 50.094066 -165.959782 
L 50.094066 -164.098364 
L 50.094066 -162.236945 
L 50.094066 -160.375527 
L 50.094066 -158.514109 
L 50.094066 -156.652691 
L 50.094066 -154.791273 
L 50.094066 -152.929855 
L 50.094066 -151.068436 
L 50.094066 -149.207018 
L 50.094066 -147.3456 
L 50.094066 -145.484182 
L 50.094066 -143.622764 
L 50.094066 -141.761345 
L 50.094066 -139.899927 
L 50.094066 -138.038509 
L 50.094066 -136.177091 
L 50.094066 -134.315673 
L 50.094066 -132.454255 
L 50.094066 -130.592836 
L 50.094066 -128.731418 
L 50.094066 -126.87 
L 50.094066 -125.008582 
L 50.094066 -123.147164 
L 50.094066 -121.285745 
L 50.094066 -119.424327 
L 50.094066 -117.562909 
L 50.094066 -115.701491 
L 50.094066 -113.840073 
L 50.094066 -111.978655 
L 50.094066 -110.117236 
L 50.094066 -108.255818 
L 50.094066 -106.3944 
L 50.094066 -104.532982 
L 50.094066 -102.671564 
L 50.094066 -100.810145 
L 50.094066 -98.948727 
L 50.094066 -97.087309 
L 50.094066 -95.225891 
L 50.094066 -93.364473 
L 50.094066 -91.503055 
L 50.094066 -89.641636 
L 50.094066 -87.780218 
L 50.094066 -85.9188 
L 50.094066 -84.057382 
L 50.094066 -82.195964 
L 50.094066 -80.334545 
L 50.094066 -78.473127 
L 50.094066 -76.611709 
L 50.094066 -74.750291 
L 50.094066 -72.888873 
L 50.094066 -71.027455 
L 50.094066 -69.166036 
L 50.094066 -67.304618 
L 50.094066 -65.4432 
L 50.094066 -63.581782 
L 50.094066 -61.720364 
L 50.094066 -59.858945 
L 50.094066 -57.997527 
L 50.094066 -56.136109 
L 50.094066 -54.274691 
L 50.094066 -52.413273 
L 50.094066 -50.551855 
L 50.094066 -48.690436 
L 50.094066 -46.829018 
L 50.094066 -44.9676 
L 50.094066 -43.106182 
L 50.094066 -41.244764 
L 50.094066 -39.383345 
L 50.094066 -37.521927 
L 50.094066 -35.660509 
L 50.094066 -33.799091 
z
" id="m7e375aeda6" style="stroke:#447821;"/>
    </defs>
    <g clip-path="url(#p7557c37690)">
     <use style="fill:#447821;stroke:#447821;" x="0" xlink:href="#m7e375aeda6" y="230.4"/>
    </g>
   </g>
   <g id="line2d_11">
    <path d="M 47.650305 208.351761 
L 52.537827 203.464239 
" style="fill:none;stroke:#000000;stroke-linecap:round;stroke-width:0.8;"/>
   </g>
   <g id="patch_5">
    <path d="M 33.528 205.908 
L 33.528 1.152 
" style="fill:none;stroke:#262626;stroke-linecap:square;stroke-linejoin:miter;stroke-width:0.8;"/>
   </g>
   <g id="patch_6">
    <path d="M 33.528 205.908 
L 50.094066 205.908 
" style="fill:none;stroke:#262626;stroke-linecap:square;stroke-linejoin:miter;stroke-width:0.8;"/>
   </g>
   <g id="PolyCollection_3">
    <defs>
     <path d="M 50.094066 -33.799091 
L 96.40508 -33.799091 
L 96.642934 -35.660509 
L 96.892023 -37.521927 
L 97.143264 -39.383345 
L 97.395939 -41.244764 
L 97.650526 -43.106182 
L 97.906548 -44.9676 
L 98.164721 -46.829018 
L 98.424329 -48.690436 
L 98.685849 -50.551855 
L 98.949281 -52.413273 
L 99.214626 -54.274691 
L 99.481883 -56.136109 
L 99.751052 -57.997527 
L 100.022373 -59.858945 
L 100.295606 -61.720364 
L 100.570991 -63.581782 
L 100.848527 -65.4432 
L 101.128215 -67.304618 
L 101.410054 -69.166036 
L 101.694284 -71.027455 
L 101.980904 -72.888873 
L 102.269914 -74.750291 
L 102.561315 -76.611709 
L 102.855346 -78.473127 
L 103.152006 -80.334545 
L 103.451535 -82.195964 
L 103.753454 -84.057382 
L 104.058481 -85.9188 
L 104.366376 -87.780218 
L 104.67714 -89.641636 
L 104.991251 -91.503055 
L 105.30847 -93.364473 
L 105.629035 -95.225891 
L 105.952946 -97.087309 
L 106.280444 -98.948727 
L 106.611527 -100.810145 
L 106.946674 -102.671564 
L 107.285407 -104.532982 
L 107.628443 -106.3944 
L 107.975781 -108.255818 
L 108.327423 -110.117236 
L 108.683606 -111.978655 
L 109.04457 -113.840073 
L 109.410555 -115.701491 
L 109.781798 -117.562909 
L 110.158301 -119.424327 
L 110.540302 -121.285745 
L 110.928279 -123.147164 
L 111.322471 -125.008582 
L 111.722878 -126.87 
L 112.130218 -128.731418 
L 112.544252 -130.592836 
L 112.965935 -132.454255 
L 113.395267 -134.315673 
L 113.832727 -136.177091 
L 114.278554 -138.038509 
L 114.733465 -139.899927 
L 115.197698 -141.761345 
L 115.671972 -143.622764 
L 116.156764 -145.484182 
L 116.652791 -147.3456 
L 117.160293 -149.207018 
L 117.680464 -151.068436 
L 118.213783 -152.929855 
L 118.760967 -154.791273 
L 119.323211 -156.652691 
L 119.901232 -158.514109 
L 120.496464 -160.375527 
L 121.109626 -162.236945 
L 121.74215 -164.098364 
L 122.395711 -165.959782 
L 123.071503 -167.8212 
L 123.771439 -169.682618 
L 124.497671 -171.544036 
L 125.25211 -173.405455 
L 126.037626 -175.266873 
L 126.85637 -177.128291 
L 127.712166 -178.989709 
L 128.608123 -180.851127 
L 129.548782 -182.712545 
L 130.538685 -184.573964 
L 131.583808 -186.435382 
L 132.690367 -188.2968 
L 133.866729 -190.158218 
L 135.121737 -192.019636 
L 136.467346 -193.881055 
L 137.917418 -195.742473 
L 139.489167 -197.603891 
L 141.204824 -199.465309 
L 143.093313 -201.326727 
L 145.191688 -203.188145 
L 147.551582 -205.049564 
L 150.24495 -206.910982 
L 153.37793 -208.7724 
L 157.114987 -210.633818 
L 161.732223 -212.495236 
L 167.728535 -214.356655 
L 176.079243 -216.218073 
L 188.78495 -218.079491 
L 208.945887 -219.940909 
L 50.094066 -219.940909 
L 50.094066 -219.940909 
L 50.094066 -218.079491 
L 50.094066 -216.218073 
L 50.094066 -214.356655 
L 50.094066 -212.495236 
L 50.094066 -210.633818 
L 50.094066 -208.7724 
L 50.094066 -206.910982 
L 50.094066 -205.049564 
L 50.094066 -203.188145 
L 50.094066 -201.326727 
L 50.094066 -199.465309 
L 50.094066 -197.603891 
L 50.094066 -195.742473 
L 50.094066 -193.881055 
L 50.094066 -192.019636 
L 50.094066 -190.158218 
L 50.094066 -188.2968 
L 50.094066 -186.435382 
L 50.094066 -184.573964 
L 50.094066 -182.712545 
L 50.094066 -180.851127 
L 50.094066 -178.989709 
L 50.094066 -177.128291 
L 50.094066 -175.266873 
L 50.094066 -173.405455 
L 50.094066 -171.544036 
L 50.094066 -169.682618 
L 50.094066 -167.8212 
L 50.094066 -165.959782 
L 50.094066 -164.098364 
L 50.094066 -162.236945 
L 50.094066 -160.375527 
L 50.094066 -158.514109 
L 50.094066 -156.652691 
L 50.094066 -154.791273 
L 50.094066 -152.929855 
L 50.094066 -151.068436 
L 50.094066 -149.207018 
L 50.094066 -147.3456 
L 50.094066 -145.484182 
L 50.094066 -143.622764 
L 50.094066 -141.761345 
L 50.094066 -139.899927 
L 50.094066 -138.038509 
L 50.094066 -136.177091 
L 50.094066 -134.315673 
L 50.094066 -132.454255 
L 50.094066 -130.592836 
L 50.094066 -128.731418 
L 50.094066 -126.87 
L 50.094066 -125.008582 
L 50.094066 -123.147164 
L 50.094066 -121.285745 
L 50.094066 -119.424327 
L 50.094066 -117.562909 
L 50.094066 -115.701491 
L 50.094066 -113.840073 
L 50.094066 -111.978655 
L 50.094066 -110.117236 
L 50.094066 -108.255818 
L 50.094066 -106.3944 
L 50.094066 -104.532982 
L 50.094066 -102.671564 
L 50.094066 -100.810145 
L 50.094066 -98.948727 
L 50.094066 -97.087309 
L 50.094066 -95.225891 
L 50.094066 -93.364473 
L 50.094066 -91.503055 
L 50.094066 -89.641636 
L 50.094066 -87.780218 
L 50.094066 -85.9188 
L 50.094066 -84.057382 
L 50.094066 -82.195964 
L 50.094066 -80.334545 
L 50.094066 -78.473127 
L 50.094066 -76.611709 
L 50.094066 -74.750291 
L 50.094066 -72.888873 
L 50.094066 -71.027455 
L 50.094066 -69.166036 
L 50.094066 -67.304618 
L 50.094066 -65.4432 
L 50.094066 -63.581782 
L 50.094066 -61.720364 
L 50.094066 -59.858945 
L 50.094066 -57.997527 
L 50.094066 -56.136109 
L 50.094066 -54.274691 
L 50.094066 -52.413273 
L 50.094066 -50.551855 
L 50.094066 -48.690436 
L 50.094066 -46.829018 
L 50.094066 -44.9676 
L 50.094066 -43.106182 
L 50.094066 -41.244764 
L 50.094066 -39.383345 
L 50.094066 -37.521927 
L 50.094066 -35.660509 
L 50.094066 -33.799091 
z
" id="mbb769bb383" style="stroke:#8dd35f;"/>
    </defs>
    <g clip-path="url(#p7557c37690)">
     <use style="fill:#8dd35f;stroke:#8dd35f;" x="0" xlink:href="#mbb769bb383" y="230.4"/>
    </g>
   </g>
   <g id="PolyCollection_4">
    <defs>
     <path d="M 50.094066 -33.799091 
L 47.703573 -33.799091 
L 47.703573 -35.660509 
L 47.703573 -37.521927 
L 47.703573 -39.383345 
L 47.703573 -41.244764 
L 47.703573 -43.106182 
L 47.703573 -44.9676 
L 47.703573 -46.829018 
L 47.703573 -48.690436 
L 47.703573 -50.551855 
L 47.703573 -52.413273 
L 47.703573 -54.274691 
L 47.703573 -56.136109 
L 47.703573 -57.997527 
L 47.703573 -59.858945 
L 47.703573 -61.720364 
L 47.703573 -63.581782 
L 47.703573 -65.4432 
L 47.703573 -67.304618 
L 47.703573 -69.166036 
L 47.703573 -71.027455 
L 47.703573 -72.888873 
L 47.703573 -74.750291 
L 47.703573 -76.611709 
L 47.703573 -78.473127 
L 47.703573 -80.334545 
L 47.703573 -82.195964 
L 47.703573 -84.057382 
L 47.703573 -85.9188 
L 47.703573 -87.780218 
L 47.703573 -89.641636 
L 47.703573 -91.503055 
L 47.703573 -93.364473 
L 47.703573 -95.225891 
L 47.703573 -97.087309 
L 47.703573 -98.948727 
L 47.703573 -100.810145 
L 47.703573 -102.671564 
L 47.703573 -104.532982 
L 47.703573 -106.3944 
L 47.703573 -108.255818 
L 47.703573 -110.117236 
L 47.703573 -111.978655 
L 47.703573 -113.840073 
L 47.703573 -115.701491 
L 47.703573 -117.562909 
L 47.703573 -119.424327 
L 47.703573 -121.285745 
L 47.703573 -123.147164 
L 47.703573 -125.008582 
L 47.703573 -126.87 
L 47.703573 -128.731418 
L 47.703573 -130.592836 
L 47.703573 -132.454255 
L 47.703573 -134.315673 
L 47.703573 -136.177091 
L 47.703573 -138.038509 
L 47.703573 -139.899927 
L 47.703573 -141.761345 
L 47.703573 -143.622764 
L 47.703573 -145.484182 
L 47.703573 -147.3456 
L 47.703573 -149.207018 
L 47.703573 -151.068436 
L 47.703573 -152.929855 
L 47.703573 -154.791273 
L 47.703573 -156.652691 
L 47.703573 -158.514109 
L 47.703573 -160.375527 
L 47.703573 -162.236945 
L 47.703573 -164.098364 
L 47.703573 -165.959782 
L 47.703573 -167.8212 
L 47.703573 -169.682618 
L 47.703573 -171.544036 
L 47.703573 -173.405455 
L 47.703573 -175.266873 
L 47.703573 -177.128291 
L 47.703573 -178.989709 
L 47.703573 -180.851127 
L 47.703573 -182.712545 
L 47.703573 -184.573964 
L 47.703573 -186.435382 
L 47.703573 -188.2968 
L 47.703573 -190.158218 
L 47.703573 -192.019636 
L 47.703573 -193.881055 
L 47.703573 -195.742473 
L 47.70355 -197.603891 
L 47.703502 -199.465309 
L 47.703406 -201.326727 
L 47.703071 -203.188145 
L 47.702115 -205.049564 
L 47.69939 -206.910982 
L 47.691454 -208.7724 
L 47.668481 -210.633818 
L 47.601523 -212.495236 
L 47.403184 -214.356655 
L 46.787369 -216.218073 
L 44.607646 -218.079491 
L 33.664521 -219.940909 
L 50.094066 -219.940909 
L 50.094066 -219.940909 
L 50.094066 -218.079491 
L 50.094066 -216.218073 
L 50.094066 -214.356655 
L 50.094066 -212.495236 
L 50.094066 -210.633818 
L 50.094066 -208.7724 
L 50.094066 -206.910982 
L 50.094066 -205.049564 
L 50.094066 -203.188145 
L 50.094066 -201.326727 
L 50.094066 -199.465309 
L 50.094066 -197.603891 
L 50.094066 -195.742473 
L 50.094066 -193.881055 
L 50.094066 -192.019636 
L 50.094066 -190.158218 
L 50.094066 -188.2968 
L 50.094066 -186.435382 
L 50.094066 -184.573964 
L 50.094066 -182.712545 
L 50.094066 -180.851127 
L 50.094066 -178.989709 
L 50.094066 -177.128291 
L 50.094066 -175.266873 
L 50.094066 -173.405455 
L 50.094066 -171.544036 
L 50.094066 -169.682618 
L 50.094066 -167.8212 
L 50.094066 -165.959782 
L 50.094066 -164.098364 
L 50.094066 -162.236945 
L 50.094066 -160.375527 
L 50.094066 -158.514109 
L 50.094066 -156.652691 
L 50.094066 -154.791273 
L 50.094066 -152.929855 
L 50.094066 -151.068436 
L 50.094066 -149.207018 
L 50.094066 -147.3456 
L 50.094066 -145.484182 
L 50.094066 -143.622764 
L 50.094066 -141.761345 
L 50.094066 -139.899927 
L 50.094066 -138.038509 
L 50.094066 -136.177091 
L 50.094066 -134.315673 
L 50.094066 -132.454255 
L 50.094066 -130.592836 
L 50.094066 -128.731418 
L 50.094066 -126.87 
L 50.094066 -125.008582 
L 50.094066 -123.147164 
L 50.094066 -121.285745 
L 50.094066 -119.424327 
L 50.094066 -117.562909 
L 50.094066 -115.701491 
L 50.094066 -113.840073 
L 50.094066 -111.978655 
L 50.094066 -110.117236 
L 50.094066 -108.255818 
L 50.094066 -106.3944 
L 50.094066 -104.532982 
L 50.094066 -102.671564 
L 50.094066 -100.810145 
L 50.094066 -98.948727 
L 50.094066 -97.087309 
L 50.094066 -95.225891 
L 50.094066 -93.364473 
L 50.094066 -91.503055 
L 50.094066 -89.641636 
L 50.094066 -87.780218 
L 50.094066 -85.9188 
L 50.094066 -84.057382 
L 50.094066 -82.195964 
L 50.094066 -80.334545 
L 50.094066 -78.473127 
L 50.094066 -76.611709 
L 50.094066 -74.750291 
L 50.094066 -72.888873 
L 50.094066 -71.027455 
L 50.094066 -69.166036 
L 50.094066 -67.304618 
L 50.094066 -65.4432 
L 50.094066 -63.581782 
L 50.094066 -61.720364 
L 50.094066 -59.858945 
L 50.094066 -57.997527 
L 50.094066 -56.136109 
L 50.094066 -54.274691 
L 50.094066 -52.413273 
L 50.094066 -50.551855 
L 50.094066 -48.690436 
L 50.094066 -46.829018 
L 50.094066 -44.9676 
L 50.094066 -43.106182 
L 50.094066 -41.244764 
L 50.094066 -39.383345 
L 50.094066 -37.521927 
L 50.094066 -35.660509 
L 50.094066 -33.799091 
z
" id="ma69eea8b62" style="stroke:#8dd35f;"/>
    </defs>
    <g clip-path="url(#p7557c37690)">
     <use style="fill:#8dd35f;stroke:#8dd35f;" x="0" xlink:href="#ma69eea8b62" y="230.4"/>
    </g>
   </g>
   <g id="text_11">
    <!-- $\times 10^7$ -->
    <defs>
     <path d="M 70.125 53.71875 
L 47.796875 31.296875 
L 70.125 8.984375 
L 64.3125 3.078125 
L 41.890625 25.484375 
L 19.484375 3.078125 
L 13.71875 8.984375 
L 35.984375 31.296875 
L 13.71875 53.71875 
L 19.484375 59.625 
L 41.890625 37.203125 
L 64.3125 59.625 
z
" id="DejaVuSans-215"/>
     <path d="M 12.40625 8.296875 
L 28.515625 8.296875 
L 28.515625 63.921875 
L 10.984375 60.40625 
L 10.984375 69.390625 
L 28.421875 72.90625 
L 38.28125 72.90625 
L 38.28125 8.296875 
L 54.390625 8.296875 
L 54.390625 0 
L 12.40625 0 
z
" id="DejaVuSans-49"/>
     <path d="M 31.78125 66.40625 
Q 24.171875 66.40625 20.328125 58.90625 
Q 16.5 51.421875 16.5 36.375 
Q 16.5 21.390625 20.328125 13.890625 
Q 24.171875 6.390625 31.78125 6.390625 
Q 39.453125 6.390625 43.28125 13.890625 
Q 47.125 21.390625 47.125 36.375 
Q 47.125 51.421875 43.28125 58.90625 
Q 39.453125 66.40625 31.78125 66.40625 
z
M 31.78125 74.21875 
Q 44.046875 74.21875 50.515625 64.515625 
Q 56.984375 54.828125 56.984375 36.375 
Q 56.984375 17.96875 50.515625 8.265625 
Q 44.046875 -1.421875 31.78125 -1.421875 
Q 19.53125 -1.421875 13.0625 8.265625 
Q 6.59375 17.96875 6.59375 36.375 
Q 6.59375 54.828125 13.0625 64.515625 
Q 19.53125 74.21875 31.78125 74.21875 
z
" id="DejaVuSans-48"/>
     <path d="M 8.203125 72.90625 
L 55.078125 72.90625 
L 55.078125 68.703125 
L 28.609375 0 
L 18.3125 0 
L 43.21875 64.59375 
L 8.203125 64.59375 
z
" id="DejaVuSans-55"/>
    </defs>
    <g style="fill:#262626;" transform="translate(188.742638 202.417841)scale(0.08 -0.08)">
     <use transform="translate(0 0.684375)" xlink:href="#DejaVuSans-215"/>
     <use transform="translate(83.789062 0.684375)" xlink:href="#DejaVuSans-49"/>
     <use transform="translate(147.412109 0.684375)" xlink:href="#DejaVuSans-48"/>
     <use transform="translate(211.992188 38.965625)scale(0.7)" xlink:href="#DejaVuSans-55"/>
    </g>
   </g>
   <g id="PolyCollection_5">
    <defs>
     <path d="M 50.094066 -33.799091 
L 54.316871 -33.799091 
L 54.32672 -35.660509 
L 54.340513 -37.521927 
L 54.355215 -39.383345 
L 54.370179 -41.244764 
L 54.385287 -43.106182 
L 54.400539 -44.9676 
L 54.415909 -46.829018 
L 54.431376 -48.690436 
L 54.446986 -50.551855 
L 54.462739 -52.413273 
L 54.478588 -54.274691 
L 54.494581 -56.136109 
L 54.510716 -57.997527 
L 54.526972 -59.858945 
L 54.54337 -61.720364 
L 54.559913 -63.581782 
L 54.576598 -65.4432 
L 54.593427 -67.304618 
L 54.6104 -69.166036 
L 54.62754 -71.027455 
L 54.644823 -72.888873 
L 54.662274 -74.750291 
L 54.679892 -76.611709 
L 54.697677 -78.473127 
L 54.715629 -80.334545 
L 54.733773 -82.195964 
L 54.752084 -84.057382 
L 54.770587 -85.9188 
L 54.78928 -87.780218 
L 54.808189 -89.641636 
L 54.827289 -91.503055 
L 54.846604 -93.364473 
L 54.866135 -95.225891 
L 54.88588 -97.087309 
L 54.905865 -98.948727 
L 54.926088 -100.810145 
L 54.946575 -102.671564 
L 54.9673 -104.532982 
L 54.988289 -106.3944 
L 55.009564 -108.255818 
L 55.031127 -110.117236 
L 55.052976 -111.978655 
L 55.075136 -113.840073 
L 55.09763 -115.701491 
L 55.120435 -117.562909 
L 55.143599 -119.424327 
L 55.167122 -121.285745 
L 55.191027 -123.147164 
L 55.215338 -125.008582 
L 55.240056 -126.87 
L 55.265204 -128.731418 
L 55.290782 -130.592836 
L 55.316862 -132.454255 
L 55.343421 -134.315673 
L 55.370505 -136.177091 
L 55.398139 -138.038509 
L 55.426347 -139.899927 
L 55.455176 -141.761345 
L 55.484627 -143.622764 
L 55.514747 -145.484182 
L 55.545585 -147.3456 
L 55.577187 -149.207018 
L 55.609578 -151.068436 
L 55.642806 -152.929855 
L 55.676942 -154.791273 
L 55.712011 -156.652691 
L 55.748131 -158.514109 
L 55.785303 -160.375527 
L 55.823671 -162.236945 
L 55.863257 -164.098364 
L 55.904182 -165.959782 
L 55.946542 -167.8212 
L 55.990455 -169.682618 
L 56.036042 -171.544036 
L 56.083421 -173.405455 
L 56.132809 -175.266873 
L 56.184324 -177.128291 
L 56.238206 -178.989709 
L 56.294669 -180.851127 
L 56.353977 -182.712545 
L 56.416465 -184.573964 
L 56.48249 -186.435382 
L 56.55246 -188.2968 
L 56.626924 -190.158218 
L 56.706432 -192.019636 
L 56.791748 -193.881055 
L 56.883806 -195.742473 
L 56.983705 -197.603891 
L 57.092879 -199.465309 
L 57.213192 -201.326727 
L 57.347131 -203.188145 
L 57.497995 -205.049564 
L 57.670565 -206.910982 
L 57.871821 -208.7724 
L 58.11283 -210.633818 
L 58.412048 -212.495236 
L 58.802774 -214.356655 
L 59.345488 -216.218073 
L 60.118143 -218.079491 
L 60.75987 -219.940909 
L 50.094066 -219.940909 
L 50.094066 -219.940909 
L 50.094066 -218.079491 
L 50.094066 -216.218073 
L 50.094066 -214.356655 
L 50.094066 -212.495236 
L 50.094066 -210.633818 
L 50.094066 -208.7724 
L 50.094066 -206.910982 
L 50.094066 -205.049564 
L 50.094066 -203.188145 
L 50.094066 -201.326727 
L 50.094066 -199.465309 
L 50.094066 -197.603891 
L 50.094066 -195.742473 
L 50.094066 -193.881055 
L 50.094066 -192.019636 
L 50.094066 -190.158218 
L 50.094066 -188.2968 
L 50.094066 -186.435382 
L 50.094066 -184.573964 
L 50.094066 -182.712545 
L 50.094066 -180.851127 
L 50.094066 -178.989709 
L 50.094066 -177.128291 
L 50.094066 -175.266873 
L 50.094066 -173.405455 
L 50.094066 -171.544036 
L 50.094066 -169.682618 
L 50.094066 -167.8212 
L 50.094066 -165.959782 
L 50.094066 -164.098364 
L 50.094066 -162.236945 
L 50.094066 -160.375527 
L 50.094066 -158.514109 
L 50.094066 -156.652691 
L 50.094066 -154.791273 
L 50.094066 -152.929855 
L 50.094066 -151.068436 
L 50.094066 -149.207018 
L 50.094066 -147.3456 
L 50.094066 -145.484182 
L 50.094066 -143.622764 
L 50.094066 -141.761345 
L 50.094066 -139.899927 
L 50.094066 -138.038509 
L 50.094066 -136.177091 
L 50.094066 -134.315673 
L 50.094066 -132.454255 
L 50.094066 -130.592836 
L 50.094066 -128.731418 
L 50.094066 -126.87 
L 50.094066 -125.008582 
L 50.094066 -123.147164 
L 50.094066 -121.285745 
L 50.094066 -119.424327 
L 50.094066 -117.562909 
L 50.094066 -115.701491 
L 50.094066 -113.840073 
L 50.094066 -111.978655 
L 50.094066 -110.117236 
L 50.094066 -108.255818 
L 50.094066 -106.3944 
L 50.094066 -104.532982 
L 50.094066 -102.671564 
L 50.094066 -100.810145 
L 50.094066 -98.948727 
L 50.094066 -97.087309 
L 50.094066 -95.225891 
L 50.094066 -93.364473 
L 50.094066 -91.503055 
L 50.094066 -89.641636 
L 50.094066 -87.780218 
L 50.094066 -85.9188 
L 50.094066 -84.057382 
L 50.094066 -82.195964 
L 50.094066 -80.334545 
L 50.094066 -78.473127 
L 50.094066 -76.611709 
L 50.094066 -74.750291 
L 50.094066 -72.888873 
L 50.094066 -71.027455 
L 50.094066 -69.166036 
L 50.094066 -67.304618 
L 50.094066 -65.4432 
L 50.094066 -63.581782 
L 50.094066 -61.720364 
L 50.094066 -59.858945 
L 50.094066 -57.997527 
L 50.094066 -56.136109 
L 50.094066 -54.274691 
L 50.094066 -52.413273 
L 50.094066 -50.551855 
L 50.094066 -48.690436 
L 50.094066 -46.829018 
L 50.094066 -44.9676 
L 50.094066 -43.106182 
L 50.094066 -41.244764 
L 50.094066 -39.383345 
L 50.094066 -37.521927 
L 50.094066 -35.660509 
L 50.094066 -33.799091 
z
" id="me970f46b7f" style="stroke:#ffb380;"/>
    </defs>
    <g clip-path="url(#p7557c37690)">
     <use style="fill:#ffb380;stroke:#ffb380;" x="0" xlink:href="#me970f46b7f" y="230.4"/>
    </g>
   </g>
   <g id="PolyCollection_6">
    <defs>
     <path d="M 50.094066 -33.799091 
L 47.703573 -33.799091 
L 47.703573 -35.660509 
L 47.703573 -37.521927 
L 47.703573 -39.383345 
L 47.703573 -41.244764 
L 47.703573 -43.106182 
L 47.703573 -44.9676 
L 47.703573 -46.829018 
L 47.703573 -48.690436 
L 47.703573 -50.551855 
L 47.703573 -52.413273 
L 47.703573 -54.274691 
L 47.703573 -56.136109 
L 47.703573 -57.997527 
L 47.703573 -59.858945 
L 47.703573 -61.720364 
L 47.703573 -63.581782 
L 47.703573 -65.4432 
L 47.703573 -67.304618 
L 47.703573 -69.166036 
L 47.703573 -71.027455 
L 47.703573 -72.888873 
L 47.703573 -74.750291 
L 47.703573 -76.611709 
L 47.703573 -78.473127 
L 47.703573 -80.334545 
L 47.703573 -82.195964 
L 47.703573 -84.057382 
L 47.703573 -85.9188 
L 47.703573 -87.780218 
L 47.703573 -89.641636 
L 47.703573 -91.503055 
L 47.703573 -93.364473 
L 47.703573 -95.225891 
L 47.703573 -97.087309 
L 47.703573 -98.948727 
L 47.703573 -100.810145 
L 47.703573 -102.671564 
L 47.703573 -104.532982 
L 47.703573 -106.3944 
L 47.703573 -108.255818 
L 47.703573 -110.117236 
L 47.703573 -111.978655 
L 47.703573 -113.840073 
L 47.703573 -115.701491 
L 47.703573 -117.562909 
L 47.703573 -119.424327 
L 47.703573 -121.285745 
L 47.703573 -123.147164 
L 47.703573 -125.008582 
L 47.703573 -126.87 
L 47.703573 -128.731418 
L 47.703573 -130.592836 
L 47.703573 -132.454255 
L 47.703573 -134.315673 
L 47.703573 -136.177091 
L 47.703573 -138.038509 
L 47.703573 -139.899927 
L 47.703573 -141.761345 
L 47.703573 -143.622764 
L 47.703573 -145.484182 
L 47.703573 -147.3456 
L 47.703573 -149.207018 
L 47.703573 -151.068436 
L 47.703573 -152.929855 
L 47.703573 -154.791273 
L 47.703573 -156.652691 
L 47.703573 -158.514109 
L 47.703573 -160.375527 
L 47.703573 -162.236945 
L 47.703573 -164.098364 
L 47.703573 -165.959782 
L 47.703573 -167.8212 
L 47.703573 -169.682618 
L 47.703573 -171.544036 
L 47.703573 -173.405455 
L 47.703573 -175.266873 
L 47.703573 -177.128291 
L 47.703573 -178.989709 
L 47.703573 -180.851127 
L 47.703573 -182.712545 
L 47.703573 -184.573964 
L 47.703573 -186.435382 
L 47.703573 -188.2968 
L 47.703573 -190.158218 
L 47.703573 -192.019636 
L 47.703573 -193.881055 
L 47.703573 -195.742473 
L 47.703573 -197.603891 
L 47.703573 -199.465309 
L 47.703573 -201.326727 
L 47.70355 -203.188145 
L 47.703454 -205.049564 
L 47.703215 -206.910982 
L 47.702378 -208.7724 
L 47.699701 -210.633818 
L 47.691071 -212.495236 
L 47.663604 -214.356655 
L 47.575921 -216.218073 
L 47.29217 -218.079491 
L 46.319956 -219.940909 
L 50.094066 -219.940909 
L 50.094066 -219.940909 
L 50.094066 -218.079491 
L 50.094066 -216.218073 
L 50.094066 -214.356655 
L 50.094066 -212.495236 
L 50.094066 -210.633818 
L 50.094066 -208.7724 
L 50.094066 -206.910982 
L 50.094066 -205.049564 
L 50.094066 -203.188145 
L 50.094066 -201.326727 
L 50.094066 -199.465309 
L 50.094066 -197.603891 
L 50.094066 -195.742473 
L 50.094066 -193.881055 
L 50.094066 -192.019636 
L 50.094066 -190.158218 
L 50.094066 -188.2968 
L 50.094066 -186.435382 
L 50.094066 -184.573964 
L 50.094066 -182.712545 
L 50.094066 -180.851127 
L 50.094066 -178.989709 
L 50.094066 -177.128291 
L 50.094066 -175.266873 
L 50.094066 -173.405455 
L 50.094066 -171.544036 
L 50.094066 -169.682618 
L 50.094066 -167.8212 
L 50.094066 -165.959782 
L 50.094066 -164.098364 
L 50.094066 -162.236945 
L 50.094066 -160.375527 
L 50.094066 -158.514109 
L 50.094066 -156.652691 
L 50.094066 -154.791273 
L 50.094066 -152.929855 
L 50.094066 -151.068436 
L 50.094066 -149.207018 
L 50.094066 -147.3456 
L 50.094066 -145.484182 
L 50.094066 -143.622764 
L 50.094066 -141.761345 
L 50.094066 -139.899927 
L 50.094066 -138.038509 
L 50.094066 -136.177091 
L 50.094066 -134.315673 
L 50.094066 -132.454255 
L 50.094066 -130.592836 
L 50.094066 -128.731418 
L 50.094066 -126.87 
L 50.094066 -125.008582 
L 50.094066 -123.147164 
L 50.094066 -121.285745 
L 50.094066 -119.424327 
L 50.094066 -117.562909 
L 50.094066 -115.701491 
L 50.094066 -113.840073 
L 50.094066 -111.978655 
L 50.094066 -110.117236 
L 50.094066 -108.255818 
L 50.094066 -106.3944 
L 50.094066 -104.532982 
L 50.094066 -102.671564 
L 50.094066 -100.810145 
L 50.094066 -98.948727 
L 50.094066 -97.087309 
L 50.094066 -95.225891 
L 50.094066 -93.364473 
L 50.094066 -91.503055 
L 50.094066 -89.641636 
L 50.094066 -87.780218 
L 50.094066 -85.9188 
L 50.094066 -84.057382 
L 50.094066 -82.195964 
L 50.094066 -80.334545 
L 50.094066 -78.473127 
L 50.094066 -76.611709 
L 50.094066 -74.750291 
L 50.094066 -72.888873 
L 50.094066 -71.027455 
L 50.094066 -69.166036 
L 50.094066 -67.304618 
L 50.094066 -65.4432 
L 50.094066 -63.581782 
L 50.094066 -61.720364 
L 50.094066 -59.858945 
L 50.094066 -57.997527 
L 50.094066 -56.136109 
L 50.094066 -54.274691 
L 50.094066 -52.413273 
L 50.094066 -50.551855 
L 50.094066 -48.690436 
L 50.094066 -46.829018 
L 50.094066 -44.9676 
L 50.094066 -43.106182 
L 50.094066 -41.244764 
L 50.094066 -39.383345 
L 50.094066 -37.521927 
L 50.094066 -35.660509 
L 50.094066 -33.799091 
z
" id="m03f9be5e00" style="stroke:#ffb380;"/>
    </defs>
    <g clip-path="url(#p7557c37690)">
     <use style="fill:#ffb380;stroke:#ffb380;" x="0" xlink:href="#m03f9be5e00" y="230.4"/>
    </g>
   </g>
  </g>
  <g id="axes_3">
   <g id="patch_7">
    <path d="M 67.881884 205.908 
L 229.194 205.908 
L 229.194 1.152 
L 67.881884 1.152 
z
" style="fill:#ffffff;"/>
   </g>
   <g id="matplotlib.axis_3">
    <g id="xtick_2">
     <g id="line2d_12">
      <g>
       <use style="fill:#262626;stroke:#262626;stroke-width:0.8;" x="67.881884" xlink:href="#m402d85ffb7" y="205.908"/>
      </g>
     </g>
     <g id="text_12">
      <!-- 0 -->
      <g style="fill:#262626;" transform="translate(65.336884 219.48675)scale(0.08 -0.08)">
       <use xlink:href="#DejaVuSerif-48"/>
      </g>
     </g>
    </g>
    <g id="xtick_3">
     <g id="line2d_13">
      <g>
       <use style="fill:#262626;stroke:#262626;stroke-width:0.8;" x="115.691737" xlink:href="#m402d85ffb7" y="205.908"/>
      </g>
     </g>
     <g id="text_13">
      <!-- 2 -->
      <g style="fill:#262626;" transform="translate(113.146737 219.48675)scale(0.08 -0.08)">
       <use xlink:href="#DejaVuSerif-50"/>
      </g>
     </g>
    </g>
    <g id="xtick_4">
     <g id="line2d_14">
      <g>
       <use style="fill:#262626;stroke:#262626;stroke-width:0.8;" x="163.501589" xlink:href="#m402d85ffb7" y="205.908"/>
      </g>
     </g>
     <g id="text_14">
      <!-- 4 -->
      <g style="fill:#262626;" transform="translate(160.956589 219.48675)scale(0.08 -0.08)">
       <use xlink:href="#DejaVuSerif-52"/>
      </g>
     </g>
    </g>
    <g id="xtick_5">
     <g id="line2d_15">
      <g>
       <use style="fill:#262626;stroke:#262626;stroke-width:0.8;" x="211.311442" xlink:href="#m402d85ffb7" y="205.908"/>
      </g>
     </g>
     <g id="text_15">
      <!-- 6 -->
      <g style="fill:#262626;" transform="translate(208.766442 219.48675)scale(0.08 -0.08)">
       <use xlink:href="#DejaVuSerif-54"/>
      </g>
     </g>
    </g>
   </g>
   <g id="matplotlib.axis_4">
    <g id="ytick_10"/>
    <g id="ytick_11"/>
    <g id="ytick_12"/>
    <g id="ytick_13"/>
    <g id="ytick_14"/>
    <g id="ytick_15"/>
    <g id="ytick_16"/>
    <g id="ytick_17"/>
    <g id="ytick_18"/>
   </g>
   <g id="patch_8">
    <path clip-path="url(#p3ad767d48e)" d="M 67.881884 205.908 
L 67.881884 1.152 
L 229.194 1.152 
L 229.194 205.908 
z
" style="fill:#ffdd55;opacity:0.35;stroke:#ffdd55;stroke-linejoin:miter;"/>
   </g>
   <g id="PolyCollection_7">
    <defs>
     <path d="M 67.881884 -33.799091 
L 114.89642 -33.799091 
L 115.138099 -35.660509 
L 115.391252 -37.521927 
L 115.646078 -39.383345 
L 115.902817 -41.244764 
L 116.16123 -43.106182 
L 116.421315 -44.9676 
L 116.683313 -46.829018 
L 116.947224 -48.690436 
L 117.212807 -50.551855 
L 117.480303 -52.413273 
L 117.749712 -54.274691 
L 118.021033 -56.136109 
L 118.294505 -57.997527 
L 118.56989 -59.858945 
L 118.847426 -61.720364 
L 119.126875 -63.581782 
L 119.408714 -65.4432 
L 119.692704 -67.304618 
L 119.979085 -69.166036 
L 120.267618 -71.027455 
L 120.55878 -72.888873 
L 120.852332 -74.750291 
L 121.148275 -76.611709 
L 121.446848 -78.473127 
L 121.74805 -80.334545 
L 122.052121 -82.195964 
L 122.358821 -84.057382 
L 122.66839 -85.9188 
L 122.981066 -87.780218 
L 123.29685 -89.641636 
L 123.615503 -91.503055 
L 123.937741 -93.364473 
L 124.263326 -95.225891 
L 124.592258 -97.087309 
L 124.924776 -98.948727 
L 125.261118 -100.810145 
L 125.601285 -102.671564 
L 125.945516 -104.532982 
L 126.293811 -106.3944 
L 126.646408 -108.255818 
L 127.003548 -110.117236 
L 127.365229 -111.978655 
L 127.731692 -113.840073 
L 128.103414 -115.701491 
L 128.480394 -117.562909 
L 128.862634 -119.424327 
L 129.250611 -121.285745 
L 129.644564 -123.147164 
L 130.044733 -125.008582 
L 130.451594 -126.87 
L 130.864911 -128.731418 
L 131.285637 -130.592836 
L 131.713775 -132.454255 
L 132.149561 -134.315673 
L 132.593954 -136.177091 
L 133.046713 -138.038509 
L 133.508556 -139.899927 
L 133.980201 -141.761345 
L 134.461646 -143.622764 
L 134.954087 -145.484182 
L 135.457525 -147.3456 
L 135.973154 -149.207018 
L 136.501214 -151.068436 
L 137.042661 -152.929855 
L 137.59845 -154.791273 
L 138.169539 -156.652691 
L 138.756405 -158.514109 
L 139.360721 -160.375527 
L 139.983445 -162.236945 
L 140.62577 -164.098364 
L 141.289371 -165.959782 
L 141.975681 -167.8212 
L 142.686614 -169.682618 
L 143.424081 -171.544036 
L 144.190234 -173.405455 
L 144.987702 -175.266873 
L 145.819115 -177.128291 
L 146.688059 -178.989709 
L 147.597881 -180.851127 
L 148.553122 -182.712545 
L 149.558324 -184.573964 
L 150.619703 -186.435382 
L 151.743473 -188.2968 
L 152.938002 -190.158218 
L 154.212613 -192.019636 
L 155.57878 -193.881055 
L 157.051323 -195.742473 
L 158.647455 -197.603891 
L 160.389646 -199.465309 
L 162.307299 -201.326727 
L 164.438184 -203.188145 
L 166.834653 -205.049564 
L 169.569616 -206.910982 
L 172.750883 -208.7724 
L 176.546029 -210.633818 
L 181.234503 -212.495236 
L 187.323565 -214.356655 
L 195.803121 -216.218073 
L 208.705566 -218.079491 
L 229.194 -219.940909 
L 67.881884 -219.940909 
L 67.881884 -219.940909 
L 67.881884 -218.079491 
L 67.881884 -216.218073 
L 67.881884 -214.356655 
L 67.881884 -212.495236 
L 67.881884 -210.633818 
L 67.881884 -208.7724 
L 67.881884 -206.910982 
L 67.881884 -205.049564 
L 67.881884 -203.188145 
L 67.881884 -201.326727 
L 67.881884 -199.465309 
L 67.881884 -197.603891 
L 67.881884 -195.742473 
L 67.881884 -193.881055 
L 67.881884 -192.019636 
L 67.881884 -190.158218 
L 67.881884 -188.2968 
L 67.881884 -186.435382 
L 67.881884 -184.573964 
L 67.881884 -182.712545 
L 67.881884 -180.851127 
L 67.881884 -178.989709 
L 67.881884 -177.128291 
L 67.881884 -175.266873 
L 67.881884 -173.405455 
L 67.881884 -171.544036 
L 67.881884 -169.682618 
L 67.881884 -167.8212 
L 67.881884 -165.959782 
L 67.881884 -164.098364 
L 67.881884 -162.236945 
L 67.881884 -160.375527 
L 67.881884 -158.514109 
L 67.881884 -156.652691 
L 67.881884 -154.791273 
L 67.881884 -152.929855 
L 67.881884 -151.068436 
L 67.881884 -149.207018 
L 67.881884 -147.3456 
L 67.881884 -145.484182 
L 67.881884 -143.622764 
L 67.881884 -141.761345 
L 67.881884 -139.899927 
L 67.881884 -138.038509 
L 67.881884 -136.177091 
L 67.881884 -134.315673 
L 67.881884 -132.454255 
L 67.881884 -130.592836 
L 67.881884 -128.731418 
L 67.881884 -126.87 
L 67.881884 -125.008582 
L 67.881884 -123.147164 
L 67.881884 -121.285745 
L 67.881884 -119.424327 
L 67.881884 -117.562909 
L 67.881884 -115.701491 
L 67.881884 -113.840073 
L 67.881884 -111.978655 
L 67.881884 -110.117236 
L 67.881884 -108.255818 
L 67.881884 -106.3944 
L 67.881884 -104.532982 
L 67.881884 -102.671564 
L 67.881884 -100.810145 
L 67.881884 -98.948727 
L 67.881884 -97.087309 
L 67.881884 -95.225891 
L 67.881884 -93.364473 
L 67.881884 -91.503055 
L 67.881884 -89.641636 
L 67.881884 -87.780218 
L 67.881884 -85.9188 
L 67.881884 -84.057382 
L 67.881884 -82.195964 
L 67.881884 -80.334545 
L 67.881884 -78.473127 
L 67.881884 -76.611709 
L 67.881884 -74.750291 
L 67.881884 -72.888873 
L 67.881884 -71.027455 
L 67.881884 -69.166036 
L 67.881884 -67.304618 
L 67.881884 -65.4432 
L 67.881884 -63.581782 
L 67.881884 -61.720364 
L 67.881884 -59.858945 
L 67.881884 -57.997527 
L 67.881884 -56.136109 
L 67.881884 -54.274691 
L 67.881884 -52.413273 
L 67.881884 -50.551855 
L 67.881884 -48.690436 
L 67.881884 -46.829018 
L 67.881884 -44.9676 
L 67.881884 -43.106182 
L 67.881884 -41.244764 
L 67.881884 -39.383345 
L 67.881884 -37.521927 
L 67.881884 -35.660509 
L 67.881884 -33.799091 
z
" id="m5637b06624" style="stroke:#447821;"/>
    </defs>
    <g clip-path="url(#p3ad767d48e)">
     <use style="fill:#447821;stroke:#447821;" x="0" xlink:href="#m5637b06624" y="230.4"/>
    </g>
   </g>
   <g id="PolyCollection_8">
    <defs>
     <path d="M 67.881884 -33.799091 
L 65.491392 -33.799091 
L 65.491392 -35.660509 
L 65.491392 -37.521927 
L 65.491392 -39.383345 
L 65.491392 -41.244764 
L 65.491392 -43.106182 
L 65.491392 -44.9676 
L 65.491392 -46.829018 
L 65.491392 -48.690436 
L 65.491392 -50.551855 
L 65.491392 -52.413273 
L 65.491392 -54.274691 
L 65.491392 -56.136109 
L 65.491392 -57.997527 
L 65.491392 -59.858945 
L 65.491392 -61.720364 
L 65.491392 -63.581782 
L 65.491392 -65.4432 
L 65.491392 -67.304618 
L 65.491392 -69.166036 
L 65.491392 -71.027455 
L 65.491392 -72.888873 
L 65.491392 -74.750291 
L 65.491392 -76.611709 
L 65.491392 -78.473127 
L 65.491392 -80.334545 
L 65.491392 -82.195964 
L 65.491392 -84.057382 
L 65.491392 -85.9188 
L 65.491392 -87.780218 
L 65.491392 -89.641636 
L 65.491392 -91.503055 
L 65.491392 -93.364473 
L 65.491392 -95.225891 
L 65.491392 -97.087309 
L 65.491392 -98.948727 
L 65.491392 -100.810145 
L 65.491392 -102.671564 
L 65.491392 -104.532982 
L 65.491392 -106.3944 
L 65.491392 -108.255818 
L 65.491392 -110.117236 
L 65.491392 -111.978655 
L 65.491392 -113.840073 
L 65.491392 -115.701491 
L 65.491392 -117.562909 
L 65.491392 -119.424327 
L 65.491392 -121.285745 
L 65.491392 -123.147164 
L 65.491392 -125.008582 
L 65.491392 -126.87 
L 65.491392 -128.731418 
L 65.491392 -130.592836 
L 65.491392 -132.454255 
L 65.491392 -134.315673 
L 65.491392 -136.177091 
L 65.491392 -138.038509 
L 65.491392 -139.899927 
L 65.491392 -141.761345 
L 65.491392 -143.622764 
L 65.491392 -145.484182 
L 65.491392 -147.3456 
L 65.491392 -149.207018 
L 65.491392 -151.068436 
L 65.491392 -152.929855 
L 65.491392 -154.791273 
L 65.491392 -156.652691 
L 65.491392 -158.514109 
L 65.491392 -160.375527 
L 65.491392 -162.236945 
L 65.491392 -164.098364 
L 65.491392 -165.959782 
L 65.491392 -167.8212 
L 65.491392 -169.682618 
L 65.491392 -171.544036 
L 65.491392 -173.405455 
L 65.491392 -175.266873 
L 65.491392 -177.128291 
L 65.491392 -178.989709 
L 65.491392 -180.851127 
L 65.491392 -182.712545 
L 65.491392 -184.573964 
L 65.491392 -186.435382 
L 65.491392 -188.2968 
L 65.491392 -190.158218 
L 65.491392 -192.019636 
L 65.491392 -193.881055 
L 65.491392 -195.742473 
L 65.491368 -197.603891 
L 65.49132 -199.465309 
L 65.491224 -201.326727 
L 65.49089 -203.188145 
L 65.489933 -205.049564 
L 65.48716 -206.910982 
L 65.479128 -208.7724 
L 65.455965 -210.633818 
L 65.388457 -212.495236 
L 65.188636 -214.356655 
L 64.568494 -216.218073 
L 62.372038 -218.079491 
L 51.315818 -219.940909 
L 67.881884 -219.940909 
L 67.881884 -219.940909 
L 67.881884 -218.079491 
L 67.881884 -216.218073 
L 67.881884 -214.356655 
L 67.881884 -212.495236 
L 67.881884 -210.633818 
L 67.881884 -208.7724 
L 67.881884 -206.910982 
L 67.881884 -205.049564 
L 67.881884 -203.188145 
L 67.881884 -201.326727 
L 67.881884 -199.465309 
L 67.881884 -197.603891 
L 67.881884 -195.742473 
L 67.881884 -193.881055 
L 67.881884 -192.019636 
L 67.881884 -190.158218 
L 67.881884 -188.2968 
L 67.881884 -186.435382 
L 67.881884 -184.573964 
L 67.881884 -182.712545 
L 67.881884 -180.851127 
L 67.881884 -178.989709 
L 67.881884 -177.128291 
L 67.881884 -175.266873 
L 67.881884 -173.405455 
L 67.881884 -171.544036 
L 67.881884 -169.682618 
L 67.881884 -167.8212 
L 67.881884 -165.959782 
L 67.881884 -164.098364 
L 67.881884 -162.236945 
L 67.881884 -160.375527 
L 67.881884 -158.514109 
L 67.881884 -156.652691 
L 67.881884 -154.791273 
L 67.881884 -152.929855 
L 67.881884 -151.068436 
L 67.881884 -149.207018 
L 67.881884 -147.3456 
L 67.881884 -145.484182 
L 67.881884 -143.622764 
L 67.881884 -141.761345 
L 67.881884 -139.899927 
L 67.881884 -138.038509 
L 67.881884 -136.177091 
L 67.881884 -134.315673 
L 67.881884 -132.454255 
L 67.881884 -130.592836 
L 67.881884 -128.731418 
L 67.881884 -126.87 
L 67.881884 -125.008582 
L 67.881884 -123.147164 
L 67.881884 -121.285745 
L 67.881884 -119.424327 
L 67.881884 -117.562909 
L 67.881884 -115.701491 
L 67.881884 -113.840073 
L 67.881884 -111.978655 
L 67.881884 -110.117236 
L 67.881884 -108.255818 
L 67.881884 -106.3944 
L 67.881884 -104.532982 
L 67.881884 -102.671564 
L 67.881884 -100.810145 
L 67.881884 -98.948727 
L 67.881884 -97.087309 
L 67.881884 -95.225891 
L 67.881884 -93.364473 
L 67.881884 -91.503055 
L 67.881884 -89.641636 
L 67.881884 -87.780218 
L 67.881884 -85.9188 
L 67.881884 -84.057382 
L 67.881884 -82.195964 
L 67.881884 -80.334545 
L 67.881884 -78.473127 
L 67.881884 -76.611709 
L 67.881884 -74.750291 
L 67.881884 -72.888873 
L 67.881884 -71.027455 
L 67.881884 -69.166036 
L 67.881884 -67.304618 
L 67.881884 -65.4432 
L 67.881884 -63.581782 
L 67.881884 -61.720364 
L 67.881884 -59.858945 
L 67.881884 -57.997527 
L 67.881884 -56.136109 
L 67.881884 -54.274691 
L 67.881884 -52.413273 
L 67.881884 -50.551855 
L 67.881884 -48.690436 
L 67.881884 -46.829018 
L 67.881884 -44.9676 
L 67.881884 -43.106182 
L 67.881884 -41.244764 
L 67.881884 -39.383345 
L 67.881884 -37.521927 
L 67.881884 -35.660509 
L 67.881884 -33.799091 
z
" id="md4a0b7e0c4" style="stroke:#447821;"/>
    </defs>
    <g clip-path="url(#p3ad767d48e)">
     <use style="fill:#447821;stroke:#447821;" x="0" xlink:href="#md4a0b7e0c4" y="230.4"/>
    </g>
   </g>
   <g id="line2d_16">
    <path d="M 65.438123 208.351761 
L 70.325645 203.464239 
" style="fill:none;stroke:#000000;stroke-linecap:round;stroke-width:0.8;"/>
   </g>
   <g id="patch_9">
    <path d="M 67.881884 205.908 
L 229.194 205.908 
" style="fill:none;stroke:#262626;stroke-linecap:square;stroke-linejoin:miter;stroke-width:0.8;"/>
   </g>
   <g id="PolyCollection_9">
    <defs>
     <path d="M 67.881884 -33.799091 
L 114.192898 -33.799091 
L 114.430752 -35.660509 
L 114.679841 -37.521927 
L 114.931082 -39.383345 
L 115.183757 -41.244764 
L 115.438345 -43.106182 
L 115.694366 -44.9676 
L 115.95254 -46.829018 
L 116.212147 -48.690436 
L 116.473667 -50.551855 
L 116.737099 -52.413273 
L 117.002444 -54.274691 
L 117.269701 -56.136109 
L 117.53887 -57.997527 
L 117.810191 -59.858945 
L 118.083425 -61.720364 
L 118.358809 -63.581782 
L 118.636346 -65.4432 
L 118.916033 -67.304618 
L 119.197872 -69.166036 
L 119.482102 -71.027455 
L 119.768722 -72.888873 
L 120.057733 -74.750291 
L 120.349134 -76.611709 
L 120.643164 -78.473127 
L 120.939824 -80.334545 
L 121.239353 -82.195964 
L 121.541272 -84.057382 
L 121.846299 -85.9188 
L 122.154195 -87.780218 
L 122.464959 -89.641636 
L 122.779069 -91.503055 
L 123.096288 -93.364473 
L 123.416853 -95.225891 
L 123.740765 -97.087309 
L 124.068262 -98.948727 
L 124.399345 -100.810145 
L 124.734492 -102.671564 
L 125.073225 -104.532982 
L 125.416261 -106.3944 
L 125.763599 -108.255818 
L 126.115241 -110.117236 
L 126.471424 -111.978655 
L 126.832389 -113.840073 
L 127.198373 -115.701491 
L 127.569617 -117.562909 
L 127.946119 -119.424327 
L 128.32812 -121.285745 
L 128.716097 -123.147164 
L 129.110289 -125.008582 
L 129.510697 -126.87 
L 129.918036 -128.731418 
L 130.33207 -130.592836 
L 130.753753 -132.454255 
L 131.183085 -134.315673 
L 131.620545 -136.177091 
L 132.066372 -138.038509 
L 132.521283 -139.899927 
L 132.985517 -141.761345 
L 133.45979 -143.622764 
L 133.944582 -145.484182 
L 134.440609 -147.3456 
L 134.948111 -149.207018 
L 135.468282 -151.068436 
L 136.001601 -152.929855 
L 136.548785 -154.791273 
L 137.111029 -156.652691 
L 137.68905 -158.514109 
L 138.284283 -160.375527 
L 138.897444 -162.236945 
L 139.529968 -164.098364 
L 140.183529 -165.959782 
L 140.859321 -167.8212 
L 141.559257 -169.682618 
L 142.285489 -171.544036 
L 143.039929 -173.405455 
L 143.825444 -175.266873 
L 144.644188 -177.128291 
L 145.499985 -178.989709 
L 146.395941 -180.851127 
L 147.3366 -182.712545 
L 148.326503 -184.573964 
L 149.371626 -186.435382 
L 150.478185 -188.2968 
L 151.654547 -190.158218 
L 152.909556 -192.019636 
L 154.255164 -193.881055 
L 155.705237 -195.742473 
L 157.276986 -197.603891 
L 158.992642 -199.465309 
L 160.881131 -201.326727 
L 162.979506 -203.188145 
L 165.3394 -205.049564 
L 168.032768 -206.910982 
L 171.165748 -208.7724 
L 174.902805 -210.633818 
L 179.520041 -212.495236 
L 185.516353 -214.356655 
L 193.867061 -216.218073 
L 206.572768 -218.079491 
L 226.733705 -219.940909 
L 67.881884 -219.940909 
L 67.881884 -219.940909 
L 67.881884 -218.079491 
L 67.881884 -216.218073 
L 67.881884 -214.356655 
L 67.881884 -212.495236 
L 67.881884 -210.633818 
L 67.881884 -208.7724 
L 67.881884 -206.910982 
L 67.881884 -205.049564 
L 67.881884 -203.188145 
L 67.881884 -201.326727 
L 67.881884 -199.465309 
L 67.881884 -197.603891 
L 67.881884 -195.742473 
L 67.881884 -193.881055 
L 67.881884 -192.019636 
L 67.881884 -190.158218 
L 67.881884 -188.2968 
L 67.881884 -186.435382 
L 67.881884 -184.573964 
L 67.881884 -182.712545 
L 67.881884 -180.851127 
L 67.881884 -178.989709 
L 67.881884 -177.128291 
L 67.881884 -175.266873 
L 67.881884 -173.405455 
L 67.881884 -171.544036 
L 67.881884 -169.682618 
L 67.881884 -167.8212 
L 67.881884 -165.959782 
L 67.881884 -164.098364 
L 67.881884 -162.236945 
L 67.881884 -160.375527 
L 67.881884 -158.514109 
L 67.881884 -156.652691 
L 67.881884 -154.791273 
L 67.881884 -152.929855 
L 67.881884 -151.068436 
L 67.881884 -149.207018 
L 67.881884 -147.3456 
L 67.881884 -145.484182 
L 67.881884 -143.622764 
L 67.881884 -141.761345 
L 67.881884 -139.899927 
L 67.881884 -138.038509 
L 67.881884 -136.177091 
L 67.881884 -134.315673 
L 67.881884 -132.454255 
L 67.881884 -130.592836 
L 67.881884 -128.731418 
L 67.881884 -126.87 
L 67.881884 -125.008582 
L 67.881884 -123.147164 
L 67.881884 -121.285745 
L 67.881884 -119.424327 
L 67.881884 -117.562909 
L 67.881884 -115.701491 
L 67.881884 -113.840073 
L 67.881884 -111.978655 
L 67.881884 -110.117236 
L 67.881884 -108.255818 
L 67.881884 -106.3944 
L 67.881884 -104.532982 
L 67.881884 -102.671564 
L 67.881884 -100.810145 
L 67.881884 -98.948727 
L 67.881884 -97.087309 
L 67.881884 -95.225891 
L 67.881884 -93.364473 
L 67.881884 -91.503055 
L 67.881884 -89.641636 
L 67.881884 -87.780218 
L 67.881884 -85.9188 
L 67.881884 -84.057382 
L 67.881884 -82.195964 
L 67.881884 -80.334545 
L 67.881884 -78.473127 
L 67.881884 -76.611709 
L 67.881884 -74.750291 
L 67.881884 -72.888873 
L 67.881884 -71.027455 
L 67.881884 -69.166036 
L 67.881884 -67.304618 
L 67.881884 -65.4432 
L 67.881884 -63.581782 
L 67.881884 -61.720364 
L 67.881884 -59.858945 
L 67.881884 -57.997527 
L 67.881884 -56.136109 
L 67.881884 -54.274691 
L 67.881884 -52.413273 
L 67.881884 -50.551855 
L 67.881884 -48.690436 
L 67.881884 -46.829018 
L 67.881884 -44.9676 
L 67.881884 -43.106182 
L 67.881884 -41.244764 
L 67.881884 -39.383345 
L 67.881884 -37.521927 
L 67.881884 -35.660509 
L 67.881884 -33.799091 
z
" id="m9192e96adf" style="stroke:#8dd35f;"/>
    </defs>
    <g clip-path="url(#p3ad767d48e)">
     <use style="fill:#8dd35f;stroke:#8dd35f;" x="0" xlink:href="#m9192e96adf" y="230.4"/>
    </g>
   </g>
   <g id="PolyCollection_10">
    <defs>
     <path d="M 67.881884 -33.799091 
L 65.491392 -33.799091 
L 65.491392 -35.660509 
L 65.491392 -37.521927 
L 65.491392 -39.383345 
L 65.491392 -41.244764 
L 65.491392 -43.106182 
L 65.491392 -44.9676 
L 65.491392 -46.829018 
L 65.491392 -48.690436 
L 65.491392 -50.551855 
L 65.491392 -52.413273 
L 65.491392 -54.274691 
L 65.491392 -56.136109 
L 65.491392 -57.997527 
L 65.491392 -59.858945 
L 65.491392 -61.720364 
L 65.491392 -63.581782 
L 65.491392 -65.4432 
L 65.491392 -67.304618 
L 65.491392 -69.166036 
L 65.491392 -71.027455 
L 65.491392 -72.888873 
L 65.491392 -74.750291 
L 65.491392 -76.611709 
L 65.491392 -78.473127 
L 65.491392 -80.334545 
L 65.491392 -82.195964 
L 65.491392 -84.057382 
L 65.491392 -85.9188 
L 65.491392 -87.780218 
L 65.491392 -89.641636 
L 65.491392 -91.503055 
L 65.491392 -93.364473 
L 65.491392 -95.225891 
L 65.491392 -97.087309 
L 65.491392 -98.948727 
L 65.491392 -100.810145 
L 65.491392 -102.671564 
L 65.491392 -104.532982 
L 65.491392 -106.3944 
L 65.491392 -108.255818 
L 65.491392 -110.117236 
L 65.491392 -111.978655 
L 65.491392 -113.840073 
L 65.491392 -115.701491 
L 65.491392 -117.562909 
L 65.491392 -119.424327 
L 65.491392 -121.285745 
L 65.491392 -123.147164 
L 65.491392 -125.008582 
L 65.491392 -126.87 
L 65.491392 -128.731418 
L 65.491392 -130.592836 
L 65.491392 -132.454255 
L 65.491392 -134.315673 
L 65.491392 -136.177091 
L 65.491392 -138.038509 
L 65.491392 -139.899927 
L 65.491392 -141.761345 
L 65.491392 -143.622764 
L 65.491392 -145.484182 
L 65.491392 -147.3456 
L 65.491392 -149.207018 
L 65.491392 -151.068436 
L 65.491392 -152.929855 
L 65.491392 -154.791273 
L 65.491392 -156.652691 
L 65.491392 -158.514109 
L 65.491392 -160.375527 
L 65.491392 -162.236945 
L 65.491392 -164.098364 
L 65.491392 -165.959782 
L 65.491392 -167.8212 
L 65.491392 -169.682618 
L 65.491392 -171.544036 
L 65.491392 -173.405455 
L 65.491392 -175.266873 
L 65.491392 -177.128291 
L 65.491392 -178.989709 
L 65.491392 -180.851127 
L 65.491392 -182.712545 
L 65.491392 -184.573964 
L 65.491392 -186.435382 
L 65.491392 -188.2968 
L 65.491392 -190.158218 
L 65.491392 -192.019636 
L 65.491392 -193.881055 
L 65.491392 -195.742473 
L 65.491368 -197.603891 
L 65.49132 -199.465309 
L 65.491224 -201.326727 
L 65.49089 -203.188145 
L 65.489933 -205.049564 
L 65.487208 -206.910982 
L 65.479272 -208.7724 
L 65.456299 -210.633818 
L 65.389342 -212.495236 
L 65.191002 -214.356655 
L 64.575188 -216.218073 
L 62.395465 -218.079491 
L 51.452339 -219.940909 
L 67.881884 -219.940909 
L 67.881884 -219.940909 
L 67.881884 -218.079491 
L 67.881884 -216.218073 
L 67.881884 -214.356655 
L 67.881884 -212.495236 
L 67.881884 -210.633818 
L 67.881884 -208.7724 
L 67.881884 -206.910982 
L 67.881884 -205.049564 
L 67.881884 -203.188145 
L 67.881884 -201.326727 
L 67.881884 -199.465309 
L 67.881884 -197.603891 
L 67.881884 -195.742473 
L 67.881884 -193.881055 
L 67.881884 -192.019636 
L 67.881884 -190.158218 
L 67.881884 -188.2968 
L 67.881884 -186.435382 
L 67.881884 -184.573964 
L 67.881884 -182.712545 
L 67.881884 -180.851127 
L 67.881884 -178.989709 
L 67.881884 -177.128291 
L 67.881884 -175.266873 
L 67.881884 -173.405455 
L 67.881884 -171.544036 
L 67.881884 -169.682618 
L 67.881884 -167.8212 
L 67.881884 -165.959782 
L 67.881884 -164.098364 
L 67.881884 -162.236945 
L 67.881884 -160.375527 
L 67.881884 -158.514109 
L 67.881884 -156.652691 
L 67.881884 -154.791273 
L 67.881884 -152.929855 
L 67.881884 -151.068436 
L 67.881884 -149.207018 
L 67.881884 -147.3456 
L 67.881884 -145.484182 
L 67.881884 -143.622764 
L 67.881884 -141.761345 
L 67.881884 -139.899927 
L 67.881884 -138.038509 
L 67.881884 -136.177091 
L 67.881884 -134.315673 
L 67.881884 -132.454255 
L 67.881884 -130.592836 
L 67.881884 -128.731418 
L 67.881884 -126.87 
L 67.881884 -125.008582 
L 67.881884 -123.147164 
L 67.881884 -121.285745 
L 67.881884 -119.424327 
L 67.881884 -117.562909 
L 67.881884 -115.701491 
L 67.881884 -113.840073 
L 67.881884 -111.978655 
L 67.881884 -110.117236 
L 67.881884 -108.255818 
L 67.881884 -106.3944 
L 67.881884 -104.532982 
L 67.881884 -102.671564 
L 67.881884 -100.810145 
L 67.881884 -98.948727 
L 67.881884 -97.087309 
L 67.881884 -95.225891 
L 67.881884 -93.364473 
L 67.881884 -91.503055 
L 67.881884 -89.641636 
L 67.881884 -87.780218 
L 67.881884 -85.9188 
L 67.881884 -84.057382 
L 67.881884 -82.195964 
L 67.881884 -80.334545 
L 67.881884 -78.473127 
L 67.881884 -76.611709 
L 67.881884 -74.750291 
L 67.881884 -72.888873 
L 67.881884 -71.027455 
L 67.881884 -69.166036 
L 67.881884 -67.304618 
L 67.881884 -65.4432 
L 67.881884 -63.581782 
L 67.881884 -61.720364 
L 67.881884 -59.858945 
L 67.881884 -57.997527 
L 67.881884 -56.136109 
L 67.881884 -54.274691 
L 67.881884 -52.413273 
L 67.881884 -50.551855 
L 67.881884 -48.690436 
L 67.881884 -46.829018 
L 67.881884 -44.9676 
L 67.881884 -43.106182 
L 67.881884 -41.244764 
L 67.881884 -39.383345 
L 67.881884 -37.521927 
L 67.881884 -35.660509 
L 67.881884 -33.799091 
z
" id="md1ca64f75d" style="stroke:#8dd35f;"/>
    </defs>
    <g clip-path="url(#p3ad767d48e)">
     <use style="fill:#8dd35f;stroke:#8dd35f;" x="0" xlink:href="#md1ca64f75d" y="230.4"/>
    </g>
   </g>
   <g id="text_16">
    <!-- $\times 10^7$ -->
    <g style="fill:#262626;" transform="translate(206.530457 202.417841)scale(0.08 -0.08)">
     <use transform="translate(0 0.684375)" xlink:href="#DejaVuSans-215"/>
     <use transform="translate(83.789062 0.684375)" xlink:href="#DejaVuSans-49"/>
     <use transform="translate(147.412109 0.684375)" xlink:href="#DejaVuSans-48"/>
     <use transform="translate(211.992188 38.965625)scale(0.7)" xlink:href="#DejaVuSans-55"/>
    </g>
   </g>
   <g id="PolyCollection_11">
    <defs>
     <path d="M 67.881884 -33.799091 
L 72.104689 -33.799091 
L 72.114538 -35.660509 
L 72.128331 -37.521927 
L 72.143033 -39.383345 
L 72.157997 -41.244764 
L 72.173105 -43.106182 
L 72.188357 -44.9676 
L 72.203728 -46.829018 
L 72.219194 -48.690436 
L 72.234804 -50.551855 
L 72.250557 -52.413273 
L 72.266406 -54.274691 
L 72.282399 -56.136109 
L 72.298535 -57.997527 
L 72.31479 -59.858945 
L 72.331189 -61.720364 
L 72.347731 -63.581782 
L 72.364417 -65.4432 
L 72.381246 -67.304618 
L 72.398218 -69.166036 
L 72.415358 -71.027455 
L 72.432641 -72.888873 
L 72.450092 -74.750291 
L 72.46771 -76.611709 
L 72.485495 -78.473127 
L 72.503448 -80.334545 
L 72.521591 -82.195964 
L 72.539903 -84.057382 
L 72.558405 -85.9188 
L 72.577099 -87.780218 
L 72.596007 -89.641636 
L 72.615107 -91.503055 
L 72.634423 -93.364473 
L 72.653953 -95.225891 
L 72.673698 -97.087309 
L 72.693683 -98.948727 
L 72.713907 -100.810145 
L 72.734393 -102.671564 
L 72.755119 -104.532982 
L 72.776107 -106.3944 
L 72.797383 -108.255818 
L 72.818945 -110.117236 
L 72.840794 -111.978655 
L 72.862954 -113.840073 
L 72.885448 -115.701491 
L 72.908254 -117.562909 
L 72.931417 -119.424327 
L 72.95494 -121.285745 
L 72.978845 -123.147164 
L 73.003156 -125.008582 
L 73.027874 -126.87 
L 73.053022 -128.731418 
L 73.0786 -130.592836 
L 73.10468 -132.454255 
L 73.131239 -134.315673 
L 73.158323 -136.177091 
L 73.185957 -138.038509 
L 73.214165 -139.899927 
L 73.242994 -141.761345 
L 73.272445 -143.622764 
L 73.302565 -145.484182 
L 73.333403 -147.3456 
L 73.365005 -149.207018 
L 73.397396 -151.068436 
L 73.430624 -152.929855 
L 73.46476 -154.791273 
L 73.499829 -156.652691 
L 73.535949 -158.514109 
L 73.573121 -160.375527 
L 73.611489 -162.236945 
L 73.651075 -164.098364 
L 73.692001 -165.959782 
L 73.73436 -167.8212 
L 73.778273 -169.682618 
L 73.82386 -171.544036 
L 73.87124 -173.405455 
L 73.920627 -175.266873 
L 73.972142 -177.128291 
L 74.026024 -178.989709 
L 74.082487 -180.851127 
L 74.141796 -182.712545 
L 74.204283 -184.573964 
L 74.270308 -186.435382 
L 74.340278 -188.2968 
L 74.414742 -190.158218 
L 74.49425 -192.019636 
L 74.579567 -193.881055 
L 74.671624 -195.742473 
L 74.771523 -197.603891 
L 74.880697 -199.465309 
L 75.00101 -201.326727 
L 75.13495 -203.188145 
L 75.285814 -205.049564 
L 75.458383 -206.910982 
L 75.659639 -208.7724 
L 75.900648 -210.633818 
L 76.199866 -212.495236 
L 76.590592 -214.356655 
L 77.133306 -216.218073 
L 77.905961 -218.079491 
L 78.547689 -219.940909 
L 67.881884 -219.940909 
L 67.881884 -219.940909 
L 67.881884 -218.079491 
L 67.881884 -216.218073 
L 67.881884 -214.356655 
L 67.881884 -212.495236 
L 67.881884 -210.633818 
L 67.881884 -208.7724 
L 67.881884 -206.910982 
L 67.881884 -205.049564 
L 67.881884 -203.188145 
L 67.881884 -201.326727 
L 67.881884 -199.465309 
L 67.881884 -197.603891 
L 67.881884 -195.742473 
L 67.881884 -193.881055 
L 67.881884 -192.019636 
L 67.881884 -190.158218 
L 67.881884 -188.2968 
L 67.881884 -186.435382 
L 67.881884 -184.573964 
L 67.881884 -182.712545 
L 67.881884 -180.851127 
L 67.881884 -178.989709 
L 67.881884 -177.128291 
L 67.881884 -175.266873 
L 67.881884 -173.405455 
L 67.881884 -171.544036 
L 67.881884 -169.682618 
L 67.881884 -167.8212 
L 67.881884 -165.959782 
L 67.881884 -164.098364 
L 67.881884 -162.236945 
L 67.881884 -160.375527 
L 67.881884 -158.514109 
L 67.881884 -156.652691 
L 67.881884 -154.791273 
L 67.881884 -152.929855 
L 67.881884 -151.068436 
L 67.881884 -149.207018 
L 67.881884 -147.3456 
L 67.881884 -145.484182 
L 67.881884 -143.622764 
L 67.881884 -141.761345 
L 67.881884 -139.899927 
L 67.881884 -138.038509 
L 67.881884 -136.177091 
L 67.881884 -134.315673 
L 67.881884 -132.454255 
L 67.881884 -130.592836 
L 67.881884 -128.731418 
L 67.881884 -126.87 
L 67.881884 -125.008582 
L 67.881884 -123.147164 
L 67.881884 -121.285745 
L 67.881884 -119.424327 
L 67.881884 -117.562909 
L 67.881884 -115.701491 
L 67.881884 -113.840073 
L 67.881884 -111.978655 
L 67.881884 -110.117236 
L 67.881884 -108.255818 
L 67.881884 -106.3944 
L 67.881884 -104.532982 
L 67.881884 -102.671564 
L 67.881884 -100.810145 
L 67.881884 -98.948727 
L 67.881884 -97.087309 
L 67.881884 -95.225891 
L 67.881884 -93.364473 
L 67.881884 -91.503055 
L 67.881884 -89.641636 
L 67.881884 -87.780218 
L 67.881884 -85.9188 
L 67.881884 -84.057382 
L 67.881884 -82.195964 
L 67.881884 -80.334545 
L 67.881884 -78.473127 
L 67.881884 -76.611709 
L 67.881884 -74.750291 
L 67.881884 -72.888873 
L 67.881884 -71.027455 
L 67.881884 -69.166036 
L 67.881884 -67.304618 
L 67.881884 -65.4432 
L 67.881884 -63.581782 
L 67.881884 -61.720364 
L 67.881884 -59.858945 
L 67.881884 -57.997527 
L 67.881884 -56.136109 
L 67.881884 -54.274691 
L 67.881884 -52.413273 
L 67.881884 -50.551855 
L 67.881884 -48.690436 
L 67.881884 -46.829018 
L 67.881884 -44.9676 
L 67.881884 -43.106182 
L 67.881884 -41.244764 
L 67.881884 -39.383345 
L 67.881884 -37.521927 
L 67.881884 -35.660509 
L 67.881884 -33.799091 
z
" id="ma57eca3962" style="stroke:#ffb380;"/>
    </defs>
    <g clip-path="url(#p3ad767d48e)">
     <use style="fill:#ffb380;stroke:#ffb380;" x="0" xlink:href="#ma57eca3962" y="230.4"/>
    </g>
   </g>
   <g id="PolyCollection_12">
    <defs>
     <path d="M 67.881884 -33.799091 
L 65.491392 -33.799091 
L 65.491392 -35.660509 
L 65.491392 -37.521927 
L 65.491392 -39.383345 
L 65.491392 -41.244764 
L 65.491392 -43.106182 
L 65.491392 -44.9676 
L 65.491392 -46.829018 
L 65.491392 -48.690436 
L 65.491392 -50.551855 
L 65.491392 -52.413273 
L 65.491392 -54.274691 
L 65.491392 -56.136109 
L 65.491392 -57.997527 
L 65.491392 -59.858945 
L 65.491392 -61.720364 
L 65.491392 -63.581782 
L 65.491392 -65.4432 
L 65.491392 -67.304618 
L 65.491392 -69.166036 
L 65.491392 -71.027455 
L 65.491392 -72.888873 
L 65.491392 -74.750291 
L 65.491392 -76.611709 
L 65.491392 -78.473127 
L 65.491392 -80.334545 
L 65.491392 -82.195964 
L 65.491392 -84.057382 
L 65.491392 -85.9188 
L 65.491392 -87.780218 
L 65.491392 -89.641636 
L 65.491392 -91.503055 
L 65.491392 -93.364473 
L 65.491392 -95.225891 
L 65.491392 -97.087309 
L 65.491392 -98.948727 
L 65.491392 -100.810145 
L 65.491392 -102.671564 
L 65.491392 -104.532982 
L 65.491392 -106.3944 
L 65.491392 -108.255818 
L 65.491392 -110.117236 
L 65.491392 -111.978655 
L 65.491392 -113.840073 
L 65.491392 -115.701491 
L 65.491392 -117.562909 
L 65.491392 -119.424327 
L 65.491392 -121.285745 
L 65.491392 -123.147164 
L 65.491392 -125.008582 
L 65.491392 -126.87 
L 65.491392 -128.731418 
L 65.491392 -130.592836 
L 65.491392 -132.454255 
L 65.491392 -134.315673 
L 65.491392 -136.177091 
L 65.491392 -138.038509 
L 65.491392 -139.899927 
L 65.491392 -141.761345 
L 65.491392 -143.622764 
L 65.491392 -145.484182 
L 65.491392 -147.3456 
L 65.491392 -149.207018 
L 65.491392 -151.068436 
L 65.491392 -152.929855 
L 65.491392 -154.791273 
L 65.491392 -156.652691 
L 65.491392 -158.514109 
L 65.491392 -160.375527 
L 65.491392 -162.236945 
L 65.491392 -164.098364 
L 65.491392 -165.959782 
L 65.491392 -167.8212 
L 65.491392 -169.682618 
L 65.491392 -171.544036 
L 65.491392 -173.405455 
L 65.491392 -175.266873 
L 65.491392 -177.128291 
L 65.491392 -178.989709 
L 65.491392 -180.851127 
L 65.491392 -182.712545 
L 65.491392 -184.573964 
L 65.491392 -186.435382 
L 65.491392 -188.2968 
L 65.491392 -190.158218 
L 65.491392 -192.019636 
L 65.491392 -193.881055 
L 65.491392 -195.742473 
L 65.491392 -197.603891 
L 65.491392 -199.465309 
L 65.491392 -201.326727 
L 65.491368 -203.188145 
L 65.491272 -205.049564 
L 65.491033 -206.910982 
L 65.490196 -208.7724 
L 65.487519 -210.633818 
L 65.478889 -212.495236 
L 65.451423 -214.356655 
L 65.363739 -216.218073 
L 65.079988 -218.079491 
L 64.107775 -219.940909 
L 67.881884 -219.940909 
L 67.881884 -219.940909 
L 67.881884 -218.079491 
L 67.881884 -216.218073 
L 67.881884 -214.356655 
L 67.881884 -212.495236 
L 67.881884 -210.633818 
L 67.881884 -208.7724 
L 67.881884 -206.910982 
L 67.881884 -205.049564 
L 67.881884 -203.188145 
L 67.881884 -201.326727 
L 67.881884 -199.465309 
L 67.881884 -197.603891 
L 67.881884 -195.742473 
L 67.881884 -193.881055 
L 67.881884 -192.019636 
L 67.881884 -190.158218 
L 67.881884 -188.2968 
L 67.881884 -186.435382 
L 67.881884 -184.573964 
L 67.881884 -182.712545 
L 67.881884 -180.851127 
L 67.881884 -178.989709 
L 67.881884 -177.128291 
L 67.881884 -175.266873 
L 67.881884 -173.405455 
L 67.881884 -171.544036 
L 67.881884 -169.682618 
L 67.881884 -167.8212 
L 67.881884 -165.959782 
L 67.881884 -164.098364 
L 67.881884 -162.236945 
L 67.881884 -160.375527 
L 67.881884 -158.514109 
L 67.881884 -156.652691 
L 67.881884 -154.791273 
L 67.881884 -152.929855 
L 67.881884 -151.068436 
L 67.881884 -149.207018 
L 67.881884 -147.3456 
L 67.881884 -145.484182 
L 67.881884 -143.622764 
L 67.881884 -141.761345 
L 67.881884 -139.899927 
L 67.881884 -138.038509 
L 67.881884 -136.177091 
L 67.881884 -134.315673 
L 67.881884 -132.454255 
L 67.881884 -130.592836 
L 67.881884 -128.731418 
L 67.881884 -126.87 
L 67.881884 -125.008582 
L 67.881884 -123.147164 
L 67.881884 -121.285745 
L 67.881884 -119.424327 
L 67.881884 -117.562909 
L 67.881884 -115.701491 
L 67.881884 -113.840073 
L 67.881884 -111.978655 
L 67.881884 -110.117236 
L 67.881884 -108.255818 
L 67.881884 -106.3944 
L 67.881884 -104.532982 
L 67.881884 -102.671564 
L 67.881884 -100.810145 
L 67.881884 -98.948727 
L 67.881884 -97.087309 
L 67.881884 -95.225891 
L 67.881884 -93.364473 
L 67.881884 -91.503055 
L 67.881884 -89.641636 
L 67.881884 -87.780218 
L 67.881884 -85.9188 
L 67.881884 -84.057382 
L 67.881884 -82.195964 
L 67.881884 -80.334545 
L 67.881884 -78.473127 
L 67.881884 -76.611709 
L 67.881884 -74.750291 
L 67.881884 -72.888873 
L 67.881884 -71.027455 
L 67.881884 -69.166036 
L 67.881884 -67.304618 
L 67.881884 -65.4432 
L 67.881884 -63.581782 
L 67.881884 -61.720364 
L 67.881884 -59.858945 
L 67.881884 -57.997527 
L 67.881884 -56.136109 
L 67.881884 -54.274691 
L 67.881884 -52.413273 
L 67.881884 -50.551855 
L 67.881884 -48.690436 
L 67.881884 -46.829018 
L 67.881884 -44.9676 
L 67.881884 -43.106182 
L 67.881884 -41.244764 
L 67.881884 -39.383345 
L 67.881884 -37.521927 
L 67.881884 -35.660509 
L 67.881884 -33.799091 
z
" id="ma011744c80" style="stroke:#ffb380;"/>
    </defs>
    <g clip-path="url(#p3ad767d48e)">
     <use style="fill:#ffb380;stroke:#ffb380;" x="0" xlink:href="#ma011744c80" y="230.4"/>
    </g>
   </g>
  </g>
  <g id="axes_4">
   <g id="patch_10">
    <path d="M 33.528 205.908 
L 229.194 205.908 
L 229.194 1.152 
L 33.528 1.152 
z
" style="fill:none;"/>
   </g>
   <g id="matplotlib.axis_5">
    <g id="text_17">
     <!-- Bacterial density (mm$^{-3}$) -->
     <defs>
      <path d="M 24.703125 5.171875 
L 39.3125 5.171875 
Q 48.09375 5.171875 52.140625 8.984375 
Q 56.203125 12.796875 56.203125 21.09375 
Q 56.203125 29.34375 52.171875 33.125 
Q 48.140625 36.921875 39.3125 36.921875 
L 24.703125 36.921875 
z
M 24.703125 42.09375 
L 37.109375 42.09375 
Q 45.125 42.09375 48.796875 45.171875 
Q 52.484375 48.25 52.484375 54.890625 
Q 52.484375 61.578125 48.796875 64.625 
Q 45.125 67.671875 37.109375 67.671875 
L 24.703125 67.671875 
z
M 5.515625 0 
L 5.515625 5.171875 
L 14.796875 5.171875 
L 14.796875 67.671875 
L 5.515625 67.671875 
L 5.515625 72.90625 
L 41.5 72.90625 
Q 52.546875 72.90625 58.125 68.390625 
Q 63.71875 63.875 63.71875 54.890625 
Q 63.71875 48.390625 59.828125 44.53125 
Q 55.953125 40.671875 48.484375 39.796875 
Q 57.765625 38.625 62.578125 33.859375 
Q 67.390625 29.109375 67.390625 21.09375 
Q 67.390625 10.25 60.546875 5.125 
Q 53.71875 0 39.203125 0 
z
" id="DejaVuSerif-66"/>
      <path d="M 39.796875 16.3125 
L 39.796875 27.296875 
L 28.21875 27.296875 
Q 21.53125 27.296875 18.25 24.40625 
Q 14.984375 21.53125 14.984375 15.578125 
Q 14.984375 10.15625 18.296875 6.984375 
Q 21.625 3.8125 27.296875 3.8125 
Q 32.90625 3.8125 36.34375 7.28125 
Q 39.796875 10.75 39.796875 16.3125 
z
M 48.78125 32.421875 
L 48.78125 5.171875 
L 56.78125 5.171875 
L 56.78125 0 
L 39.796875 0 
L 39.796875 5.609375 
Q 36.8125 2 32.90625 0.28125 
Q 29 -1.421875 23.78125 -1.421875 
Q 15.140625 -1.421875 10.0625 3.171875 
Q 4.984375 7.765625 4.984375 15.578125 
Q 4.984375 23.640625 10.796875 28.078125 
Q 16.609375 32.515625 27.203125 32.515625 
L 39.796875 32.515625 
L 39.796875 36.078125 
Q 39.796875 42 36.203125 45.234375 
Q 32.625 48.484375 26.125 48.484375 
Q 20.75 48.484375 17.578125 46.046875 
Q 14.40625 43.609375 13.625 38.8125 
L 8.984375 38.8125 
L 8.984375 49.3125 
Q 13.671875 51.3125 18.09375 52.3125 
Q 22.515625 53.328125 26.703125 53.328125 
Q 37.5 53.328125 43.140625 47.96875 
Q 48.78125 42.625 48.78125 32.421875 
z
" id="DejaVuSerif-97"/>
      <path d="M 51.421875 15.578125 
Q 49.515625 7.28125 44.09375 2.921875 
Q 38.671875 -1.421875 30.078125 -1.421875 
Q 18.75 -1.421875 11.859375 6.078125 
Q 4.984375 13.578125 4.984375 25.984375 
Q 4.984375 38.421875 11.859375 45.875 
Q 18.75 53.328125 30.078125 53.328125 
Q 35.015625 53.328125 39.890625 52.171875 
Q 44.78125 51.03125 49.703125 48.6875 
L 49.703125 35.40625 
L 44.484375 35.40625 
Q 43.453125 42.234375 40.015625 45.359375 
Q 36.578125 48.484375 30.171875 48.484375 
Q 22.90625 48.484375 19.1875 42.84375 
Q 15.484375 37.203125 15.484375 25.984375 
Q 15.484375 14.75 19.171875 9.078125 
Q 22.859375 3.421875 30.171875 3.421875 
Q 35.984375 3.421875 39.453125 6.4375 
Q 42.921875 9.46875 44.1875 15.578125 
z
" id="DejaVuSerif-99"/>
      <path d="M 10.796875 46.6875 
L 2.875 46.6875 
L 2.875 51.90625 
L 10.796875 51.90625 
L 10.796875 68.015625 
L 19.828125 68.015625 
L 19.828125 51.90625 
L 36.71875 51.90625 
L 36.71875 46.6875 
L 19.828125 46.6875 
L 19.828125 13.71875 
Q 19.828125 7.125 21.09375 5.265625 
Q 22.359375 3.421875 25.78125 3.421875 
Q 29.296875 3.421875 30.90625 5.484375 
Q 32.515625 7.5625 32.625 12.203125 
L 39.40625 12.203125 
Q 39.015625 5.125 35.546875 1.84375 
Q 32.078125 -1.421875 25 -1.421875 
Q 17.234375 -1.421875 14.015625 2.015625 
Q 10.796875 5.46875 10.796875 13.71875 
z
" id="DejaVuSerif-116"/>
      <path d="M 54.203125 25 
L 15.484375 25 
L 15.484375 24.609375 
Q 15.484375 14.109375 19.4375 8.765625 
Q 23.390625 3.421875 31.109375 3.421875 
Q 37.015625 3.421875 40.796875 6.515625 
Q 44.578125 9.625 46.09375 15.71875 
L 53.328125 15.71875 
Q 51.171875 7.171875 45.375 2.875 
Q 39.59375 -1.421875 30.171875 -1.421875 
Q 18.796875 -1.421875 11.890625 6.078125 
Q 4.984375 13.578125 4.984375 25.984375 
Q 4.984375 38.28125 11.765625 45.796875 
Q 18.5625 53.328125 29.59375 53.328125 
Q 41.359375 53.328125 47.65625 46.0625 
Q 53.953125 38.8125 54.203125 25 
z
M 43.609375 30.171875 
Q 43.3125 39.265625 39.765625 43.875 
Q 36.234375 48.484375 29.59375 48.484375 
Q 23.390625 48.484375 19.828125 43.84375 
Q 16.265625 39.203125 15.484375 30.171875 
z
" id="DejaVuSerif-101"/>
      <path d="M 47.796875 52 
L 47.796875 39.015625 
L 42.625 39.015625 
Q 42.390625 42.875 40.484375 44.78125 
Q 38.578125 46.6875 34.90625 46.6875 
Q 28.265625 46.6875 24.71875 42.09375 
Q 21.1875 37.5 21.1875 28.90625 
L 21.1875 5.171875 
L 31.59375 5.171875 
L 31.59375 0 
L 4.109375 0 
L 4.109375 5.171875 
L 12.203125 5.171875 
L 12.203125 46.78125 
L 3.609375 46.78125 
L 3.609375 51.90625 
L 21.1875 51.90625 
L 21.1875 42.671875 
Q 23.828125 48.09375 27.96875 50.703125 
Q 32.125 53.328125 38.09375 53.328125 
Q 40.28125 53.328125 42.703125 52.984375 
Q 45.125 52.640625 47.796875 52 
z
" id="DejaVuSerif-114"/>
      <path d="M 9.71875 68.015625 
Q 9.71875 70.265625 11.34375 71.921875 
Q 12.984375 73.578125 15.28125 73.578125 
Q 17.53125 73.578125 19.15625 71.921875 
Q 20.796875 70.265625 20.796875 68.015625 
Q 20.796875 65.71875 19.1875 64.109375 
Q 17.578125 62.5 15.28125 62.5 
Q 12.984375 62.5 11.34375 64.109375 
Q 9.71875 65.71875 9.71875 68.015625 
z
M 21.1875 5.171875 
L 29.6875 5.171875 
L 29.6875 0 
L 3.609375 0 
L 3.609375 5.171875 
L 12.203125 5.171875 
L 12.203125 46.6875 
L 3.609375 46.6875 
L 3.609375 51.90625 
L 21.1875 51.90625 
z
" id="DejaVuSerif-105"/>
      <path d="M 20.515625 5.171875 
L 29 5.171875 
L 29 0 
L 2.875 0 
L 2.875 5.171875 
L 11.53125 5.171875 
L 11.53125 70.796875 
L 2.875 70.796875 
L 2.875 75.984375 
L 20.515625 75.984375 
z
" id="DejaVuSerif-108"/>
      <path id="DejaVuSerif-32"/>
      <path d="M 52.484375 5.171875 
L 61.078125 5.171875 
L 61.078125 0 
L 43.5 0 
L 43.5 8.109375 
Q 40.875 3.21875 36.796875 0.890625 
Q 32.71875 -1.421875 26.703125 -1.421875 
Q 17.140625 -1.421875 11.0625 6.171875 
Q 4.984375 13.765625 4.984375 25.984375 
Q 4.984375 38.1875 11.03125 45.75 
Q 17.09375 53.328125 26.703125 53.328125 
Q 32.71875 53.328125 36.796875 51 
Q 40.875 48.6875 43.5 43.796875 
L 43.5 70.796875 
L 35.015625 70.796875 
L 35.015625 75.984375 
L 52.484375 75.984375 
z
M 43.5 23.390625 
L 43.5 28.515625 
Q 43.5 37.84375 39.90625 42.765625 
Q 36.328125 47.703125 29.5 47.703125 
Q 22.5625 47.703125 19.015625 42.234375 
Q 15.484375 36.765625 15.484375 25.984375 
Q 15.484375 15.234375 19.015625 9.71875 
Q 22.5625 4.203125 29.5 4.203125 
Q 36.328125 4.203125 39.90625 9.109375 
Q 43.5 14.015625 43.5 23.390625 
z
" id="DejaVuSerif-100"/>
      <path d="M 4.109375 0 
L 4.109375 5.171875 
L 12.203125 5.171875 
L 12.203125 46.6875 
L 3.609375 46.6875 
L 3.609375 51.90625 
L 21.1875 51.90625 
L 21.1875 42.671875 
Q 23.6875 47.953125 27.65625 50.640625 
Q 31.640625 53.328125 36.921875 53.328125 
Q 45.515625 53.328125 49.5625 48.390625 
Q 53.609375 43.453125 53.609375 33.015625 
L 53.609375 5.171875 
L 61.625 5.171875 
L 61.625 0 
L 36.8125 0 
L 36.8125 5.171875 
L 44.578125 5.171875 
L 44.578125 30.171875 
Q 44.578125 39.703125 42.234375 43.234375 
Q 39.890625 46.78125 33.984375 46.78125 
Q 27.734375 46.78125 24.453125 42.203125 
Q 21.1875 37.640625 21.1875 28.90625 
L 21.1875 5.171875 
L 29 5.171875 
L 29 0 
z
" id="DejaVuSerif-110"/>
      <path d="M 5.609375 2.875 
L 5.609375 14.984375 
L 10.796875 14.984375 
Q 10.984375 9.1875 14.421875 6.296875 
Q 17.875 3.421875 24.609375 3.421875 
Q 30.671875 3.421875 33.84375 5.6875 
Q 37.015625 7.953125 37.015625 12.3125 
Q 37.015625 15.71875 34.6875 17.8125 
Q 32.375 19.921875 24.90625 22.3125 
L 18.40625 24.515625 
Q 11.71875 26.65625 8.71875 29.875 
Q 5.71875 33.109375 5.71875 38.09375 
Q 5.71875 45.21875 10.9375 49.265625 
Q 16.15625 53.328125 25.390625 53.328125 
Q 29.5 53.328125 34.03125 52.25 
Q 38.578125 51.171875 43.40625 49.125 
L 43.40625 37.796875 
L 38.234375 37.796875 
Q 38.03125 42.828125 34.703125 45.65625 
Q 31.390625 48.484375 25.6875 48.484375 
Q 20.015625 48.484375 17.109375 46.484375 
Q 14.203125 44.484375 14.203125 40.484375 
Q 14.203125 37.203125 16.40625 35.21875 
Q 18.609375 33.25 25.203125 31.203125 
L 32.328125 29 
Q 39.703125 26.703125 42.9375 23.265625 
Q 46.1875 19.828125 46.1875 14.40625 
Q 46.1875 7.03125 40.546875 2.796875 
Q 34.90625 -1.421875 25 -1.421875 
Q 19.96875 -1.421875 15.1875 -0.34375 
Q 10.40625 0.734375 5.609375 2.875 
z
" id="DejaVuSerif-115"/>
      <path d="M 21.578125 -9.515625 
L 25 -0.875 
L 5.609375 46.6875 
L -0.296875 46.6875 
L -0.296875 51.90625 
L 23.578125 51.90625 
L 23.578125 46.6875 
L 15.28125 46.6875 
L 29.890625 10.984375 
L 44.484375 46.6875 
L 36.71875 46.6875 
L 36.71875 51.90625 
L 56.203125 51.90625 
L 56.203125 46.6875 
L 50.390625 46.6875 
L 26.609375 -11.71875 
Q 24.171875 -17.78125 21.1875 -20 
Q 18.21875 -22.21875 12.796875 -22.21875 
Q 10.5 -22.21875 8.078125 -21.828125 
Q 5.671875 -21.4375 3.21875 -20.703125 
L 3.21875 -10.796875 
L 7.8125 -10.796875 
Q 8.109375 -14.109375 9.5 -15.546875 
Q 10.890625 -17 13.8125 -17 
Q 16.5 -17 18.140625 -15.5 
Q 19.78125 -14.015625 21.578125 -9.515625 
z
" id="DejaVuSerif-121"/>
      <path d="M 31.890625 -15.578125 
Q 20.015625 -10.25 13.953125 1.296875 
Q 7.90625 12.84375 7.90625 30.171875 
Q 7.90625 47.5625 13.953125 59.109375 
Q 20.015625 70.65625 31.890625 75.984375 
L 31.890625 71.1875 
Q 24.359375 66.015625 21.09375 56.609375 
Q 17.828125 47.21875 17.828125 30.171875 
Q 17.828125 13.1875 21.09375 3.78125 
Q 24.359375 -5.609375 31.890625 -10.796875 
z
" id="DejaVuSerif-40"/>
      <path d="M 51.8125 41.796875 
Q 54.390625 47.515625 58.421875 50.421875 
Q 62.453125 53.328125 67.828125 53.328125 
Q 75.984375 53.328125 79.984375 48.265625 
Q 83.984375 43.21875 83.984375 33.015625 
L 83.984375 5.171875 
L 92.09375 5.171875 
L 92.09375 0 
L 67.1875 0 
L 67.1875 5.171875 
L 75 5.171875 
L 75 31.984375 
Q 75 39.9375 72.65625 43.3125 
Q 70.3125 46.6875 64.890625 46.6875 
Q 58.890625 46.6875 55.734375 42.140625 
Q 52.59375 37.59375 52.59375 28.90625 
L 52.59375 5.171875 
L 60.40625 5.171875 
L 60.40625 0 
L 35.796875 0 
L 35.796875 5.171875 
L 43.609375 5.171875 
L 43.609375 32.328125 
Q 43.609375 40.09375 41.265625 43.390625 
Q 38.921875 46.6875 33.5 46.6875 
Q 27.484375 46.6875 24.328125 42.140625 
Q 21.1875 37.59375 21.1875 28.90625 
L 21.1875 5.171875 
L 29 5.171875 
L 29 0 
L 4.109375 0 
L 4.109375 5.171875 
L 12.203125 5.171875 
L 12.203125 46.78125 
L 3.609375 46.78125 
L 3.609375 51.90625 
L 21.1875 51.90625 
L 21.1875 42.671875 
Q 23.6875 47.859375 27.53125 50.59375 
Q 31.390625 53.328125 36.28125 53.328125 
Q 42.328125 53.328125 46.375 50.3125 
Q 50.4375 47.3125 51.8125 41.796875 
z
" id="DejaVuSerif-109"/>
      <path d="M 10.59375 35.5 
L 73.1875 35.5 
L 73.1875 27.203125 
L 10.59375 27.203125 
z
" id="DejaVuSans-8722"/>
      <path d="M 40.578125 39.3125 
Q 47.65625 37.796875 51.625 33 
Q 55.609375 28.21875 55.609375 21.1875 
Q 55.609375 10.40625 48.1875 4.484375 
Q 40.765625 -1.421875 27.09375 -1.421875 
Q 22.515625 -1.421875 17.65625 -0.515625 
Q 12.796875 0.390625 7.625 2.203125 
L 7.625 11.71875 
Q 11.71875 9.328125 16.59375 8.109375 
Q 21.484375 6.890625 26.8125 6.890625 
Q 36.078125 6.890625 40.9375 10.546875 
Q 45.796875 14.203125 45.796875 21.1875 
Q 45.796875 27.640625 41.28125 31.265625 
Q 36.765625 34.90625 28.71875 34.90625 
L 20.21875 34.90625 
L 20.21875 43.015625 
L 29.109375 43.015625 
Q 36.375 43.015625 40.234375 45.921875 
Q 44.09375 48.828125 44.09375 54.296875 
Q 44.09375 59.90625 40.109375 62.90625 
Q 36.140625 65.921875 28.71875 65.921875 
Q 24.65625 65.921875 20.015625 65.03125 
Q 15.375 64.15625 9.8125 62.3125 
L 9.8125 71.09375 
Q 15.4375 72.65625 20.34375 73.4375 
Q 25.25 74.21875 29.59375 74.21875 
Q 40.828125 74.21875 47.359375 69.109375 
Q 53.90625 64.015625 53.90625 55.328125 
Q 53.90625 49.265625 50.4375 45.09375 
Q 46.96875 40.921875 40.578125 39.3125 
z
" id="DejaVuSans-51"/>
      <path d="M 7.078125 -15.578125 
L 7.078125 -10.796875 
Q 14.59375 -5.609375 17.890625 3.78125 
Q 21.1875 13.1875 21.1875 30.171875 
Q 21.1875 47.21875 17.890625 56.609375 
Q 14.59375 66.015625 7.078125 71.1875 
L 7.078125 75.984375 
Q 19 70.65625 25.046875 59.109375 
Q 31.109375 47.5625 31.109375 30.171875 
Q 31.109375 12.84375 25.046875 1.296875 
Q 19 -10.25 7.078125 -15.578125 
z
" id="DejaVuSerif-41"/>
     </defs>
     <g style="fill:#262626;" transform="translate(80.721 228.188)scale(0.08 -0.08)">
      <use transform="translate(0 0.765625)" xlink:href="#DejaVuSerif-66"/>
      <use transform="translate(73.486328 0.765625)" xlink:href="#DejaVuSerif-97"/>
      <use transform="translate(133.105469 0.765625)" xlink:href="#DejaVuSerif-99"/>
      <use transform="translate(189.111328 0.765625)" xlink:href="#DejaVuSerif-116"/>
      <use transform="translate(229.296875 0.765625)" xlink:href="#DejaVuSerif-101"/>
      <use transform="translate(288.476562 0.765625)" xlink:href="#DejaVuSerif-114"/>
      <use transform="translate(336.279297 0.765625)" xlink:href="#DejaVuSerif-105"/>
      <use transform="translate(368.261719 0.765625)" xlink:href="#DejaVuSerif-97"/>
      <use transform="translate(427.880859 0.765625)" xlink:href="#DejaVuSerif-108"/>
      <use transform="translate(459.863281 0.765625)" xlink:href="#DejaVuSerif-32"/>
      <use transform="translate(491.650391 0.765625)" xlink:href="#DejaVuSerif-100"/>
      <use transform="translate(555.664062 0.765625)" xlink:href="#DejaVuSerif-101"/>
      <use transform="translate(614.84375 0.765625)" xlink:href="#DejaVuSerif-110"/>
      <use transform="translate(679.248047 0.765625)" xlink:href="#DejaVuSerif-115"/>
      <use transform="translate(730.566406 0.765625)" xlink:href="#DejaVuSerif-105"/>
      <use transform="translate(762.548828 0.765625)" xlink:href="#DejaVuSerif-116"/>
      <use transform="translate(802.734375 0.765625)" xlink:href="#DejaVuSerif-121"/>
      <use transform="translate(859.228516 0.765625)" xlink:href="#DejaVuSerif-32"/>
      <use transform="translate(891.015625 0.765625)" xlink:href="#DejaVuSerif-40"/>
      <use transform="translate(930.029297 0.765625)" xlink:href="#DejaVuSerif-109"/>
      <use transform="translate(1024.853516 0.765625)" xlink:href="#DejaVuSerif-109"/>
      <use transform="translate(1120.634766 39.046875)scale(0.7)" xlink:href="#DejaVuSans-8722"/>
      <use transform="translate(1179.287109 39.046875)scale(0.7)" xlink:href="#DejaVuSans-51"/>
      <use transform="translate(1226.557617 0.765625)" xlink:href="#DejaVuSerif-41"/>
     </g>
    </g>
   </g>
   <g id="matplotlib.axis_6">
    <g id="text_18">
     <!-- Distance up urethra (mm) -->
     <defs>
      <path d="M 24.703125 5.171875 
L 33.796875 5.171875 
Q 48 5.171875 55.59375 13.28125 
Q 63.1875 21.390625 63.1875 36.53125 
Q 63.1875 51.65625 55.609375 59.65625 
Q 48.046875 67.671875 33.796875 67.671875 
L 24.703125 67.671875 
z
M 5.515625 0 
L 5.515625 5.171875 
L 14.796875 5.171875 
L 14.796875 67.671875 
L 5.515625 67.671875 
L 5.515625 72.90625 
L 34.515625 72.90625 
Q 53.375 72.90625 63.890625 63.28125 
Q 74.421875 53.65625 74.421875 36.53125 
Q 74.421875 19.34375 63.875 9.671875 
Q 53.328125 0 34.515625 0 
z
" id="DejaVuSerif-68"/>
      <path d="M 35.40625 51.90625 
L 52.203125 51.90625 
L 52.203125 5.171875 
L 60.6875 5.171875 
L 60.6875 0 
L 43.21875 0 
L 43.21875 9.1875 
Q 40.71875 4 36.765625 1.28125 
Q 32.8125 -1.421875 27.59375 -1.421875 
Q 18.953125 -1.421875 14.875 3.484375 
Q 10.796875 8.40625 10.796875 18.890625 
L 10.796875 46.6875 
L 2.6875 46.6875 
L 2.6875 51.90625 
L 19.828125 51.90625 
L 19.828125 21.6875 
Q 19.828125 12.203125 22.140625 8.6875 
Q 24.46875 5.171875 30.421875 5.171875 
Q 36.671875 5.171875 39.9375 9.765625 
Q 43.21875 14.359375 43.21875 23.09375 
L 43.21875 46.6875 
L 35.40625 46.6875 
z
" id="DejaVuSerif-117"/>
      <path d="M 20.515625 28.515625 
L 20.515625 23.390625 
Q 20.515625 14.015625 24.09375 9.109375 
Q 27.6875 4.203125 34.515625 4.203125 
Q 41.40625 4.203125 44.9375 9.71875 
Q 48.484375 15.234375 48.484375 25.984375 
Q 48.484375 36.765625 44.9375 42.234375 
Q 41.40625 47.703125 34.515625 47.703125 
Q 27.6875 47.703125 24.09375 42.765625 
Q 20.515625 37.84375 20.515625 28.515625 
z
M 11.53125 46.6875 
L 2.875 46.6875 
L 2.875 51.90625 
L 20.515625 51.90625 
L 20.515625 43.796875 
Q 23.140625 48.6875 27.21875 51 
Q 31.296875 53.328125 37.3125 53.328125 
Q 46.875 53.328125 52.921875 45.75 
Q 58.984375 38.1875 58.984375 25.984375 
Q 58.984375 13.765625 52.921875 6.171875 
Q 46.875 -1.421875 37.3125 -1.421875 
Q 31.296875 -1.421875 27.21875 0.890625 
Q 23.140625 3.21875 20.515625 8.109375 
L 20.515625 -15.578125 
L 29 -15.578125 
L 29 -20.796875 
L 2.875 -20.796875 
L 2.875 -15.578125 
L 11.53125 -15.578125 
z
" id="DejaVuSerif-112"/>
      <path d="M 4.109375 0 
L 4.109375 5.171875 
L 12.203125 5.171875 
L 12.203125 70.796875 
L 3.609375 70.796875 
L 3.609375 75.984375 
L 21.1875 75.984375 
L 21.1875 42.671875 
Q 23.6875 47.953125 27.65625 50.640625 
Q 31.640625 53.328125 36.921875 53.328125 
Q 45.515625 53.328125 49.5625 48.390625 
Q 53.609375 43.453125 53.609375 33.015625 
L 53.609375 5.171875 
L 61.625 5.171875 
L 61.625 0 
L 36.8125 0 
L 36.8125 5.171875 
L 44.578125 5.171875 
L 44.578125 30.171875 
Q 44.578125 39.703125 42.25 43.1875 
Q 39.9375 46.6875 33.984375 46.6875 
Q 27.734375 46.6875 24.453125 42.140625 
Q 21.1875 37.59375 21.1875 28.90625 
L 21.1875 5.171875 
L 29 5.171875 
L 29 0 
z
" id="DejaVuSerif-104"/>
     </defs>
     <g style="fill:#262626;" transform="translate(6.86425 156.239375)rotate(-90)scale(0.08 -0.08)">
      <use xlink:href="#DejaVuSerif-68"/>
      <use x="80.175781" xlink:href="#DejaVuSerif-105"/>
      <use x="112.158203" xlink:href="#DejaVuSerif-115"/>
      <use x="163.476562" xlink:href="#DejaVuSerif-116"/>
      <use x="203.662109" xlink:href="#DejaVuSerif-97"/>
      <use x="263.28125" xlink:href="#DejaVuSerif-110"/>
      <use x="327.685547" xlink:href="#DejaVuSerif-99"/>
      <use x="383.691406" xlink:href="#DejaVuSerif-101"/>
      <use x="442.871094" xlink:href="#DejaVuSerif-32"/>
      <use x="474.658203" xlink:href="#DejaVuSerif-117"/>
      <use x="539.0625" xlink:href="#DejaVuSerif-112"/>
      <use x="603.076172" xlink:href="#DejaVuSerif-32"/>
      <use x="634.863281" xlink:href="#DejaVuSerif-117"/>
      <use x="699.267578" xlink:href="#DejaVuSerif-114"/>
      <use x="747.070312" xlink:href="#DejaVuSerif-101"/>
      <use x="806.25" xlink:href="#DejaVuSerif-116"/>
      <use x="846.435547" xlink:href="#DejaVuSerif-104"/>
      <use x="910.839844" xlink:href="#DejaVuSerif-114"/>
      <use x="958.642578" xlink:href="#DejaVuSerif-97"/>
      <use x="1018.261719" xlink:href="#DejaVuSerif-32"/>
      <use x="1050.048828" xlink:href="#DejaVuSerif-40"/>
      <use x="1089.0625" xlink:href="#DejaVuSerif-109"/>
      <use x="1183.886719" xlink:href="#DejaVuSerif-109"/>
      <use x="1278.710938" xlink:href="#DejaVuSerif-41"/>
     </g>
    </g>
   </g>
  </g>
 </g>
 <defs>
  <clipPath id="p856b323f95">
   <rect height="204.756" width="195.666" x="33.528" y="1.152"/>
  </clipPath>
  <clipPath id="p7557c37690">
   <rect height="204.756" width="16.566066" x="33.528" y="1.152"/>
  </clipPath>
  <clipPath id="p3ad767d48e">
   <rect height="204.756" width="161.312116" x="67.881884" y="1.152"/>
  </clipPath>
 </defs>
</svg>
