<?xml version="1.0" encoding="utf-8" standalone="no"?>
<!DOCTYPE svg PUBLIC "-//W3C//DTD SVG 1.1//EN"
  "http://www.w3.org/Graphics/SVG/1.1/DTD/svg11.dtd">
<!-- Created with matplotlib (https://matplotlib.org/) -->
<svg height="223.2pt" version="1.1" viewBox="0 0 223.2 223.2" width="223.2pt" xmlns="http://www.w3.org/2000/svg" xmlns:xlink="http://www.w3.org/1999/xlink">
 <defs>
  <style type="text/css">
*{stroke-linecap:butt;stroke-linejoin:round;}
  </style>
 </defs>
 <g id="figure_1">
  <g id="patch_1">
   <path d="M 0 223.2 
L 223.2 223.2 
L 223.2 0 
L 0 0 
z
" style="fill:#ffffff;"/>
  </g>
  <g id="axes_1">
   <g id="patch_2">
    <path d="M 25.1024 198.3208 
L 215.982094 198.3208 
L 215.982094 4.9248 
L 25.1024 4.9248 
z
" style="fill:#ffffff;"/>
   </g>
   <g id="matplotlib.axis_1">
    <g id="xtick_1">
     <g id="line2d_1">
      <defs>
       <path d="M 0 0 
L 0 3.5 
" id="mc57313381f" style="stroke:#262626;stroke-width:0.8;"/>
      </defs>
      <g>
       <use style="fill:#262626;stroke:#262626;stroke-width:0.8;" x="58.56832" xlink:href="#mc57313381f" y="198.3208"/>
      </g>
     </g>
    </g>
    <g id="xtick_2">
     <g id="line2d_2">
      <g>
       <use style="fill:#262626;stroke:#262626;stroke-width:0.8;" x="108.147461" xlink:href="#mc57313381f" y="198.3208"/>
      </g>
     </g>
    </g>
    <g id="xtick_3">
     <g id="line2d_3">
      <g>
       <use style="fill:#262626;stroke:#262626;stroke-width:0.8;" x="157.726603" xlink:href="#mc57313381f" y="198.3208"/>
      </g>
     </g>
    </g>
    <g id="xtick_4">
     <g id="line2d_4">
      <g>
       <use style="fill:#262626;stroke:#262626;stroke-width:0.8;" x="207.305744" xlink:href="#mc57313381f" y="198.3208"/>
      </g>
     </g>
    </g>
    <g id="text_1">
     <!-- Urine production -->
     <defs>
      <path d="M 14.015625 67.671875 
L 4.6875 67.671875 
L 4.6875 72.90625 
L 33.203125 72.90625 
L 33.203125 67.671875 
L 23.875 67.671875 
L 23.875 29.984375 
Q 23.875 16.015625 28.4375 10.5 
Q 33.015625 4.984375 44.1875 4.984375 
Q 55.375 4.984375 59.9375 10.5 
Q 64.5 16.015625 64.5 29.984375 
L 64.5 67.671875 
L 55.171875 67.671875 
L 55.171875 72.90625 
L 79.78125 72.90625 
L 79.78125 67.671875 
L 70.515625 67.671875 
L 70.515625 29 
Q 70.515625 12.359375 64.109375 5.46875 
Q 57.71875 -1.421875 42.390625 -1.421875 
Q 27.046875 -1.421875 20.53125 5.515625 
Q 14.015625 12.453125 14.015625 29 
z
" id="DejaVuSerif-85"/>
      <path d="M 47.796875 52 
L 47.796875 39.015625 
L 42.625 39.015625 
Q 42.390625 42.875 40.484375 44.78125 
Q 38.578125 46.6875 34.90625 46.6875 
Q 28.265625 46.6875 24.71875 42.09375 
Q 21.1875 37.5 21.1875 28.90625 
L 21.1875 5.171875 
L 31.59375 5.171875 
L 31.59375 0 
L 4.109375 0 
L 4.109375 5.171875 
L 12.203125 5.171875 
L 12.203125 46.78125 
L 3.609375 46.78125 
L 3.609375 51.90625 
L 21.1875 51.90625 
L 21.1875 42.671875 
Q 23.828125 48.09375 27.96875 50.703125 
Q 32.125 53.328125 38.09375 53.328125 
Q 40.28125 53.328125 42.703125 52.984375 
Q 45.125 52.640625 47.796875 52 
z
" id="DejaVuSerif-114"/>
      <path d="M 9.71875 68.015625 
Q 9.71875 70.265625 11.34375 71.921875 
Q 12.984375 73.578125 15.28125 73.578125 
Q 17.53125 73.578125 19.15625 71.921875 
Q 20.796875 70.265625 20.796875 68.015625 
Q 20.796875 65.71875 19.1875 64.109375 
Q 17.578125 62.5 15.28125 62.5 
Q 12.984375 62.5 11.34375 64.109375 
Q 9.71875 65.71875 9.71875 68.015625 
z
M 21.1875 5.171875 
L 29.6875 5.171875 
L 29.6875 0 
L 3.609375 0 
L 3.609375 5.171875 
L 12.203125 5.171875 
L 12.203125 46.6875 
L 3.609375 46.6875 
L 3.609375 51.90625 
L 21.1875 51.90625 
z
" id="DejaVuSerif-105"/>
      <path d="M 4.109375 0 
L 4.109375 5.171875 
L 12.203125 5.171875 
L 12.203125 46.6875 
L 3.609375 46.6875 
L 3.609375 51.90625 
L 21.1875 51.90625 
L 21.1875 42.671875 
Q 23.6875 47.953125 27.65625 50.640625 
Q 31.640625 53.328125 36.921875 53.328125 
Q 45.515625 53.328125 49.5625 48.390625 
Q 53.609375 43.453125 53.609375 33.015625 
L 53.609375 5.171875 
L 61.625 5.171875 
L 61.625 0 
L 36.8125 0 
L 36.8125 5.171875 
L 44.578125 5.171875 
L 44.578125 30.171875 
Q 44.578125 39.703125 42.234375 43.234375 
Q 39.890625 46.78125 33.984375 46.78125 
Q 27.734375 46.78125 24.453125 42.203125 
Q 21.1875 37.640625 21.1875 28.90625 
L 21.1875 5.171875 
L 29 5.171875 
L 29 0 
z
" id="DejaVuSerif-110"/>
      <path d="M 54.203125 25 
L 15.484375 25 
L 15.484375 24.609375 
Q 15.484375 14.109375 19.4375 8.765625 
Q 23.390625 3.421875 31.109375 3.421875 
Q 37.015625 3.421875 40.796875 6.515625 
Q 44.578125 9.625 46.09375 15.71875 
L 53.328125 15.71875 
Q 51.171875 7.171875 45.375 2.875 
Q 39.59375 -1.421875 30.171875 -1.421875 
Q 18.796875 -1.421875 11.890625 6.078125 
Q 4.984375 13.578125 4.984375 25.984375 
Q 4.984375 38.28125 11.765625 45.796875 
Q 18.5625 53.328125 29.59375 53.328125 
Q 41.359375 53.328125 47.65625 46.0625 
Q 53.953125 38.8125 54.203125 25 
z
M 43.609375 30.171875 
Q 43.3125 39.265625 39.765625 43.875 
Q 36.234375 48.484375 29.59375 48.484375 
Q 23.390625 48.484375 19.828125 43.84375 
Q 16.265625 39.203125 15.484375 30.171875 
z
" id="DejaVuSerif-101"/>
      <path id="DejaVuSerif-32"/>
      <path d="M 20.515625 28.515625 
L 20.515625 23.390625 
Q 20.515625 14.015625 24.09375 9.109375 
Q 27.6875 4.203125 34.515625 4.203125 
Q 41.40625 4.203125 44.9375 9.71875 
Q 48.484375 15.234375 48.484375 25.984375 
Q 48.484375 36.765625 44.9375 42.234375 
Q 41.40625 47.703125 34.515625 47.703125 
Q 27.6875 47.703125 24.09375 42.765625 
Q 20.515625 37.84375 20.515625 28.515625 
z
M 11.53125 46.6875 
L 2.875 46.6875 
L 2.875 51.90625 
L 20.515625 51.90625 
L 20.515625 43.796875 
Q 23.140625 48.6875 27.21875 51 
Q 31.296875 53.328125 37.3125 53.328125 
Q 46.875 53.328125 52.921875 45.75 
Q 58.984375 38.1875 58.984375 25.984375 
Q 58.984375 13.765625 52.921875 6.171875 
Q 46.875 -1.421875 37.3125 -1.421875 
Q 31.296875 -1.421875 27.21875 0.890625 
Q 23.140625 3.21875 20.515625 8.109375 
L 20.515625 -15.578125 
L 29 -15.578125 
L 29 -20.796875 
L 2.875 -20.796875 
L 2.875 -15.578125 
L 11.53125 -15.578125 
z
" id="DejaVuSerif-112"/>
      <path d="M 30.078125 3.421875 
Q 37.3125 3.421875 40.984375 9.125 
Q 44.671875 14.84375 44.671875 25.984375 
Q 44.671875 37.109375 40.984375 42.796875 
Q 37.3125 48.484375 30.078125 48.484375 
Q 22.859375 48.484375 19.171875 42.796875 
Q 15.484375 37.109375 15.484375 25.984375 
Q 15.484375 14.84375 19.1875 9.125 
Q 22.90625 3.421875 30.078125 3.421875 
z
M 30.078125 -1.421875 
Q 18.75 -1.421875 11.859375 6.078125 
Q 4.984375 13.578125 4.984375 25.984375 
Q 4.984375 38.375 11.84375 45.84375 
Q 18.703125 53.328125 30.078125 53.328125 
Q 41.453125 53.328125 48.3125 45.84375 
Q 55.171875 38.375 55.171875 25.984375 
Q 55.171875 13.578125 48.3125 6.078125 
Q 41.453125 -1.421875 30.078125 -1.421875 
z
" id="DejaVuSerif-111"/>
      <path d="M 52.484375 5.171875 
L 61.078125 5.171875 
L 61.078125 0 
L 43.5 0 
L 43.5 8.109375 
Q 40.875 3.21875 36.796875 0.890625 
Q 32.71875 -1.421875 26.703125 -1.421875 
Q 17.140625 -1.421875 11.0625 6.171875 
Q 4.984375 13.765625 4.984375 25.984375 
Q 4.984375 38.1875 11.03125 45.75 
Q 17.09375 53.328125 26.703125 53.328125 
Q 32.71875 53.328125 36.796875 51 
Q 40.875 48.6875 43.5 43.796875 
L 43.5 70.796875 
L 35.015625 70.796875 
L 35.015625 75.984375 
L 52.484375 75.984375 
z
M 43.5 23.390625 
L 43.5 28.515625 
Q 43.5 37.84375 39.90625 42.765625 
Q 36.328125 47.703125 29.5 47.703125 
Q 22.5625 47.703125 19.015625 42.234375 
Q 15.484375 36.765625 15.484375 25.984375 
Q 15.484375 15.234375 19.015625 9.71875 
Q 22.5625 4.203125 29.5 4.203125 
Q 36.328125 4.203125 39.90625 9.109375 
Q 43.5 14.015625 43.5 23.390625 
z
" id="DejaVuSerif-100"/>
      <path d="M 35.40625 51.90625 
L 52.203125 51.90625 
L 52.203125 5.171875 
L 60.6875 5.171875 
L 60.6875 0 
L 43.21875 0 
L 43.21875 9.1875 
Q 40.71875 4 36.765625 1.28125 
Q 32.8125 -1.421875 27.59375 -1.421875 
Q 18.953125 -1.421875 14.875 3.484375 
Q 10.796875 8.40625 10.796875 18.890625 
L 10.796875 46.6875 
L 2.6875 46.6875 
L 2.6875 51.90625 
L 19.828125 51.90625 
L 19.828125 21.6875 
Q 19.828125 12.203125 22.140625 8.6875 
Q 24.46875 5.171875 30.421875 5.171875 
Q 36.671875 5.171875 39.9375 9.765625 
Q 43.21875 14.359375 43.21875 23.09375 
L 43.21875 46.6875 
L 35.40625 46.6875 
z
" id="DejaVuSerif-117"/>
      <path d="M 51.421875 15.578125 
Q 49.515625 7.28125 44.09375 2.921875 
Q 38.671875 -1.421875 30.078125 -1.421875 
Q 18.75 -1.421875 11.859375 6.078125 
Q 4.984375 13.578125 4.984375 25.984375 
Q 4.984375 38.421875 11.859375 45.875 
Q 18.75 53.328125 30.078125 53.328125 
Q 35.015625 53.328125 39.890625 52.171875 
Q 44.78125 51.03125 49.703125 48.6875 
L 49.703125 35.40625 
L 44.484375 35.40625 
Q 43.453125 42.234375 40.015625 45.359375 
Q 36.578125 48.484375 30.171875 48.484375 
Q 22.90625 48.484375 19.1875 42.84375 
Q 15.484375 37.203125 15.484375 25.984375 
Q 15.484375 14.75 19.171875 9.078125 
Q 22.859375 3.421875 30.171875 3.421875 
Q 35.984375 3.421875 39.453125 6.4375 
Q 42.921875 9.46875 44.1875 15.578125 
z
" id="DejaVuSerif-99"/>
      <path d="M 10.796875 46.6875 
L 2.875 46.6875 
L 2.875 51.90625 
L 10.796875 51.90625 
L 10.796875 68.015625 
L 19.828125 68.015625 
L 19.828125 51.90625 
L 36.71875 51.90625 
L 36.71875 46.6875 
L 19.828125 46.6875 
L 19.828125 13.71875 
Q 19.828125 7.125 21.09375 5.265625 
Q 22.359375 3.421875 25.78125 3.421875 
Q 29.296875 3.421875 30.90625 5.484375 
Q 32.515625 7.5625 32.625 12.203125 
L 39.40625 12.203125 
Q 39.015625 5.125 35.546875 1.84375 
Q 32.078125 -1.421875 25 -1.421875 
Q 17.234375 -1.421875 14.015625 2.015625 
Q 10.796875 5.46875 10.796875 13.71875 
z
" id="DejaVuSerif-116"/>
     </defs>
     <g style="fill:#262626;" transform="translate(68.182872 216.938925)scale(0.12 -0.12)">
      <use xlink:href="#DejaVuSerif-85"/>
      <use x="84.277344" xlink:href="#DejaVuSerif-114"/>
      <use x="132.080078" xlink:href="#DejaVuSerif-105"/>
      <use x="164.0625" xlink:href="#DejaVuSerif-110"/>
      <use x="228.466797" xlink:href="#DejaVuSerif-101"/>
      <use x="287.646484" xlink:href="#DejaVuSerif-32"/>
      <use x="319.433594" xlink:href="#DejaVuSerif-112"/>
      <use x="383.447266" xlink:href="#DejaVuSerif-114"/>
      <use x="431.25" xlink:href="#DejaVuSerif-111"/>
      <use x="491.455078" xlink:href="#DejaVuSerif-100"/>
      <use x="555.46875" xlink:href="#DejaVuSerif-117"/>
      <use x="619.873047" xlink:href="#DejaVuSerif-99"/>
      <use x="675.878906" xlink:href="#DejaVuSerif-116"/>
      <use x="716.064453" xlink:href="#DejaVuSerif-105"/>
      <use x="748.046875" xlink:href="#DejaVuSerif-111"/>
      <use x="808.251953" xlink:href="#DejaVuSerif-110"/>
     </g>
    </g>
   </g>
   <g id="matplotlib.axis_2">
    <g id="ytick_1">
     <g id="line2d_5">
      <defs>
       <path d="M 0 0 
L -3.5 0 
" id="m502a479436" style="stroke:#262626;stroke-width:0.8;"/>
      </defs>
      <g>
       <use style="fill:#262626;stroke:#262626;stroke-width:0.8;" x="25.1024" xlink:href="#m502a479436" y="166.215006"/>
      </g>
     </g>
    </g>
    <g id="ytick_2">
     <g id="line2d_6">
      <g>
       <use style="fill:#262626;stroke:#262626;stroke-width:0.8;" x="25.1024" xlink:href="#m502a479436" y="103.579409"/>
      </g>
     </g>
    </g>
    <g id="ytick_3">
     <g id="line2d_7">
      <g>
       <use style="fill:#262626;stroke:#262626;stroke-width:0.8;" x="25.1024" xlink:href="#m502a479436" y="40.943813"/>
      </g>
     </g>
    </g>
    <g id="ytick_4">
     <g id="line2d_8">
      <defs>
       <path d="M 0 0 
L -2 0 
" id="m385838efcf" style="stroke:#262626;stroke-width:0.6;"/>
      </defs>
      <g>
       <use style="fill:#262626;stroke:#262626;stroke-width:0.6;" x="25.1024" xlink:href="#m385838efcf" y="188.105207"/>
      </g>
     </g>
    </g>
    <g id="ytick_5">
     <g id="line2d_9">
      <g>
       <use style="fill:#262626;stroke:#262626;stroke-width:0.6;" x="25.1024" xlink:href="#m385838efcf" y="182.590417"/>
      </g>
     </g>
    </g>
    <g id="ytick_6">
     <g id="line2d_10">
      <g>
       <use style="fill:#262626;stroke:#262626;stroke-width:0.6;" x="25.1024" xlink:href="#m385838efcf" y="178.67761"/>
      </g>
     </g>
    </g>
    <g id="ytick_7">
     <g id="line2d_11">
      <g>
       <use style="fill:#262626;stroke:#262626;stroke-width:0.6;" x="25.1024" xlink:href="#m385838efcf" y="175.642602"/>
      </g>
     </g>
    </g>
    <g id="ytick_8">
     <g id="line2d_12">
      <g>
       <use style="fill:#262626;stroke:#262626;stroke-width:0.6;" x="25.1024" xlink:href="#m385838efcf" y="173.16282"/>
      </g>
     </g>
    </g>
    <g id="ytick_9">
     <g id="line2d_13">
      <g>
       <use style="fill:#262626;stroke:#262626;stroke-width:0.6;" x="25.1024" xlink:href="#m385838efcf" y="171.066194"/>
      </g>
     </g>
    </g>
    <g id="ytick_10">
     <g id="line2d_14">
      <g>
       <use style="fill:#262626;stroke:#262626;stroke-width:0.6;" x="25.1024" xlink:href="#m385838efcf" y="169.250014"/>
      </g>
     </g>
    </g>
    <g id="ytick_11">
     <g id="line2d_15">
      <g>
       <use style="fill:#262626;stroke:#262626;stroke-width:0.6;" x="25.1024" xlink:href="#m385838efcf" y="167.648029"/>
      </g>
     </g>
    </g>
    <g id="ytick_12">
     <g id="line2d_16">
      <g>
       <use style="fill:#262626;stroke:#262626;stroke-width:0.6;" x="25.1024" xlink:href="#m385838efcf" y="156.787409"/>
      </g>
     </g>
    </g>
    <g id="ytick_13">
     <g id="line2d_17">
      <g>
       <use style="fill:#262626;stroke:#262626;stroke-width:0.6;" x="25.1024" xlink:href="#m385838efcf" y="151.272618"/>
      </g>
     </g>
    </g>
    <g id="ytick_14">
     <g id="line2d_18">
      <g>
       <use style="fill:#262626;stroke:#262626;stroke-width:0.6;" x="25.1024" xlink:href="#m385838efcf" y="147.359812"/>
      </g>
     </g>
    </g>
    <g id="ytick_15">
     <g id="line2d_19">
      <g>
       <use style="fill:#262626;stroke:#262626;stroke-width:0.6;" x="25.1024" xlink:href="#m385838efcf" y="144.324804"/>
      </g>
     </g>
    </g>
    <g id="ytick_16">
     <g id="line2d_20">
      <g>
       <use style="fill:#262626;stroke:#262626;stroke-width:0.6;" x="25.1024" xlink:href="#m385838efcf" y="141.845022"/>
      </g>
     </g>
    </g>
    <g id="ytick_17">
     <g id="line2d_21">
      <g>
       <use style="fill:#262626;stroke:#262626;stroke-width:0.6;" x="25.1024" xlink:href="#m385838efcf" y="139.748396"/>
      </g>
     </g>
    </g>
    <g id="ytick_18">
     <g id="line2d_22">
      <g>
       <use style="fill:#262626;stroke:#262626;stroke-width:0.6;" x="25.1024" xlink:href="#m385838efcf" y="137.932216"/>
      </g>
     </g>
    </g>
    <g id="ytick_19">
     <g id="line2d_23">
      <g>
       <use style="fill:#262626;stroke:#262626;stroke-width:0.6;" x="25.1024" xlink:href="#m385838efcf" y="136.330231"/>
      </g>
     </g>
    </g>
    <g id="ytick_20">
     <g id="line2d_24">
      <g>
       <use style="fill:#262626;stroke:#262626;stroke-width:0.6;" x="25.1024" xlink:href="#m385838efcf" y="125.469611"/>
      </g>
     </g>
    </g>
    <g id="ytick_21">
     <g id="line2d_25">
      <g>
       <use style="fill:#262626;stroke:#262626;stroke-width:0.6;" x="25.1024" xlink:href="#m385838efcf" y="119.95482"/>
      </g>
     </g>
    </g>
    <g id="ytick_22">
     <g id="line2d_26">
      <g>
       <use style="fill:#262626;stroke:#262626;stroke-width:0.6;" x="25.1024" xlink:href="#m385838efcf" y="116.042014"/>
      </g>
     </g>
    </g>
    <g id="ytick_23">
     <g id="line2d_27">
      <g>
       <use style="fill:#262626;stroke:#262626;stroke-width:0.6;" x="25.1024" xlink:href="#m385838efcf" y="113.007006"/>
      </g>
     </g>
    </g>
    <g id="ytick_24">
     <g id="line2d_28">
      <g>
       <use style="fill:#262626;stroke:#262626;stroke-width:0.6;" x="25.1024" xlink:href="#m385838efcf" y="110.527224"/>
      </g>
     </g>
    </g>
    <g id="ytick_25">
     <g id="line2d_29">
      <g>
       <use style="fill:#262626;stroke:#262626;stroke-width:0.6;" x="25.1024" xlink:href="#m385838efcf" y="108.430598"/>
      </g>
     </g>
    </g>
    <g id="ytick_26">
     <g id="line2d_30">
      <g>
       <use style="fill:#262626;stroke:#262626;stroke-width:0.6;" x="25.1024" xlink:href="#m385838efcf" y="106.614417"/>
      </g>
     </g>
    </g>
    <g id="ytick_27">
     <g id="line2d_31">
      <g>
       <use style="fill:#262626;stroke:#262626;stroke-width:0.6;" x="25.1024" xlink:href="#m385838efcf" y="105.012433"/>
      </g>
     </g>
    </g>
    <g id="ytick_28">
     <g id="line2d_32">
      <g>
       <use style="fill:#262626;stroke:#262626;stroke-width:0.6;" x="25.1024" xlink:href="#m385838efcf" y="94.151813"/>
      </g>
     </g>
    </g>
    <g id="ytick_29">
     <g id="line2d_33">
      <g>
       <use style="fill:#262626;stroke:#262626;stroke-width:0.6;" x="25.1024" xlink:href="#m385838efcf" y="88.637022"/>
      </g>
     </g>
    </g>
    <g id="ytick_30">
     <g id="line2d_34">
      <g>
       <use style="fill:#262626;stroke:#262626;stroke-width:0.6;" x="25.1024" xlink:href="#m385838efcf" y="84.724216"/>
      </g>
     </g>
    </g>
    <g id="ytick_31">
     <g id="line2d_35">
      <g>
       <use style="fill:#262626;stroke:#262626;stroke-width:0.6;" x="25.1024" xlink:href="#m385838efcf" y="81.689208"/>
      </g>
     </g>
    </g>
    <g id="ytick_32">
     <g id="line2d_36">
      <g>
       <use style="fill:#262626;stroke:#262626;stroke-width:0.6;" x="25.1024" xlink:href="#m385838efcf" y="79.209425"/>
      </g>
     </g>
    </g>
    <g id="ytick_33">
     <g id="line2d_37">
      <g>
       <use style="fill:#262626;stroke:#262626;stroke-width:0.6;" x="25.1024" xlink:href="#m385838efcf" y="77.112799"/>
      </g>
     </g>
    </g>
    <g id="ytick_34">
     <g id="line2d_38">
      <g>
       <use style="fill:#262626;stroke:#262626;stroke-width:0.6;" x="25.1024" xlink:href="#m385838efcf" y="75.296619"/>
      </g>
     </g>
    </g>
    <g id="ytick_35">
     <g id="line2d_39">
      <g>
       <use style="fill:#262626;stroke:#262626;stroke-width:0.6;" x="25.1024" xlink:href="#m385838efcf" y="73.694635"/>
      </g>
     </g>
    </g>
    <g id="ytick_36">
     <g id="line2d_40">
      <g>
       <use style="fill:#262626;stroke:#262626;stroke-width:0.6;" x="25.1024" xlink:href="#m385838efcf" y="62.834014"/>
      </g>
     </g>
    </g>
    <g id="ytick_37">
     <g id="line2d_41">
      <g>
       <use style="fill:#262626;stroke:#262626;stroke-width:0.6;" x="25.1024" xlink:href="#m385838efcf" y="57.319224"/>
      </g>
     </g>
    </g>
    <g id="ytick_38">
     <g id="line2d_42">
      <g>
       <use style="fill:#262626;stroke:#262626;stroke-width:0.6;" x="25.1024" xlink:href="#m385838efcf" y="53.406418"/>
      </g>
     </g>
    </g>
    <g id="ytick_39">
     <g id="line2d_43">
      <g>
       <use style="fill:#262626;stroke:#262626;stroke-width:0.6;" x="25.1024" xlink:href="#m385838efcf" y="50.371409"/>
      </g>
     </g>
    </g>
    <g id="ytick_40">
     <g id="line2d_44">
      <g>
       <use style="fill:#262626;stroke:#262626;stroke-width:0.6;" x="25.1024" xlink:href="#m385838efcf" y="47.891627"/>
      </g>
     </g>
    </g>
    <g id="ytick_41">
     <g id="line2d_45">
      <g>
       <use style="fill:#262626;stroke:#262626;stroke-width:0.6;" x="25.1024" xlink:href="#m385838efcf" y="45.795001"/>
      </g>
     </g>
    </g>
    <g id="ytick_42">
     <g id="line2d_46">
      <g>
       <use style="fill:#262626;stroke:#262626;stroke-width:0.6;" x="25.1024" xlink:href="#m385838efcf" y="43.978821"/>
      </g>
     </g>
    </g>
    <g id="ytick_43">
     <g id="line2d_47">
      <g>
       <use style="fill:#262626;stroke:#262626;stroke-width:0.6;" x="25.1024" xlink:href="#m385838efcf" y="42.376837"/>
      </g>
     </g>
    </g>
    <g id="ytick_44">
     <g id="line2d_48">
      <g>
       <use style="fill:#262626;stroke:#262626;stroke-width:0.6;" x="25.1024" xlink:href="#m385838efcf" y="31.516216"/>
      </g>
     </g>
    </g>
    <g id="ytick_45">
     <g id="line2d_49">
      <g>
       <use style="fill:#262626;stroke:#262626;stroke-width:0.6;" x="25.1024" xlink:href="#m385838efcf" y="26.001426"/>
      </g>
     </g>
    </g>
    <g id="ytick_46">
     <g id="line2d_50">
      <g>
       <use style="fill:#262626;stroke:#262626;stroke-width:0.6;" x="25.1024" xlink:href="#m385838efcf" y="22.088619"/>
      </g>
     </g>
    </g>
    <g id="ytick_47">
     <g id="line2d_51">
      <g>
       <use style="fill:#262626;stroke:#262626;stroke-width:0.6;" x="25.1024" xlink:href="#m385838efcf" y="19.053611"/>
      </g>
     </g>
    </g>
    <g id="ytick_48">
     <g id="line2d_52">
      <g>
       <use style="fill:#262626;stroke:#262626;stroke-width:0.6;" x="25.1024" xlink:href="#m385838efcf" y="16.573829"/>
      </g>
     </g>
    </g>
    <g id="ytick_49">
     <g id="line2d_53">
      <g>
       <use style="fill:#262626;stroke:#262626;stroke-width:0.6;" x="25.1024" xlink:href="#m385838efcf" y="14.477203"/>
      </g>
     </g>
    </g>
    <g id="ytick_50">
     <g id="line2d_54">
      <g>
       <use style="fill:#262626;stroke:#262626;stroke-width:0.6;" x="25.1024" xlink:href="#m385838efcf" y="12.661023"/>
      </g>
     </g>
    </g>
    <g id="ytick_51">
     <g id="line2d_55">
      <g>
       <use style="fill:#262626;stroke:#262626;stroke-width:0.6;" x="25.1024" xlink:href="#m385838efcf" y="11.059038"/>
      </g>
     </g>
    </g>
    <g id="text_2">
     <!-- Bacteria in bladder -->
     <defs>
      <path d="M 24.703125 5.171875 
L 39.3125 5.171875 
Q 48.09375 5.171875 52.140625 8.984375 
Q 56.203125 12.796875 56.203125 21.09375 
Q 56.203125 29.34375 52.171875 33.125 
Q 48.140625 36.921875 39.3125 36.921875 
L 24.703125 36.921875 
z
M 24.703125 42.09375 
L 37.109375 42.09375 
Q 45.125 42.09375 48.796875 45.171875 
Q 52.484375 48.25 52.484375 54.890625 
Q 52.484375 61.578125 48.796875 64.625 
Q 45.125 67.671875 37.109375 67.671875 
L 24.703125 67.671875 
z
M 5.515625 0 
L 5.515625 5.171875 
L 14.796875 5.171875 
L 14.796875 67.671875 
L 5.515625 67.671875 
L 5.515625 72.90625 
L 41.5 72.90625 
Q 52.546875 72.90625 58.125 68.390625 
Q 63.71875 63.875 63.71875 54.890625 
Q 63.71875 48.390625 59.828125 44.53125 
Q 55.953125 40.671875 48.484375 39.796875 
Q 57.765625 38.625 62.578125 33.859375 
Q 67.390625 29.109375 67.390625 21.09375 
Q 67.390625 10.25 60.546875 5.125 
Q 53.71875 0 39.203125 0 
z
" id="DejaVuSerif-66"/>
      <path d="M 39.796875 16.3125 
L 39.796875 27.296875 
L 28.21875 27.296875 
Q 21.53125 27.296875 18.25 24.40625 
Q 14.984375 21.53125 14.984375 15.578125 
Q 14.984375 10.15625 18.296875 6.984375 
Q 21.625 3.8125 27.296875 3.8125 
Q 32.90625 3.8125 36.34375 7.28125 
Q 39.796875 10.75 39.796875 16.3125 
z
M 48.78125 32.421875 
L 48.78125 5.171875 
L 56.78125 5.171875 
L 56.78125 0 
L 39.796875 0 
L 39.796875 5.609375 
Q 36.8125 2 32.90625 0.28125 
Q 29 -1.421875 23.78125 -1.421875 
Q 15.140625 -1.421875 10.0625 3.171875 
Q 4.984375 7.765625 4.984375 15.578125 
Q 4.984375 23.640625 10.796875 28.078125 
Q 16.609375 32.515625 27.203125 32.515625 
L 39.796875 32.515625 
L 39.796875 36.078125 
Q 39.796875 42 36.203125 45.234375 
Q 32.625 48.484375 26.125 48.484375 
Q 20.75 48.484375 17.578125 46.046875 
Q 14.40625 43.609375 13.625 38.8125 
L 8.984375 38.8125 
L 8.984375 49.3125 
Q 13.671875 51.3125 18.09375 52.3125 
Q 22.515625 53.328125 26.703125 53.328125 
Q 37.5 53.328125 43.140625 47.96875 
Q 48.78125 42.625 48.78125 32.421875 
z
" id="DejaVuSerif-97"/>
      <path d="M 11.53125 5.171875 
L 11.53125 70.796875 
L 2.875 70.796875 
L 2.875 75.984375 
L 20.515625 75.984375 
L 20.515625 43.796875 
Q 23.140625 48.6875 27.21875 51 
Q 31.296875 53.328125 37.3125 53.328125 
Q 46.875 53.328125 52.921875 45.75 
Q 58.984375 38.1875 58.984375 25.984375 
Q 58.984375 13.765625 52.921875 6.171875 
Q 46.875 -1.421875 37.3125 -1.421875 
Q 31.296875 -1.421875 27.21875 0.890625 
Q 23.140625 3.21875 20.515625 8.109375 
L 20.515625 0 
L 2.875 0 
L 2.875 5.171875 
z
M 20.515625 23.390625 
Q 20.515625 14.015625 24.09375 9.109375 
Q 27.6875 4.203125 34.515625 4.203125 
Q 41.40625 4.203125 44.9375 9.71875 
Q 48.484375 15.234375 48.484375 25.984375 
Q 48.484375 36.765625 44.9375 42.234375 
Q 41.40625 47.703125 34.515625 47.703125 
Q 27.6875 47.703125 24.09375 42.765625 
Q 20.515625 37.84375 20.515625 28.515625 
z
" id="DejaVuSerif-98"/>
      <path d="M 20.515625 5.171875 
L 29 5.171875 
L 29 0 
L 2.875 0 
L 2.875 5.171875 
L 11.53125 5.171875 
L 11.53125 70.796875 
L 2.875 70.796875 
L 2.875 75.984375 
L 20.515625 75.984375 
z
" id="DejaVuSerif-108"/>
     </defs>
     <g style="fill:#262626;" transform="translate(13.106775 160.331862)rotate(-90)scale(0.12 -0.12)">
      <use xlink:href="#DejaVuSerif-66"/>
      <use x="73.486328" xlink:href="#DejaVuSerif-97"/>
      <use x="133.105469" xlink:href="#DejaVuSerif-99"/>
      <use x="189.111328" xlink:href="#DejaVuSerif-116"/>
      <use x="229.296875" xlink:href="#DejaVuSerif-101"/>
      <use x="288.476562" xlink:href="#DejaVuSerif-114"/>
      <use x="336.279297" xlink:href="#DejaVuSerif-105"/>
      <use x="368.261719" xlink:href="#DejaVuSerif-97"/>
      <use x="427.880859" xlink:href="#DejaVuSerif-32"/>
      <use x="459.667969" xlink:href="#DejaVuSerif-105"/>
      <use x="491.650391" xlink:href="#DejaVuSerif-110"/>
      <use x="556.054688" xlink:href="#DejaVuSerif-32"/>
      <use x="587.841797" xlink:href="#DejaVuSerif-98"/>
      <use x="651.855469" xlink:href="#DejaVuSerif-108"/>
      <use x="683.837891" xlink:href="#DejaVuSerif-97"/>
      <use x="743.457031" xlink:href="#DejaVuSerif-100"/>
      <use x="807.470703" xlink:href="#DejaVuSerif-100"/>
      <use x="871.484375" xlink:href="#DejaVuSerif-101"/>
      <use x="930.664062" xlink:href="#DejaVuSerif-114"/>
     </g>
    </g>
   </g>
   <g id="line2d_56">
    <path clip-path="url(#pd9fda685a8)" d="M 91.621081 198.3208 
L 91.621081 4.9248 
" style="fill:none;stroke:#ffb380;stroke-dasharray:5.55,2.4;stroke-dashoffset:0;stroke-width:1.5;"/>
   </g>
   <g id="PathCollection_1">
    <defs>
     <path d="M 0 3 
C 0.795609 3 1.55874 2.683901 2.12132 2.12132 
C 2.683901 1.55874 3 0.795609 3 0 
C 3 -0.795609 2.683901 -1.55874 2.12132 -2.12132 
C 1.55874 -2.683901 0.795609 -3 0 -3 
C -0.795609 -3 -1.55874 -2.683901 -2.12132 -2.12132 
C -2.683901 -1.55874 -3 -0.795609 -3 0 
C -3 0.795609 -2.683901 1.55874 -2.12132 2.12132 
C -1.55874 2.683901 -0.795609 3 0 3 
z
" id="m2d5faaeb76" style="stroke:#8dd35f;"/>
    </defs>
    <g clip-path="url(#pd9fda685a8)">
     <use style="fill:#8dd35f;stroke:#8dd35f;" x="33.77875" xlink:href="#m2d5faaeb76" y="13.715527"/>
     <use style="fill:#8dd35f;stroke:#8dd35f;" x="38.736664" xlink:href="#m2d5faaeb76" y="14.704837"/>
     <use style="fill:#8dd35f;stroke:#8dd35f;" x="43.694578" xlink:href="#m2d5faaeb76" y="15.771792"/>
     <use style="fill:#8dd35f;stroke:#8dd35f;" x="48.652492" xlink:href="#m2d5faaeb76" y="16.929601"/>
     <use style="fill:#8dd35f;stroke:#8dd35f;" x="53.610406" xlink:href="#m2d5faaeb76" y="18.195243"/>
     <use style="fill:#8dd35f;stroke:#8dd35f;" x="58.56832" xlink:href="#m2d5faaeb76" y="19.590856"/>
     <use style="fill:#8dd35f;stroke:#8dd35f;" x="63.526234" xlink:href="#m2d5faaeb76" y="21.146189"/>
     <use style="fill:#8dd35f;stroke:#8dd35f;" x="68.484149" xlink:href="#m2d5faaeb76" y="22.902624"/>
     <use style="fill:#8dd35f;stroke:#8dd35f;" x="73.442063" xlink:href="#m2d5faaeb76" y="24.920037"/>
     <use style="fill:#8dd35f;stroke:#8dd35f;" x="78.399977" xlink:href="#m2d5faaeb76" y="27.289591"/>
     <use style="fill:#8dd35f;stroke:#8dd35f;" x="83.357891" xlink:href="#m2d5faaeb76" y="30.160975"/>
     <use style="fill:#8dd35f;stroke:#8dd35f;" x="88.315805" xlink:href="#m2d5faaeb76" y="33.805213"/>
     <use style="fill:#8dd35f;stroke:#8dd35f;" x="93.273719" xlink:href="#m2d5faaeb76" y="38.798039"/>
     <use style="fill:#8dd35f;stroke:#8dd35f;" x="98.231633" xlink:href="#m2d5faaeb76" y="46.768347"/>
     <use style="fill:#8dd35f;stroke:#8dd35f;" x="100.71059" xlink:href="#m2d5faaeb76" y="53.675335"/>
     <use style="fill:#8dd35f;stroke:#8dd35f;" x="103.189547" xlink:href="#m2d5faaeb76" y="68.338234"/>
     <use style="fill:#8dd35f;stroke:#8dd35f;" x="105.668504" xlink:href="#m2d5faaeb76" y="129.36357"/>
     <use style="fill:#8dd35f;stroke:#8dd35f;" x="108.147461" xlink:href="#m2d5faaeb76" y="144.316129"/>
     <use style="fill:#8dd35f;stroke:#8dd35f;" x="113.105376" xlink:href="#m2d5faaeb76" y="155.869081"/>
     <use style="fill:#8dd35f;stroke:#8dd35f;" x="118.06329" xlink:href="#m2d5faaeb76" y="162.026362"/>
     <use style="fill:#8dd35f;stroke:#8dd35f;" x="123.021204" xlink:href="#m2d5faaeb76" y="166.249706"/>
     <use style="fill:#8dd35f;stroke:#8dd35f;" x="127.979118" xlink:href="#m2d5faaeb76" y="169.467751"/>
     <use style="fill:#8dd35f;stroke:#8dd35f;" x="132.937032" xlink:href="#m2d5faaeb76" y="172.068248"/>
     <use style="fill:#8dd35f;stroke:#8dd35f;" x="145.331817" xlink:href="#m2d5faaeb76" y="176.98126"/>
     <use style="fill:#8dd35f;stroke:#8dd35f;" x="157.726603" xlink:href="#m2d5faaeb76" y="180.582917"/>
     <use style="fill:#8dd35f;stroke:#8dd35f;" x="170.121388" xlink:href="#m2d5faaeb76" y="183.427749"/>
     <use style="fill:#8dd35f;stroke:#8dd35f;" x="182.516173" xlink:href="#m2d5faaeb76" y="185.779248"/>
     <use style="fill:#8dd35f;stroke:#8dd35f;" x="194.910959" xlink:href="#m2d5faaeb76" y="187.783565"/>
     <use style="fill:#8dd35f;stroke:#8dd35f;" x="207.305744" xlink:href="#m2d5faaeb76" y="189.530073"/>
    </g>
   </g>
   <g id="line2d_57">
    <path clip-path="url(#pd9fda685a8)" d="M 33.77875 13.715527 
L 38.736664 14.704837 
L 43.694578 15.771792 
L 48.652492 16.929601 
L 53.610406 18.195243 
L 58.56832 19.590856 
L 63.526234 21.146189 
L 68.484149 22.902624 
L 73.442063 24.920037 
L 78.399977 27.289591 
L 83.357891 30.160975 
L 88.315805 33.805213 
L 93.273719 38.798039 
L 98.231633 46.768347 
L 100.71059 53.675335 
L 103.189547 68.338234 
L 105.668504 129.36357 
L 108.147461 144.316129 
L 113.105376 155.869081 
L 118.06329 162.026362 
L 123.021204 166.249706 
L 127.979118 169.467751 
L 132.937032 172.068248 
L 145.331817 176.98126 
L 157.726603 180.582917 
L 170.121388 183.427749 
L 182.516173 185.779248 
L 194.910959 187.783565 
L 207.305744 189.530073 
" style="fill:none;stroke:#447821;stroke-linecap:round;stroke-width:1.5;"/>
   </g>
   <g id="patch_3">
    <path d="M 25.1024 198.3208 
L 25.1024 4.9248 
" style="fill:none;stroke:#262626;stroke-linecap:square;stroke-linejoin:miter;stroke-width:0.8;"/>
   </g>
   <g id="patch_4">
    <path d="M 25.1024 198.3208 
L 215.982094 198.3208 
" style="fill:none;stroke:#262626;stroke-linecap:square;stroke-linejoin:miter;stroke-width:0.8;"/>
   </g>
   <g id="patch_5">
    <path d="M 114.26747 24.671081 
Q 110.362433 24.562881 106.457396 24.45468 
L 106.346606 28.453145 
Q 100.430691 25.288076 94.514776 22.123007 
Q 100.596875 19.290378 106.678974 16.457749 
L 106.568185 20.456215 
Q 110.473222 20.564415 114.378259 20.672616 
L 114.26747 24.671081 
z
" style="fill:#ffb380;stroke:#ffffff;stroke-linecap:round;"/>
   </g>
   <g id="text_3">
    <!-- Typical patient -->
    <defs>
     <path d="M 19.09375 0 
L 19.09375 5.171875 
L 28.421875 5.171875 
L 28.421875 67.09375 
L 6.984375 67.09375 
L 6.984375 55.71875 
L 0.984375 55.71875 
L 0.984375 72.90625 
L 65.71875 72.90625 
L 65.71875 55.71875 
L 59.71875 55.71875 
L 59.71875 67.09375 
L 38.28125 67.09375 
L 38.28125 5.171875 
L 47.609375 5.171875 
L 47.609375 0 
z
" id="DejaVuSerif-84"/>
     <path d="M 21.578125 -9.515625 
L 25 -0.875 
L 5.609375 46.6875 
L -0.296875 46.6875 
L -0.296875 51.90625 
L 23.578125 51.90625 
L 23.578125 46.6875 
L 15.28125 46.6875 
L 29.890625 10.984375 
L 44.484375 46.6875 
L 36.71875 46.6875 
L 36.71875 51.90625 
L 56.203125 51.90625 
L 56.203125 46.6875 
L 50.390625 46.6875 
L 26.609375 -11.71875 
Q 24.171875 -17.78125 21.1875 -20 
Q 18.21875 -22.21875 12.796875 -22.21875 
Q 10.5 -22.21875 8.078125 -21.828125 
Q 5.671875 -21.4375 3.21875 -20.703125 
L 3.21875 -10.796875 
L 7.8125 -10.796875 
Q 8.109375 -14.109375 9.5 -15.546875 
Q 10.890625 -17 13.8125 -17 
Q 16.5 -17 18.140625 -15.5 
Q 19.78125 -14.015625 21.578125 -9.515625 
z
" id="DejaVuSerif-121"/>
    </defs>
    <g style="fill:#ffb380;" transform="translate(118.06329 26.001426)scale(0.12 -0.12)">
     <use xlink:href="#DejaVuSerif-84"/>
     <use x="66.699219" xlink:href="#DejaVuSerif-121"/>
     <use x="123.193359" xlink:href="#DejaVuSerif-112"/>
     <use x="187.207031" xlink:href="#DejaVuSerif-105"/>
     <use x="219.189453" xlink:href="#DejaVuSerif-99"/>
     <use x="275.195312" xlink:href="#DejaVuSerif-97"/>
     <use x="334.814453" xlink:href="#DejaVuSerif-108"/>
     <use x="366.796875" xlink:href="#DejaVuSerif-32"/>
     <use x="398.583984" xlink:href="#DejaVuSerif-112"/>
     <use x="462.597656" xlink:href="#DejaVuSerif-97"/>
     <use x="522.216797" xlink:href="#DejaVuSerif-116"/>
     <use x="562.402344" xlink:href="#DejaVuSerif-105"/>
     <use x="594.384766" xlink:href="#DejaVuSerif-101"/>
     <use x="653.564453" xlink:href="#DejaVuSerif-110"/>
     <use x="717.96875" xlink:href="#DejaVuSerif-116"/>
    </g>
   </g>
  </g>
 </g>
 <defs>
  <clipPath id="pd9fda685a8">
   <rect height="193.396" width="190.879694" x="25.1024" y="4.9248"/>
  </clipPath>
 </defs>
</svg>
